<svg width="338" height="673" viewBox="0 0 338 673" fill="none" xmlns="http://www.w3.org/2000/svg">
<g opacity="0.2">
<path d="M246.672 186.809C248.274 192.788 248.131 200.481 246.02 211.239C240.149 239.863 209.14 275.911 176.336 313.988C158.332 334.939 139.702 356.574 125.206 377.188C97.5665 409.021 84.6671 453.892 72.148 497.328C63.0164 529.062 54.3577 559.035 40.4883 584.168L40.457 584.22C29.5357 603.23 16.9786 614.121 2.09552 617.507C-26.9462 624.127 -60.5811 601.014 -99.5248 574.206L-103.271 571.64C-132.252 551.796 -170.466 527.373 -227.127 492.367L-231.801 489.362C-281.137 457.683 -342.543 418.229 -389.4 358.362C-492.276 240.869 -472.43 108.597 -426.542 56.2204C-371.641 -0.292219 -301.356 -15.5124 -157.791 -2.02954C-8.07162 12.2559 127.28 96.4912 178.51 132.049C196.397 147.426 210.932 156.175 221.544 162.535C234.961 170.637 243.748 175.895 246.672 186.809ZM35.5128 581.717C49.0806 557.137 57.6361 527.45 66.7171 496.031C79.3697 452.086 92.465 406.603 120.731 374.086C135.216 353.433 153.951 331.683 172.028 310.669C204.341 273.111 234.87 237.622 240.487 210.399C245.675 183.593 238.808 179.455 218.418 167.157C207.638 160.67 192.839 151.777 174.836 136.302C124.177 101.193 -10.1629 17.5469 -158.546 3.37671C-300.04 -9.93014 -369.098 4.83225 -422.443 59.7666C-466.942 110.61 -485.977 239.697 -385.048 354.96C-338.626 414.212 -277.652 453.395 -228.685 484.871L-224.022 487.836C-167.309 522.871 -129.041 547.323 -99.9976 567.237L-96.2511 569.802C-58.4049 595.873 -25.7094 618.334 0.834505 612.297C14.1011 609.258 25.4129 599.26 35.5128 581.717Z" fill="#A7CEFC"/>
<path d="M210.828 205.144C213.043 213.409 212.616 222.899 210.931 236.252L210.911 236.516C204.974 262.878 180.622 289.014 154.87 316.643C137.253 335.512 119.093 355.043 104.487 376.589C79.8514 408.048 63.6592 443.652 47.9957 478.039C37.4984 501.151 27.5611 522.994 15.4579 542.966L15.1974 543.337C-21.5762 587.251 -47.6622 569.814 -95.0428 538.213C-100.192 534.776 -105.616 531.155 -111.388 527.412C-121.503 519.715 -132.672 511.612 -144.516 503.002C-197.181 464.775 -269.301 412.366 -338.587 329.738C-415.721 226.721 -406.2 128.61 -362.578 77.0122C-316.711 24.7266 -245.589 21.1947 -122.034 33.0295C3.85532 48.5394 99.8626 112.697 151.433 147.174L157.184 151.009C192.185 177.54 206.527 189.094 210.828 205.144ZM205.356 235.596C209.898 199.157 205.214 194.434 153.805 155.355L148.212 151.607C97.0321 117.412 1.74257 53.7501 -122.717 38.3731C-244.2 26.7143 -314.041 29.9891 -358.217 80.3593C-400.441 130.292 -409.368 225.749 -334.046 326.371C-265.279 408.406 -193.454 460.551 -141.042 498.673C-129.198 507.283 -118.029 515.386 -107.978 523.014C-102.364 526.671 -96.9403 530.292 -91.7486 533.718C-44.3153 565.347 -22.6193 579.833 10.7429 540.144C22.6168 520.491 32.4293 498.853 42.8544 475.976C58.6105 441.263 74.9588 405.402 99.8971 373.562C114.628 351.81 132.965 332.103 150.718 313.068C175.874 286.071 199.663 260.517 205.356 235.596Z" fill="#A7CEFC"/>
<path d="M180.99 220.708C183.817 231.261 182.495 242.109 179.048 256.106C171.666 279.931 149.484 303.422 126.048 328.28C112.096 343.028 97.7046 358.323 85.1492 374.761C64.8706 398.473 49.0511 424.386 33.7095 449.398C21.1263 469.929 9.27182 489.319 -3.94641 505.633L-4.15531 505.861C-40.2435 541.421 -66.7841 521.782 -114.988 486.102L-115.548 485.693L-123.797 478.915C-170.631 440.287 -234.788 387.378 -292.584 306.832C-356.224 210.521 -338.295 133.553 -303.674 96.8814C-266.756 57.7023 -205.569 48.4892 -92.4852 65.065C-13.308 77.9962 64.131 112.982 137.671 169.011C164.384 191.14 176.947 205.621 180.99 220.708ZM-8.30726 502.286C4.62895 486.262 16.4005 467.067 28.8169 446.752C44.2413 421.547 60.2385 395.456 80.684 371.528C93.291 354.947 107.839 339.567 121.896 324.704C144.925 300.342 166.647 277.32 173.617 254.809C181.539 222.926 177.536 209.162 134.028 173.212C61.2381 117.8 -15.3369 83.1845 -93.5251 70.4183C-204.452 54.1678 -264.161 62.8557 -299.606 100.479C-335.522 138.53 -345.859 216.13 -287.946 303.826C-230.595 383.717 -166.776 436.373 -120.132 474.794L-111.545 481.825C-63.0036 517.759 -40.7808 534.211 -8.30726 502.286Z" fill="#A7CEFC"/>
<path d="M153.12 232.217C156.281 244.014 155.009 256.224 150.01 270.809L149.989 270.901C141.631 293.095 120.552 314.828 98.2826 337.825C87.9521 348.463 77.319 359.483 67.4456 370.988C52.6897 386.769 39.5994 403.393 26.9893 419.459C11.4898 439.18 -3.1646 457.858 -18.5528 471.614C-51.9148 497.369 -77.708 479.681 -116.326 447.539C-153.714 413.777 -208.318 360.759 -251.293 289.359C-286.994 219.751 -289.06 161 -257.197 123.777C-222.881 83.6175 -154.262 72.9291 -68.9158 94.4429C30.0942 114.403 99.7175 169.244 118.671 185.583C138.136 203.16 149.142 217.371 153.12 232.217ZM144.682 269.227C153.977 241.964 151.888 223.086 114.807 189.629C96.149 173.555 27.4338 119.416 -70.3344 99.7257C-153.554 78.7603 -220.065 88.7548 -252.867 127.175C-283.217 162.659 -280.859 219.311 -246.274 286.767C-203.724 357.421 -149.533 410.076 -112.451 443.533C-72.7235 476.625 -50.8356 489.812 -22.0977 467.618C-7.26387 454.311 7.22371 435.85 22.5875 416.295C35.3021 400.115 48.4128 383.399 63.2839 367.545C73.1465 356 83.9055 344.946 94.2673 334.256C116.055 311.646 136.706 290.329 144.682 269.227Z" fill="#A7CEFC"/>
<path d="M127.333 241.408C130.688 253.927 129.282 266.646 123.504 281.011L123.296 281.41C87.0849 340.183 -9.4299 424.059 -28.3873 440.277L-28.8479 440.572C-57.82 457.023 -81.0229 443.629 -113.693 413.205C-143.149 384.198 -184.412 336.982 -213.951 276.603C-239.323 220.527 -238.085 173.104 -210.477 142.999C-179.799 109.577 -121.673 101.701 -51 121.34C16.3397 137.271 71.2052 172.629 100.065 200.419C114.867 215.031 123.774 228.127 127.333 241.408ZM118.363 278.948C129.306 251.459 123.246 231.193 96.021 204.298C67.7002 177.009 13.774 142.302 -52.5661 126.576C-120.175 107.793 -177.6 115.267 -206.294 146.523C-232.377 174.929 -233.302 220.333 -208.815 274.281C-179.606 333.931 -138.756 380.613 -109.649 409.326C-78.4055 438.455 -57.7431 450.594 -31.8073 436.076C22.6494 389.488 90.623 323.839 118.363 278.948Z" fill="#A7CEFC"/>
<path d="M103.611 250.087C107.202 263.489 105.651 276.333 98.981 287.539C72.7643 332.236 7.39608 388.973 -34.9166 411.879C-44.8948 416.445 -55.7716 416.65 -67.2941 412.599C-102.81 400.096 -145.017 346.166 -180.19 268.288C-197.159 223.593 -193.455 185.874 -169.762 161.979C-142.914 134.916 -94.8327 129.172 -37.9018 146.215C34.4285 168.851 86.4516 205.185 101.364 243.378C102.281 245.626 103.02 247.88 103.611 250.087ZM-180.494 249.189C-179.01 254.726 -177.179 260.385 -174.958 266.155C-140.445 342.575 -99.4109 395.487 -65.2545 407.451C-55.1223 411.015 -45.7587 410.871 -37.3842 407.036C4.05891 384.578 68.382 328.809 94.1304 284.882C101.008 273.277 101.703 259.586 96.1312 245.339C81.7953 208.626 31.0299 173.46 -39.6788 151.335C-93.672 135.183 -140.789 140.496 -165.725 165.628C-184.811 184.891 -189.88 214.16 -180.494 249.189Z" fill="#A7CEFC"/>
<path d="M80.1932 255.027C83.5262 267.466 82.2641 279.545 76.4114 290.273C55.6631 328.517 2.06683 373.112 -38.2589 385.637L-38.3428 385.66C-75.8548 395.926 -122.703 344.486 -149.656 263.374C-159.945 228.5 -154.666 199.175 -134.692 180.706C-111.803 159.521 -73.2761 155.391 -28.9549 169.362C25.0359 186.848 64.9194 216.157 77.764 247.808C78.7352 250.257 79.5589 252.66 80.1932 255.027ZM-39.8244 380.466C-0.715952 368.266 51.3013 324.998 71.4359 287.822C77.6212 276.488 77.984 263.403 72.5215 249.901C60.2427 219.689 21.606 191.509 -30.8578 174.516C-73.1151 161.196 -109.605 164.867 -130.906 184.595C-149.249 201.594 -154.067 228.947 -144.337 261.734C-118.734 338.649 -73.7795 389.736 -39.8244 380.466Z" fill="#A7CEFC"/>
<path d="M57.8403 259.081C60.7539 269.955 59.872 280.599 55.1269 290.257C38.6091 324.142 -4.50775 356.639 -39.0686 361.298C-72.3831 365.235 -108.791 321.363 -121.973 261.59C-127.366 235.253 -121.319 213.162 -105.006 199.33C-86.3092 183.482 -56.6571 180.483 -23.696 191.175C14.9316 203.876 44.4008 226.385 55.1454 251.374C56.2855 253.95 57.1522 256.513 57.8403 259.081ZM-114.222 269.533C-100.18 321.937 -68.4354 359.318 -39.6581 355.908C-7.39703 351.564 34.537 319.857 50.0793 288.04C55.1872 277.554 55.1472 265.652 49.9664 253.536C39.808 229.895 11.5438 208.526 -25.6096 196.29C-56.6015 186.231 -84.2067 188.811 -101.366 203.343C-116.069 215.798 -121.433 236.072 -116.494 260.38C-115.761 263.452 -115.028 266.524 -114.222 269.533Z" fill="#A7CEFC"/>
<path d="M36.38 262.596C38.7239 271.343 38.2084 279.996 34.8305 288.04C23.0901 315.915 -9.49193 338.536 -37.8067 338.468C-65.8599 338.2 -91.6642 304.689 -96.5543 262.262C-98.5911 243.412 -92.7478 227.612 -80.0897 217.769C-65.7579 206.618 -44.372 204.5 -21.4151 211.939C4.81731 220.521 24.8277 236.103 33.4528 254.693C34.6875 257.286 35.6705 259.947 36.38 262.596ZM-37.6396 333.047C-11.9313 333.126 18.8813 311.624 29.6374 286.12C33.4611 277.054 33.0116 266.982 28.348 256.964C20.4156 239.952 1.11312 224.997 -23.2975 217.002C-44.3799 210.179 -63.7813 211.98 -76.5965 221.908C-87.696 230.516 -92.7822 244.608 -90.9463 261.534C-86.475 300.718 -62.5397 332.795 -37.6396 333.047Z" fill="#A7CEFC"/>
<path d="M15.5561 265.809C17.1796 271.868 17.1124 278.165 14.9628 284.246C7.93794 304.534 -14.5919 319.172 -35.2159 316.915C-55.7667 314.594 -72.7759 291.241 -73.1136 264.797C-73.2817 252.585 -68.4246 242.338 -59.5189 235.952C-49.7025 228.935 -35.88 227.468 -21.6435 231.911C-2.08915 238.068 11.6641 251.284 15.5561 265.809ZM9.67713 282.651C15.7414 265.157 0.904088 244.706 -23.4625 237.043C-35.9299 233.158 -47.9046 234.303 -56.2032 240.268C-63.6021 245.562 -67.628 254.209 -67.4917 264.623C-67.1695 288.491 -52.3497 309.55 -34.4494 311.548C-16.3285 313.531 3.45781 300.574 9.67713 282.651Z" fill="#A7CEFC"/>
<path d="M-4.79197 269.284C-3.91035 272.574 -3.84776 275.998 -4.74182 279.377C-7.80424 290.949 -19.9398 298.544 -31.8405 296.271C-43.5937 294.045 -52.2762 281.62 -51.1667 268.636C-50.6367 262.387 -47.6415 257.112 -42.6688 253.844C-37.4346 250.378 -30.4717 249.501 -23.5966 251.486C-13.8786 254.344 -6.93152 261.299 -4.79197 269.284ZM-44.8549 276.578C-42.9089 283.841 -37.4187 289.724 -30.5897 291.033C-21.6354 292.72 -12.463 286.994 -10.1826 278.211C-7.84942 269.458 -14.6655 259.802 -25.3413 256.728C-30.6582 255.185 -35.6786 255.756 -39.5728 258.348C-43.0902 260.666 -45.222 264.463 -45.6148 269.041C-45.778 271.622 -45.5 274.171 -44.8549 276.578Z" fill="#A7CEFC"/>
</g>
</svg>
