<svg width="516" height="39" viewBox="0 0 516 39" fill="none" xmlns="http://www.w3.org/2000/svg">
<path d="M482.405 19.3688C481.703 19.4014 480.993 19.4246 480.305 19.4724C479.859 19.5024 479.666 19.419 479.367 19.3761C479.267 19.3611 479.16 19.3309 479.068 19.335C478.373 19.3676 477.678 19.404 476.983 19.4405C476.771 19.5155 476.637 19.615 476.311 19.6523C475.992 19.6876 475.616 19.6887 475.262 19.7069C474.793 19.7293 474.325 19.7517 473.857 19.7722C473.623 19.7824 473.432 19.8193 473.355 19.8881C473.341 19.8996 473.497 19.9278 473.583 19.9447C473.867 20.001 474.145 20.065 474.458 20.108C474.757 20.149 475.125 20.0792 475.446 20.1317C476.164 20.2497 476.171 20.2477 476.718 20.2232C477.186 20.2008 477.654 20.1765 478.122 20.1599C478.215 20.1558 478.322 20.1841 478.421 20.199C478.72 20.2401 478.913 20.3349 479.353 20.2973C479.686 20.2677 480.055 20.2609 480.403 20.2445C480.694 20.299 480.965 20.3611 481.278 20.404C481.57 20.4451 481.656 20.4773 481.5 20.5331C481.359 20.585 481.161 20.6066 480.898 20.6112C480.664 20.6138 480.43 20.6316 480.196 20.6419C480.075 20.6479 479.961 20.6521 479.848 20.6582C479.401 20.6805 479.401 20.6805 478.583 20.5609C478.263 20.5142 477.902 20.582 477.596 20.5372C477.389 20.5073 477.211 20.4621 477.012 20.4302C476.926 20.4171 476.792 20.4156 476.685 20.4198C476.33 20.4342 475.976 20.4448 475.635 20.4706C475.394 20.4885 475.253 20.5423 475.282 20.5956C475.29 20.6166 475.46 20.6466 475.56 20.6482C475.787 20.6513 476.028 20.6239 476.248 20.6366C476.461 20.6493 476.682 20.6868 476.839 20.7283C477.16 20.815 477.521 20.7358 477.826 20.7577C478.146 20.7816 478.41 20.8571 478.716 20.9019C478.794 20.9131 478.943 20.8936 479.063 20.8875C479.411 20.8731 479.759 20.8606 480.107 20.8462C480.398 20.9007 480.712 20.9493 480.975 21.0114C481.453 21.1244 481.964 21.1667 482.581 21.1096C482.929 21.078 483.269 21.0884 483.547 21.162C483.832 21.2374 484.159 21.2288 484.521 21.2125C484.854 21.1962 485.194 21.1532 485.536 21.2056C486.276 21.3216 486.283 21.3273 487.156 21.2789C487.418 21.2648 487.617 21.2604 487.816 21.3036C488.001 21.3431 488.201 21.3768 488.393 21.4144C488.741 21.4 489.095 21.3856 489.443 21.3693C489.89 21.347 490.139 21.3729 490.247 21.4794C490.312 21.544 490.341 21.6031 490.498 21.6465C490.683 21.6993 490.882 21.6968 491.152 21.6807C491.407 21.6666 491.591 21.6451 491.697 21.5761C491.739 21.5474 491.824 21.5204 491.901 21.4973C491.965 21.4799 492.064 21.4529 492.121 21.4566C492.227 21.4639 492.37 21.4844 492.406 21.5091C492.757 21.7388 492.757 21.7408 493.113 21.8064C493.504 21.8796 493.91 21.9452 494.266 22.028C494.587 22.1014 494.906 22.068 495.254 22.067C495.516 22.0662 495.688 22.1153 495.667 22.1649C495.653 22.1936 495.555 22.2358 495.469 22.2399C494.774 22.2801 494.072 22.3147 493.37 22.3435C493.284 22.3476 493.178 22.3136 493.078 22.2967C492.879 22.263 492.7 22.2101 492.487 22.1993C492.274 22.1885 492.026 22.2178 491.792 22.2281C491.558 22.2383 491.31 22.2639 491.096 22.2493C490.883 22.2347 490.712 22.1798 490.513 22.1442C490.42 22.1273 490.292 22.1029 490.214 22.1089C489.696 22.1562 489.312 22.0944 488.942 22.0116C488.863 21.9947 488.728 21.9837 488.629 21.9878C487.806 22.0227 486.99 22.0633 486.167 22.102C485.834 22.1182 485.563 22.0523 485.49 21.94C485.454 21.8772 485.382 21.8145 485.381 21.7515C485.379 21.6371 484.988 21.5753 484.704 21.5895C484.236 21.61 483.76 21.6267 483.299 21.6567C482.924 21.6807 482.604 21.6588 482.347 21.5909C482.048 21.5136 481.707 21.5299 481.367 21.5519C481.111 21.5679 481.041 21.6311 481.058 21.7893C481.074 21.9171 480.954 21.9575 480.493 21.9799C479.911 22.0083 479.322 22.0368 478.733 22.0595C478.641 22.0636 478.534 22.0315 478.442 22.0146C478.242 21.9809 478.064 21.9261 477.851 21.9153C477.638 21.9026 477.39 21.932 477.156 21.9441C476.922 21.9544 476.673 21.9818 476.46 21.9691C476.247 21.9564 476.069 21.8997 475.876 21.8641C475.784 21.8472 475.67 21.8227 475.578 21.8268C475.11 21.8435 474.641 21.8678 474.173 21.8902C473.648 21.9147 473.648 21.9147 472.901 21.7987C472.559 21.7463 472.219 21.7893 471.886 21.8055C471.531 21.8219 471.198 21.8305 470.919 21.755C470.734 21.706 470.528 21.6761 470.308 21.6863C469.719 21.711 469.137 21.7413 468.549 21.766C468.449 21.7701 468.314 21.761 468.236 21.7441C467.858 21.6651 467.488 21.6033 466.964 21.6449C466.51 21.6806 466.02 21.684 465.566 21.7178C465.318 21.7357 465.205 21.797 465.256 21.8446C465.284 21.8693 465.434 21.8974 465.533 21.8971C465.761 21.8984 466.009 21.869 466.222 21.8798C466.662 21.9014 466.885 22.0609 467.459 22.0153C467.799 21.9876 468.154 21.977 468.509 21.9683C468.601 21.9661 468.701 22.002 468.801 22.0208C469.086 22.0714 469.335 22.1374 469.746 22.1019C470.087 22.0741 470.449 22.0654 470.796 22.0491C471.35 22.0227 471.35 22.0246 472.068 22.1387C472.41 22.193 472.75 22.1481 473.083 22.1338C473.332 22.1235 473.566 22.1037 473.765 22.1298C474.071 22.169 474.292 22.2598 474.668 22.253C475.023 22.2462 475.371 22.2184 475.726 22.2078C475.946 22.2014 476.152 22.2313 476.33 22.2823C476.516 22.3332 476.715 22.3555 476.956 22.3433C477.303 22.327 477.658 22.3069 478.013 22.2963C478.112 22.2941 478.226 22.3109 478.319 22.3259C478.518 22.3596 478.71 22.3991 478.902 22.4347C479.25 22.4223 479.605 22.4174 479.946 22.3935C480.208 22.3755 480.393 22.3826 480.606 22.4201C480.877 22.4708 481.098 22.5617 481.538 22.5165C481.757 22.4948 482.013 22.4998 482.233 22.48C482.502 22.4544 482.687 22.4634 482.879 22.52C483.243 22.6277 483.698 22.6282 484.165 22.5848C484.676 22.5375 485.06 22.5898 485.445 22.6725C485.851 22.759 485.851 22.7571 486.166 22.9679C486.259 23.0286 486.522 23.0565 486.742 23.0443C487.111 23.0242 487.431 23.0327 487.702 23.1044C487.987 23.1817 488.327 23.1712 488.675 23.1491C489.136 23.1191 489.597 23.093 489.975 23.2024C490.16 23.2553 490.359 23.268 490.608 23.2539C491.31 23.2175 492.02 23.1944 492.708 23.1504C493.126 23.1224 493.368 23.1827 493.653 23.2333C494.037 23.3027 494.457 23.3644 494.46 23.5151C494.46 23.5399 494.56 23.5682 494.645 23.587C494.83 23.6265 495.03 23.6602 495.222 23.6978C495.507 23.7541 495.784 23.801 496.174 23.7693C496.515 23.7435 496.877 23.7347 497.224 23.7165C497.572 23.6983 497.891 23.6878 498.205 23.7594C498.568 23.8403 498.952 23.9173 499.365 23.9771C499.657 24.0201 500.039 23.9446 500.352 24.0027C500.545 24.0384 500.73 24.0798 500.936 24.1097C501.021 24.1228 501.156 24.1128 501.27 24.1087C501.504 24.1003 501.745 24.0939 501.972 24.0742C502.234 24.0524 502.433 24.0556 502.633 24.0989C502.818 24.1384 503.003 24.1931 503.216 24.2039C503.536 24.2201 503.89 24.1428 504.211 24.2295C504.375 24.2729 504.581 24.3142 504.794 24.3269C505.008 24.3397 505.256 24.3103 505.483 24.3115C505.582 24.3112 505.703 24.3414 505.76 24.366C505.796 24.3792 505.747 24.4156 505.698 24.4348C505.634 24.4579 505.542 24.4887 505.45 24.4928C504.748 24.5293 504.045 24.56 503.343 24.5945C502.925 24.6148 502.925 24.6148 502.078 24.4972C501.879 24.4692 501.659 24.4756 501.41 24.4897C501.077 24.5079 500.737 24.5413 500.388 24.5081C499.932 24.3797 499.371 24.37 498.776 24.4213C498.527 24.4431 498.3 24.4438 498.115 24.4081C497.723 24.3368 497.311 24.2713 496.962 24.1865C496.691 24.1206 496.563 24.1152 496.451 24.2071C496.416 24.2358 496.381 24.2665 496.388 24.2931C496.432 24.3884 496.512 24.4816 496.556 24.5768C496.57 24.6035 496.514 24.6342 496.479 24.6629C496.367 24.7433 496.218 24.738 495.968 24.672C495.719 24.606 495.42 24.5631 495.023 24.5948C494.682 24.6225 494.313 24.6198 493.973 24.6494C493.448 24.693 493.078 24.6331 492.701 24.5522C492.622 24.5353 492.487 24.5261 492.388 24.5302C491.331 24.5773 490.281 24.63 489.224 24.6771C488.997 24.6873 488.79 24.6593 488.612 24.6084C488.427 24.5574 488.22 24.5314 487.993 24.5416C487.057 24.5844 486.12 24.6235 485.184 24.6759C484.801 24.6981 484.496 24.6742 484.232 24.6082C484.032 24.5592 483.847 24.5445 483.599 24.551C483.329 24.5575 483.138 24.5772 483.004 24.6329C482.877 24.6867 482.97 24.7188 483.254 24.7599C483.56 24.8048 483.845 24.863 484.137 24.9156C484.371 24.9072 484.605 24.8913 484.832 24.8925C484.932 24.8922 485.025 24.9262 485.124 24.945C485.409 24.9995 485.673 25.054 486.077 25.0222C486.417 24.9945 486.779 24.9877 487.127 24.9695C487.609 24.9471 487.609 24.9471 488.392 25.0649C488.591 25.0948 488.804 25.0922 489.059 25.0743C489.279 25.0603 489.507 25.0863 489.664 25.143C489.728 25.1657 489.707 25.2039 489.575 25.3302C489.576 25.4237 489.724 25.3813 489.773 25.3201C489.85 25.2321 489.7 25.204 489.417 25.2525C489.219 25.2874 489.12 25.3373 489.171 25.3772C489.199 25.3981 489.335 25.4244 489.575 25.3302C490.197 25.2139 490.673 25.1991 491.127 25.1672C491.396 25.1493 491.567 25.1564 491.78 25.2053C492.037 25.2637 492.293 25.3258 492.712 25.2941C493.166 25.2584 493.648 25.2531 494.109 25.2231C494.535 25.1951 494.756 25.2784 495.027 25.3271C495.354 25.3853 495.715 25.3174 496.014 25.3509C496.327 25.3843 496.548 25.4675 496.91 25.4817C497.435 25.4286 497.77 25.523 498.169 25.5847C498.482 25.6314 498.85 25.5884 499.183 25.5664C499.559 25.5423 499.872 25.5624 500.136 25.6303C500.435 25.7076 500.769 25.6894 501.109 25.6712C501.904 25.6307 501.932 25.6248 502.395 25.7284C502.73 25.8036 503.049 25.7683 503.382 25.7578C503.674 25.8084 503.959 25.8629 504.265 25.9077C504.343 25.9189 504.492 25.8994 504.612 25.8933C504.96 25.877 505.315 25.8607 505.662 25.8444C505.896 25.8342 506.144 25.8048 506.358 25.8156C506.571 25.8283 506.749 25.8831 506.941 25.9187C507.134 25.9544 507.333 25.99 507.518 26.0276C507.803 26.084 508.073 26.1308 508.47 26.101C508.811 26.0752 509.166 26.0665 509.52 26.0483C509.967 26.026 509.953 26.0317 510.786 26.1437C511.234 26.2052 511.694 26.1276 512.148 26.1186C512.375 26.1141 512.596 26.1344 512.753 26.1892C512.817 26.2119 512.796 26.2501 512.818 26.2825C511.648 26.3375 510.47 26.3849 509.314 26.4513C508.867 26.4775 508.631 26.4095 508.389 26.353C507.99 26.2627 507.467 26.3978 507.089 26.2807C506.861 26.2108 506.533 26.1717 506.144 26.2072C505.917 26.227 505.675 26.2258 505.441 26.2437C504.846 26.2874 504.299 26.291 503.821 26.1608C503.657 26.1155 503.423 26.0915 503.252 26.0481C503.052 26.001 502.86 25.9749 502.626 25.9851C501.569 26.0341 500.519 26.083 499.469 26.1358C499.377 26.1399 499.285 26.1688 499.207 26.19C499.009 26.244 499.074 26.2857 499.394 26.3191C499.5 26.3302 499.586 26.3547 499.686 26.3735C499.878 26.4092 500.056 26.4659 500.269 26.4786C500.483 26.4913 500.731 26.4638 500.965 26.4536C501.199 26.4434 501.447 26.414 501.66 26.4248C501.873 26.4375 502.052 26.4923 502.251 26.526C502.343 26.5429 502.458 26.5712 502.55 26.569C503.018 26.5561 503.479 26.5338 503.947 26.5152C504.239 26.5658 504.489 26.6394 504.837 26.6555C505.057 26.6663 505.291 26.6446 505.518 26.6478C505.618 26.6494 505.746 26.6776 505.796 26.7022C505.825 26.7174 505.733 26.7558 505.662 26.7751C505.394 26.8484 505.024 26.8362 504.691 26.86C504.329 26.8859 504.003 26.8793 503.725 26.8058C503.539 26.7567 503.333 26.7307 503.106 26.7409C502.517 26.7674 501.935 26.7978 501.347 26.8206C501.247 26.8247 501.126 26.8079 501.034 26.7948C500.287 26.6807 500.287 26.6769 499.762 26.7033C498.988 26.7418 498.989 26.7418 498.469 26.6423C498.369 26.6235 498.262 26.5876 498.177 26.5898C497.354 26.6228 496.538 26.6557 495.722 26.7021C495.453 26.7162 495.268 26.7168 495.069 26.6678C494.898 26.6264 494.698 26.5793 494.485 26.5685C494.265 26.5577 494.024 26.587 493.79 26.5973C493.555 26.6075 493.307 26.6331 493.101 26.6184C492.888 26.6038 492.703 26.551 492.517 26.5134C492.325 26.4739 492.119 26.4764 491.857 26.4925C491.048 26.5388 491.041 26.5331 490.237 26.4173C490.145 26.4042 490.024 26.3893 489.924 26.3934C489.336 26.4181 488.754 26.4484 488.165 26.4731C487.938 26.4833 487.717 26.4592 487.56 26.4043C487.496 26.3816 487.517 26.3434 487.473 26.2692C487.423 26.2522 487.48 26.2825 487.495 26.3111C487.602 26.307 487.729 26.3104 487.807 26.2949C488.006 26.258 488.104 26.2101 488.054 26.1702C488.025 26.1493 487.89 26.123 487.805 26.1232C487.649 26.1237 487.514 26.1661 487.473 26.2692C487.027 26.3335 486.551 26.3483 486.09 26.3802C485.821 26.4 485.651 26.391 485.437 26.3421C485.18 26.2818 484.917 26.2235 484.498 26.2552C484.044 26.2909 483.562 26.2981 483.094 26.3263C482.555 26.3584 482.318 26.1874 481.864 26.1926C481.395 26.1978 480.927 26.2317 480.459 26.256C480.047 26.2763 480.047 26.2763 479.194 26.1549C478.881 26.1101 478.512 26.1779 478.206 26.1312C478 26.1013 477.822 26.056 477.623 26.0242C477.537 26.0111 477.402 26.0115 477.296 26.0157C476.707 26.0403 476.111 26.0574 475.544 26.101C474.898 26.1526 474.408 26.1007 473.945 25.9895C473.363 26.0123 472.774 26.0255 472.199 26.0634C471.781 26.0914 471.539 26.0292 471.254 25.9786C471.154 25.9617 471.069 25.9333 470.962 25.926C470.855 25.9187 470.728 25.9344 470.614 25.9404C470.146 25.9628 469.663 25.9738 469.21 26.0095C468.649 26.0551 468.434 25.8993 468.001 25.8815C467.711 25.9759 467.557 26.1041 466.982 26.1154C466.514 26.1244 466.046 26.1564 465.577 26.1787C465.343 26.189 465.109 26.2011 464.875 26.2114C464.499 26.2297 464.323 26.3046 464.403 26.4188C464.446 26.4816 464.483 26.5444 464.519 26.6072C464.592 26.7196 464.416 26.8155 464.118 26.8297C463.295 26.8684 462.479 26.909 461.656 26.9439C461.436 26.9541 461.223 26.9223 461.044 26.8714C460.859 26.8204 460.653 26.7982 460.426 26.8084C459.603 26.8471 458.787 26.8877 457.964 26.9226C457.872 26.9267 457.751 26.908 457.658 26.893C457.459 26.8593 457.267 26.8198 457.075 26.7842C456.606 26.8027 456.145 26.8156 455.684 26.8398C454.939 26.8764 454.939 26.8783 454.391 26.7751C454.291 26.7563 454.191 26.7204 454.099 26.7226C453.744 26.7313 453.397 26.7514 453.042 26.7696C451.999 26.8223 451.999 26.8223 451.693 26.766C451.415 26.7135 451.166 26.6494 450.747 26.6812C450.294 26.7169 449.811 26.7297 449.343 26.7502C448.995 26.7646 448.647 26.7809 448.3 26.7858C448.207 26.788 448.108 26.752 448.008 26.7333C447.723 26.675 447.445 26.6282 447.055 26.6618C446.829 26.6815 446.587 26.6861 446.353 26.6963C445.743 26.7248 445.743 26.7248 444.74 26.6134C444.641 26.6023 444.52 26.5893 444.421 26.5953C443.598 26.6321 442.782 26.6727 441.959 26.7076C441.859 26.7117 441.739 26.7006 441.639 26.6914C440.516 26.5842 440.516 26.5842 439.324 26.6412C438.87 26.6616 438.856 26.6693 438.379 26.5696C438.165 26.5264 437.987 26.506 437.739 26.5201C436.803 26.5687 435.859 26.602 434.93 26.6582C434.511 26.6824 434.269 26.6259 433.984 26.5752C433.885 26.5584 433.778 26.5206 433.692 26.5227C432.756 26.5618 431.819 26.6085 430.883 26.6475C430.798 26.6516 430.691 26.6138 430.591 26.5969C430.399 26.5632 430.213 26.5122 430 26.5014C429.78 26.4906 429.539 26.52 429.298 26.5302C428.709 26.5568 428.709 26.5549 428.026 26.4444C427.933 26.4295 427.812 26.4088 427.72 26.4129C426.784 26.4539 425.84 26.4892 424.911 26.5473C424.379 26.5794 424.016 26.5252 423.638 26.4462C423.56 26.4293 423.425 26.4221 423.326 26.4262C422.269 26.4732 421.219 26.526 420.162 26.573C419.942 26.5832 419.728 26.5514 419.55 26.5024C419.265 26.425 418.932 26.4356 418.577 26.4538C417.761 26.4963 417.754 26.4945 417.27 26.4044C417.17 26.3856 417.085 26.3611 416.978 26.3518C416.878 26.3426 416.751 26.3487 416.644 26.3528C416.176 26.3733 415.708 26.3957 415.24 26.4181C414.771 26.4405 414.296 26.4534 413.835 26.4872C413.268 26.529 412.996 26.4058 412.597 26.3498C412.016 26.3763 411.42 26.3934 410.845 26.4352C410.406 26.467 410.199 26.3837 409.907 26.3407C409.807 26.3258 409.7 26.2937 409.608 26.2977C408.551 26.3429 407.494 26.3918 406.444 26.4465C406.188 26.4587 406.018 26.444 405.804 26.3988C405.327 26.2973 405.306 26.3012 404.511 26.3417C404.164 26.3599 403.83 26.3762 403.531 26.2989C403.267 26.2291 402.947 26.2129 402.572 26.2369C402.111 26.2669 401.635 26.2836 401.167 26.3041C400.699 26.3265 400.231 26.3565 399.762 26.3674C399.386 26.3781 399.158 26.2892 398.859 26.2443C398.766 26.2312 398.638 26.2297 398.532 26.2338C398.064 26.2524 397.581 26.2672 397.127 26.301C396.574 26.3427 396.267 26.2388 395.876 26.1789C395.791 26.1658 395.649 26.1739 395.542 26.1799C394.719 26.2167 393.903 26.2573 393.081 26.296C392.789 26.2454 392.49 26.1967 392.198 26.1461C391.73 26.1666 391.261 26.189 390.793 26.2095C390.439 26.2258 390.077 26.2326 389.743 26.2622C389.311 26.3017 389.097 26.2127 388.805 26.1697C388.705 26.1547 388.598 26.1226 388.506 26.1267C387.917 26.1495 387.328 26.1741 386.747 26.2083C386.193 26.2424 385.971 26.0714 385.516 26.0747C385.048 26.078 384.566 26.1043 384.112 26.14C383.587 26.1816 383.217 26.1217 382.839 26.0408C382.761 26.0239 382.626 26.0147 382.527 26.0189C381.938 26.0435 381.356 26.0739 380.767 26.0985C380.668 26.1026 380.547 26.0935 380.448 26.0823C379.324 25.9732 379.324 25.9713 378.835 25.9957C378.487 26.012 378.132 26.0321 377.778 26.0427C377.678 26.0468 377.557 26.03 377.465 26.015C376.725 25.9009 376.725 25.899 376.193 25.9235C375.724 25.9459 375.256 25.9683 374.788 25.9907C374.496 25.94 374.197 25.8914 373.905 25.8408C373.324 25.8673 372.728 25.8882 372.153 25.9242C371.884 25.9403 371.706 25.9351 371.499 25.888C371.243 25.8316 370.986 25.7656 370.561 25.7993C370.107 25.835 369.624 25.8403 369.163 25.8703C368.61 25.9063 368.38 25.7334 367.933 25.7367C367.465 25.74 366.982 25.7662 366.529 25.8019C366.004 25.8436 365.634 25.7837 365.256 25.7028C365.178 25.6859 365.043 25.6767 364.944 25.6808C363.652 25.74 362.368 25.7992 361.077 25.8622C360.283 25.9008 360.283 25.9028 358.769 25.8024C358.662 25.7951 358.549 25.7878 358.442 25.792C357.974 25.8105 357.491 25.8253 357.038 25.8591C356.484 25.9009 356.178 25.7988 355.786 25.737C355.701 25.7239 355.566 25.732 355.453 25.7361C355.098 25.7505 354.75 25.7688 354.395 25.7851C353.927 25.8075 353.459 25.8299 352.991 25.8523C352.699 25.8035 352.4 25.7529 352.108 25.7042C351.526 25.7308 350.93 25.7459 350.356 25.7877C349.916 25.8196 349.709 25.7401 349.417 25.6952C349.318 25.6802 349.211 25.6481 349.119 25.6503C348.062 25.6955 347.004 25.7425 345.955 25.7991C345.522 25.8233 345.322 25.738 345.03 25.695C344.93 25.682 344.817 25.6575 344.724 25.6616C344.022 25.6905 343.32 25.725 342.617 25.7595C342.22 25.7798 342.22 25.7798 341.352 25.6642C341.253 25.6511 341.139 25.6381 341.04 25.6422C338.812 25.7443 336.591 25.8521 334.364 25.9541C334.137 25.9644 333.93 25.9364 333.752 25.8854C333.567 25.8345 333.36 25.8084 333.133 25.8186C332.197 25.8615 331.253 25.9006 330.324 25.953C329.941 25.9751 329.635 25.9512 329.372 25.8852C329.172 25.8363 328.987 25.8178 328.739 25.8299C328.271 25.8542 327.803 25.8747 327.335 25.8971C326.866 25.9195 326.398 25.9419 325.93 25.9643C325.462 25.9867 324.986 25.9996 324.525 26.0334C323.958 26.0751 323.679 25.9577 323.288 25.8998C322.586 25.9305 321.883 25.9612 321.188 25.9938C320.251 26.0367 319.315 26.0834 318.379 26.1244C318.293 26.1284 318.186 26.0944 318.087 26.0776C317.795 26.0308 317.581 25.9646 317.148 25.9869C315.048 26.0943 312.934 26.1865 310.827 26.2921C310.388 26.3144 310.195 26.2329 309.896 26.19C309.796 26.1769 309.682 26.1506 309.59 26.1546C308.419 26.2059 307.249 26.2628 306.078 26.3178C305.603 26.3402 305.603 26.3402 304.806 26.2243C304.714 26.2113 304.593 26.1945 304.493 26.1986C302.968 26.268 301.45 26.3413 299.925 26.4126C299.698 26.4228 299.491 26.3968 299.306 26.3458C299.128 26.2949 298.914 26.2669 298.694 26.2771C297.29 26.3424 295.878 26.4057 294.48 26.4767C294.104 26.4969 293.792 26.4807 293.521 26.4128C293.329 26.3638 293.137 26.3434 292.895 26.3556C290.788 26.4554 288.681 26.5514 286.574 26.6569C286.17 26.6772 285.886 26.6418 285.629 26.5797C285.422 26.5307 285.245 26.5217 284.989 26.5301C284.72 26.5404 284.557 26.5619 284.409 26.6196C284.218 26.6945 284.099 26.7883 283.645 26.7954C283.176 26.8026 282.701 26.8269 282.24 26.8607C281.8 26.8944 281.593 26.8092 281.315 26.7586C281.109 26.723 280.917 26.7178 280.655 26.7358C280.414 26.7518 280.265 26.7846 280.124 26.8461C279.814 26.9767 279.785 26.9768 279.401 26.8959C279.194 26.8527 279.009 26.8189 278.782 26.8272C277.845 26.8682 276.909 26.913 275.973 26.9597C275.433 26.9861 275.427 26.9899 275.02 26.8958C274.821 26.8487 274.629 26.8264 274.395 26.8385C271.82 26.9607 269.244 27.0791 266.669 27.207C266.272 27.2273 266.002 27.1881 265.717 27.1317C265.624 27.1129 265.532 27.0865 265.425 27.0792C265.318 27.0719 265.198 27.0799 265.084 27.084C263.211 27.1717 261.331 27.2555 259.466 27.3527C259.04 27.375 258.812 27.3146 258.52 27.2659C258.42 27.249 258.335 27.2226 258.228 27.2153C258.122 27.2099 257.994 27.2236 257.88 27.2297C256.008 27.3173 254.128 27.4012 252.262 27.4984C251.815 27.5207 251.622 27.4412 251.33 27.4001C251.231 27.3851 251.124 27.3568 251.032 27.3609C250.443 27.3837 249.861 27.414 249.272 27.4406C247.868 27.5078 246.463 27.5712 245.058 27.6402C244.519 27.6666 244.282 27.4976 243.828 27.5066C243.239 27.5179 242.657 27.5578 242.069 27.5863C241.6 27.6087 241.132 27.6292 240.664 27.6535C240.203 27.6758 240.203 27.6758 239.051 27.5687C238.952 27.5594 238.831 27.5464 238.731 27.5506C237.093 27.6261 235.447 27.7016 233.815 27.7828C233.439 27.8011 233.127 27.7925 232.856 27.7228C232.663 27.6737 232.464 27.6495 232.23 27.6617C229.768 27.7778 227.314 27.8939 224.852 28.0082C224.76 28.0123 224.639 27.9935 224.546 27.9786C224.347 27.9448 224.155 27.9054 223.962 27.8697C223.821 27.914 223.637 27.9546 223.546 28.0045C223.419 28.0716 223.249 28.0912 222.979 28.1034C222.71 28.1157 222.539 28.1124 222.326 28.0634C222.069 28.0032 221.806 27.9563 221.387 27.9766C218.812 28.1045 216.237 28.221 213.661 28.347C213.236 28.3674 213.036 28.284 212.737 28.2411C212.637 28.228 212.523 28.2074 212.431 28.2115C211.374 28.2586 210.324 28.3094 209.267 28.3583C206.337 28.4969 203.407 28.6297 200.485 28.7758C199.953 28.8022 199.59 28.7556 199.212 28.6747C199.134 28.6578 198.999 28.6487 198.9 28.6528C194.799 28.8444 190.699 29.0379 186.605 29.2315C186.385 29.2417 186.172 29.2118 185.994 29.1627C185.808 29.1118 185.602 29.0876 185.375 29.0978C183.502 29.1855 181.629 29.2732 179.756 29.3627C179.288 29.3851 179.281 29.387 178.797 29.2969C178.697 29.2782 178.59 29.2423 178.512 29.2463C178.349 29.2563 178.194 29.3045 178.081 29.3697C177.968 29.4387 177.791 29.4583 177.529 29.4724C177.259 29.4866 177.082 29.4814 176.875 29.4362C176.612 29.3798 176.369 29.3252 175.944 29.3456C170.559 29.6059 165.175 29.8567 159.79 30.1152C159.357 30.1355 159.157 30.0561 158.859 30.0131C158.759 30 158.659 29.9813 158.553 29.9778C158.439 29.9743 158.319 29.9861 158.205 29.9922C149.422 30.4058 140.64 30.8213 131.857 31.2349C131.332 31.2594 131.339 31.2594 130.767 31.4366C130.696 31.4578 130.604 31.4867 130.505 31.4908C127.816 31.6209 125.121 31.7473 122.425 31.8737C121.254 31.9287 120.084 31.9856 118.913 32.0387C118.495 32.0572 118.495 32.0572 117.497 32.2662C117.412 32.2836 117.313 32.3068 117.213 32.3109C112.531 32.5329 107.849 32.7549 103.16 32.9731C102.791 32.9894 102.493 33.0247 102.324 33.1167C102.204 33.1819 102.049 33.2205 101.815 33.2327C98.5372 33.3875 95.2598 33.5442 91.9751 33.6953C91.5849 33.7136 91.3514 33.7677 91.1609 33.8484C91.0975 33.8753 91.0411 33.906 90.9491 33.9253C90.8642 33.9427 90.7365 33.9488 90.6301 33.9549C87.8208 34.0873 85.0116 34.2236 82.1951 34.3503C81.7765 34.3687 81.6071 34.4398 81.4024 34.5148C81.3318 34.5398 81.2826 34.5743 81.1906 34.5917C81.0985 34.6073 80.9636 34.6077 80.8501 34.6118C78.509 34.7219 76.168 34.8338 73.8269 34.9439C73.3724 34.9357 73.2746 35.0466 73.0556 35.114C72.9778 35.1371 72.9216 35.1678 72.8296 35.1834C72.7304 35.1989 72.6025 35.1974 72.4818 35.2016C70.6089 35.2892 68.7362 35.3826 66.8561 35.4646C66.4233 35.483 66.3396 35.5805 66.1063 35.648C66.0286 35.6692 65.9511 35.7019 65.8589 35.7079C64.6884 35.7667 63.5179 35.8217 62.3473 35.8748C61.9571 35.8932 61.9571 35.8913 61.2713 36.0822C61.1936 36.1034 61.1015 36.1265 61.0022 36.1326C59.25 36.2179 57.4907 36.2995 55.7313 36.383C55.5043 36.3932 55.3488 36.4395 55.2362 36.5047C55.1236 36.5699 54.961 36.6123 54.734 36.6225C53.3294 36.6897 51.9246 36.7588 50.5199 36.8202C50.1297 36.8366 49.8749 36.8851 49.7058 36.9714C49.579 37.0367 49.4233 37.0695 49.1751 37.0817C47.7704 37.147 46.3658 37.218 44.9539 37.2757C44.5424 37.2921 44.3304 37.3576 44.1612 37.4382C44.0273 37.5035 43.8715 37.5269 43.609 37.5391C41.0337 37.6575 38.4514 37.7758 35.8835 37.9056C35.4507 37.9279 35.2296 37.8618 34.9449 37.815C34.5392 37.7495 34.162 37.6781 34.1597 37.5294C34.1594 37.5065 34.0383 37.4802 33.9528 37.4614C33.3188 37.3202 33.3188 37.3202 33.217 37.168C33.1588 37.0747 33.0935 36.9795 33.0423 36.8843C32.9477 36.7282 32.7198 36.6888 32.0671 36.7194C31.833 36.7297 31.5989 36.7437 31.3648 36.752C31.0171 36.7664 30.7535 36.7043 30.6879 36.59C30.6514 36.5272 30.608 36.4644 30.5715 36.4016C30.9262 36.3853 30.919 36.3834 31.5402 36.1507C31.8014 36.0527 31.8015 36.0527 31.296 35.9569C31.1037 35.9213 30.9185 35.8818 30.7121 35.8481C30.6196 35.8331 30.4988 35.8239 30.3995 35.828C29.8106 35.8527 29.2289 35.8811 28.6472 35.9096C27.7108 35.9544 27.7107 35.9544 26.7564 35.7627C26.6781 35.7477 26.557 35.7194 26.5709 35.7041C26.6479 35.6333 26.8391 35.6022 27.0804 35.5939C27.4352 35.5814 27.7827 35.5613 28.1303 35.545C28.3644 35.5347 28.5985 35.5226 28.8327 35.5123C29.0516 35.4392 29.2778 35.3679 29.4826 35.293C29.8074 35.1775 29.8072 35.1737 29.3587 35.095C29.074 35.0424 28.768 34.9957 28.4762 34.9469C28.1285 34.9633 27.7739 34.9815 27.4262 34.9959C26.9863 35.0144 26.8083 34.9787 26.6928 34.855C26.5918 34.7466 26.711 34.6528 27.0514 34.6289C27.3989 34.605 27.7254 34.5888 27.9014 34.491C28.0703 34.397 28.3679 34.3598 28.7369 34.3511C28.9711 34.3447 29.2052 34.3306 29.4393 34.3185C29.7443 34.3023 29.9061 34.2045 29.8406 34.096C29.804 34.0256 29.7321 33.9667 29.455 33.9522C28.2258 33.8892 28.2116 33.8911 27.5991 33.7633C27.5421 33.752 27.4991 33.7178 27.5201 33.7006C27.5552 33.6719 27.6327 33.6297 27.7178 33.6237C28.5335 33.5793 29.3493 33.5387 30.1652 33.5076C30.4349 33.4973 30.6335 33.4833 30.7247 33.4125C30.851 33.3148 30.7928 33.2254 30.5433 33.1594C30.4649 33.1386 30.3366 33.1123 30.2514 33.1145C29.3149 33.1516 28.3856 33.1983 27.4491 33.2354C27.3639 33.2395 27.2074 33.2076 27.1715 33.1829C27.0998 33.1373 27.2053 33.076 27.4534 33.0542C27.7795 33.0247 28.1132 33.0217 28.3318 32.9257C28.635 32.7894 29.0093 32.6643 29.348 32.5336C29.4045 32.5105 29.4962 32.4664 29.4749 32.4626C29.2968 32.4212 29.0904 32.3894 28.9052 32.3499C28.5918 32.2841 28.5903 32.1907 28.6599 32.1008C28.7156 32.0282 28.9281 31.9989 29.1908 31.9981C29.3044 31.9978 29.4464 31.9974 29.5384 31.9799C29.7791 31.9372 29.8564 31.8836 29.7351 31.8439C29.6638 31.8212 29.5356 31.7892 29.4504 31.7933C27.9322 31.8608 26.4067 31.9264 24.8958 32.0092C24.4489 32.0334 24.2421 31.9615 23.9716 31.9108C23.7651 31.8714 23.5731 31.8567 23.3179 31.8861C23.077 31.9135 22.8425 31.899 22.6925 31.8365C22.571 31.7854 22.7833 31.7409 23.3576 31.6896C23.4639 31.6797 23.5844 31.6736 23.6622 31.6543C24.4826 31.4459 24.4825 31.444 25.05 31.4155C25.6034 31.3891 25.6035 31.3872 25.8929 31.2757C26.027 31.2238 26.1751 31.1718 26.3021 31.118C26.3515 31.0969 26.4362 31.0585 26.4076 31.0472C26.2505 30.9885 26.0373 30.9758 25.789 30.9899C25.2358 31.024 24.5824 30.9993 24.2941 31.1813C24.1815 31.2503 24.0043 31.2699 23.7489 31.2821C21.1808 31.4005 18.6127 31.5265 16.0373 31.641C15.6188 31.6595 15.4283 31.7306 15.2662 31.8093C15.1252 31.8746 14.9693 31.8941 14.6997 31.9064C14.4301 31.9186 14.2171 31.925 14.06 31.8625C13.9671 31.8247 14.0444 31.771 14.2566 31.717C14.5607 31.6398 14.5024 31.5446 14.4016 31.4553C14.3297 31.3963 14.109 31.355 13.8748 31.3596C13.5271 31.3682 13.1938 31.3902 12.9016 31.3148C12.7306 31.2715 12.5171 31.2416 12.3248 31.204C11.9545 31.1269 11.5841 31.048 11.0667 31.101C10.7114 31.083 10.4619 31.0151 10.1771 30.9626C9.70015 30.8763 9.65735 30.863 9.99668 30.7686C10.3784 30.6625 10.0781 30.5261 10.2895 30.4225C10.515 30.3112 10.826 30.213 11.1013 30.1091C11.1718 30.0822 11.2354 30.0572 11.306 30.0303C11.1421 29.9927 10.9923 29.9455 10.8002 29.9193C10.5512 29.8858 10.4228 29.8442 10.4352 29.7259C10.3853 29.7089 10.4071 29.7527 10.464 29.7639C10.5281 29.7752 10.6843 29.7652 10.7621 29.7516C10.9604 29.7148 11.0589 29.6668 11.0086 29.6269C10.9799 29.606 10.8447 29.5797 10.7595 29.58C10.6033 29.5804 10.4691 29.6228 10.4281 29.7259C9.63421 29.8065 8.81117 29.8471 7.98815 29.8801C7.90302 29.8842 7.79601 29.8464 7.69634 29.8276C7.36879 29.7637 7.36878 29.7656 6.41012 29.7494C6.3107 29.7478 6.17548 29.7216 6.12538 29.695C5.91773 29.5793 5.92294 29.4515 5.82166 29.3278C6.00501 29.2472 6.18824 29.1684 6.37872 29.0896C6.75966 28.9302 7.25457 28.7895 7.55008 28.615C7.48476 28.5218 7.39813 28.4286 7.70933 28.3514C8.59525 28.2533 8.58821 28.2534 8.82817 28.1611C9.51282 27.8996 10.1903 27.6363 10.9034 27.3786C11.094 27.3112 11.0935 27.275 10.7523 27.2474C10.6457 27.2401 10.532 27.2386 10.4184 27.2427C10.0637 27.2571 9.70927 27.2925 9.3613 27.2859C9.01336 27.2813 8.75652 27.1981 8.47177 27.1475C8.17989 27.095 7.888 27.0405 7.5961 26.9861C7.26253 26.9928 6.92976 27.0472 6.59479 26.9624C6.33821 26.8964 6.01804 26.8497 5.72614 26.7953C5.94399 26.6497 6.35411 26.5378 6.67162 26.4091C6.9609 26.2919 6.96787 26.2938 7.74739 26.2018C8.1159 26.1587 8.2404 25.9428 7.92708 25.8808C7.54967 25.8057 7.15113 25.7363 6.76668 25.665C6.43311 25.6717 6.09321 25.7242 5.77244 25.6394C5.52299 25.5753 5.2383 25.5323 4.82694 25.5583C4.13187 25.6023 3.42231 25.6255 2.72003 25.6619C2.47884 25.6741 2.21598 25.6673 2.10851 25.6027C2.03682 25.5572 2.24174 25.4936 2.47581 25.4796C2.83047 25.4594 3.14954 25.4356 3.32556 25.3397C3.49448 25.2438 3.80637 25.2143 4.17531 25.1998C4.27464 25.1957 4.38796 25.1724 4.4373 25.1494C4.69118 25.038 4.9737 24.9418 5.52039 24.944C5.74697 24.9052 5.86685 24.8571 5.79516 24.8116C5.75219 24.7869 5.60269 24.7549 5.51756 24.759C4.92863 24.7799 4.33973 24.8007 3.76523 24.8368C3.4957 24.8528 3.28977 24.8573 3.11852 24.8005C2.99726 24.7628 3.06036 24.7111 3.28668 24.6551C3.48473 24.6068 3.54074 24.5513 3.52555 24.4865C3.48775 24.336 3.27407 24.2928 2.59271 24.3043C2.10299 24.3135 1.98192 24.289 1.87346 24.1597C1.8446 24.1292 1.77309 24.0875 1.82246 24.0664C2.12574 23.9357 2.32208 23.775 2.89617 23.7122C3.12299 23.6886 3.36426 23.6879 3.50548 23.6379C3.64671 23.5879 3.77368 23.5303 3.92203 23.4821C4.10573 23.4244 4.23257 23.3706 4.14683 23.3346C4.00386 23.2702 3.77668 23.2652 3.51437 23.2888C3.28749 23.3086 3.04616 23.3112 2.81206 23.3234C2.39354 23.3456 2.05211 23.2971 2.00113 23.2133C1.86287 22.9925 1.7175 22.7736 1.59344 22.5527C1.57884 22.5261 1.61371 22.4916 1.67015 22.4685C1.8677 22.3878 2.07959 22.3109 2.28427 22.2321C2.52427 22.1417 2.90794 22.1578 3.23423 22.1396C3.69529 22.1134 3.69516 22.1153 4.30998 21.9304C4.55024 21.8572 4.96954 21.8845 5.21702 21.8189C5.29479 21.7977 5.41494 21.763 5.39336 21.744C5.36458 21.7193 5.22239 21.7007 5.11573 21.6895C5.01616 21.6784 4.89542 21.6731 4.78902 21.6791C3.49785 21.7383 2.21386 21.8013 0.922651 21.8586C0.702727 21.8688 0.460712 21.8276 0.38172 21.7687C0.302786 21.7136 0.322995 21.6468 0.307836 21.5839C0.512514 21.5051 0.745585 21.4319 0.921779 21.3474C1.05567 21.2822 1.21144 21.2531 1.48115 21.2485C1.83601 21.2417 2.18355 21.2178 2.58083 21.1994C3.31488 20.9187 4.03447 20.6248 4.82531 20.3439C5.14305 20.2304 5.06334 20.1162 5.1254 19.9959C5.1876 19.8851 5.66347 19.9008 5.98243 19.8674C6.23759 19.84 6.32173 19.7787 6.22171 19.737C6.16453 19.7124 6.03638 19.6842 5.937 19.6845C5.70273 19.6852 5.46873 19.7031 5.23461 19.7133C5.00049 19.7235 4.73065 19.7186 4.53947 19.7516C4.35536 19.7827 4.2356 19.8479 4.11576 19.9036C3.98181 19.965 3.80478 19.9865 3.53508 19.9912C3.18728 19.996 2.83971 20.0142 2.49206 20.0286C2.10758 19.9554 1.70885 19.8841 1.3385 19.8071C1.26728 19.792 1.25233 19.7482 1.259 19.7196C1.27206 19.6451 1.1649 19.5997 0.930081 19.5642C0.730843 19.5342 0.566882 19.4909 0.381724 19.4533C0.522919 19.4014 0.678396 19.3513 0.791136 19.2956C1.03783 19.1786 1.34894 19.0937 1.88852 19.0959C2.10036 19.0209 2.26929 18.9288 2.54536 18.8765C2.80727 18.8261 3.25529 18.8743 3.45234 18.7612C3.55088 18.7056 3.69908 18.6422 3.89041 18.6188C4.19511 18.5816 4.59294 18.5995 4.76879 18.4922C4.87434 18.4308 5.02961 18.375 5.23525 18.3592C5.46926 18.3413 5.7105 18.3368 5.88033 18.3C5.97232 18.2807 6.07126 18.2498 6.07085 18.2231C6.07059 18.206 5.92831 18.1797 5.82875 18.1686C5.73626 18.1555 5.61529 18.1463 5.50886 18.1505C5.15409 18.163 4.80656 18.185 4.45178 18.1975C4.35246 18.2016 4.2387 18.1886 4.13204 18.1775C3.81922 18.1479 3.83989 18.1097 4.08731 18.0403C4.33476 17.9728 4.51102 17.8864 4.7157 17.8076C4.94266 17.7936 5.22667 17.7985 5.38229 17.7618C5.64406 17.7018 5.82727 17.6155 6.03911 17.5404C6.2732 17.5283 6.5145 17.5238 6.73424 17.5021C6.82642 17.4942 6.8684 17.4521 6.94611 17.4271C7.08737 17.379 7.2071 17.31 7.39842 17.2865C7.71026 17.2512 8.0938 17.2634 8.27677 17.158C8.38233 17.0966 8.54455 17.0313 8.74327 17.0269C9.29688 17.0176 9.52955 16.912 9.81199 16.812C10.0238 16.7369 10.4788 16.7737 10.7119 16.6986C10.8673 16.6505 10.9801 16.591 11.1356 16.5448C11.1992 16.5255 11.3339 16.5156 11.4403 16.5095C12.0219 16.4792 12.6108 16.4564 13.1925 16.4241C13.2847 16.4181 13.3695 16.3893 13.4401 16.3662C13.5885 16.3162 13.6796 16.2472 13.8637 16.2142C14.0478 16.1813 14.3104 16.1805 14.5374 16.1703C15.2682 16.1394 15.3251 16.1469 15.6563 15.9838C15.9241 15.8514 16.5858 15.9428 16.8036 15.7972C16.9301 15.7129 17.1633 15.6436 17.582 15.6328C18.171 15.6176 18.7525 15.5797 19.3414 15.5531C19.8663 15.5286 19.8593 15.5286 20.4245 15.3496C20.6788 15.2687 21.0553 15.279 21.3887 15.2627C21.7435 15.2464 22.0696 15.2226 22.2386 15.1267C22.4075 15.0327 22.7194 15.0013 23.0812 14.9868C23.4147 14.9725 23.7911 14.9809 24.0526 14.9038C24.6887 14.7188 24.6816 14.7169 25.1286 14.6965C25.8309 14.6638 26.5332 14.6312 27.2355 14.5967C27.7038 14.5743 28.1935 14.569 28.633 14.5257C28.952 14.4942 29.0923 14.387 29.297 14.312C29.8787 14.2816 30.4604 14.2513 31.0421 14.2228C31.8579 14.1822 32.6808 14.1454 33.5038 14.1067C33.8576 14.0332 33.905 13.8728 34.5012 13.8634C34.8561 13.8585 35.2035 13.8327 35.5583 13.8163C36.1471 13.7879 36.7287 13.7518 37.3177 13.7367C37.7648 13.7258 37.8412 13.6225 38.0744 13.557C38.1522 13.5339 38.2227 13.5012 38.3149 13.4952C39.237 13.4391 40.188 13.4248 41.0884 13.3439C41.1806 13.3359 41.2652 13.2956 41.286 13.267C41.3 13.2517 41.1789 13.2234 41.1006 13.2103C41.0081 13.1953 40.8872 13.1804 40.7879 13.1846C37.8579 13.3212 34.9281 13.4597 31.9981 13.5963C31.5867 13.6166 31.5866 13.6147 30.5889 13.8275C30.504 13.8449 30.4048 13.8643 30.2984 13.8703C29.8302 13.8946 29.3548 13.9094 28.8938 13.9394C28.5179 13.9634 28.2053 13.9415 27.9344 13.8736C27.742 13.8246 27.5429 13.81 27.3016 13.8145C27.0319 13.821 26.8549 13.8426 26.6995 13.8945C26.4947 13.9657 26.3896 14.0576 25.9568 14.0779C23.9632 14.166 21.9697 14.2635 19.9833 14.3572C19.706 14.3314 19.5706 14.2917 19.6408 14.2438C19.683 14.2151 19.7676 14.1767 19.8527 14.1726C20.6685 14.1301 21.4915 14.0933 22.3073 14.0527C22.4208 14.0466 22.577 14.05 22.6406 14.0307C22.9516 13.9439 23.0632 13.8044 23.6523 13.7931C23.9929 13.7863 24.3403 13.7567 24.6665 13.729C24.7586 13.7211 24.8432 13.6808 24.8641 13.6521C24.871 13.6368 24.7569 13.6086 24.6715 13.5955C24.3583 13.5411 23.9974 13.609 23.6844 13.5718C23.5777 13.5587 23.4283 13.5401 23.4066 13.5173C23.3921 13.4963 23.5123 13.4616 23.5971 13.4404C23.6749 13.4211 23.7811 13.4036 23.8875 13.3976C24.8239 13.3509 25.7604 13.3023 26.697 13.2651C27.0801 13.2506 27.3491 13.2021 27.5181 13.1139C27.6449 13.0487 27.8006 13.0139 28.0418 13.0036C29.6806 12.9281 31.3192 12.845 32.9652 12.7752C33.3767 12.7587 33.5888 12.6951 33.7579 12.6126C33.8918 12.5473 34.0477 12.524 34.3102 12.5117C36.6584 12.4055 38.9923 12.2878 41.3406 12.1854C41.7734 12.1669 41.9 12.0845 42.119 12.0133C42.1967 11.9883 42.2458 11.9576 42.3449 11.9421C42.4441 11.9265 42.5719 11.928 42.6925 11.9238C44.5654 11.8362 46.4383 11.7428 48.3184 11.6609C48.7583 11.6424 48.8419 11.5468 49.068 11.4793C49.1458 11.4581 49.2163 11.4236 49.3085 11.4176C50.7131 11.3485 52.1178 11.2832 53.5224 11.2161C54.4589 11.1713 55.3953 11.1265 56.3317 11.0836C56.7929 11.0632 56.7929 11.0613 57.4148 10.8782C57.4855 10.857 57.5846 10.8319 57.6768 10.8259C60.3725 10.6957 63.0612 10.5713 65.757 10.443C65.984 10.4328 66.1466 10.3884 66.2592 10.3232C66.3718 10.2581 66.5346 10.2137 66.7545 10.2035C68.8614 10.1018 70.9684 10.002 73.0825 9.906C73.4656 9.88959 73.7346 9.843 73.9037 9.75666C74.0305 9.69144 74.1861 9.65665 74.4273 9.64638C76.5344 9.54849 78.6414 9.44486 80.7556 9.35076C81.16 9.33238 81.3577 9.26694 81.5553 9.19006C81.6258 9.16314 81.682 9.11911 81.7671 9.11503C82.817 9.05847 83.8596 9.00002 84.9168 8.9606C85.3568 8.94401 85.5047 8.86346 85.681 8.78664C85.822 8.72518 85.985 8.70372 86.2547 8.69528C86.8436 8.67634 87.4252 8.64217 87.9997 8.60802C88.0849 8.60204 88.1907 8.55976 88.1974 8.53304C88.2109 8.48341 88.047 8.44957 87.777 8.43322C84.9676 8.56565 82.1513 8.69809 79.342 8.83053C78.8809 8.8529 78.8808 8.85291 78.2589 9.03597C78.1882 9.05716 78.0891 9.08226 77.9898 9.08828C75.294 9.21655 72.6054 9.3429 69.9096 9.47118C69.6826 9.4814 69.52 9.52575 69.4074 9.59094C69.2948 9.65612 69.132 9.70048 68.9121 9.71068C66.3369 9.83287 63.7618 9.95697 61.1794 10.0735C60.7963 10.0899 60.5273 10.1345 60.3582 10.2228C60.2314 10.288 60.0758 10.3228 59.8346 10.3331C57.3728 10.4473 54.9182 10.5672 52.4493 10.6776C52.201 10.6879 52.0157 10.6332 52.0291 10.5816C52.0358 10.5549 52.1414 10.5107 52.2266 10.5067C53.5105 10.4399 54.7875 10.3712 56.0788 10.3196C56.5116 10.303 56.638 10.2187 56.857 10.1475C56.9276 10.1225 56.9839 10.0899 57.076 10.0763C57.1752 10.0607 57.303 10.0623 57.4236 10.0581C60.467 9.91349 63.5105 9.76701 66.5611 9.63003C67.001 9.60964 67.0846 9.51592 67.3108 9.44848C67.3885 9.42536 67.459 9.39083 67.5513 9.38674C68.4876 9.33814 69.4241 9.29526 70.3605 9.25239C71.9993 9.17498 73.638 9.09757 75.2839 9.02013C75.7592 8.99772 75.7592 8.99771 76.367 8.8166C76.4377 8.79541 76.5367 8.76843 76.629 8.76434C80.9635 8.55865 85.2981 8.35296 89.6327 8.14918C89.8598 8.13896 90.0223 8.0946 90.1349 8.02942C90.2476 7.96614 90.4101 7.91988 90.63 7.90777C96.4898 7.63074 102.343 7.35371 108.202 7.08049C108.586 7.06217 108.855 7.0213 109.024 6.93115C109.143 6.86595 109.306 6.83114 109.547 6.81897C115.989 6.51538 122.43 6.21181 128.879 5.9063C133.214 5.70252 137.548 5.49492 141.883 5.29496C142.28 5.27659 142.492 5.21682 142.69 5.13803C142.753 5.11114 142.817 5.06708 142.902 5.06301C143.831 5.01253 144.76 4.96587 145.689 4.9192C145.981 4.96982 146.273 5.01854 146.565 5.06915C146.784 4.99602 146.996 4.92099 147.215 4.84786C148.62 4.78832 150.003 4.69832 151.422 4.66735C151.514 4.66516 151.614 4.70111 151.714 4.71988C152.376 4.83804 152.752 4.82737 153.168 4.66591C153.317 4.60824 153.444 4.55637 153.671 4.54615C154.373 4.5097 155.083 4.48467 155.778 4.44253C156.154 4.42042 156.466 4.43854 156.737 4.50639C156.929 4.5554 157.129 4.57579 157.363 4.56364C158.654 4.50253 159.938 4.44335 161.229 4.37843C161.321 4.37433 161.406 4.34164 161.476 4.31855C161.625 4.26851 161.752 4.21474 161.893 4.16282C162.085 4.19466 162.298 4.21882 162.455 4.2603C162.655 4.30929 162.839 4.30872 163.109 4.29456C168.259 4.04827 173.417 3.80768 178.567 3.55949C179.007 3.53909 179.2 3.61862 179.499 3.65968C179.598 3.67464 179.698 3.6934 179.805 3.69689C179.918 3.70037 180.039 3.68857 180.152 3.68251C184.019 3.49921 187.885 3.31781 191.751 3.13451C192.262 3.11008 192.262 3.11008 193.024 3.22604C193.116 3.24102 193.237 3.25782 193.336 3.2518C195.096 3.17212 196.855 3.08672 198.607 3.00515C198.834 2.99493 199.027 3.02487 199.233 3.06811C199.639 3.15271 199.667 3.15263 199.964 3.02586C200.105 2.96632 200.253 2.92961 200.487 2.91174C200.742 2.8919 200.948 2.89702 201.148 2.93075C201.432 2.97758 201.64 3.05704 202.072 3.03476C203.945 2.93948 205.825 2.85944 207.691 2.76227C208.116 2.74001 208.345 2.80417 208.629 2.85099C208.729 2.86786 208.822 2.89428 208.928 2.89968C209.035 2.90508 209.162 2.89133 209.276 2.88527C211.617 2.77523 213.965 2.66709 216.299 2.54944C216.739 2.52714 216.932 2.60855 217.231 2.64961C217.33 2.66457 217.444 2.69094 217.536 2.68685C218.941 2.62349 220.353 2.55628 221.758 2.48911C222.261 2.46471 222.261 2.46661 223.03 2.58064C223.122 2.59562 223.243 2.61052 223.343 2.6064C224.981 2.5309 226.627 2.45347 228.266 2.37605C228.77 2.35165 228.77 2.35165 230.226 2.44644C230.333 2.45375 230.447 2.46487 230.553 2.46073C232.426 2.37308 234.306 2.2873 236.179 2.19393C236.555 2.17563 236.867 2.18994 237.138 2.25779C237.331 2.30679 237.53 2.32719 237.764 2.31504C239.871 2.21524 241.985 2.11923 244.085 2.01373C244.489 1.99344 244.752 2.03459 245.037 2.08904C245.13 2.10783 245.223 2.13426 245.329 2.14157C245.436 2.14888 245.556 2.14088 245.67 2.13482C247.777 2.03501 249.891 1.94092 251.991 1.83351C252.416 1.81125 252.645 1.8754 252.929 1.92223C253.029 1.93909 253.136 1.9731 253.221 1.97094C254.044 1.93603 254.867 1.90496 255.683 1.85482C256.122 1.82679 256.315 1.91393 256.614 1.95499C256.714 1.96804 256.828 1.99632 256.92 1.99223C258.679 1.91254 260.439 1.82905 262.191 1.74367C262.439 1.73148 262.624 1.74807 262.824 1.79706C263.087 1.86302 263.393 1.8888 263.776 1.86667C264.592 1.82034 265.415 1.78736 266.238 1.74864C266.72 1.72621 266.72 1.72621 268.198 1.82094C268.305 1.82825 268.419 1.83934 268.525 1.8352C269.93 1.76994 271.342 1.70657 272.739 1.6356C273.115 1.6154 273.428 1.63162 273.699 1.69946C273.891 1.74847 274.083 1.76888 274.324 1.75671C275.615 1.69561 276.899 1.63452 278.191 1.57341C278.659 1.55102 279.127 1.51336 279.595 1.51195C279.936 1.51283 280.186 1.60363 280.492 1.64848C280.577 1.66157 280.719 1.6459 280.833 1.64175C282.471 1.56434 284.117 1.49262 285.749 1.40569C286.174 1.38343 286.403 1.44759 286.687 1.49441C286.787 1.51127 286.894 1.54528 286.979 1.54312C287.568 1.52037 288.15 1.49 288.738 1.46344C289.441 1.4308 290.15 1.40578 290.845 1.36173C291.413 1.32569 291.628 1.49096 292.083 1.49532C292.431 1.49999 292.785 1.4665 293.133 1.4502C293.835 1.41757 294.537 1.38113 295.24 1.35231C295.488 1.34202 295.679 1.31092 295.756 1.24203C295.77 1.22863 295.649 1.2004 295.571 1.18347C294.624 0.991788 294.624 0.991779 293.673 1.0366C293.084 1.06508 292.503 1.09354 291.914 1.1182C291.814 1.12231 291.701 1.1074 291.601 1.09625C291.317 1.06469 291.344 1.02646 291.585 0.957076C291.825 0.887692 292.008 0.803229 292.213 0.724416C292.505 0.773125 292.79 0.821837 293.081 0.870547C293.316 0.860305 293.55 0.848173 293.784 0.837932C294.954 0.784818 296.125 0.729793 297.295 0.680493C297.381 0.676422 297.488 0.71425 297.587 0.733022C297.872 0.787474 298.128 0.83437 298.54 0.812151C299.59 0.753679 300.647 0.710443 301.697 0.659599C302.158 0.637231 302.158 0.637232 302.969 0.753038C303.061 0.76611 303.182 0.781005 303.282 0.776891C304.339 0.72984 305.389 0.679003 306.446 0.630045C306.673 0.619825 306.893 0.643954 307.057 0.698769C307.122 0.721462 307.108 0.759641 307.382 1.0716C308.224 1.32273 308.799 1.29431 309.38 1.26967C309.629 1.25939 309.849 1.24918 310.011 1.21054C310.096 1.18931 310.202 1.15847 310.202 1.13367C310.202 1.1146 310.045 1.08455 309.946 1.08104C309.242 1.04501 308.576 1.12713 307.888 1.14637C307.568 1.15496 307.29 1.08905 307.232 0.98051C307.217 0.950038 307.196 0.917683 307.174 0.887233C307.152 0.856783 307.137 0.824405 307.116 0.793955C306.839 0.785253 306.676 0.820069 306.556 0.885275C306.458 0.938975 306.316 1.00043 306.125 1.02962C305.934 1.06071 305.671 1.05579 305.437 1.06603C305.21 1.07625 304.962 1.10179 304.749 1.08908C304.536 1.07446 304.364 1.01966 304.165 0.98593C304.073 0.969044 303.959 0.944602 303.866 0.948694C303.051 0.983575 302.242 1.01842 301.433 1.06282C301.008 1.08699 300.793 1.00754 300.523 0.958766C300.309 0.921265 300.096 0.93143 300.062 1.01927C299.973 1.22933 300.301 1.31607 301.025 1.27384C301.62 1.23771 302.16 1.23039 302.63 1.35866C302.694 1.37563 302.844 1.38281 302.936 1.37872C303.518 1.35408 304.092 1.32374 304.674 1.2991C304.78 1.29496 304.894 1.30223 304.994 1.30956C306.443 1.40819 306.444 1.41011 306.933 1.38574C307.167 1.3736 307.394 1.36337 307.368 1.07355C307.811 0.76134 308.52 0.738227 309.208 0.690381C309.655 0.660426 309.848 0.743768 310.14 0.786755C310.239 0.801713 310.346 0.831901 310.439 0.827809C311.964 0.760275 313.482 0.68894 315 0.613799C315.256 0.601586 315.44 0.612475 315.64 0.661462C315.896 0.723629 316.181 0.762831 316.585 0.738727C317.394 0.690518 318.217 0.659436 319.04 0.618813C319.458 0.59848 319.458 0.59846 320.305 0.714159C320.397 0.727231 320.518 0.742125 320.618 0.738012C321.441 0.70311 322.257 0.660612 323.072 0.623824C323.299 0.613604 323.506 0.639682 323.684 0.69064C323.862 0.741599 324.076 0.767654 324.295 0.757456C325.118 0.720646 325.934 0.680056 326.75 0.643269C326.849 0.639155 326.97 0.652141 327.063 0.665213C327.931 0.780847 327.931 0.780828 328.328 0.760559C328.91 0.730198 329.506 0.715067 330.08 0.675192C330.64 0.635359 330.933 0.745088 331.317 0.804962C332.367 0.757933 333.425 0.71852 334.467 0.661976C334.893 0.637808 335.121 0.700054 335.406 0.748784C335.505 0.765649 335.605 0.801589 335.698 0.799404C336.052 0.790706 336.4 0.768683 336.748 0.752378C337.095 0.736073 337.45 0.719749 337.798 0.703444C338.196 0.757554 338.461 0.886447 339.028 0.840872C339.368 0.813145 339.73 0.806333 340.078 0.790028C340.425 0.773723 340.78 0.757399 341.128 0.741094C341.362 0.730852 341.603 0.724395 341.83 0.706547C342.248 0.676678 342.456 0.769519 342.755 0.810578C342.854 0.823629 342.968 0.846158 343.06 0.842065C343.763 0.813248 344.472 0.788226 345.16 0.742288C345.692 0.706355 346.055 0.762486 346.433 0.841453C346.511 0.858382 346.646 0.867511 346.745 0.863397C347.568 0.828495 348.384 0.785975 349.2 0.749187C349.42 0.738989 349.633 0.76886 349.811 0.817912C349.997 0.868849 350.203 0.89304 350.43 0.88282C351.246 0.846032 352.069 0.805397 352.885 0.76861C352.984 0.764496 353.105 0.779392 353.198 0.794372C353.994 0.91022 353.994 0.912129 354.463 0.887832C354.576 0.881768 354.697 0.877575 354.81 0.871512C355.392 0.843058 355.995 0.831718 356.562 0.784236C357.215 0.730775 357.691 0.794189 358.154 0.901506C358.736 0.876867 359.332 0.861718 359.9 0.821864C360.325 0.791974 360.554 0.863757 360.838 0.910581C360.938 0.927446 361.045 0.961454 361.13 0.957383C361.953 0.922481 362.776 0.891404 363.584 0.841287C364.024 0.813261 364.217 0.89849 364.516 0.941456C364.616 0.956414 364.723 0.982807 364.815 0.978715C365.283 0.962046 365.751 0.937738 366.22 0.915348C366.766 0.888908 366.766 0.890814 367.492 1.00497C367.833 1.05925 368.173 1.01436 368.507 1C368.862 0.983675 369.195 0.971231 369.48 1.04857C369.658 1.09762 369.872 1.12749 370.092 1.1192C370.56 1.10063 371.036 1.08204 371.496 1.05204C371.865 1.02804 372.185 1.04233 372.456 1.11208C372.648 1.16109 372.847 1.1853 373.081 1.17315C374.131 1.12421 375.188 1.07333 376.238 1.0263C376.331 1.02221 376.459 1.039 376.544 1.0559C376.743 1.08963 376.936 1.12719 377.128 1.16476C377.589 1.1462 378.065 1.13716 378.519 1.10909C379.001 1.08094 379.441 1.07007 379.819 1.17383C379.897 1.19648 380.011 1.22855 380.103 1.22636C380.458 1.21766 380.806 1.19755 381.153 1.18124C381.501 1.16494 381.856 1.14861 382.203 1.13231C382.609 1.17877 382.867 1.31531 383.434 1.26974C383.774 1.24201 384.136 1.2352 384.484 1.21889C384.831 1.20259 385.186 1.18436 385.534 1.16996C385.647 1.1658 385.775 1.15588 385.874 1.16321C385.981 1.17051 386.074 1.19694 386.166 1.21573C386.451 1.27019 386.715 1.32471 387.119 1.29107C387.459 1.26334 387.821 1.25653 388.169 1.23832C388.644 1.2159 388.644 1.21591 389.434 1.33369C389.754 1.38231 390.115 1.31638 390.421 1.35742C390.627 1.3854 390.805 1.43254 391.005 1.46436C391.09 1.47745 391.225 1.48276 391.324 1.47865C391.793 1.46007 392.268 1.44148 392.729 1.41148C393.105 1.38747 393.418 1.40941 393.681 1.47727C393.874 1.52628 394.066 1.5467 394.307 1.53453C395.477 1.4776 396.648 1.42828 397.812 1.36565C398.209 1.34348 398.529 1.37494 398.75 1.44294C399.128 1.56005 399.658 1.41923 400.05 1.51341C400.292 1.5718 400.535 1.63974 400.974 1.6098C401.783 1.55778 402.606 1.52858 403.422 1.4918C403.714 1.54241 404.006 1.59304 404.304 1.64363C404.773 1.62124 405.241 1.59884 405.709 1.57836C406.057 1.56205 406.411 1.54382 406.759 1.52942C406.873 1.52527 406.993 1.51727 407.1 1.52649C407.206 1.5357 407.292 1.56025 407.392 1.57902C407.883 1.67099 407.883 1.67291 408.692 1.63233C409.039 1.61412 409.373 1.60167 409.665 1.67708C409.936 1.74683 410.255 1.75921 410.624 1.73712C411.319 1.69688 412.022 1.66616 412.731 1.63732C412.951 1.62712 413.158 1.65892 413.343 1.70795C413.621 1.78531 413.962 1.77666 414.309 1.75463C414.77 1.72654 415.224 1.69848 415.616 1.8041C415.695 1.82675 415.816 1.85879 415.901 1.85663C416.483 1.83962 417.072 1.82641 417.639 1.78846C418.207 1.75052 418.485 1.86792 418.877 1.92396C419.458 1.89741 420.047 1.87084 420.629 1.8443C420.742 1.83823 420.877 1.82067 420.977 1.82991C421.396 1.8687 421.64 2.011 422.214 1.96541C422.547 1.93961 422.909 1.9309 423.257 1.92413C423.349 1.92195 423.47 1.95399 423.535 1.97859C423.57 1.99183 423.535 2.02817 423.493 2.04737C423.366 2.10116 423.211 2.15123 423.098 2.20688C423.084 2.21455 423.219 2.24846 423.298 2.26348C423.49 2.29723 423.71 2.29086 423.965 2.27483C424.185 2.26082 424.413 2.28683 424.57 2.34358C424.634 2.36627 424.613 2.40447 424.48 2.53075C424.482 2.6242 424.63 2.58179 424.679 2.52061C424.756 2.43264 424.606 2.40449 424.323 2.45302C424.125 2.48795 424.026 2.53784 424.076 2.57774C424.105 2.59863 424.24 2.62493 424.48 2.53075C425.103 2.41444 425.571 2.39206 426.04 2.36967C426.16 2.36359 426.302 2.34407 426.387 2.35526C426.693 2.40011 426.978 2.45457 427.277 2.50517C427.618 2.4927 427.937 2.46312 428.271 2.53649C428.742 2.63997 428.763 2.63038 429.217 2.60803C429.451 2.59588 429.685 2.58565 429.919 2.57541C430.153 2.56517 430.338 2.59322 430.545 2.63646C430.965 2.72483 431 2.72472 431.275 2.60183C431.438 2.52696 431.551 2.50183 431.757 2.53554C432.44 2.64982 432.448 2.65742 433.029 2.62134C433.511 2.59128 433.966 2.58228 434.322 2.68992C434.565 2.76548 434.643 2.74808 434.833 2.6674C435.341 2.45417 435.575 2.45727 436.536 2.60696C436.984 2.67808 437.445 2.59851 437.899 2.5876C438.282 2.57882 438.553 2.62377 438.583 2.74383C438.605 2.81815 438.67 2.87137 438.926 2.89539C439.025 2.90463 439.146 2.91761 439.246 2.91349C439.834 2.88883 440.416 2.86038 441.005 2.8319C441.303 2.81765 441.465 2.72754 441.406 2.60947C441.34 2.48379 441.453 2.43766 441.879 2.40014C442.134 2.37839 442.34 2.3816 442.546 2.41531C442.774 2.45277 442.711 2.48729 442.513 2.55655C442.04 2.72581 442.098 2.8286 442.711 2.9431C442.924 2.98251 443.095 3.01825 443.146 3.07722C443.174 3.10765 443.147 3.14778 443.211 3.17048C443.561 3.29721 444.045 3.37777 444.585 3.43717C445.103 3.38412 445.459 3.46886 445.858 3.53632C446.171 3.58877 446.539 3.5419 446.872 3.52183C447.248 3.49971 447.561 3.51402 447.832 3.58378C448.024 3.63278 448.223 3.65506 448.457 3.64482C448.926 3.62243 449.401 3.60766 449.862 3.57575C450.259 3.54785 450.558 3.5851 450.807 3.6492C451.121 3.73026 451.468 3.6739 451.795 3.68436C452.235 3.69638 452.458 3.86545 453.032 3.81795C453.373 3.79022 453.727 3.77962 454.082 3.77092C454.174 3.76874 454.288 3.80082 454.367 3.82347C454.745 3.92723 455.185 3.92018 455.667 3.88821C456 3.86623 456.327 3.84618 456.654 3.91767C457.196 4.0381 457.794 4.14312 458.363 4.25393C458.443 4.34142 458.388 4.44456 458.793 4.49483C459.006 4.52089 459.206 4.56036 459.37 4.60373C459.569 4.65462 459.754 4.66742 460.009 4.6533C460.47 4.62521 460.953 4.61802 461.407 4.58232C461.825 4.55054 462.089 4.61271 462.345 4.67106C462.552 4.71812 462.744 4.74042 462.992 4.70534C463.247 4.67215 463.432 4.69256 463.639 4.74344C463.931 4.81312 463.952 4.80544 464.918 4.82351C465.017 4.82512 465.138 4.85335 465.195 4.87797C465.224 4.89123 465.161 4.92959 465.111 4.94881C465.048 4.97189 464.949 4.99888 464.857 5.00488C463.807 5.05763 462.75 5.10468 461.7 5.15743C461.593 5.16347 461.48 5.17717 461.402 5.19648C461.317 5.21772 461.211 5.24663 461.212 5.27333C461.212 5.2924 461.354 5.31486 461.454 5.32791C461.767 5.37084 462.135 5.30298 462.441 5.35164C462.647 5.38345 462.818 5.42869 463.025 5.45859C463.11 5.47168 463.245 5.46938 463.351 5.46524C463.706 5.45082 464.054 5.43071 464.409 5.41819C464.508 5.41599 464.622 5.43473 464.714 5.4497C465.398 5.56208 465.398 5.56207 465.986 5.53551C466.22 5.52527 466.469 5.49591 466.689 5.50669C466.902 5.51749 467.087 5.56843 467.279 5.60027C467.678 5.66773 468.055 5.73334 468.086 5.88202C468.101 5.93919 468.336 5.98806 468.57 5.99117C468.798 5.9943 469.039 5.97261 469.273 5.96046C469.826 5.93591 469.826 5.93591 470.545 6.05008C470.744 6.08191 470.957 6.08507 471.212 6.06523C471.312 6.0573 471.433 6.06458 471.539 6.07379C471.888 6.10135 471.888 6.13758 471.662 6.20692C471.344 6.30896 471.372 6.31842 472.268 6.40154C472.609 6.43294 472.873 6.49318 473.158 6.54573C473.621 6.63016 473.614 6.63016 473.31 6.7436C473.239 6.76861 473.176 6.79551 473.105 6.82242C472.901 6.89742 472.738 6.97801 472.313 6.98692C471.844 6.99596 471.376 7.0279 470.908 7.05029C470.454 7.07264 470.334 7.11875 470.379 7.24831C470.431 7.40455 470.523 7.42144 471.34 7.41707C471.574 7.41637 471.78 7.431 471.958 7.48196C471.874 7.54324 471.719 7.59139 471.492 7.60352C470.91 7.63388 470.321 7.66045 469.739 7.687C469.271 7.70939 468.803 7.73177 468.335 7.75416C468.044 7.76839 467.861 7.86813 467.94 7.97851C467.984 8.04131 468.02 8.10414 468.057 8.16697C468.137 8.29261 468.286 8.32459 468.762 8.31743C468.883 8.31516 468.996 8.29955 469.11 8.30302C469.571 8.31498 469.794 8.47261 470.347 8.43852C470.808 8.41043 471.291 8.40326 471.745 8.36756C472.163 8.33578 472.398 8.40375 472.69 8.45437C472.79 8.47124 472.897 8.50713 472.982 8.50497C473.571 8.48221 474.16 8.45948 474.734 8.42151C475.004 8.40544 475.167 8.41638 475.381 8.46152C475.894 8.57059 475.908 8.56483 476.667 8.52821C477.22 8.49984 477.227 8.50363 477.939 8.61783C478.138 8.64965 478.351 8.649 478.607 8.63298C478.94 8.6129 479.287 8.58134 479.636 8.6089C479.742 8.61621 479.878 8.63869 479.913 8.66338C479.935 8.68048 479.836 8.72274 479.751 8.73635C479.128 8.8374 478.397 8.82244 477.716 8.86454C477.503 8.87663 477.289 8.84103 477.111 8.79007C476.926 8.73913 476.727 8.71876 476.485 8.72902C476.017 8.75141 475.542 8.76619 475.081 8.79809C474.684 8.82599 474.406 8.78296 474.128 8.72467C474.036 8.70588 473.929 8.66996 473.836 8.67214C472.786 8.71345 471.729 8.75479 470.687 8.81133C470.268 8.83548 470.026 8.77518 469.741 8.72454C469.641 8.70768 469.541 8.67174 469.449 8.67392C469.094 8.68262 468.747 8.70464 468.392 8.72097C467.101 8.78208 465.817 8.84316 464.525 8.90046C464.44 8.90453 464.333 8.86479 464.234 8.84793C464.041 8.81418 463.842 8.78235 463.643 8.75053C463.288 8.76685 462.941 8.78697 462.586 8.79948C462.33 8.80788 462.104 8.83528 462.069 8.90785C462.049 8.9556 462.284 8.99875 462.532 8.99419C462.773 8.98964 463.014 8.96603 463.214 8.99022C464.202 9.10931 464.202 9.11122 464.819 9.08457C465.359 9.06006 465.301 9.04115 465.779 9.14461C465.985 9.18976 466.17 9.21592 466.404 9.20377C466.986 9.17531 467.575 9.14683 468.164 9.12217C468.256 9.11808 468.377 9.1368 468.47 9.15177C469.167 9.26411 469.167 9.26792 469.742 9.23758C470.494 9.20098 470.522 9.19136 471.028 9.30618C471.377 9.38523 471.695 9.32896 472.029 9.32414C472.413 9.39736 472.833 9.46286 473.182 9.54573C473.596 9.64366 474.028 9.62518 474.497 9.59516C474.844 9.57313 475.185 9.56448 475.47 9.64181C475.741 9.71347 476.067 9.72013 476.436 9.69995C476.77 9.68178 477.11 9.64451 477.458 9.68541C477.551 9.69658 477.693 9.72477 477.686 9.74195C477.68 9.76868 477.588 9.8071 477.496 9.81882C476.844 9.89898 476.127 9.89923 475.439 9.93754C475.347 9.94354 475.226 9.92292 475.133 9.90794C474.934 9.87421 474.742 9.83474 474.549 9.79908C474.202 9.81157 473.847 9.81645 473.506 9.84036C473.244 9.85832 473.045 9.85703 472.853 9.81183C472.675 9.77041 472.482 9.71948 472.269 9.70677C472.056 9.69406 471.808 9.72342 471.574 9.73557C471.34 9.74772 471.07 9.7428 470.886 9.77387C470.702 9.80494 470.589 9.87204 470.469 9.9258C470.335 9.98533 470.151 10.005 469.881 10.0115C469.633 10.018 469.434 10.0109 469.249 9.95809C469.17 9.93544 469.063 9.91859 468.957 9.90366C468.857 9.89061 468.743 9.86996 468.651 9.87405C467.594 9.92111 466.544 9.97197 465.487 10.0209C464.962 10.0454 464.969 10.0454 463.874 9.93612C463.774 9.92689 463.654 9.91391 463.554 9.91802C462.965 9.94268 462.384 9.97114 461.795 9.99961C461.199 10.0281 461.206 10.0243 460.189 9.90718C460.004 9.88485 459.735 9.91618 459.515 9.91303C459.053 9.90488 458.824 9.74537 458.284 9.77751C457.823 9.8056 457.341 9.81277 456.88 9.84849C456.461 9.88027 456.219 9.81425 455.934 9.76361C455.835 9.74675 455.728 9.70892 455.642 9.71299C454.585 9.75814 453.535 9.80898 452.13 9.81894C451.782 9.81998 451.939 9.85957 452.166 9.87224C452.493 9.89223 452.599 9.85186 452.42 9.77611C452.292 9.72309 452.107 9.69693 451.958 9.71073C451.88 9.71859 451.781 9.75514 452.13 9.81894C452.5 9.8903 452.479 9.9304 452.544 9.9531C452.701 10.0079 452.921 10.0302 453.148 10.0218C453.503 10.0074 453.851 9.98731 454.205 9.97479C454.305 9.97068 454.426 9.98367 454.518 9.99865C455.301 10.1145 455.308 10.1222 456.138 10.0739C456.4 10.0597 456.592 10.0592 456.798 10.0948C457.083 10.1435 457.29 10.2268 457.723 10.1988C458.297 10.1608 458.886 10.1381 459.475 10.1153C459.567 10.1112 459.667 10.1453 459.774 10.1602C460.066 10.2051 460.28 10.2903 460.713 10.2527C461.046 10.2231 461.408 10.2144 461.763 10.2076C461.855 10.2054 461.997 10.2355 462.04 10.2602C462.126 10.3038 462.02 10.3556 461.78 10.3926C461.68 10.4081 461.546 10.4047 461.432 10.4108C460.964 10.4332 460.496 10.4574 460.027 10.476C459.779 10.4863 459.545 10.5156 459.518 10.5863C459.497 10.634 459.753 10.6752 459.995 10.6707C460.35 10.6639 460.704 10.6475 461.045 10.6217C461.647 10.578 462.173 10.5878 462.665 10.7065C463.014 10.7893 462.992 10.7589 463.365 11.0057C463.458 11.0684 463.735 11.0733 463.977 11.0687C464.559 11.0574 464.829 11.0852 464.78 11.1445C464.717 11.2172 464.512 11.2407 464.249 11.251C463.781 11.2677 463.313 11.2939 462.844 11.3163C462.731 11.3223 462.603 11.3341 462.497 11.3307C462.39 11.3272 462.291 11.3046 462.198 11.2877C461.999 11.2521 461.827 11.1973 461.614 11.1845C461.401 11.1718 461.153 11.2012 460.919 11.2133C460.685 11.2236 460.437 11.2529 460.224 11.2402C460.01 11.2275 459.832 11.1709 459.64 11.1371C459.547 11.1202 459.433 11.0938 459.341 11.096C458.873 11.1127 458.405 11.1389 457.936 11.1594C457.362 11.1859 457.362 11.1859 456.664 11.0698C456.465 11.036 456.259 11.0386 455.997 11.0546C455.429 11.0869 455.422 11.0811 454.384 10.9736C454.284 10.9625 454.163 10.9495 454.064 10.9555C453.007 11.0026 451.957 11.0534 450.907 11.1024C450.006 11.1451 450.006 11.1451 449.512 11.3374C449.145 11.4796 449.138 11.4796 449.501 11.5434C449.793 11.5959 450.057 11.6733 450.377 11.7009C450.675 11.7267 451.043 11.6398 451.371 11.7265C451.535 11.7699 451.749 11.817 451.955 11.824C452.281 11.8325 452.628 11.7762 452.942 11.8591C453.099 11.9006 453.334 11.9438 453.533 11.9451C453.881 11.9479 454.235 11.9163 454.583 11.9019C454.689 11.8977 454.81 11.8974 454.909 11.9066C455.016 11.9177 455.109 11.9403 455.201 11.9591C455.486 12.0231 455.792 12.0527 456.16 12.0192C456.763 11.964 457.303 11.989 457.773 12.1097C457.838 12.1267 457.994 12.1281 458.093 12.1202C458.348 12.1003 458.568 12.0978 458.761 12.1334C458.839 12.1484 458.953 12.1748 458.939 12.192C458.918 12.2207 458.833 12.2591 458.741 12.2689C458.075 12.3357 457.358 12.3455 456.67 12.3819C456.578 12.386 456.464 12.3616 456.371 12.3447C456.172 12.3109 456.001 12.2543 455.788 12.2416C455.574 12.2288 455.326 12.2544 455.092 12.2646C454.858 12.2749 454.61 12.3042 454.397 12.2934C454.184 12.2807 453.984 12.2336 453.813 12.1922C453.614 12.1451 453.422 12.14 453.16 12.1598C452.819 12.1857 452.464 12.1905 452.117 12.2049C451.925 12.1693 451.732 12.1298 451.533 12.0961C451.44 12.0792 451.326 12.0585 451.227 12.0607C450.759 12.0774 450.29 12.1017 449.822 12.1241C449.354 12.1465 449.354 12.1465 448.557 12.0307C448.465 12.0176 448.344 12.0027 448.244 12.0068C447.656 12.0315 447.074 12.0618 446.485 12.0865C446.258 12.0967 446.052 12.0706 445.866 12.0197C445.688 11.9687 445.475 11.9407 445.255 11.9509C444.318 11.9938 443.382 12.0348 442.445 12.0853C442.07 12.1055 441.75 12.0893 441.493 12.0214C441.194 11.9441 440.861 11.9642 440.513 11.9805C439.725 12.021 439.718 12.0191 439.213 11.9234C439.113 11.9046 439.013 11.8687 438.921 11.8708C438.105 11.9019 437.282 11.9311 436.473 11.9793C436.048 12.0054 435.82 11.9393 435.535 11.8906C435.435 11.8737 435.328 11.8378 435.243 11.8419C434.654 11.8646 434.065 11.8855 433.491 11.9254C432.916 11.9652 432.693 11.7885 432.26 11.7917C431.671 11.7954 431.09 11.8411 430.508 11.8695C430.04 11.8919 429.572 11.9143 429.103 11.9367C428.635 11.9591 428.167 11.9776 427.699 12.0038C427.451 12.0179 427.266 12.0013 427.059 11.9543C426.796 11.8921 426.483 11.8435 426.198 11.7871C425.763 11.7064 425.763 11.7064 425.238 11.7309C425.125 11.7369 425.004 11.7411 424.891 11.7472C424.032 11.7917 424.032 11.7879 422.937 11.6711C422.887 11.6655 422.76 11.6869 422.711 11.7023C422.562 11.7523 422.428 11.8061 422.294 11.858C422.102 11.8281 421.867 11.8116 421.739 11.7681C421.375 11.6453 420.81 11.8167 420.439 11.6957C420.303 11.6504 420.068 11.611 419.855 11.6002C419.635 11.5895 419.387 11.6169 419.16 11.629C418.571 11.6594 418.571 11.6575 418.069 11.8288C417.815 11.9135 417.446 11.8993 417.113 11.9194C416.765 11.9414 416.431 11.9539 416.139 11.8765C415.875 11.8068 415.556 11.7906 415.18 11.8146C414.719 11.8446 414.244 11.8632 413.775 11.8817C413.676 11.8859 413.555 11.8767 413.455 11.8656C412.368 11.7563 412.368 11.7544 411.843 11.7808C411.608 11.7929 411.367 11.7975 411.14 11.8153C410.757 11.847 410.466 11.8078 410.188 11.7476C410.095 11.7288 409.988 11.6929 409.896 11.6951C409.428 11.706 408.967 11.7246 408.505 11.7431C408.151 11.7576 407.796 11.7663 407.455 11.794C406.888 11.8396 406.609 11.7164 406.218 11.6604C405.636 11.6869 405.047 11.7059 404.466 11.742C404.196 11.758 404.019 11.7528 403.812 11.7077C403.549 11.6513 403.306 11.5872 402.881 11.617C402.313 11.6569 401.717 11.6721 401.136 11.6967C400.744 11.6387 400.458 11.5194 399.898 11.565C399.558 11.5927 399.196 11.5995 398.848 11.6158C398.38 11.6382 397.912 11.6587 397.444 11.683C396.94 11.7074 396.947 11.7017 396.172 11.5915C395.723 11.5261 395.263 11.6018 394.809 11.6147C394.454 11.6253 394.278 11.7135 394.365 11.8258C394.452 11.9381 394.261 12.0264 393.935 12.0426C393.119 12.0813 392.296 12.1219 391.48 12.1568C391.381 12.1609 391.26 12.1479 391.168 12.1348C390.293 12.0173 390.293 12.0192 389.902 12.0376C389.321 12.0679 388.725 12.085 388.15 12.123C387.753 12.1489 387.461 12.1098 387.205 12.0457C387.005 11.9967 386.821 11.9858 386.565 11.9981C383.756 12.1343 380.946 12.261 378.144 12.401C377.726 12.4214 377.484 12.3668 377.199 12.3162C377.099 12.2993 377.006 12.2633 376.907 12.2636C376.673 12.2643 376.439 12.2822 376.205 12.2944C375.155 12.3433 374.105 12.4018 373.048 12.4393C372.601 12.4559 372.481 12.544 372.291 12.617C372.142 12.6728 371.972 12.6962 371.71 12.7046C371.455 12.713 371.27 12.704 371.07 12.655C370.814 12.591 370.522 12.5518 370.125 12.5797C369.664 12.6116 369.195 12.6264 368.72 12.6488C368.479 12.659 368.295 12.6939 368.218 12.7628C368.204 12.7743 368.353 12.8025 368.439 12.8194C368.724 12.8757 368.994 12.9417 369.314 12.9807C369.642 13.0198 369.996 12.973 370.336 12.9605C370.457 12.9563 370.57 12.9445 370.684 12.9461C370.791 12.9477 370.919 12.9568 370.997 12.9738C371.367 13.0585 371.759 13.1164 372.269 13.0634C372.71 13.0869 372.939 13.2445 373.499 13.2008C373.84 13.175 374.195 13.1625 374.549 13.1519C374.642 13.1497 374.742 13.1837 374.841 13.2006C375.126 13.2474 375.354 13.323 375.78 13.2893C376.234 13.2536 376.716 13.2464 377.177 13.2184C377.432 13.2023 377.617 13.2151 377.817 13.2641C378.073 13.3263 378.365 13.3731 378.762 13.3413C379.103 13.3136 379.464 13.3068 379.812 13.2886C380.266 13.2662 380.266 13.2682 381.077 13.384C381.17 13.397 381.291 13.4119 381.39 13.4078C381.979 13.3832 382.56 13.3528 383.149 13.3281C383.376 13.3179 383.597 13.342 383.754 13.3969C383.818 13.4196 383.797 13.4578 383.819 13.4902C382.649 13.5452 381.478 13.5926 380.315 13.659C379.875 13.6851 379.675 13.6075 379.383 13.5645C379.284 13.5496 379.177 13.5175 379.084 13.5216C378.261 13.5565 377.446 13.5933 376.63 13.6377C376.374 13.6518 376.183 13.6447 375.99 13.59C375.498 13.4446 374.903 13.5265 374.35 13.5492C373.924 13.5657 373.79 13.6253 373.842 13.751C373.908 13.8995 374.164 13.9445 374.817 13.9159C375.051 13.9056 375.285 13.8916 375.519 13.8832C375.746 13.8749 375.952 13.8991 376.138 13.95C376.316 14.001 376.529 14.0271 376.749 14.0188C377.217 14.0002 377.693 13.9816 378.147 13.9516C378.523 13.9276 378.835 13.9457 379.099 14.0155C379.391 14.0928 379.732 14.0746 380.072 14.0564C380.867 14.0159 380.874 14.0178 381.372 14.1117C381.472 14.1304 381.572 14.1664 381.664 14.1642C382.48 14.1331 383.303 14.1058 384.105 14.0576C384.523 14.0335 384.766 14.0938 385.043 14.1425C385.143 14.1594 385.243 14.1973 385.335 14.1932C385.924 14.1704 386.513 14.1477 387.087 14.1097C387.357 14.0917 387.52 14.1027 387.741 14.1478C388.268 14.2587 388.282 14.2548 389.027 14.2164C389.254 14.2042 389.502 14.1825 389.715 14.1971C389.928 14.2117 390.1 14.2666 390.299 14.3003C390.392 14.3153 390.505 14.3359 390.605 14.3318C391.073 14.3151 391.541 14.2908 392.009 14.2684C392.449 14.2461 392.449 14.248 393.275 14.3638C393.609 14.4124 393.956 14.3694 394.29 14.3531C394.652 14.3348 394.978 14.3339 395.256 14.4074C395.534 14.481 395.868 14.4761 396.222 14.4598C396.556 14.4435 396.896 14.4006 397.237 14.451C398.02 14.5669 398.02 14.5688 398.503 14.5445C399.205 14.5099 399.9 14.4773 400.61 14.4466C400.702 14.4425 400.823 14.465 400.915 14.48C401.115 14.5137 401.286 14.5704 401.499 14.5831C401.712 14.5977 401.96 14.5741 402.187 14.562C402.918 14.5235 402.968 14.5101 403.459 14.6345C403.873 14.7362 404.382 14.5859 404.767 14.703C404.988 14.7691 405.287 14.8216 405.698 14.7879C406.038 14.7602 406.393 14.7515 406.748 14.7352C407.308 14.7087 407.308 14.7106 408.02 14.8229C408.112 14.8379 408.233 14.8566 408.326 14.8525C408.794 14.8358 409.269 14.821 409.723 14.7853C410.255 14.7437 410.597 14.8151 410.995 14.8845C411.309 14.9389 411.677 14.892 412.011 14.8719C412.372 14.8517 412.699 14.8565 412.97 14.93C413.255 15.0055 413.588 14.9949 413.943 14.9786C414.277 14.9642 414.617 14.9193 414.958 14.9717C415.691 15.0878 415.691 15.0878 416.223 15.0633C416.692 15.0409 417.16 15.0166 417.628 14.9999C417.72 14.9958 417.834 15.0203 417.927 15.0372C418.126 15.0709 418.297 15.1276 418.511 15.1403C418.724 15.153 418.972 15.1275 419.206 15.1172C419.44 15.107 419.688 15.0776 419.901 15.0884C420.114 15.0992 420.314 15.1463 420.485 15.1878C420.684 15.2368 420.869 15.2419 421.138 15.222C421.479 15.1962 421.834 15.1894 422.181 15.175C422.374 15.2107 422.573 15.2463 422.758 15.2858C422.95 15.3272 423.156 15.3228 423.419 15.3086C424.291 15.2602 424.298 15.2659 425.031 15.382C425.366 15.4344 425.713 15.3894 426.047 15.3751C426.401 15.3588 426.735 15.3501 427.013 15.4256C427.284 15.4972 427.618 15.5058 427.972 15.4818C428.199 15.4659 428.44 15.4556 428.674 15.4492C428.781 15.447 428.909 15.4542 428.987 15.4692C429.365 15.5482 429.735 15.6196 430.252 15.5665C430.707 15.5804 430.936 15.7361 431.483 15.7039C431.944 15.6758 432.426 15.6686 432.88 15.6329C433.298 15.6012 433.597 15.6537 433.811 15.7198C434.197 15.8369 434.734 15.6751 435.119 15.7902C435.34 15.8563 435.625 15.9089 436.05 15.879C436.518 15.8471 436.668 15.8866 436.805 16.0064C436.884 16.0748 436.87 16.1302 436.729 16.184C436.588 16.2397 436.432 16.2307 436.204 16.1684C435.94 16.0986 435.627 16.0862 435.251 16.1026C434.882 16.119 434.654 16.0205 434.348 15.9833C434.042 15.9442 433.681 16.012 433.361 15.9615C432.606 15.8436 432.606 15.8436 432.096 15.868C431.748 15.8843 431.386 15.893 431.046 15.9208C430.642 15.9544 430.378 15.8961 430.1 15.8435C430.001 15.8247 429.901 15.7888 429.815 15.7909C428.999 15.822 428.176 15.8512 427.368 15.9013C426.942 15.9274 426.714 15.8594 426.43 15.8126C426.33 15.7957 426.223 15.7617 426.138 15.7658C425.435 15.7946 424.74 15.831 424.038 15.8656C423.904 15.9175 423.755 15.9675 423.628 16.0232C423.494 16.0808 423.31 16.1062 423.04 16.1051C422.593 16.1064 422.154 16.1879 421.705 16.0881C421.242 15.9865 421.207 15.9923 420.76 16.0185C420.193 16.0526 419.589 16.0468 419.058 16.1228C418.966 16.1364 418.867 16.1729 418.867 16.1996C418.861 16.2168 419.01 16.2412 419.103 16.2562C419.416 16.301 419.777 16.2332 420.09 16.2799C420.296 16.3098 420.467 16.355 420.674 16.3868C420.759 16.3999 420.887 16.3976 421 16.3954C421.121 16.3931 421.234 16.3794 421.348 16.381C421.454 16.3826 421.568 16.3937 421.654 16.4106C422.045 16.4819 422.458 16.5474 422.807 16.6322C423.149 16.7151 423.468 16.6569 423.808 16.652C425.173 16.7814 425.174 16.7833 426.089 16.7386C426.316 16.7284 426.55 16.7163 426.784 16.7175C426.883 16.7172 426.976 16.7512 427.076 16.77C427.361 16.8263 427.631 16.877 428.028 16.8453C428.369 16.8176 428.731 16.8108 429.078 16.7926C429.547 16.7702 429.547 16.7702 430.344 16.8879C430.543 16.9178 430.756 16.9134 431.011 16.8974C431.231 16.8834 431.458 16.9113 431.615 16.9661C431.68 16.9888 431.659 17.027 431.681 17.0594C430.978 17.092 430.269 17.1151 429.588 17.1629C429.148 17.1929 428.948 17.1115 428.657 17.0685C428.557 17.0535 428.45 17.0214 428.358 17.0255C427.662 17.0562 426.967 17.0907 426.272 17.131C426.187 17.135 426.081 17.1792 426.075 17.2059C426.061 17.2556 426.239 17.3027 426.495 17.3C426.835 17.2971 427.169 17.2637 427.475 17.3409C427.732 17.4088 428.052 17.4384 428.427 17.4068C428.654 17.3889 428.896 17.3882 429.123 17.3722C429.725 17.3246 430.272 17.3325 430.728 17.4608C431.077 17.4941 431.417 17.4607 431.751 17.4425C431.999 17.4284 432.24 17.4143 432.418 17.45C432.795 17.5252 433.166 17.6004 433.683 17.5473C434.245 17.599 434.672 17.7103 435.142 17.8004C435.363 17.8436 435.534 17.8679 435.789 17.8385C435.895 17.8267 436.023 17.8263 436.137 17.8203C436.371 17.81 436.619 17.7807 436.832 17.7915C437.045 17.8042 437.223 17.859 437.416 17.8927C437.508 17.9096 437.615 17.9379 437.707 17.9357C438.062 17.9251 438.41 17.905 438.757 17.8887C439.105 17.8743 439.452 17.8599 439.8 17.8455C440.092 17.8942 440.391 17.9429 440.683 17.9916C441.151 17.9692 441.619 17.9468 442.08 17.9263C442.598 17.9019 442.598 17.9038 443.345 18.0198C443.68 18.0722 444.034 18.0368 444.353 18.011C444.885 17.9694 445.241 18.0408 445.619 18.116C445.697 18.131 445.839 18.1401 445.931 18.1322C446.3 18.1044 446.62 18.1244 446.891 18.1941C447.083 18.2431 447.275 18.2655 447.509 18.2552C448.325 18.2165 449.141 18.1759 449.957 18.141C450.056 18.1369 450.17 18.1537 450.262 18.1687C450.988 18.2829 450.995 18.2886 451.527 18.2564C452.003 18.2283 452.443 18.2155 452.821 18.3193C452.899 18.342 453.02 18.374 453.105 18.3719C453.687 18.351 454.276 18.3283 454.851 18.2941C455.113 18.2781 455.298 18.2832 455.504 18.3265C455.768 18.381 456.003 18.4471 456.436 18.421C457.634 18.3468 457.642 18.3582 459.063 18.4855C459.163 18.4947 459.298 18.4791 459.411 18.4711C459.652 18.4513 459.83 18.4775 460.044 18.5207C460.521 18.6184 460.535 18.6127 460.989 18.5903C461.337 18.5721 461.699 18.5672 462.039 18.5376C462.564 18.494 462.913 18.5674 463.304 18.6368C463.617 18.6911 463.979 18.6443 464.312 18.6261C464.674 18.6059 465 18.6107 465.271 18.6823C465.457 18.7313 465.656 18.7575 465.89 18.7472C466.706 18.7104 467.522 18.6698 468.337 18.633C468.437 18.6289 468.558 18.6438 468.65 18.6569C469.461 18.7727 469.461 18.7784 470.263 18.7321C470.518 18.718 470.731 18.7136 470.923 18.753C471.109 18.7906 471.308 18.8263 471.5 18.8619C471.848 18.8475 472.203 18.8426 472.543 18.8187C472.805 18.8008 472.99 18.8078 473.197 18.8473C473.467 18.898 473.696 18.9869 474.121 18.9417C474.341 18.9201 474.596 18.9251 474.816 18.9053C475.078 18.8797 475.256 18.8945 475.463 18.9434C475.719 19.0018 475.983 19.062 476.394 19.0303C476.848 18.9946 477.331 18.9874 477.792 18.9593C478.047 18.9433 478.225 18.958 478.431 19.007C478.688 19.0691 478.98 19.1083 479.377 19.0823C480.185 19.0322 480.192 19.0417 480.982 19.1595C481.181 19.1894 481.395 19.1849 481.65 19.1689C481.87 19.1549 482.097 19.1828 482.254 19.2377C482.404 19.2982 482.391 19.3364 482.405 19.3688ZM418.883 2.3588C418.649 2.36904 418.415 2.38118 418.072 2.21629C418.05 2.18775 418.064 2.15338 418.014 2.12874C417.899 2.07759 417.721 2.04189 417.508 2.03681C417.125 2.03033 416.664 2.09656 416.672 2.14612C416.68 2.18806 416.801 2.22392 417.036 2.25754C417.135 2.2706 417.214 2.29325 417.307 2.30823C417.577 2.35128 417.791 2.43647 418.181 2.39143C418.108 2.2734 418.145 2.33242 418.181 2.39143C418.147 2.46401 418.254 2.51519 418.51 2.5354C418.581 2.5409 418.687 2.53676 418.744 2.52514C418.963 2.48252 418.998 2.42522 418.832 2.27504C418.804 2.29992 418.826 2.34371 418.89 2.35496C418.954 2.36621 419.11 2.35621 419.188 2.34263C419.387 2.30579 419.485 2.25781 419.435 2.21791C419.406 2.19702 419.271 2.17072 419.186 2.17098C419.037 2.17143 418.902 2.21379 418.883 2.3588ZM476.624 24.3031C476.106 24.3409 475.51 24.3293 474.993 24.4053C474.9 24.4189 474.809 24.4535 474.802 24.4802C474.795 24.4974 474.938 24.5218 475.023 24.5349C475.215 24.5648 475.428 24.5546 475.676 24.5443C476.052 24.5299 476.274 24.6169 476.565 24.6599C476.658 24.673 476.779 24.6821 476.878 24.678C477.453 24.6534 478.02 24.6269 478.595 24.5985C478.694 24.5925 478.8 24.5788 478.885 24.5614C479.168 24.5052 479.139 24.4691 478.862 24.4279C478.556 24.3831 478.314 24.3075 478.001 24.2722C477.553 24.2221 477.099 24.2921 476.624 24.3031ZM436.33 25.8167C435.982 25.833 435.641 25.8493 435.294 25.8656C435.18 25.8717 435.06 25.874 434.953 25.8819C434.733 25.8959 434.571 25.9365 434.465 25.9997C434.629 26.0488 434.829 26.0768 435.049 26.0704C435.396 26.0579 435.737 26.0321 436.084 26.0254C436.46 26.0166 436.682 26.1018 436.974 26.1447C437.066 26.1578 437.18 26.1594 437.286 26.161C437.812 26.167 438.13 26.0669 438.028 25.928C437.955 25.8195 437.685 25.7554 437.358 25.7698C437.018 25.7842 436.67 25.8005 436.33 25.8167ZM479.009 21.477C479.093 21.4443 479.185 21.4212 479.227 21.3924C479.354 21.2948 479.303 21.2224 479.067 21.1469C478.782 21.0543 478.435 21.1183 478.116 21.1288C478.038 21.1309 477.953 21.1712 477.911 21.1961C477.883 21.2134 477.883 21.2496 477.926 21.259C478.275 21.3343 478.645 21.4037 479.009 21.477ZM417.339 16.0288C416.998 16.0451 416.65 16.0576 416.31 16.0796C416.225 16.0856 416.147 16.122 416.098 16.147C416.006 16.193 416.107 16.2556 416.398 16.2605C416.732 16.2671 417.079 16.2337 417.427 16.2173C417.866 16.1969 418.128 16.1256 417.964 16.065C417.807 16.0064 417.594 15.9956 417.339 16.0288ZM43.5905 13.0788C43.8175 13.0686 44.0516 13.0603 44.2786 13.0462C44.4913 13.0323 44.6541 12.9898 44.7596 12.9266C44.5814 12.8775 44.3822 12.8514 44.1622 12.8578C43.8145 12.8703 43.474 12.8866 43.1335 12.9067C42.9207 12.9187 42.7156 12.9613 42.6669 13.0263C42.6179 13.076 43.0939 13.1032 43.5905 13.0788ZM387.25 11.7499C387.343 11.7668 387.435 11.8009 387.528 11.8006C387.755 11.7999 387.989 11.7878 388.202 11.7681C388.294 11.7602 388.364 11.7256 388.406 11.6988C388.434 11.6815 388.427 11.651 388.384 11.6359C388.177 11.545 387.354 11.5799 387.221 11.6852C387.207 11.7043 387.243 11.729 387.25 11.7499ZM364.693 1.37387C364.715 1.40432 364.722 1.43481 364.751 1.46524C364.809 1.52228 364.966 1.56378 365.193 1.5917C365.37 1.54349 365.462 1.48982 365.454 1.43262C365.446 1.40213 365.424 1.37166 365.395 1.34123C365.338 1.28419 365.181 1.24272 364.953 1.21479C364.777 1.2611 364.692 1.31475 364.693 1.37387ZM495.484 25.9704C495.42 25.9954 495.357 26.0204 495.286 26.0435C495.479 26.0982 495.656 26.1148 495.791 26.0839C495.876 26.0646 495.925 26.0358 495.989 26.0108C495.796 25.9561 495.625 25.9414 495.484 25.9704ZM491.072 26.2431C491.165 26.26 491.25 26.2826 491.35 26.2937C491.513 26.3123 491.662 26.2794 491.774 26.2104C491.682 26.1936 491.596 26.1709 491.497 26.1598C491.333 26.1412 491.185 26.1741 491.072 26.2431ZM493.864 25.8857C493.815 25.9316 493.915 25.9694 494.178 26.0011C494.242 25.9761 494.326 25.9529 494.369 25.9261C494.439 25.882 494.318 25.8423 494.061 25.8126C493.991 25.8357 493.927 25.8607 493.864 25.8857ZM478.846 23.8749C478.797 23.9208 478.897 23.9587 479.161 23.9903C479.224 23.9653 479.309 23.9422 479.351 23.9153C479.421 23.8712 479.3 23.8316 479.044 23.8018C478.973 23.8249 478.91 23.8499 478.846 23.8749ZM458.224 10.4414C458.16 10.4664 458.097 10.4914 458.026 10.5145C458.218 10.5692 458.396 10.5858 458.531 10.5549C458.615 10.5356 458.665 10.5068 458.728 10.4818C458.536 10.4271 458.365 10.4124 458.224 10.4414ZM438.556 3.34088C438.727 3.35372 438.869 3.3266 438.988 3.25567C438.896 3.23879 438.81 3.21615 438.71 3.20501C438.547 3.18643 438.398 3.21931 438.286 3.28831C438.378 3.3071 438.471 3.32397 438.556 3.34088ZM428.164 2.92399C428.1 2.94897 428.037 2.97396 427.966 2.99706C428.159 3.05179 428.336 3.06841 428.471 3.03749C428.556 3.01817 428.605 2.98941 428.668 2.96442C428.476 2.90969 428.305 2.89686 428.164 2.92399ZM357.708 1.393C357.644 1.41799 357.581 1.44297 357.51 1.46607C357.703 1.5208 357.88 1.53743 358.015 1.50651C358.1 1.48718 358.149 1.45842 358.212 1.43343C358.02 1.3787 357.849 1.36587 357.708 1.393ZM7.25957 17.9659C7.16702 17.949 7.07455 17.9321 6.98907 17.9133C6.78398 17.9654 6.72084 18.0133 6.83498 18.0492C6.90632 18.0719 7.01293 18.0849 7.10548 18.1018C7.31766 18.0496 7.36663 18.0037 7.25957 17.9659Z" fill="#FFE492"/>
<path d="M48.2852 10.9224C47.4693 10.9611 46.6608 11.0093 45.8447 11.0346C45.4118 11.0473 45.257 11.1298 45.0807 11.2066C44.9397 11.2681 44.7766 11.2876 44.5142 11.2999C42.3007 11.4 40.0943 11.5058 37.888 11.6097C37.6107 11.5857 37.4752 11.5461 37.5384 11.4982C37.5735 11.4695 37.6581 11.4292 37.7432 11.4251C39.2542 11.35 40.758 11.273 42.2764 11.2132C42.7092 11.1966 42.8287 11.1123 43.0477 11.043C43.1184 11.0199 43.1747 10.9854 43.2667 10.9718C43.3588 10.9563 43.4937 10.9578 43.6143 10.9536C46.0548 10.8376 48.4953 10.7234 50.9357 10.6074C51.2129 10.6313 51.3484 10.671 51.2853 10.7188C51.2502 10.7475 51.1656 10.7878 51.0805 10.7919C50.144 10.8348 49.2145 10.8776 48.2852 10.9224Z" fill="#FFE492"/>
<path d="M495.575 20.0618C495.207 20.0858 494.739 20.1196 494.354 20.0101C494.168 19.9573 493.969 19.9407 493.728 19.9529C493.38 19.973 493.026 19.9894 492.671 20.0019C492.579 20.0041 492.458 19.9834 492.365 19.9665C492.166 19.9328 491.994 19.8761 491.781 19.8615C491.568 19.8469 491.313 19.8896 491.093 19.8807C490.802 19.8683 490.68 19.8172 490.758 19.7692C490.8 19.7424 490.884 19.704 490.977 19.698C492.289 19.6235 492.296 19.6235 492.666 19.691C492.951 19.7436 493.214 19.8019 493.619 19.7682C493.959 19.7405 494.321 19.7337 494.669 19.7155C495.151 19.6912 495.151 19.6931 495.934 19.8109C496.133 19.8408 496.346 19.8382 496.601 19.8203C496.821 19.8063 497.035 19.8362 497.213 19.8871C497.1 19.9523 496.937 19.9947 496.717 20.0068C496.363 20.027 496.015 20.0414 495.575 20.0618Z" fill="#FFE492"/>
<path d="M482.502 19.5052C483.396 19.4624 484.297 19.4254 485.191 19.3769C485.559 19.3567 485.851 19.3768 486.107 19.4409C486.385 19.5107 486.698 19.504 487.038 19.4896C487.251 19.4814 487.457 19.5113 487.6 19.5642C487.657 19.5851 487.644 19.6233 487.665 19.6537C486.885 19.6904 486.098 19.7291 485.31 19.762C485.218 19.7661 485.104 19.7473 485.019 19.7323C484.826 19.7005 484.662 19.6437 484.456 19.6329C484.016 19.6075 483.576 19.6603 483.129 19.6712C482.916 19.6757 482.71 19.6477 482.567 19.5966C482.51 19.572 482.524 19.5357 482.502 19.5052Z" fill="#FFE492"/>
<path d="M158.957 3.7688C159.886 3.72405 160.816 3.68122 161.745 3.63646C162.022 3.66233 162.151 3.70008 162.094 3.74792C162.059 3.77664 161.975 3.81694 161.89 3.82101C160.031 3.91243 158.172 4.00002 156.321 4.08761C156.044 4.06174 155.915 4.02399 155.971 3.97614C156.006 3.94743 156.091 3.90713 156.176 3.90306C157.098 3.85641 158.028 3.81356 158.957 3.7688Z" fill="#FFE492"/>
<path d="M15.6792 14.8012C15.2606 14.8063 14.8218 14.8784 14.3527 14.8263C14.2603 14.817 14.132 14.7867 14.1389 14.7695C14.1526 14.7408 14.2372 14.7041 14.3293 14.6924C14.7331 14.6433 15.2368 14.636 15.4406 14.5015C15.5389 14.4323 15.723 14.4088 15.9712 14.3946C16.2335 14.3785 16.418 14.3837 16.6245 14.4232C16.8949 14.4741 17.1235 14.569 17.5485 14.518C17.5702 14.5485 17.6203 14.5828 17.5995 14.6116C17.5786 14.6404 17.4869 14.6674 17.4021 14.6887C17.3243 14.7081 17.218 14.7257 17.1188 14.7317C16.6508 14.7561 16.1827 14.7767 15.6792 14.8012Z" fill="#FFE492"/>
<path d="M385.054 13.5115C385.402 13.4951 385.764 13.4864 386.104 13.4586C386.373 13.4368 386.544 13.4497 386.758 13.4948C387.121 13.5739 387.142 13.5662 388.03 13.575C388.129 13.5766 388.25 13.6049 388.307 13.6295C388.343 13.6428 388.294 13.6792 388.252 13.6984C388.188 13.7234 388.096 13.7562 388.011 13.7564C387.45 13.7638 386.884 13.8782 386.336 13.75C386.058 13.686 385.752 13.6563 385.376 13.6861C385.149 13.704 384.908 13.7124 384.674 13.7207C384.447 13.729 384.213 13.7087 384.07 13.6519C383.863 13.5685 383.983 13.5357 384.352 13.5403C384.586 13.5434 384.82 13.5217 385.054 13.5115Z" fill="#FFE492"/>
<path d="M513.884 26.4449C514.331 26.4244 514.778 26.4001 515.232 26.3834C515.324 26.3793 515.438 26.4 515.523 26.4131C515.865 26.4695 515.816 26.5672 515.832 26.6533C515.84 26.7432 515.054 26.8183 514.719 26.7581C514.349 26.6904 514.015 26.6129 513.504 26.6566C513.306 26.6725 513.071 26.6388 512.942 26.5837C512.75 26.5039 512.856 26.471 513.218 26.4757C513.431 26.4788 513.657 26.4571 513.884 26.4449Z" fill="#FFE492"/>
<path d="M288.175 0.834826C288.636 0.812417 289.097 0.778563 289.558 0.775255C289.828 0.772527 289.964 0.835138 289.9 0.881173C289.865 0.909932 289.781 0.950302 289.696 0.954381C288.774 1.00302 287.852 1.04402 286.929 1.08884C286.659 1.06292 286.524 1.02322 286.587 0.977187C286.622 0.948429 286.707 0.909968 286.792 0.90398C287.253 0.87584 287.714 0.857235 288.175 0.834826Z" fill="#FFE492"/>
<path d="M504.983 20.2097C505.43 20.1893 505.883 20.1592 506.33 20.1483C506.565 20.1438 506.75 20.1872 506.779 20.2367C506.794 20.2596 506.681 20.3001 506.588 20.3099C505.951 20.3768 505.262 20.3866 504.595 20.4211C504.383 20.4313 504.155 20.4014 504.026 20.3483C503.834 20.2667 503.94 20.2358 504.302 20.2405C504.529 20.2417 504.756 20.22 504.983 20.2097Z" fill="#FFE492"/>
<path d="M396.794 13.7416C397.021 13.7313 397.255 13.7057 397.475 13.7127C397.709 13.7216 397.859 13.7767 397.931 13.832C398.01 13.895 398.003 13.9544 397.933 14.0082C397.821 14.1005 397.707 14.097 397.444 14.0365C397.038 13.942 397.01 13.9536 396.208 13.9599C396.116 13.9602 396.002 13.9318 395.931 13.9071C395.824 13.8691 395.88 13.8095 396.128 13.7743C396.312 13.7488 396.567 13.7519 396.794 13.7416Z" fill="#FFE492"/>
<path d="M488.333 19.6202C488.667 19.6039 489 19.578 489.333 19.577C489.567 19.5744 489.753 19.6178 489.775 19.6655C489.782 19.6885 489.676 19.727 489.591 19.7388C489.188 19.7916 488.733 19.7968 488.294 19.8154C488.088 19.8236 487.86 19.7937 487.732 19.7406C487.539 19.6609 487.652 19.6242 488 19.6346C488.106 19.6381 488.22 19.6263 488.333 19.6202Z" fill="#FFE492"/>
<path d="M435.777 17.3897C435.28 17.4142 434.811 17.387 434.846 17.3371C434.895 17.272 435.1 17.2293 435.313 17.2172C435.653 17.197 435.994 17.1807 436.341 17.1681C436.561 17.1598 436.76 17.1879 436.938 17.2371C436.833 17.2986 436.67 17.343 436.458 17.3571C436.238 17.3711 436.004 17.3795 435.777 17.3897Z" fill="#FFE492"/>
<path d="M432.513 17.1527C432.846 17.1364 433.179 17.1105 433.513 17.1095C433.747 17.1069 433.932 17.1503 433.954 17.198C433.962 17.2209 433.856 17.2595 433.771 17.2712C433.367 17.3241 432.913 17.3293 432.473 17.3478C432.268 17.3561 432.04 17.3262 431.911 17.2731C431.719 17.1933 431.832 17.1567 432.18 17.1671C432.286 17.1706 432.399 17.1588 432.513 17.1527Z" fill="#FFE492"/>
<path d="M392.757 13.7362C393.09 13.7199 393.424 13.694 393.757 13.691C393.991 13.6884 394.176 13.7318 394.198 13.7796C394.206 13.8025 394.1 13.8392 394.015 13.8528C393.611 13.9056 393.157 13.9109 392.717 13.9294C392.512 13.9377 392.284 13.9078 392.156 13.8546C391.963 13.7749 392.076 13.7382 392.424 13.7486C392.53 13.7521 392.644 13.7403 392.757 13.7362Z" fill="#FFE492"/>
<path d="M390.889 13.6277C391.244 13.6113 391.357 13.6014 391.471 13.6011C391.684 13.6004 391.904 13.6227 392.033 13.6778C392.225 13.7575 392.112 13.7808 391.764 13.7857C391.317 13.7909 390.878 13.8323 390.431 13.8414C390.197 13.8459 390.012 13.8005 389.997 13.7528C389.989 13.7299 390.095 13.6894 390.18 13.6815C390.478 13.6519 390.804 13.6337 390.889 13.6277Z" fill="#FFE492"/>
<path d="M429.5 2.22309C429.273 2.23335 429.033 2.26087 428.819 2.25196C428.535 2.23943 428.421 2.18813 428.491 2.14008C428.534 2.11316 428.611 2.07466 428.696 2.06866C429.15 2.04049 429.611 2.02185 430.065 2.00133C430.335 2.0292 430.456 2.06901 430.386 2.11706C430.344 2.14398 430.266 2.18057 430.181 2.18848C429.961 2.20828 429.727 2.21283 429.5 2.22309Z" fill="#FFE492"/>
<path d="M153.863 4.00844C154.083 4.00586 154.282 4.03014 154.453 4.07747C154.347 4.13905 154.192 4.17973 153.979 4.19761C153.873 4.20559 153.752 4.21169 153.639 4.21395C153.419 4.21845 153.22 4.19226 153.049 4.14493C153.154 4.08335 153.317 4.04265 153.522 4.02479C153.629 4.01681 153.75 4.01453 153.863 4.00844Z" fill="#FFE492"/>
<path d="M502.549 20.2077C502.541 20.1522 502.973 20.0877 503.363 20.0885C503.569 20.0897 503.782 20.1159 503.903 20.1672C504.089 20.2451 503.983 20.2761 503.635 20.2714C503.422 20.2682 503.196 20.3014 502.983 20.2964C502.742 20.2952 502.599 20.2535 502.549 20.2077Z" fill="#FFE492"/>
<path d="M398.849 13.9682C398.841 13.9472 398.806 13.9224 398.827 13.9032C398.96 13.7974 399.775 13.7623 399.989 13.8536C400.025 13.8707 400.04 13.8994 400.012 13.9168C399.97 13.9437 399.892 13.9784 399.807 13.9863C399.587 14.0062 399.361 14.0165 399.134 14.0191C399.034 14.0194 398.941 13.9871 398.849 13.9682Z" fill="#FFE492"/>
<path d="M18.2016 14.4874C17.365 14.5302 17.3508 14.5264 17.4983 14.4302C17.6318 14.3436 17.8794 14.2912 18.2412 14.2901C18.3476 14.2897 18.461 14.2856 18.5534 14.2929C18.6529 14.3022 18.7951 14.3209 18.8168 14.3438C18.86 14.3877 18.74 14.436 18.5277 14.4692C18.4357 14.4848 18.315 14.4813 18.2016 14.4874Z" fill="#FFE492"/>
<path d="M164.353 3.71128C164.105 3.7446 163.892 3.73377 163.735 3.67295C163.578 3.61213 163.825 3.53856 164.258 3.52C164.371 3.51582 164.491 3.50013 164.598 3.50747C164.704 3.51289 164.811 3.53553 164.875 3.55833C164.99 3.59629 164.919 3.64824 164.693 3.693C164.601 3.71052 164.466 3.7071 164.353 3.71128Z" fill="#FFE492"/>
<path d="M501.071 20.0678C501.134 20.0427 501.197 20.0176 501.267 19.9943C501.53 20.0261 501.643 20.0641 501.573 20.1085C501.531 20.1355 501.447 20.1588 501.383 20.1839C501.121 20.1521 501.015 20.1121 501.071 20.0678Z" fill="#FFE492"/>
<path d="M29.6417 36.3426C29.6414 36.3196 29.7399 36.2829 29.8176 36.2749C29.966 36.2611 30.1503 36.2873 30.2785 36.3406C30.4566 36.4168 30.3511 36.4573 30.0253 36.4373C29.7986 36.4226 29.6423 36.3848 29.6417 36.3426Z" fill="#FFE492"/>
<path d="M401.719 12.1728C401.811 12.1897 401.904 12.2067 401.989 12.2256C401.87 12.2969 401.721 12.328 401.565 12.3093C401.466 12.2981 401.381 12.2754 401.288 12.2584C401.408 12.1871 401.549 12.1599 401.719 12.1728Z" fill="#FFE492"/>
<path d="M399.266 12.0923C399.407 12.0631 399.577 12.078 399.776 12.1329C399.712 12.158 399.656 12.187 399.579 12.2064C399.445 12.2374 399.268 12.2226 399.076 12.1657C399.132 12.1426 399.195 12.1174 399.266 12.0923Z" fill="#FFE492"/>
<path d="M397.383 12.181C397.475 12.198 397.568 12.2149 397.653 12.2338C397.533 12.3051 397.392 12.3362 397.229 12.3175C397.13 12.3063 397.045 12.2836 396.953 12.2666C397.072 12.1954 397.213 12.1662 397.383 12.181Z" fill="#FFE492"/>
<path d="M395.992 12.0824C396.098 12.1204 396.043 12.1666 395.838 12.2191C395.746 12.2021 395.64 12.189 395.569 12.1662C395.455 12.1301 395.511 12.0819 395.722 12.0295C395.808 12.0484 395.9 12.0654 395.992 12.0824Z" fill="#FFE492"/>
</svg>
