<svg width="255" height="43" viewBox="0 0 255 43" fill="none" xmlns="http://www.w3.org/2000/svg">
<path d="M215.589 14.1962C215.276 14.2251 214.959 14.2473 214.652 14.2869C214.453 14.3119 214.366 14.254 214.232 14.2257C214.188 14.2159 214.14 14.1952 214.099 14.1988C213.788 14.2276 213.478 14.2592 213.168 14.2907C213.074 14.3459 213.016 14.418 212.871 14.4472C212.729 14.4749 212.561 14.4787 212.402 14.4946C212.194 14.5143 211.985 14.534 211.776 14.5524C211.671 14.5615 211.586 14.5893 211.553 14.6391C211.547 14.6474 211.617 14.6662 211.655 14.6776C211.783 14.7155 211.907 14.7589 212.048 14.787C212.181 14.8139 212.345 14.7612 212.489 14.7961C212.811 14.8745 212.814 14.873 213.058 14.8512C213.267 14.8314 213.475 14.8104 213.684 14.7947C213.725 14.7911 213.773 14.8104 213.818 14.8203C213.952 14.8472 214.039 14.9132 214.235 14.8829C214.383 14.8591 214.548 14.8513 214.703 14.8369C214.834 14.8734 214.956 14.9155 215.096 14.9436C215.226 14.9706 215.265 14.9929 215.196 15.0339C215.134 15.0721 215.045 15.089 214.928 15.0944C214.823 15.0982 214.719 15.1128 214.615 15.1219C214.561 15.1272 214.51 15.1311 214.46 15.1364C214.26 15.1559 214.26 15.1559 213.894 15.0771C213.75 15.0463 213.59 15.0976 213.453 15.0681C213.36 15.0484 213.28 15.0176 213.191 14.9965C213.153 14.9878 213.093 14.9878 213.045 14.9916C212.887 15.0047 212.728 15.0151 212.577 15.0363C212.469 15.051 212.407 15.0905 212.42 15.1283C212.424 15.1432 212.5 15.1632 212.545 15.1636C212.646 15.164 212.754 15.1425 212.852 15.1498C212.947 15.1571 213.046 15.1821 213.117 15.2104C213.261 15.2697 213.421 15.2103 213.558 15.2235C213.701 15.238 213.819 15.2897 213.956 15.3193C213.991 15.3266 214.058 15.3115 214.111 15.3062C214.267 15.2931 214.422 15.2815 214.577 15.2684C214.708 15.3049 214.848 15.3371 214.966 15.3793C215.181 15.4561 215.409 15.4822 215.684 15.4365C215.839 15.4112 215.991 15.4159 216.116 15.4661C216.244 15.5176 216.39 15.5089 216.551 15.4943C216.7 15.4801 216.852 15.4467 217.005 15.4813C217.336 15.5581 217.339 15.5621 217.729 15.5206C217.846 15.5084 217.934 15.5037 218.024 15.533C218.107 15.5597 218.196 15.5821 218.282 15.6074C218.437 15.5943 218.596 15.5812 218.751 15.5668C218.95 15.5473 219.061 15.5638 219.111 15.6389C219.14 15.6845 219.154 15.7264 219.225 15.7561C219.308 15.7923 219.396 15.7889 219.517 15.7753C219.631 15.7631 219.713 15.7463 219.759 15.6963C219.778 15.6755 219.815 15.6555 219.85 15.6384C219.878 15.6255 219.922 15.6055 219.947 15.6076C219.995 15.612 220.059 15.6255 220.075 15.6428C220.234 15.8039 220.234 15.8052 220.394 15.8492C220.569 15.8983 220.751 15.9418 220.911 15.998C221.055 16.0478 221.197 16.0215 221.352 16.018C221.469 16.0153 221.546 16.0489 221.538 16.0845C221.532 16.105 221.488 16.136 221.45 16.1395C221.14 16.1738 220.827 16.2041 220.513 16.2302C220.476 16.2338 220.427 16.2104 220.383 16.1992C220.293 16.1767 220.213 16.1404 220.118 16.1344C220.023 16.1284 219.912 16.1514 219.808 16.1605C219.703 16.1697 219.593 16.1899 219.498 16.1812C219.402 16.1725 219.325 16.1348 219.236 16.111C219.194 16.0997 219.137 16.0833 219.102 16.0882C218.872 16.1261 218.699 16.0851 218.533 16.029C218.498 16.0175 218.438 16.0107 218.393 16.0144C218.026 16.0459 217.662 16.0814 217.295 16.1156C217.146 16.1299 217.025 16.085 216.991 16.0055C216.974 15.961 216.942 15.9168 216.941 15.8719C216.939 15.7903 216.763 15.7494 216.637 15.7618C216.428 15.7802 216.216 15.7959 216.01 15.8209C215.843 15.8411 215.7 15.828 215.584 15.7816C215.45 15.7289 215.298 15.7432 215.146 15.7617C215.033 15.7751 215.002 15.8207 215.011 15.9335C215.019 16.0245 214.966 16.0542 214.76 16.0739C214.501 16.0988 214.238 16.1239 213.975 16.1448C213.934 16.1485 213.886 16.1264 213.845 16.1151C213.755 16.0927 213.675 16.055 213.58 16.049C213.485 16.0417 213.374 16.0646 213.27 16.0751C213.165 16.0843 213.055 16.1059 212.96 16.0985C212.864 16.0911 212.784 16.0521 212.698 16.0283C212.656 16.0169 212.605 16.0004 212.564 16.0041C212.355 16.0197 212.146 16.0408 211.938 16.0605C211.703 16.0822 211.703 16.0822 211.369 16.0054C211.216 15.9708 211.064 16.0042 210.915 16.0184C210.757 16.0329 210.608 16.0417 210.483 15.9901C210.4 15.9566 210.308 15.937 210.21 15.946C209.947 15.9683 209.688 15.9946 209.425 16.0169C209.381 16.0206 209.32 16.0152 209.285 16.0038C209.116 15.9505 208.95 15.9093 208.716 15.9432C208.514 15.9723 208.295 15.9786 208.093 16.0064C207.982 16.0211 207.932 16.0658 207.955 16.0993C207.968 16.1167 208.035 16.1356 208.08 16.1346C208.181 16.1336 208.292 16.1107 208.387 16.1167C208.584 16.1286 208.685 16.2406 208.941 16.2035C209.093 16.181 209.251 16.1706 209.409 16.1615C209.45 16.1592 209.495 16.1841 209.54 16.1966C209.668 16.2305 209.78 16.2756 209.963 16.2469C210.115 16.2244 210.276 16.2153 210.431 16.2009C210.678 16.1776 210.678 16.1789 211 16.2546C211.153 16.2906 211.305 16.2559 211.453 16.243C211.564 16.2336 211.668 16.2177 211.758 16.2347C211.895 16.2602 211.994 16.3232 212.162 16.3153C212.321 16.3076 212.476 16.285 212.634 16.2746C212.732 16.2683 212.824 16.288 212.905 16.3229C212.988 16.3578 213.077 16.3721 213.184 16.3615C213.34 16.347 213.498 16.3298 213.656 16.3194C213.7 16.3171 213.751 16.3282 213.793 16.3381C213.882 16.3606 213.968 16.3872 214.055 16.4111C214.21 16.3994 214.368 16.3931 214.52 16.3733C214.637 16.3584 214.719 16.362 214.815 16.387C214.936 16.421 215.036 16.484 215.232 16.4483C215.33 16.4311 215.444 16.4326 215.542 16.4167C215.662 16.3963 215.745 16.4012 215.831 16.4401C215.995 16.5139 216.198 16.5107 216.406 16.476C216.633 16.4382 216.806 16.4724 216.978 16.5283C217.16 16.5868 217.16 16.5854 217.303 16.7332C217.345 16.7758 217.463 16.7935 217.561 16.7832C217.726 16.7658 217.868 16.7694 217.99 16.8183C218.118 16.8712 218.27 16.8609 218.425 16.8424C218.631 16.8174 218.836 16.795 219.006 16.8701C219.089 16.9063 219.178 16.9138 219.289 16.9017C219.602 16.8701 219.919 16.8479 220.226 16.811C220.412 16.7877 220.521 16.8288 220.649 16.8627C220.821 16.9091 221.009 16.9497 221.011 17.0572C221.012 17.0748 221.057 17.0942 221.095 17.107C221.178 17.1337 221.267 17.1561 221.354 17.1814C221.481 17.2193 221.606 17.2505 221.78 17.2248C221.931 17.2036 222.093 17.1945 222.248 17.1787C222.403 17.163 222.545 17.1529 222.686 17.2014C222.849 17.2562 223.022 17.3081 223.206 17.3475C223.337 17.3758 223.507 17.3189 223.647 17.3578C223.734 17.3817 223.817 17.4098 223.909 17.4295C223.947 17.4381 224.007 17.4299 224.058 17.4261C224.163 17.4183 224.27 17.4117 224.371 17.3958C224.488 17.3782 224.577 17.3789 224.667 17.4082C224.75 17.4349 224.833 17.4724 224.928 17.4784C225.071 17.4874 225.228 17.4294 225.372 17.4887C225.446 17.5184 225.539 17.5462 225.634 17.5535C225.729 17.5609 225.84 17.538 225.941 17.537C225.986 17.536 226.04 17.5566 226.066 17.5737C226.082 17.5828 226.06 17.6092 226.038 17.6233C226.01 17.6402 225.97 17.6629 225.928 17.6666C225.615 17.6982 225.302 17.7258 224.989 17.756C224.802 17.7739 224.802 17.7739 224.423 17.6967C224.333 17.6784 224.235 17.6847 224.125 17.6967C223.976 17.7123 223.824 17.7389 223.668 17.718C223.463 17.6301 223.213 17.6276 222.947 17.669C222.837 17.6865 222.735 17.6888 222.652 17.6649C222.477 17.6171 222.292 17.5737 222.135 17.5161C222.014 17.4712 221.957 17.4684 221.907 17.5348C221.892 17.5556 221.877 17.5777 221.88 17.5967C221.901 17.6643 221.937 17.7301 221.958 17.7977C221.965 17.8166 221.94 17.8389 221.924 17.8597C221.875 17.918 221.808 17.9154 221.696 17.8703C221.584 17.8252 221.45 17.797 221.273 17.8228C221.122 17.8453 220.957 17.8463 220.805 17.8702C220.571 17.9054 220.405 17.8656 220.236 17.811C220.201 17.7995 220.141 17.7941 220.096 17.7978C219.625 17.8398 219.156 17.8859 218.685 17.9279C218.584 17.937 218.491 17.9187 218.411 17.8837C218.328 17.8489 218.235 17.8319 218.134 17.8411C217.716 17.8791 217.299 17.9145 216.881 17.9594C216.71 17.9782 216.574 17.9636 216.455 17.9187C216.366 17.8853 216.283 17.8763 216.172 17.8829C216.052 17.8897 215.967 17.9053 215.907 17.9461C215.851 17.9855 215.893 18.0077 216.02 18.0347C216.157 18.0642 216.285 18.1035 216.416 18.1387C216.52 18.1308 216.625 18.1176 216.726 18.1166C216.771 18.1156 216.812 18.1392 216.857 18.1518C216.985 18.1883 217.103 18.2251 217.283 18.1992C217.435 18.1767 217.596 18.169 217.751 18.1532C217.967 18.1333 217.967 18.1333 218.317 18.2111C218.406 18.2309 218.501 18.2273 218.615 18.2125C218.713 18.2007 218.815 18.2175 218.886 18.2567C218.915 18.2724 218.906 18.2998 218.848 18.3909C218.849 18.4576 218.915 18.4261 218.936 18.3821C218.97 18.3187 218.903 18.2999 218.777 18.3367C218.689 18.3632 218.645 18.3996 218.668 18.4277C218.681 18.4423 218.742 18.46 218.848 18.3909C219.125 18.303 219.337 18.2886 219.539 18.2622C219.659 18.2473 219.736 18.251 219.832 18.2842C219.947 18.3237 220.062 18.366 220.248 18.34C220.451 18.3109 220.666 18.3033 220.872 18.2782C221.061 18.2549 221.161 18.3125 221.282 18.3451C221.429 18.3839 221.59 18.3327 221.723 18.3541C221.863 18.3754 221.963 18.433 222.125 18.4402C222.359 18.3982 222.509 18.4628 222.688 18.5037C222.828 18.5345 222.992 18.5008 223.141 18.4825C223.308 18.4623 223.448 18.4741 223.566 18.5204C223.701 18.5732 223.85 18.5575 224.001 18.5418C224.356 18.5066 224.368 18.5022 224.576 18.5723C224.726 18.6233 224.868 18.5956 225.017 18.5854C225.148 18.6192 225.276 18.6557 225.413 18.6853C225.448 18.6927 225.514 18.6775 225.568 18.6722C225.723 18.6578 225.881 18.6433 226.036 18.6289C226.141 18.6198 226.251 18.5968 226.346 18.6028C226.442 18.6102 226.522 18.6478 226.608 18.6717C226.694 18.6956 226.784 18.7194 226.867 18.7448C226.994 18.7827 227.116 18.814 227.293 18.7895C227.444 18.7684 227.603 18.7593 227.761 18.7435C227.96 18.724 227.954 18.7282 228.327 18.8014C228.527 18.8417 228.732 18.7827 228.935 18.7726C229.036 18.7676 229.135 18.7803 229.206 18.8182C229.234 18.8338 229.226 18.8613 229.236 18.8842C228.714 18.9328 228.188 18.976 227.672 19.0326C227.473 19.0549 227.367 19.0083 227.259 18.9699C227.08 18.9087 226.847 19.0092 226.677 18.9287C226.575 18.8807 226.428 18.8554 226.255 18.8839C226.153 18.8998 226.046 18.9009 225.941 18.9155C225.676 18.9515 225.432 18.9584 225.217 18.8694C225.144 18.8384 225.039 18.8231 224.962 18.7935C224.872 18.7615 224.786 18.7444 224.682 18.7536C224.21 18.797 223.742 18.8403 223.274 18.8863C223.233 18.89 223.192 18.9113 223.157 18.9271C223.069 18.9672 223.099 18.9964 223.242 19.0177C223.29 19.0248 223.328 19.0416 223.373 19.0542C223.459 19.0781 223.539 19.1171 223.634 19.1244C223.73 19.1318 223.84 19.1102 223.945 19.101C224.049 19.0919 224.16 19.0689 224.255 19.0749C224.35 19.0823 224.43 19.1199 224.52 19.1424C224.561 19.1537 224.612 19.173 224.653 19.1707C224.862 19.1577 225.068 19.1381 225.277 19.1211C225.408 19.1549 225.52 19.2054 225.676 19.2141C225.774 19.22 225.878 19.2027 225.98 19.2031C226.024 19.2035 226.082 19.2226 226.104 19.2397C226.117 19.2503 226.077 19.2785 226.045 19.2928C225.926 19.3472 225.761 19.3414 225.612 19.3611C225.451 19.3825 225.305 19.3804 225.18 19.3301C225.097 19.2967 225.005 19.2797 224.903 19.2888C224.641 19.3125 224.381 19.3388 224.119 19.3597C224.074 19.3635 224.02 19.3524 223.979 19.3439C223.644 19.2685 223.644 19.2657 223.41 19.2887C223.065 19.3224 223.065 19.3224 222.832 19.2556C222.787 19.243 222.739 19.2183 222.701 19.2205C222.334 19.2506 221.97 19.2806 221.606 19.3202C221.486 19.3325 221.403 19.3344 221.314 19.301C221.237 19.2728 221.148 19.2408 221.052 19.2348C220.954 19.2289 220.847 19.2518 220.742 19.2609C220.638 19.2701 220.527 19.2903 220.435 19.2815C220.34 19.2728 220.256 19.2366 220.173 19.2113C220.087 19.1847 219.995 19.1881 219.878 19.2016C219.518 19.2411 219.514 19.2371 219.154 19.161C219.113 19.1524 219.059 19.1427 219.014 19.1464C218.752 19.1687 218.492 19.1951 218.229 19.2174C218.128 19.2265 218.03 19.211 217.959 19.1732C217.93 19.1575 217.939 19.1301 217.919 19.0774C217.896 19.0657 217.922 19.0869 217.929 19.1072C217.976 19.1034 218.033 19.1048 218.068 19.0931C218.156 19.0652 218.2 19.0302 218.177 19.0022C218.164 18.9875 218.103 18.9698 218.065 18.9707C217.995 18.9723 217.936 19.0036 217.919 19.0774C217.72 19.1269 217.508 19.1412 217.302 19.1677C217.182 19.184 217.106 19.1789 217.01 19.1457C216.895 19.1048 216.777 19.0653 216.59 19.0913C216.388 19.1204 216.172 19.1294 215.964 19.1532C215.723 19.1804 215.616 19.0604 215.413 19.0677C215.204 19.0752 214.995 19.1031 214.786 19.1242C214.603 19.1419 214.603 19.1419 214.22 19.0622C214.08 19.0327 213.917 19.084 213.78 19.0531C213.687 19.0335 213.607 19.0026 213.518 18.9815C213.48 18.9729 213.419 18.9742 213.372 18.978C213.109 19.0003 212.843 19.0173 212.59 19.053C212.303 19.0949 212.083 19.0618 211.875 18.9862C211.616 19.0071 211.353 19.0212 211.097 19.0529C210.91 19.0762 210.801 19.0338 210.674 18.9999C210.629 18.9887 210.59 18.9692 210.543 18.9648C210.495 18.9604 210.438 18.9726 210.388 18.9778C210.179 18.9976 209.963 19.0093 209.761 19.0384C209.511 19.0753 209.414 18.966 209.22 18.9568C209.092 19.0264 209.024 19.1191 208.767 19.1317C208.558 19.1419 208.35 19.1684 208.141 19.1881C208.036 19.1973 207.932 19.2078 207.828 19.217C207.66 19.2331 207.582 19.2879 207.619 19.3687C207.639 19.4132 207.656 19.4577 207.672 19.5022C207.706 19.5817 207.628 19.6516 207.495 19.6641C207.128 19.6983 206.764 19.7338 206.397 19.7653C206.299 19.7743 206.204 19.7533 206.123 19.7184C206.04 19.6836 205.948 19.6693 205.847 19.6784C205.48 19.7126 205.116 19.7481 204.749 19.7796C204.707 19.7833 204.653 19.7709 204.612 19.7609C204.523 19.7385 204.436 19.7119 204.35 19.688C204.141 19.705 203.935 19.7178 203.73 19.7388C203.397 19.7709 203.397 19.7722 203.152 19.703C203.107 19.6904 203.062 19.6655 203.021 19.6678C202.863 19.6769 202.708 19.694 202.549 19.7099C202.084 19.7558 202.084 19.7558 201.947 19.7181C201.822 19.6828 201.71 19.6391 201.524 19.6651C201.322 19.6942 201.106 19.7073 200.897 19.7256C200.742 19.7387 200.587 19.7531 200.432 19.7594C200.391 19.7616 200.346 19.7368 200.301 19.7242C200.173 19.6849 200.049 19.6537 199.875 19.6808C199.774 19.6967 199.666 19.7019 199.562 19.7111C199.29 19.7363 199.29 19.7363 198.841 19.6649C198.796 19.6577 198.742 19.6494 198.698 19.6545C198.331 19.6874 197.967 19.7228 197.6 19.7543C197.556 19.7581 197.502 19.7511 197.457 19.7453C196.954 19.6778 196.954 19.6778 196.423 19.728C196.22 19.7462 196.214 19.7518 196 19.6846C195.904 19.6554 195.825 19.6423 195.714 19.6543C195.296 19.6965 194.875 19.7278 194.461 19.7753C194.274 19.7959 194.165 19.7575 194.038 19.7237C193.993 19.7125 193.945 19.6864 193.907 19.6886C193.489 19.7239 193.072 19.7647 192.654 19.8001C192.616 19.8037 192.568 19.7775 192.523 19.7663C192.437 19.7438 192.354 19.7089 192.258 19.7029C192.16 19.697 192.052 19.7199 191.945 19.7291C191.682 19.7528 191.682 19.7514 191.376 19.6781C191.335 19.6681 191.28 19.6544 191.239 19.6581C190.821 19.6948 190.4 19.7275 189.986 19.7764C189.749 19.8035 189.586 19.7677 189.417 19.7144C189.382 19.703 189.322 19.6989 189.277 19.7027C188.806 19.7447 188.337 19.7907 187.866 19.8327C187.768 19.8417 187.672 19.8208 187.592 19.7872C187.464 19.7343 187.315 19.7445 187.157 19.7604C186.793 19.7972 186.79 19.7959 186.573 19.7356C186.528 19.723 186.49 19.7061 186.442 19.7004C186.398 19.6946 186.341 19.7 186.293 19.7038C186.084 19.7222 185.875 19.7419 185.667 19.7616C185.458 19.7813 185.245 19.7943 185.04 19.8221C184.787 19.8564 184.665 19.7708 184.486 19.734C184.227 19.7576 183.961 19.7745 183.705 19.8089C183.509 19.8351 183.415 19.7774 183.285 19.7491C183.24 19.7392 183.192 19.7171 183.151 19.7208C182.679 19.7615 182.208 19.8048 181.739 19.8522C181.625 19.863 181.549 19.8538 181.453 19.8233C181.239 19.7547 181.23 19.7577 180.875 19.7929C180.72 19.8087 180.572 19.823 180.437 19.7702C180.319 19.7226 180.176 19.7136 180.008 19.7337C179.803 19.7588 179.591 19.7745 179.382 19.7929C179.173 19.8126 178.964 19.8377 178.755 19.8493C178.587 19.8599 178.484 19.7983 178.351 19.7687C178.309 19.7601 178.252 19.76 178.205 19.7638C177.996 19.7808 177.78 19.7952 177.578 19.823C177.331 19.8572 177.193 19.7855 177.018 19.7459C176.98 19.7373 176.916 19.7441 176.869 19.7493C176.502 19.7821 176.138 19.8176 175.771 19.8518C175.64 19.818 175.506 19.7857 175.375 19.752C175.167 19.7703 174.958 19.79 174.749 19.8084C174.591 19.8229 174.429 19.8306 174.281 19.8544C174.088 19.886 173.991 19.8242 173.861 19.7959C173.816 19.786 173.768 19.764 173.727 19.7677C173.464 19.7886 173.201 19.8109 172.942 19.8399C172.695 19.8687 172.594 19.7485 172.391 19.7545C172.182 19.7606 171.967 19.7832 171.765 19.8123C171.531 19.8461 171.365 19.8064 171.196 19.7517C171.161 19.7403 171.1 19.7348 171.056 19.7386C170.793 19.7609 170.534 19.7872 170.271 19.8095C170.227 19.8132 170.173 19.8076 170.128 19.8005C169.625 19.7316 169.625 19.7303 169.407 19.7515C169.252 19.766 169.094 19.7832 168.936 19.7936C168.891 19.7973 168.837 19.7863 168.796 19.7763C168.464 19.7009 168.464 19.6995 168.227 19.7212C168.018 19.7409 167.809 19.7606 167.6 19.7804C167.469 19.7466 167.335 19.7143 167.205 19.6805C166.945 19.7041 166.679 19.7237 166.423 19.754C166.303 19.7677 166.223 19.7654 166.131 19.7335C166.016 19.6953 165.9 19.6503 165.711 19.6777C165.508 19.7068 165.293 19.7144 165.087 19.7395C164.841 19.7696 164.737 19.6481 164.537 19.654C164.328 19.6602 164.113 19.6827 163.91 19.7118C163.676 19.7457 163.511 19.706 163.341 19.6513C163.306 19.6398 163.246 19.6344 163.201 19.6381C162.625 19.6907 162.053 19.7432 161.477 19.7984C161.122 19.8324 161.122 19.8337 160.446 19.7743C160.398 19.7699 160.347 19.7656 160.299 19.7694C160.091 19.7864 159.875 19.8008 159.673 19.8286C159.426 19.8627 159.288 19.7924 159.113 19.7515C159.075 19.7428 159.015 19.7496 158.964 19.7535C158.806 19.7666 158.651 19.7824 158.492 19.7969C158.284 19.8166 158.075 19.8363 157.866 19.856C157.735 19.8236 157.601 19.7899 157.47 19.7575C157.211 19.7811 156.945 19.7967 156.689 19.8311C156.493 19.8573 156.4 19.8023 156.269 19.7726C156.224 19.7627 156.176 19.7407 156.135 19.743C155.663 19.7836 155.192 19.8256 154.724 19.8744C154.531 19.8951 154.44 19.8359 154.31 19.8076C154.265 19.7991 154.214 19.7826 154.173 19.7862C153.86 19.8124 153.546 19.8426 153.233 19.8729C153.056 19.8905 153.056 19.8905 152.667 19.815C152.623 19.8065 152.572 19.7981 152.527 19.8018C151.534 19.8925 150.543 19.9871 149.55 20.0777C149.448 20.0868 149.356 20.0685 149.276 20.0336C149.193 19.9988 149.1 19.9818 148.999 19.9909C148.581 20.029 148.16 20.0644 147.746 20.1092C147.575 20.1281 147.438 20.1135 147.32 20.0685C147.23 20.0352 147.148 20.0235 147.037 20.0342C146.828 20.0552 146.619 20.0736 146.41 20.0933C146.202 20.113 145.993 20.1327 145.784 20.1525C145.575 20.1722 145.363 20.1852 145.157 20.213C144.904 20.2473 144.779 20.1658 144.604 20.1276C144.29 20.1551 143.977 20.1826 143.667 20.2115C143.249 20.2495 142.831 20.2903 142.414 20.327C142.376 20.3306 142.328 20.3072 142.283 20.296C142.152 20.2649 142.056 20.2195 141.863 20.2389C140.926 20.3323 139.983 20.4149 139.044 20.5071C138.847 20.5265 138.76 20.4699 138.627 20.4417C138.582 20.4332 138.531 20.4153 138.49 20.419C137.967 20.4648 137.445 20.5148 136.923 20.5634C136.711 20.5832 136.711 20.5832 136.354 20.5069C136.313 20.4984 136.259 20.4873 136.214 20.4911C135.534 20.5528 134.857 20.6172 134.176 20.6803C134.075 20.6894 133.983 20.6724 133.9 20.6376C133.819 20.6027 133.724 20.5844 133.626 20.5935C132.999 20.6513 132.369 20.7078 131.746 20.7696C131.578 20.787 131.439 20.7779 131.317 20.7317C131.231 20.6983 131.145 20.6852 131.037 20.6959C130.097 20.7839 129.157 20.8692 128.218 20.9614C128.037 20.9791 127.91 20.9561 127.795 20.9138C127.702 20.8805 127.623 20.8755 127.509 20.8836C127.388 20.8931 127.316 20.9097 127.25 20.952C127.166 21.007 127.114 21.0749 126.911 21.0836C126.702 21.0924 126.49 21.1136 126.284 21.1414C126.088 21.169 125.995 21.1098 125.87 21.0759C125.778 21.0522 125.692 21.05 125.575 21.065C125.468 21.0783 125.402 21.1029 125.339 21.1479C125.202 21.2435 125.189 21.2438 125.017 21.1892C124.924 21.16 124.841 21.1374 124.74 21.1452C124.322 21.1819 123.904 21.2213 123.487 21.2621C123.246 21.2853 123.243 21.2881 123.061 21.2242C122.971 21.1922 122.885 21.1778 122.781 21.1883C121.632 21.2961 120.484 21.4011 119.335 21.513C119.158 21.5306 119.037 21.5048 118.909 21.4669C118.867 21.4542 118.826 21.4361 118.778 21.4317C118.73 21.4274 118.677 21.434 118.626 21.4379C117.791 21.5154 116.952 21.5903 116.12 21.6745C115.93 21.6938 115.828 21.6526 115.697 21.6202C115.652 21.6089 115.614 21.5908 115.566 21.5864C115.518 21.5834 115.462 21.5942 115.411 21.5995C114.575 21.677 113.737 21.7518 112.905 21.8361C112.705 21.8556 112.618 21.8004 112.488 21.7734C112.443 21.7635 112.395 21.7442 112.354 21.7479C112.091 21.7688 111.832 21.7951 111.569 21.8188C110.943 21.8779 110.316 21.9344 109.689 21.9949C109.449 22.018 109.342 21.8993 109.139 21.9094C108.876 21.9222 108.617 21.9553 108.354 21.9803C108.145 22 107.936 22.0184 107.728 22.0395C107.522 22.0591 107.522 22.0591 107.007 21.9919C106.962 21.9861 106.908 21.9778 106.864 21.9815C106.133 22.0485 105.398 22.1155 104.671 22.1865C104.503 22.2026 104.363 22.1989 104.242 22.1514C104.155 22.1179 104.066 22.1023 103.962 22.1128C102.864 22.2153 101.769 22.3178 100.671 22.419C100.629 22.4226 100.575 22.4102 100.534 22.4003C100.445 22.3778 100.358 22.3512 100.272 22.3273C100.209 22.36 100.128 22.3905 100.087 22.4268C100.031 22.4757 99.9556 22.491 99.8354 22.5019C99.7151 22.5128 99.639 22.5118 99.5431 22.4786C99.428 22.4377 99.3099 22.4063 99.1232 22.4242C97.9746 22.536 96.8258 22.6397 95.6772 22.7502C95.4873 22.7681 95.3972 22.7103 95.2634 22.682C95.2188 22.6735 95.1677 22.6597 95.1265 22.6634C94.655 22.7054 94.1867 22.7501 93.7151 22.7934C92.4082 22.9157 91.1013 23.0338 89.7976 23.1614C89.5603 23.1845 89.3979 23.1542 89.2285 23.0995C89.1934 23.0881 89.133 23.0827 89.0887 23.0864C87.2596 23.2559 85.4305 23.4267 83.6046 23.5975C83.5065 23.6065 83.4109 23.5869 83.3308 23.5534C83.2476 23.5185 83.1553 23.5029 83.054 23.512C82.2186 23.5895 81.3832 23.6671 80.5478 23.7459C80.339 23.7656 80.3358 23.7671 80.1187 23.7067C80.074 23.6941 80.0259 23.6693 79.9911 23.6728C79.9184 23.6813 79.8494 23.7169 79.7998 23.7643C79.7502 23.8144 79.6712 23.8298 79.5542 23.842C79.434 23.8542 79.3547 23.852 79.262 23.8214C79.1438 23.7833 79.0351 23.7463 78.8452 23.7642C76.4435 23.993 74.0416 24.2149 71.6398 24.4423C71.4468 24.4603 71.3567 24.4053 71.2229 24.377C71.1783 24.3685 71.1336 24.3559 71.086 24.3542C71.0352 24.3527 70.9815 24.3621 70.9309 24.3673C67.0133 24.7326 63.0957 25.0992 59.1781 25.4645C58.9439 25.4862 58.9471 25.4861 58.6933 25.6171C58.6619 25.6328 58.6211 25.6541 58.5768 25.6578C57.3775 25.7722 56.1751 25.8839 54.9726 25.9956C54.4504 26.0442 53.9283 26.0942 53.4062 26.1414C53.2194 26.1579 53.2194 26.1579 52.7759 26.3149C52.7382 26.3281 52.6941 26.3454 52.6498 26.3491C50.5613 26.5449 48.4727 26.7407 46.381 26.9339C46.2164 26.9485 46.0839 26.976 46.0093 27.043C45.9565 27.0905 45.8874 27.1193 45.783 27.1298C44.321 27.2664 42.8591 27.4045 41.3939 27.5385C41.2198 27.5547 41.1161 27.5951 41.0318 27.6542C41.0037 27.6739 40.9789 27.6962 40.938 27.7107C40.9002 27.7239 40.8433 27.7292 40.7958 27.7344C39.5427 27.8513 38.2897 27.971 37.0333 28.0839C36.8465 28.1004 36.7716 28.1525 36.6809 28.2076C36.6496 28.226 36.628 28.251 36.5871 28.2642C36.5461 28.276 36.4859 28.2773 36.4352 28.2812C35.391 28.3784 34.3467 28.477 33.3025 28.5742C33.0994 28.572 33.0569 28.6519 32.9597 28.7018C32.9252 28.7189 32.9004 28.7412 32.8595 28.753C32.8153 28.7649 32.7582 28.7649 32.7044 28.7688C31.8689 28.8463 31.0336 28.9279 30.1949 29.0014C30.0019 29.018 29.9654 29.0883 29.8619 29.1382C29.8274 29.154 29.7931 29.1779 29.752 29.1829C29.2299 29.2343 28.7078 29.2829 28.1856 29.3301C28.0116 29.3463 28.0115 29.345 27.7072 29.4866C27.6727 29.5023 27.6318 29.5196 27.5875 29.5247C26.806 29.5996 26.0212 29.6719 25.2364 29.7455C25.1351 29.7546 25.0662 29.7888 25.0165 29.8362C24.9669 29.8836 24.8947 29.9152 24.7934 29.9243C24.1668 29.9835 23.5403 30.044 22.9136 30.099C22.7395 30.1139 22.6263 30.1505 22.5516 30.2134C22.4956 30.2609 22.4264 30.2856 22.3157 30.2963C21.6891 30.3541 21.0626 30.416 20.4327 30.4684C20.2492 30.4835 20.1551 30.5319 20.0803 30.5907C20.0212 30.6383 19.9518 30.6562 19.8347 30.6671C18.686 30.7721 17.5341 30.8772 16.3887 30.9903C16.1957 31.0097 16.0963 30.9643 15.9688 30.9332C15.787 30.8897 15.6178 30.8418 15.6154 30.7358C15.615 30.7194 15.5607 30.7016 15.5223 30.6889C15.2379 30.5933 15.2379 30.5933 15.191 30.4855C15.1641 30.4194 15.134 30.3521 15.1102 30.2846C15.0664 30.174 14.9643 30.1477 14.6732 30.1748C14.5687 30.184 14.4644 30.1958 14.3599 30.2037C14.2048 30.2167 14.0865 30.1745 14.0561 30.0935C14.0392 30.049 14.0192 30.0046 14.0023 29.96C14.1605 29.9456 14.1573 29.9443 14.4324 29.7734C14.5481 29.7013 14.5481 29.7013 14.3215 29.6371C14.2353 29.6132 14.1522 29.5865 14.0597 29.5641C14.0183 29.5542 13.9643 29.5486 13.9199 29.5523C13.6572 29.5746 13.3978 29.5996 13.1383 29.6245C12.7206 29.664 12.7206 29.6639 12.2926 29.5349C12.2575 29.5248 12.2031 29.5056 12.2092 29.4946C12.2429 29.4435 12.328 29.4198 12.4356 29.4119C12.5939 29.4001 12.7489 29.383 12.904 29.3686C13.0084 29.3594 13.1128 29.3489 13.2173 29.3397C13.3143 29.2858 13.4147 29.2331 13.5054 29.178C13.6493 29.0931 13.6492 29.0904 13.4481 29.0378C13.3205 29.0026 13.1834 28.9717 13.0526 28.9393C12.8976 28.9537 12.7394 28.9695 12.5843 28.9826C12.3881 28.9993 12.3082 28.9752 12.2554 28.888C12.2093 28.8115 12.2616 28.7436 12.4134 28.7238C12.5683 28.704 12.7139 28.6898 12.7916 28.6186C12.8661 28.5503 12.9986 28.5214 13.1633 28.5122C13.2678 28.5057 13.3722 28.4939 13.4766 28.4833C13.6126 28.4693 13.684 28.3983 13.6536 28.3214C13.6366 28.2715 13.6039 28.23 13.4801 28.222C12.9306 28.1868 12.9243 28.1883 12.6496 28.102C12.624 28.0945 12.6045 28.0704 12.6137 28.058C12.6291 28.0372 12.6633 28.0065 12.7012 28.0015C13.065 27.9633 13.4289 27.9278 13.7929 27.8992C13.9132 27.8896 14.0018 27.8781 14.0418 27.8268C14.0972 27.7561 14.0704 27.6928 13.9584 27.6477C13.9232 27.6336 13.8656 27.6158 13.8276 27.618C13.4098 27.652 12.9953 27.6927 12.5775 27.7267C12.5395 27.7303 12.4693 27.7088 12.453 27.6915C12.4206 27.6596 12.4671 27.615 12.5777 27.5975C12.723 27.5738 12.8719 27.569 12.9686 27.4988C13.1027 27.3991 13.2686 27.3069 13.4186 27.211C13.4436 27.1941 13.4841 27.1618 13.4746 27.1593C13.3946 27.1312 13.3022 27.1102 13.2191 27.0835C13.0785 27.039 13.077 26.9724 13.1072 26.9078C13.1313 26.8555 13.226 26.8329 13.3432 26.8303C13.3939 26.8291 13.4573 26.8277 13.4983 26.8145C13.6053 26.7821 13.6393 26.7433 13.5848 26.7159C13.5527 26.7003 13.4952 26.6785 13.4572 26.6821C12.7799 26.7424 12.0994 26.8014 11.4256 26.8725C11.2263 26.8934 11.1332 26.8438 11.0119 26.8098C10.9193 26.7833 10.8334 26.7744 10.7198 26.7974C10.6125 26.8189 10.5077 26.8104 10.4401 26.767C10.3853 26.7315 10.4797 26.6981 10.7356 26.6569C10.783 26.649 10.8368 26.6437 10.8713 26.6293C11.2356 26.474 11.2356 26.4727 11.4887 26.4479C11.7355 26.4246 11.7355 26.4232 11.8637 26.3414C11.923 26.3033 11.9887 26.265 12.0449 26.2257C12.0667 26.2102 12.1042 26.1821 12.0913 26.1743C12.0206 26.1337 11.9252 26.1263 11.8145 26.1384C11.5678 26.1671 11.2758 26.1547 11.1489 26.2869C11.0993 26.337 11.0203 26.3524 10.9064 26.3631C9.76085 26.4681 8.61535 26.5785 7.46654 26.6808C7.27981 26.6973 7.19545 26.7496 7.12383 26.807C7.06151 26.8547 6.99208 26.8699 6.87182 26.8808C6.75156 26.8917 6.65652 26.8979 6.58575 26.8546C6.54392 26.8284 6.57791 26.7895 6.67212 26.7492C6.80716 26.6917 6.78022 26.6243 6.73436 26.5614C6.70169 26.52 6.60275 26.4923 6.49821 26.4974C6.34303 26.5063 6.19444 26.5247 6.06323 26.4732C5.98643 26.4437 5.89082 26.4241 5.80461 26.3988C5.6385 26.3468 5.47236 26.2934 5.24182 26.3354C5.08303 26.3254 4.97096 26.279 4.84329 26.2438C4.62948 26.186 4.61024 26.1769 4.76085 26.1068C4.93028 26.0282 4.79486 25.9332 4.88826 25.8576C4.98786 25.7765 5.12577 25.7039 5.24768 25.6277C5.27894 25.6079 5.30707 25.5896 5.33833 25.5698C5.2648 25.5443 5.19746 25.5118 5.11144 25.4947C4.99994 25.4727 4.94219 25.4441 4.94658 25.3596C4.92411 25.3479 4.93428 25.379 4.95982 25.3866C4.98854 25.3941 5.05817 25.3857 5.09281 25.3754C5.18096 25.3475 5.22451 25.3125 5.20166 25.2845C5.18863 25.2698 5.12802 25.2521 5.08998 25.253C5.02025 25.2546 4.96073 25.2858 4.94341 25.3597C4.5897 25.4236 4.22259 25.4591 3.85542 25.4892C3.81745 25.4928 3.7693 25.4667 3.72461 25.4541C3.57774 25.4112 3.57775 25.4125 3.14954 25.4087C3.10513 25.4083 3.0445 25.3906 3.02187 25.3721C2.92804 25.2912 2.92912 25.2 2.8827 25.1126C2.96379 25.0536 3.04485 24.996 3.12914 24.9383C3.29769 24.8215 3.51732 24.7172 3.64759 24.5904C3.61752 24.5244 3.57794 24.4586 3.71614 24.4011C4.11077 24.324 4.10763 24.3241 4.21389 24.2564C4.51707 24.0644 4.81702 23.8712 5.13294 23.6817C5.21742 23.6321 5.21684 23.6063 5.06423 23.5893C5.01656 23.585 4.96574 23.5848 4.91509 23.5886C4.75683 23.6018 4.59892 23.6298 4.44348 23.6279C4.28807 23.6274 4.17258 23.5701 4.04495 23.5363C3.91411 23.5012 3.78325 23.4647 3.65239 23.4282C3.50351 23.4357 3.35545 23.4771 3.20506 23.4193C3.08985 23.3743 2.94644 23.3435 2.81557 23.307C2.91144 23.2014 3.09349 23.1184 3.23401 23.024C3.36205 22.9381 3.36518 22.9394 3.71236 22.8676C3.87649 22.8339 3.93 22.6789 3.78949 22.6372C3.62025 22.5866 3.44162 22.5403 3.26927 22.4925C3.12039 22.5 2.96913 22.5402 2.82508 22.4822C2.71307 22.4385 2.58554 22.4101 2.40211 22.4319C2.09218 22.4689 1.77557 22.4911 1.46234 22.5227C1.35476 22.5333 1.23733 22.5306 1.18872 22.4854C1.15626 22.4535 1.24715 22.4065 1.35153 22.3946C1.5097 22.3774 1.65194 22.3578 1.72961 22.288C1.80411 22.2183 1.94308 22.1947 2.10768 22.1814C2.15199 22.1777 2.20237 22.1602 2.22418 22.1434C2.33646 22.0619 2.46168 21.9911 2.70581 21.9882C2.80661 21.9587 2.85967 21.9235 2.82722 21.8916C2.80779 21.8743 2.74073 21.8527 2.70276 21.8563C2.43999 21.8759 2.17724 21.8955 1.92107 21.9258C1.80087 21.9394 1.70896 21.9442 1.63195 21.9051C1.57744 21.8792 1.60511 21.8418 1.70563 21.8C1.79359 21.764 1.81807 21.724 1.81066 21.6779C1.79233 21.5708 1.6965 21.5417 1.39237 21.5554C1.17379 21.5658 1.1195 21.5494 1.06981 21.458C1.05663 21.4365 1.0243 21.4073 1.04614 21.3918C1.1803 21.2963 1.26641 21.18 1.52215 21.1306C1.6232 21.112 1.73092 21.1096 1.7935 21.0728C1.85607 21.036 1.91221 20.9939 1.97799 20.9583C2.05945 20.9157 2.11557 20.8763 2.07694 20.8513C2.01248 20.8065 1.91099 20.8047 1.79409 20.8237C1.69298 20.8396 1.58524 20.8434 1.48083 20.854C1.29417 20.8732 1.14125 20.8413 1.11767 20.782C1.05381 20.6256 0.986779 20.4706 0.929248 20.3141C0.922469 20.2952 0.937708 20.2703 0.962688 20.2534C1.05012 20.1943 1.14399 20.1377 1.23462 20.0799C1.34091 20.0135 1.51238 20.0218 1.6579 20.0063C1.86351 19.9839 1.86347 19.9853 2.13621 19.8484C2.24279 19.7943 2.43027 19.8105 2.54014 19.7617C2.57466 19.7459 2.62798 19.7202 2.61816 19.7069C2.60507 19.6895 2.5414 19.6773 2.49366 19.6702C2.4491 19.6631 2.39514 19.6602 2.34769 19.6654C1.77172 19.7179 1.19901 19.7731 0.62302 19.8243C0.524919 19.8334 0.416457 19.8059 0.380616 19.7645C0.344839 19.7259 0.353216 19.678 0.34584 19.6333C0.43647 19.5755 0.539833 19.5214 0.61769 19.4598C0.676844 19.4121 0.746117 19.3902 0.8665 19.3847C1.02489 19.377 1.17984 19.3572 1.35705 19.3409C1.6821 19.1348 2.00058 18.9194 2.35098 18.7128C2.49176 18.6293 2.45507 18.5485 2.48161 18.4621C2.50832 18.3826 2.72095 18.39 2.86305 18.3636C2.97672 18.342 3.0137 18.2976 2.96863 18.2687C2.94286 18.2516 2.88537 18.2325 2.841 18.2335C2.7364 18.2359 2.63209 18.2505 2.52765 18.2597C2.42321 18.2689 2.30267 18.2675 2.21763 18.2926C2.13572 18.3162 2.08287 18.3637 2.0299 18.4043C1.97068 18.4492 1.89184 18.466 1.77146 18.4715C1.61621 18.4777 1.46119 18.4935 1.3061 18.5065C1.13372 18.4574 0.954984 18.4097 0.788875 18.3577C0.756927 18.3476 0.749831 18.3164 0.752529 18.296C0.757642 18.2428 0.709356 18.2112 0.60416 18.1877C0.514908 18.168 0.441277 18.1384 0.358238 18.1131C0.420782 18.0749 0.489721 18.0379 0.539523 17.9973C0.648543 17.9119 0.786639 17.8489 1.02759 17.8461C1.12146 17.7909 1.196 17.7239 1.31876 17.6843C1.43522 17.6463 1.63574 17.6771 1.72263 17.5949C1.76609 17.5544 1.83166 17.508 1.91686 17.4898C2.05255 17.4608 2.23037 17.4704 2.30785 17.3924C2.35438 17.3478 2.42318 17.3068 2.51484 17.2938C2.61916 17.2792 2.72684 17.274 2.80231 17.2465C2.8432 17.2319 2.88708 17.2092 2.88664 17.1901C2.88635 17.1779 2.82257 17.1603 2.77801 17.1531C2.73658 17.1445 2.68248 17.139 2.635 17.1428C2.47671 17.1545 2.32174 17.173 2.16345 17.1848C2.11914 17.1885 2.06822 17.1802 2.02049 17.1731C1.88052 17.1545 1.88938 17.1271 1.99919 17.0756C2.10902 17.0255 2.18689 16.9624 2.27752 16.9046C2.37873 16.8928 2.50559 16.894 2.57473 16.8665C2.69103 16.8217 2.772 16.7586 2.86586 16.7034C2.97027 16.6929 3.07797 16.6877 3.17589 16.6705C3.21696 16.6642 3.23531 16.6338 3.26976 16.6153C3.33237 16.5799 3.38517 16.5297 3.47037 16.5114C3.60927 16.4838 3.78064 16.4894 3.86132 16.4127C3.90786 16.3681 3.97967 16.3202 4.06835 16.3155C4.31546 16.3044 4.41833 16.2273 4.54348 16.1536C4.63734 16.0984 4.84083 16.121 4.94421 16.0656C5.01315 16.03 5.06292 15.9867 5.1319 15.9525C5.16011 15.9382 5.22016 15.9301 5.26761 15.9249C5.52704 15.8986 5.78977 15.8777 6.04918 15.85C6.09029 15.845 6.12788 15.8237 6.1592 15.8067C6.22495 15.7698 6.26497 15.7199 6.34685 15.6949C6.42872 15.6699 6.54598 15.6672 6.64726 15.6581C6.97326 15.6303 6.99876 15.6352 7.14506 15.5162C7.26334 15.4196 7.55969 15.4795 7.65556 15.3739C7.71123 15.3128 7.81465 15.2615 8.0015 15.2504C8.26436 15.2349 8.52367 15.2032 8.78634 15.1795C9.02051 15.1579 9.01735 15.1579 9.268 15.0257C9.38079 14.966 9.549 14.9703 9.69772 14.956C9.85595 14.9416 10.0014 14.9219 10.0759 14.8522C10.1504 14.7838 10.2893 14.7589 10.4508 14.7457C10.5995 14.7328 10.7677 14.7358 10.8837 14.6787C11.166 14.5417 11.1628 14.5404 11.3621 14.5222C11.6754 14.4933 11.9887 14.4644 12.302 14.4342C12.5108 14.4145 12.7295 14.4068 12.9253 14.3724C13.0674 14.3474 13.129 14.2698 13.2197 14.2146C13.4792 14.1883 13.7386 14.162 13.9981 14.1371C14.3619 14.1016 14.729 14.0688 15.0961 14.0346C15.2534 13.9793 15.273 13.8645 15.5391 13.853C15.6975 13.8467 15.8524 13.8255 16.0107 13.811C16.2733 13.786 16.5326 13.7556 16.7955 13.7401C16.995 13.7288 17.0281 13.6545 17.1317 13.6059C17.1662 13.5888 17.1974 13.5649 17.2385 13.5599C17.6496 13.5125 18.0741 13.4947 18.4754 13.4298C18.5165 13.4234 18.5539 13.394 18.5629 13.3733C18.569 13.3623 18.5146 13.3431 18.4795 13.3344C18.4381 13.3245 18.384 13.3148 18.3397 13.3185C17.0327 13.4394 15.7258 13.5617 14.4189 13.6825C14.2354 13.7003 14.2353 13.699 13.7919 13.8587C13.7541 13.8718 13.71 13.8864 13.6626 13.8916C13.4537 13.9127 13.2416 13.927 13.036 13.9521C12.8684 13.9723 12.7286 13.9591 12.6071 13.9129C12.5207 13.8794 12.4316 13.8706 12.3239 13.8758C12.2036 13.8826 12.1247 13.8993 12.0558 13.9377C11.9651 13.9901 11.919 14.0564 11.726 14.0744C10.8367 14.1531 9.94746 14.2387 9.06141 14.3214C8.93736 14.3052 8.87648 14.278 8.90739 14.2433C8.92594 14.2224 8.96336 14.1944 9.00133 14.1908C9.36518 14.1539 9.73228 14.1211 10.0962 14.0856C10.1468 14.0804 10.2166 14.0815 10.2448 14.0673C10.3828 14.0029 10.4313 13.9024 10.6942 13.8897C10.8463 13.8821 11.0011 13.8582 11.1464 13.8358C11.1875 13.8295 11.2249 13.8 11.2339 13.7794C11.2369 13.7685 11.1857 13.7492 11.1474 13.7406C11.007 13.7043 10.8465 13.7556 10.7064 13.7316C10.6587 13.7231 10.5918 13.711 10.5819 13.6949C10.5752 13.6801 10.6285 13.6544 10.6662 13.6386C10.7007 13.6242 10.748 13.6109 10.7954 13.6057C11.2131 13.5649 11.6308 13.5227 12.0486 13.4888C12.2196 13.4753 12.3392 13.4386 12.4138 13.3743C12.4698 13.3268 12.539 13.3007 12.6466 13.2915C13.3776 13.2245 14.1085 13.1521 14.8428 13.0891C15.0263 13.0741 15.1204 13.027 15.1952 12.9668C15.2543 12.9192 15.3237 12.9013 15.4408 12.8905C16.4883 12.7959 17.5292 12.6933 18.5768 12.6015C18.7699 12.5848 18.8256 12.5251 18.9227 12.4725C18.9572 12.454 18.9788 12.4318 19.0229 12.4199C19.067 12.408 19.1241 12.408 19.1779 12.4041C20.0134 12.3266 20.8488 12.245 21.6874 12.1715C21.8837 12.1548 21.9201 12.0859 22.0204 12.036C22.0549 12.0203 22.0861 11.9951 22.1272 11.9901C22.7537 11.9296 23.3803 11.8718 24.0068 11.8126C24.4245 11.7732 24.8422 11.7338 25.2599 11.6957C25.4657 11.6774 25.4656 11.676 25.7416 11.5405C25.7729 11.5248 25.8169 11.5061 25.858 11.5011C27.0605 11.3867 28.2598 11.2764 29.4623 11.1634C29.5636 11.1542 29.6357 11.1213 29.6854 11.0739C29.735 11.0265 29.8073 10.9936 29.9054 10.9845C30.8452 10.8951 31.785 10.8071 32.7281 10.7217C32.899 10.7069 33.0186 10.6715 33.0933 10.6086C33.1493 10.5611 33.2184 10.535 33.3261 10.5258C34.2659 10.4391 35.2058 10.3483 36.1489 10.2643C36.3292 10.2479 36.4169 10.1997 36.5044 10.1433C36.5356 10.1235 36.5603 10.0916 36.5983 10.0881C37.0665 10.0393 37.5315 9.98927 38.0032 9.9527C38.1994 9.93735 38.2647 9.87871 38.3427 9.82251C38.4051 9.77754 38.4776 9.76093 38.598 9.75275C38.8608 9.73453 39.1201 9.70551 39.3763 9.67655C39.4143 9.67161 39.4611 9.6406 39.4639 9.62149C39.4694 9.58599 39.3959 9.56316 39.2752 9.55366C38.022 9.67059 36.7658 9.78759 35.5126 9.90453C35.3069 9.92417 35.3069 9.92418 35.031 10.0597C34.9996 10.0754 34.9556 10.0941 34.9114 10.0992C33.7089 10.2123 32.5096 10.3239 31.3071 10.4369C31.2058 10.446 31.1337 10.479 31.084 10.5264C31.0344 10.5738 30.9621 10.6067 30.864 10.6158C29.7153 10.7235 28.5667 10.8326 27.4148 10.9364C27.2439 10.9511 27.1242 10.9852 27.0495 11.0494C26.9936 11.097 26.9244 11.1231 26.8168 11.1323C25.7187 11.2335 24.6238 11.3386 23.5225 11.4372C23.4117 11.4465 23.3284 11.4089 23.3339 11.372C23.3366 11.3529 23.3834 11.3206 23.4214 11.317C23.994 11.2591 24.5635 11.1999 25.1396 11.1527C25.3327 11.1375 25.3883 11.0763 25.4854 11.0238C25.5167 11.0054 25.5416 10.9817 25.5826 10.9712C25.6267 10.9593 25.6838 10.9594 25.7376 10.9554C27.0951 10.828 28.4527 10.6991 29.8135 10.577C30.0097 10.559 30.0461 10.4915 30.1465 10.4415C30.181 10.4244 30.2121 10.3992 30.2533 10.3956C30.6709 10.3534 31.0886 10.3154 31.5063 10.2773C32.2373 10.209 32.9683 10.1406 33.7025 10.0722C33.9145 10.0524 33.9145 10.0524 34.1841 9.9184C34.2155 9.90272 34.2594 9.88268 34.3006 9.87902C36.2341 9.69764 38.1675 9.51624 40.101 9.33622C40.2023 9.32711 40.2745 9.29417 40.3241 9.24678C40.3738 9.20074 40.4459 9.16644 40.544 9.15605C43.1578 8.91157 45.7685 8.66715 48.3824 8.42539C48.5533 8.40926 48.673 8.37796 48.7476 8.31231C48.8005 8.26484 48.8728 8.23871 48.9804 8.2281C51.8537 7.96003 54.727 7.69196 57.6035 7.42246C59.537 7.24243 61.4705 7.05968 63.404 6.88237C63.5813 6.8661 63.6753 6.82177 63.7628 6.76399C63.7909 6.7443 63.8187 6.71237 63.8567 6.70878C64.2711 6.66534 64.6856 6.62463 65.1001 6.58391C65.2309 6.61767 65.3617 6.65009 65.4925 6.68386C65.5895 6.62994 65.6834 6.57473 65.7805 6.52082C66.4072 6.46711 67.0238 6.39186 67.6573 6.35841C67.6985 6.35611 67.7434 6.38095 67.7881 6.39354C68.0849 6.47252 68.2527 6.4619 68.4371 6.3434C68.5027 6.30109 68.5589 6.26307 68.6602 6.25397C68.9734 6.22235 69.2901 6.19882 69.6 6.1632C69.7677 6.14442 69.9074 6.15485 70.029 6.20107C70.1154 6.23449 70.2045 6.24744 70.3089 6.2369C70.8848 6.18299 71.4576 6.1305 72.0335 6.07387C72.0746 6.07021 72.1121 6.04622 72.1434 6.02918C72.2091 5.9923 72.2653 5.95293 72.3279 5.91477C72.414 5.93594 72.5095 5.95147 72.5799 5.9798C72.6695 6.01315 72.7519 6.01127 72.8721 5.99901C75.1695 5.78213 77.4701 5.56927 79.7674 5.35103C79.9636 5.33296 80.0505 5.38815 80.1843 5.41504C80.229 5.42491 80.2736 5.4375 80.3212 5.43914C80.372 5.4407 80.4257 5.43133 80.4763 5.42609C82.2009 5.26442 83.9256 5.1041 85.6502 4.94243C85.8781 4.92092 85.8781 4.92092 86.2192 4.99753C86.2606 5.00748 86.3148 5.01849 86.3591 5.01341C87.1439 4.9425 87.9286 4.86751 88.7103 4.79531C88.8115 4.78621 88.8977 4.80602 88.9903 4.83521C89.1724 4.8923 89.185 4.89202 89.3161 4.79923C89.3785 4.75563 89.4444 4.72826 89.5488 4.71365C89.6625 4.69745 89.7546 4.69946 89.8439 4.72192C89.9715 4.75304 90.0648 4.80806 90.2578 4.78871C91.0931 4.70576 91.9318 4.63363 92.7639 4.5494C92.9537 4.53012 93.0562 4.57405 93.1838 4.60517C93.2284 4.6164 93.2701 4.63451 93.3177 4.63751C93.3653 4.64051 93.4222 4.62968 93.4728 4.62445C94.5171 4.52723 95.5645 4.43131 96.6055 4.32872C96.8017 4.30929 96.8886 4.36582 97.0224 4.39271C97.0671 4.40259 97.1182 4.42049 97.1593 4.41683C97.786 4.3604 98.4157 4.30117 99.0423 4.24202C99.267 4.22058 99.2669 4.22194 99.6112 4.29713C99.6526 4.30707 99.7068 4.31673 99.7511 4.313C100.482 4.24603 101.216 4.17763 101.947 4.10931C102.172 4.08787 102.172 4.08788 102.823 4.14383C102.871 4.14819 102.922 4.15521 102.969 4.15141C103.805 4.0739 104.643 3.99768 105.479 3.91609C105.646 3.90004 105.786 3.90774 105.908 3.95397C105.994 3.98738 106.083 4.00033 106.188 3.9898C107.127 3.90175 108.071 3.81636 109.007 3.72431C109.188 3.70661 109.305 3.73385 109.433 3.77041C109.475 3.78307 109.516 3.80118 109.564 3.80554C109.612 3.8099 109.665 3.80323 109.716 3.798C110.656 3.70996 111.599 3.62593 112.536 3.53252C112.725 3.51323 112.828 3.55717 112.955 3.58828C113 3.59952 113.048 3.62292 113.086 3.62069C113.453 3.58922 113.821 3.56046 114.184 3.51818C114.38 3.49467 114.467 3.55527 114.601 3.58217C114.646 3.59068 114.697 3.60994 114.738 3.60628C115.523 3.53537 116.308 3.46174 117.089 3.38683C117.2 3.37614 117.283 3.3865 117.372 3.41984C117.491 3.46478 117.627 3.48072 117.798 3.46187C118.162 3.42231 118.529 3.39219 118.896 3.35799C119.112 3.33813 119.112 3.33814 119.772 3.39388C119.82 3.39823 119.871 3.40524 119.918 3.40144C120.545 3.34365 121.175 3.28715 121.798 3.22536C121.966 3.20794 122.106 3.217 122.227 3.26323C122.314 3.29664 122.399 3.30967 122.507 3.29906C123.083 3.24514 123.656 3.19129 124.232 3.13738C124.441 3.11766 124.649 3.08706 124.858 3.08231C125.011 3.08021 125.123 3.14297 125.26 3.17251C125.298 3.18116 125.361 3.16886 125.412 3.16498C126.143 3.09666 126.877 3.03234 127.605 2.95728C127.795 2.938 127.897 2.98193 128.025 3.01305C128.07 3.02428 128.118 3.04768 128.156 3.04546C128.418 3.02452 128.678 2.99821 128.94 2.97455C129.254 2.94565 129.57 2.92213 129.88 2.88515C130.133 2.8549 130.231 2.97106 130.434 2.97053C130.589 2.97108 130.747 2.94436 130.902 2.92995C131.216 2.90106 131.529 2.86944 131.842 2.84327C131.953 2.83395 132.038 2.81023 132.072 2.76048C132.078 2.75081 132.024 2.73164 131.989 2.7202C131.564 2.59105 131.564 2.59105 131.14 2.63062C130.877 2.65565 130.618 2.6806 130.355 2.7029C130.311 2.70663 130.26 2.6969 130.215 2.68975C130.088 2.66951 130.1 2.64202 130.206 2.59061C130.313 2.5392 130.394 2.47749 130.485 2.41964C130.615 2.45204 130.743 2.48451 130.874 2.51692C130.978 2.50774 131.083 2.49721 131.187 2.48804C131.709 2.44079 132.231 2.39217 132.754 2.34764C132.792 2.34406 132.84 2.37018 132.885 2.38278C133.012 2.41934 133.127 2.45073 133.311 2.43159C133.779 2.38149 134.25 2.34219 134.719 2.29753C134.924 2.27788 134.924 2.27789 135.288 2.35399C135.329 2.36258 135.383 2.37224 135.428 2.36851C135.899 2.32649 136.367 2.28183 136.839 2.23845C136.94 2.22935 137.039 2.24479 137.113 2.28258C137.142 2.29825 137.136 2.32559 137.262 2.5459C137.64 2.71829 137.896 2.69342 138.156 2.67119C138.266 2.66187 138.364 2.65283 138.437 2.62397C138.474 2.60814 138.521 2.5853 138.521 2.56762C138.521 2.55402 138.451 2.53384 138.406 2.53213C138.092 2.51206 137.795 2.57596 137.488 2.59519C137.345 2.60387 137.221 2.55908 137.193 2.48213C137.187 2.46052 137.177 2.43761 137.167 2.41607C137.157 2.39452 137.15 2.37155 137.14 2.35C137.016 2.34601 136.944 2.37215 136.891 2.41961C136.847 2.4587 136.785 2.50367 136.7 2.52601C136.615 2.54972 136.497 2.54831 136.393 2.55749C136.292 2.5666 136.181 2.5868 136.086 2.57944C135.99 2.57072 135.913 2.533 135.824 2.51054C135.783 2.49923 135.732 2.48271 135.69 2.48637C135.326 2.51777 134.966 2.5491 134.605 2.58724C134.415 2.60788 134.319 2.55293 134.198 2.5203C134.102 2.49526 134.007 2.50422 133.992 2.56714C133.955 2.71768 134.102 2.77693 134.425 2.74102C134.69 2.71048 134.931 2.70094 135.142 2.78867C135.171 2.80026 135.238 2.80419 135.279 2.80053C135.539 2.7783 135.795 2.75206 136.054 2.72983C136.102 2.72603 136.153 2.73031 136.197 2.73474C136.846 2.79349 136.846 2.79486 137.064 2.77356C137.168 2.76303 137.269 2.75392 137.255 2.54741C137.45 2.32118 137.766 2.29901 138.073 2.25938C138.272 2.23444 138.359 2.29235 138.49 2.32067C138.535 2.33054 138.583 2.35122 138.624 2.34756C139.304 2.28719 139.981 2.22416 140.659 2.15842C140.772 2.14767 140.855 2.15396 140.945 2.1873C141.06 2.22959 141.187 2.25527 141.367 2.23485C141.728 2.19399 142.095 2.16524 142.462 2.12968C142.649 2.11183 142.649 2.11181 143.028 2.18756C143.07 2.19615 143.124 2.2058 143.168 2.20207C143.535 2.1706 143.899 2.13376 144.263 2.10099C144.364 2.09188 144.457 2.10883 144.537 2.14375C144.617 2.17867 144.712 2.19555 144.81 2.18652C145.178 2.15368 145.541 2.1182 145.905 2.08543C145.95 2.0817 146.004 2.09 146.045 2.09858C146.434 2.17412 146.434 2.1741 146.611 2.15647C146.87 2.13016 147.136 2.1146 147.393 2.08156C147.642 2.04867 147.774 2.12459 147.946 2.16422C148.415 2.12228 148.886 2.08571 149.351 2.03703C149.541 2.01639 149.644 2.05896 149.771 2.09144C149.816 2.10267 149.861 2.12751 149.902 2.12521C150.06 2.11617 150.215 2.09768 150.371 2.08327C150.526 2.06886 150.684 2.05438 150.839 2.03997C151.017 2.07537 151.137 2.16519 151.39 2.12814C151.541 2.10564 151.703 2.09789 151.858 2.08348C152.013 2.06907 152.171 2.05459 152.326 2.04018C152.431 2.031 152.538 2.02446 152.639 2.00992C152.826 1.98526 152.919 2.04982 153.053 2.07672C153.098 2.08523 153.149 2.10039 153.19 2.09673C153.503 2.07056 153.82 2.04703 154.127 2.00877C154.364 1.97888 154.526 2.01601 154.696 2.06932C154.731 2.08076 154.791 2.0862 154.836 2.08247C155.203 2.05099 155.567 2.01413 155.931 1.98137C156.029 1.97233 156.124 1.99193 156.204 2.02549C156.288 2.06034 156.38 2.07594 156.481 2.06684C156.845 2.03407 157.212 1.9985 157.576 1.96574C157.62 1.96201 157.675 1.97167 157.716 1.98161C158.073 2.05786 158.073 2.05922 158.282 2.03815C158.332 2.03292 158.386 2.02896 158.437 2.02373C158.696 1.99878 158.966 1.98586 159.218 1.94746C159.509 1.90411 159.723 1.94552 159.93 2.01836C160.19 1.99614 160.456 1.98056 160.709 1.9476C160.899 1.92287 161.001 1.97225 161.129 2.00337C161.173 2.0146 161.222 2.038 161.26 2.03441C161.627 2.00293 161.994 1.97418 162.354 1.93197C162.551 1.90846 162.638 1.96771 162.771 1.99596C162.816 2.00583 162.864 2.0238 162.905 2.02015C163.114 2.00451 163.323 1.98343 163.532 1.96371C163.775 1.94048 163.775 1.94184 164.101 2.01746C164.254 2.05344 164.405 2.0187 164.554 2.00579C164.712 1.99131 164.861 1.97976 164.989 2.03264C165.069 2.0662 165.165 2.0858 165.263 2.07813C165.472 2.06113 165.684 2.04407 165.889 2.01899C166.054 1.99892 166.197 2.00655 166.318 2.05414C166.405 2.08756 166.494 2.10323 166.598 2.09269C167.067 2.04939 167.538 2.00464 168.006 1.96269C168.048 1.95903 168.105 1.96998 168.143 1.98136C168.233 2.00382 168.319 2.02907 168.405 2.05433C168.611 2.0374 168.823 2.02715 169.025 2.0035C169.24 1.97956 169.437 1.96829 169.607 2.03927C169.642 2.0548 169.693 2.07676 169.734 2.07446C169.893 2.06542 170.048 2.04829 170.203 2.03388C170.358 2.01947 170.516 2.00499 170.671 1.99058C170.852 2.02047 170.969 2.1158 171.222 2.07875C171.373 2.05626 171.535 2.0485 171.69 2.03409C171.845 2.01968 172.003 2.00384 172.158 1.99079C172.209 1.98691 172.266 1.97881 172.31 1.98324C172.358 1.9876 172.4 2.00571 172.441 2.01838C172.569 2.05494 172.687 2.09172 172.867 2.06449C173.019 2.04199 173.18 2.03423 173.335 2.01846C173.548 1.99867 173.548 1.99868 173.901 2.07636C174.045 2.10848 174.205 2.05857 174.342 2.08539C174.435 2.1037 174.515 2.13589 174.604 2.157C174.642 2.16565 174.703 2.16836 174.747 2.16463C174.956 2.14764 175.168 2.13057 175.373 2.10549C175.541 2.08535 175.681 2.0985 175.799 2.14479C175.886 2.17821 175.972 2.19123 176.079 2.18062C176.601 2.13065 177.124 2.08611 177.642 2.03214C177.82 2.01314 177.963 2.03303 178.062 2.07975C178.232 2.16026 178.467 2.05557 178.643 2.11961C178.752 2.15932 178.861 2.20584 179.057 2.18097C179.418 2.1374 179.785 2.10999 180.149 2.07722C180.28 2.11099 180.41 2.14476 180.544 2.17846C180.753 2.15874 180.962 2.13902 181.171 2.12066C181.326 2.10625 181.484 2.09041 181.639 2.07736C181.69 2.07349 181.744 2.06682 181.791 2.07254C181.839 2.07826 181.878 2.09508 181.922 2.10767C182.143 2.16934 182.142 2.17071 182.503 2.13529C182.658 2.11952 182.807 2.10798 182.938 2.15942C183.06 2.20701 183.203 2.21328 183.367 2.19457C183.677 2.16031 183.991 2.13278 184.307 2.10653C184.405 2.0975 184.498 2.11853 184.581 2.15202C184.706 2.20497 184.858 2.19607 185.013 2.17758C185.218 2.15386 185.421 2.13021 185.597 2.20241C185.632 2.21794 185.686 2.23982 185.724 2.2376C185.984 2.22081 186.247 2.20668 186.5 2.17507C186.753 2.14347 186.879 2.22498 187.054 2.26182C187.313 2.23823 187.576 2.21456 187.835 2.19098C187.886 2.18574 187.946 2.17214 187.991 2.17793C188.178 2.20224 188.288 2.30179 188.544 2.26468C188.693 2.24361 188.854 2.2345 189.01 2.22689C189.051 2.2246 189.105 2.24648 189.134 2.26351C189.15 2.27267 189.135 2.29887 189.116 2.3129C189.06 2.35228 188.991 2.38924 188.941 2.42983C188.935 2.43542 188.996 2.45852 189.031 2.46861C189.117 2.49114 189.215 2.48484 189.329 2.47137C189.427 2.45961 189.529 2.47635 189.6 2.51556C189.629 2.53124 189.62 2.55865 189.562 2.64978C189.563 2.71643 189.629 2.68499 189.65 2.64096C189.684 2.5776 189.617 2.55872 189.491 2.5956C189.402 2.6221 189.359 2.65847 189.382 2.68653C189.395 2.7012 189.455 2.71888 189.562 2.64978C189.839 2.56184 190.048 2.54213 190.256 2.52241C190.31 2.51711 190.373 2.50206 190.412 2.50935C190.549 2.5389 190.676 2.57546 190.81 2.60916C190.962 2.59754 191.104 2.57389 191.255 2.62354C191.466 2.69359 191.475 2.68658 191.677 2.66701C191.782 2.65647 191.886 2.6473 191.991 2.63812C192.095 2.62895 192.178 2.64747 192.271 2.67666C192.459 2.73633 192.475 2.73597 192.597 2.64611C192.668 2.59141 192.719 2.57258 192.811 2.59498C193.117 2.67102 193.121 2.67639 193.38 2.646C193.595 2.6207 193.798 2.61065 193.958 2.68457C194.067 2.73652 194.102 2.72349 194.186 2.66442C194.411 2.50827 194.515 2.5086 194.946 2.60768C195.146 2.65482 195.351 2.59438 195.554 2.58297C195.725 2.57364 195.846 2.60354 195.861 2.68893C195.872 2.74176 195.901 2.7792 196.015 2.79429C196.06 2.80008 196.114 2.80837 196.158 2.80464C196.421 2.78234 196.681 2.75739 196.943 2.73237C197.076 2.71982 197.148 2.65425 197.12 2.57051C197.09 2.48139 197.14 2.44759 197.329 2.41742C197.443 2.39987 197.535 2.40051 197.627 2.4229C197.73 2.4478 197.702 2.47292 197.614 2.5239C197.404 2.64842 197.431 2.72127 197.706 2.79804C197.802 2.82444 197.878 2.84856 197.901 2.89022C197.915 2.91169 197.903 2.94054 197.932 2.95621C198.089 3.04381 198.306 3.09739 198.548 3.13544C198.778 3.09346 198.938 3.15105 199.117 3.19598C199.257 3.23089 199.421 3.19451 199.57 3.17752C199.737 3.15874 199.877 3.16645 199.999 3.21403C200.085 3.24745 200.174 3.26175 200.279 3.25257C200.488 3.23285 200.7 3.21851 200.905 3.19206C201.082 3.16899 201.216 3.19317 201.328 3.23689C201.469 3.2922 201.623 3.24922 201.769 3.25407C201.966 3.25912 202.067 3.37793 202.323 3.33945C202.475 3.31695 202.633 3.30655 202.792 3.29751C202.833 3.29521 202.884 3.31718 202.919 3.33271C203.089 3.4037 203.285 3.39515 203.5 3.36849C203.649 3.35014 203.794 3.33323 203.941 3.3816C204.184 3.46317 204.452 3.53328 204.708 3.60776C204.744 3.66953 204.72 3.74354 204.902 3.77615C204.997 3.79303 205.087 3.81959 205.161 3.84921C205.25 3.88391 205.333 3.89157 205.447 3.87945C205.652 3.85573 205.868 3.84673 206.07 3.81764C206.256 3.79163 206.375 3.83386 206.49 3.87343C206.583 3.90534 206.669 3.91971 206.779 3.8927C206.892 3.86699 206.975 3.88007 207.068 3.9147C207.199 3.96207 207.208 3.95642 207.64 3.96159C207.684 3.96194 207.739 3.9811 207.764 3.99821C207.777 4.00744 207.749 4.0353 207.728 4.04941C207.699 4.06638 207.655 4.08642 207.614 4.09143C207.146 4.13746 206.675 4.17947 206.206 4.2255C206.159 4.23066 206.108 4.24134 206.074 4.25574C206.036 4.27156 205.989 4.29303 205.989 4.31207C205.99 4.32567 206.053 4.34056 206.098 4.34907C206.238 4.37718 206.402 4.32583 206.539 4.3581C206.632 4.37913 206.708 4.41003 206.801 4.42971C206.839 4.43836 206.899 4.43564 206.947 4.43183C207.105 4.41871 207.26 4.40158 207.418 4.38982C207.463 4.38745 207.514 4.39991 207.555 4.40985C207.861 4.48454 207.861 4.48453 208.124 4.46087C208.228 4.45169 208.339 4.42877 208.437 4.4347C208.533 4.4407 208.616 4.47554 208.702 4.49672C208.881 4.54165 209.05 4.58543 209.065 4.69122C209.072 4.73188 209.177 4.76486 209.282 4.7652C209.384 4.76562 209.491 4.74822 209.595 4.73768C209.842 4.71574 209.842 4.71574 210.164 4.79143C210.254 4.81253 210.349 4.81309 210.463 4.79689C210.507 4.79044 210.561 4.79466 210.609 4.80038C210.764 4.81725 210.765 4.84309 210.665 4.89436C210.524 4.96968 210.536 4.9762 210.937 5.02832C211.09 5.04798 211.208 5.08884 211.336 5.12404C211.543 5.18056 211.54 5.18062 211.406 5.26396C211.375 5.28236 211.346 5.30206 211.315 5.32182C211.224 5.37695 211.153 5.43573 210.963 5.44549C210.754 5.45569 210.545 5.48221 210.336 5.50193C210.134 5.5215 210.081 5.55535 210.102 5.6474C210.126 5.75843 210.168 5.76973 210.532 5.76009C210.637 5.75771 210.729 5.7665 210.809 5.80142C210.772 5.8458 210.703 5.88139 210.602 5.89186C210.343 5.91816 210.08 5.94183 209.82 5.96542C209.612 5.98514 209.403 6.00484 209.194 6.02456C209.064 6.03704 208.983 6.10964 209.02 6.18773C209.04 6.23218 209.057 6.2767 209.074 6.32122C209.111 6.41019 209.178 6.43181 209.39 6.4229C209.444 6.42031 209.495 6.40827 209.545 6.40984C209.752 6.41468 209.852 6.52532 210.099 6.49658C210.305 6.47286 210.52 6.46388 210.722 6.43479C210.909 6.40878 211.015 6.45538 211.145 6.48914C211.19 6.50038 211.238 6.52512 211.276 6.5229C211.539 6.50196 211.802 6.48103 212.058 6.44935C212.178 6.43573 212.251 6.44223 212.347 6.47271C212.577 6.54641 212.583 6.54218 212.922 6.50999C213.169 6.48533 213.172 6.48798 213.491 6.56374C213.58 6.58484 213.675 6.58267 213.789 6.5692C213.938 6.55221 214.092 6.52692 214.248 6.54379C214.296 6.54815 214.357 6.56311 214.373 6.58043C214.383 6.59245 214.339 6.62339 214.301 6.63377C214.024 6.71083 213.697 6.70602 213.393 6.74149C213.299 6.75182 213.203 6.72813 213.123 6.69321C213.039 6.65837 212.95 6.64543 212.843 6.65468C212.634 6.67439 212.422 6.68874 212.216 6.71518C212.039 6.73826 211.915 6.70978 211.79 6.67043C211.749 6.65777 211.701 6.633 211.659 6.6353C211.191 6.67316 210.719 6.71111 210.254 6.75978C210.068 6.78035 209.959 6.73928 209.831 6.70544C209.787 6.69421 209.742 6.66938 209.7 6.67167C209.542 6.68072 209.387 6.6992 209.229 6.71369C208.653 6.7676 208.08 6.82145 207.504 6.87264C207.466 6.87623 207.418 6.84874 207.373 6.83751C207.287 6.81497 207.198 6.79387 207.109 6.77276C206.95 6.78725 206.795 6.80438 206.637 6.81614C206.523 6.82417 206.422 6.84553 206.408 6.89757C206.399 6.93179 206.504 6.96069 206.615 6.95544C206.723 6.95027 206.83 6.9315 206.919 6.94717C207.362 7.02419 207.362 7.02556 207.637 7.00161C207.878 6.97981 207.852 6.96678 208.066 7.03676C208.159 7.06731 208.242 7.08449 208.346 7.07395C208.606 7.049 208.868 7.02397 209.131 7.00167C209.172 6.99802 209.226 7.0104 209.268 7.02034C209.58 7.09488 209.58 7.0976 209.837 7.07136C210.172 7.03924 210.184 7.03216 210.411 7.11C210.568 7.1636 210.71 7.12091 210.859 7.11481C211.031 7.16396 211.219 7.20731 211.376 7.26363C211.561 7.33017 211.754 7.31352 211.963 7.28837C212.118 7.26988 212.27 7.26098 212.398 7.31386C212.52 7.3628 212.666 7.36494 212.83 7.34759C212.979 7.33196 213.131 7.30266 213.287 7.32905C213.328 7.33627 213.392 7.35524 213.389 7.36755C213.386 7.38666 213.346 7.41481 213.305 7.4239C213.014 7.48629 212.694 7.4922 212.387 7.52503C212.346 7.53005 212.292 7.51631 212.25 7.50637C212.161 7.4839 212.075 7.45729 211.989 7.4334C211.834 7.44509 211.675 7.4514 211.523 7.47118C211.406 7.48609 211.318 7.48676 211.231 7.45606C211.151 7.42794 211.065 7.39316 210.97 7.3858C210.874 7.37844 210.764 7.40137 210.659 7.4119C210.555 7.42244 210.435 7.42109 210.353 7.44473C210.271 7.46836 210.221 7.51712 210.168 7.55643C210.109 7.59996 210.027 7.61544 209.906 7.62226C209.795 7.62886 209.707 7.62543 209.623 7.58922C209.588 7.5737 209.54 7.56253 209.492 7.55273C209.448 7.54422 209.397 7.53041 209.356 7.53406C208.884 7.57608 208.416 7.62076 207.944 7.66413C207.71 7.68579 207.713 7.6857 207.223 7.61655C207.179 7.61076 207.125 7.60247 207.08 7.6062C206.818 7.6285 206.558 7.65345 206.296 7.67847C206.03 7.70357 206.033 7.70077 205.578 7.62539C205.495 7.61094 205.375 7.63545 205.277 7.63496C205.07 7.63284 204.966 7.52091 204.726 7.54814C204.52 7.57187 204.305 7.58084 204.099 7.61001C203.913 7.63602 203.804 7.59087 203.676 7.55703C203.632 7.5458 203.584 7.51968 203.546 7.52326C203.074 7.56392 202.606 7.60858 201.978 7.62693C201.823 7.63046 201.893 7.65744 201.995 7.66466C202.141 7.6763 202.188 7.64666 202.108 7.59406C202.05 7.55727 201.967 7.54009 201.9 7.55113C201.866 7.55736 201.822 7.58422 201.978 7.62693C202.144 7.67487 202.135 7.70364 202.164 7.71931C202.235 7.75717 202.334 7.77125 202.435 7.76351C202.593 7.75038 202.748 7.73326 202.906 7.72149C202.951 7.71776 203.005 7.72606 203.046 7.736C203.397 7.8124 203.4 7.81778 203.77 7.7767C203.887 7.76452 203.973 7.76257 204.065 7.78632C204.193 7.8188 204.286 7.87655 204.479 7.85311C204.735 7.82144 204.998 7.80051 205.261 7.77957C205.302 7.77591 205.347 7.79938 205.395 7.80918C205.525 7.83887 205.622 7.89791 205.815 7.86767C205.963 7.84389 206.125 7.83476 206.283 7.82708C206.324 7.82478 206.388 7.8451 206.408 7.86235C206.446 7.89277 206.4 7.93058 206.293 7.95887C206.248 7.97076 206.188 7.9694 206.137 7.97464C205.929 7.99435 205.72 8.01542 205.511 8.03242C205.4 8.04174 205.296 8.06453 205.284 8.11514C205.276 8.14935 205.391 8.17667 205.498 8.17151C205.657 8.16382 205.815 8.14934 205.967 8.1282C206.235 8.09216 206.47 8.09498 206.691 8.17569C206.847 8.232 206.837 8.21047 207.006 8.38353C207.049 8.42748 207.172 8.42874 207.28 8.42357C207.54 8.41086 207.661 8.42853 207.639 8.4712C207.612 8.52353 207.521 8.54193 207.403 8.5514C207.195 8.56703 206.986 8.58948 206.777 8.60919C206.726 8.61442 206.669 8.62388 206.622 8.62224C206.574 8.6206 206.529 8.60529 206.488 8.59398C206.399 8.57016 206.322 8.53244 206.226 8.52508C206.131 8.51772 206.021 8.54065 205.916 8.55118C205.812 8.56036 205.701 8.58329 205.606 8.57593C205.511 8.56857 205.43 8.52958 205.344 8.50704C205.303 8.49574 205.252 8.47784 205.21 8.48013C205.002 8.49577 204.793 8.51821 204.584 8.53657C204.328 8.56009 204.328 8.56009 204.015 8.48282C203.926 8.46036 203.834 8.46382 203.717 8.47736C203.464 8.50489 203.46 8.50087 202.996 8.4325C202.951 8.42535 202.897 8.41706 202.853 8.42215C202.381 8.46417 201.913 8.50883 201.445 8.55213C201.043 8.58984 201.043 8.58986 200.824 8.7309C200.662 8.8353 200.658 8.83536 200.821 8.87793C200.952 8.91306 201.07 8.96615 201.214 8.98331C201.347 8.99932 201.511 8.93437 201.658 8.99362C201.731 9.02325 201.827 9.05509 201.919 9.05844C202.065 9.06193 202.22 9.01895 202.361 9.07562C202.431 9.10396 202.536 9.13287 202.625 9.13221C202.78 9.1314 202.938 9.10603 203.094 9.09298C203.141 9.08918 203.195 9.08796 203.239 9.09375C203.287 9.10083 203.329 9.11622 203.37 9.12888C203.498 9.17224 203.635 9.1909 203.799 9.16403C204.068 9.11982 204.309 9.13339 204.52 9.21568C204.549 9.22727 204.619 9.22705 204.663 9.2206C204.777 9.20441 204.875 9.20081 204.961 9.22471C204.996 9.23479 205.048 9.25267 205.041 9.26506C205.032 9.28568 204.995 9.31374 204.954 9.32148C204.657 9.3745 204.337 9.38722 204.03 9.41869C203.989 9.42235 203.938 9.40581 203.897 9.3945C203.807 9.37204 203.73 9.33298 203.635 9.32562C203.54 9.31826 203.429 9.33846 203.325 9.34764C203.22 9.35682 203.11 9.37974 203.014 9.37374C202.919 9.36638 202.83 9.33439 202.753 9.3062C202.663 9.27422 202.578 9.27209 202.461 9.28836C202.309 9.3095 202.15 9.31582 201.995 9.32887C201.909 9.30497 201.823 9.27835 201.734 9.25588C201.692 9.24458 201.641 9.23078 201.597 9.23315C201.388 9.24878 201.179 9.26985 200.97 9.28957C200.761 9.30928 200.761 9.3093 200.404 9.23304C200.363 9.22446 200.309 9.2148 200.264 9.21853C200.002 9.24083 199.742 9.26713 199.48 9.28943C199.378 9.29853 199.286 9.28158 199.203 9.24674C199.123 9.21182 199.027 9.19358 198.929 9.20261C198.511 9.24068 198.093 9.2774 197.676 9.32091C197.508 9.33833 197.365 9.32934 197.25 9.28297C197.116 9.23023 196.967 9.24722 196.812 9.26163C196.461 9.29683 196.458 9.29553 196.231 9.23129C196.186 9.21869 196.141 9.19386 196.1 9.19615C195.736 9.22484 195.369 9.25224 195.008 9.2931C194.818 9.3151 194.716 9.26981 194.588 9.23733C194.544 9.2261 194.496 9.20133 194.458 9.20492C194.195 9.22586 193.932 9.24545 193.676 9.27848C193.42 9.31152 193.319 9.18727 193.125 9.19303C192.862 9.20037 192.603 9.23756 192.344 9.26251C192.135 9.28222 191.926 9.30193 191.717 9.32165C191.508 9.34136 191.299 9.35835 191.09 9.38079C190.98 9.39283 190.897 9.38246 190.804 9.35055C190.686 9.30833 190.546 9.27616 190.418 9.23824C190.223 9.18415 190.223 9.18414 189.989 9.2058C189.939 9.21103 189.885 9.21497 189.834 9.2202C189.451 9.25884 189.451 9.25613 188.961 9.18154C188.939 9.17796 188.882 9.19423 188.86 9.20561C188.794 9.24249 188.735 9.28193 188.676 9.32002C188.59 9.3002 188.485 9.29034 188.427 9.26036C188.263 9.17563 188.013 9.30244 187.846 9.21914C187.785 9.18787 187.679 9.16168 187.584 9.15568C187.486 9.14976 187.375 9.17132 187.274 9.18179C187.011 9.20817 187.011 9.20681 186.789 9.33297C186.676 9.39541 186.511 9.38827 186.363 9.40525C186.208 9.42375 186.059 9.43529 185.928 9.38249C185.809 9.33483 185.666 9.32584 185.499 9.34598C185.293 9.37106 185.081 9.38812 184.872 9.40512C184.828 9.40885 184.774 9.40328 184.729 9.39612C184.242 9.3269 184.242 9.32555 184.008 9.34856C183.904 9.3591 183.796 9.36426 183.695 9.3788C183.524 9.40446 183.394 9.37885 183.269 9.33814C183.228 9.32547 183.179 9.30073 183.138 9.30302C182.929 9.31458 182.723 9.3315 182.518 9.34842C182.359 9.36155 182.201 9.37059 182.049 9.39309C181.797 9.43013 181.671 9.34453 181.496 9.30769C181.236 9.33128 180.973 9.3495 180.714 9.37989C180.594 9.39351 180.514 9.39124 180.422 9.36068C180.304 9.32255 180.195 9.27876 180.005 9.30348C179.752 9.33645 179.486 9.35202 179.227 9.37425C179.051 9.33605 178.922 9.25324 178.673 9.29021C178.521 9.31271 178.36 9.32046 178.204 9.33488C177.996 9.35459 177.787 9.37296 177.578 9.39403C177.353 9.41547 177.356 9.41132 177.009 9.33893C176.808 9.29587 176.603 9.35359 176.401 9.36636C176.242 9.37676 176.165 9.44112 176.205 9.5205C176.244 9.59988 176.16 9.66439 176.015 9.67858C175.651 9.71271 175.284 9.74826 174.92 9.77967C174.875 9.7834 174.821 9.7751 174.78 9.76652C174.388 9.6897 174.388 9.69107 174.214 9.70727C173.955 9.73358 173.689 9.7505 173.432 9.78218C173.255 9.8039 173.125 9.7783 173.01 9.73465C172.92 9.70131 172.837 9.69502 172.724 9.70577C171.47 9.82543 170.217 9.93828 168.967 10.0606C168.781 10.0784 168.672 10.0414 168.544 10.0076C168.5 9.99638 168.458 9.97147 168.414 9.97248C168.309 9.97486 168.205 9.98948 168.1 10C167.632 10.0433 167.164 10.0934 166.692 10.1286C166.493 10.1441 166.44 10.2078 166.356 10.2615C166.29 10.3024 166.214 10.3205 166.097 10.3286C165.983 10.3366 165.901 10.3317 165.811 10.2983C165.696 10.2547 165.565 10.2291 165.388 10.2522C165.183 10.2786 164.974 10.2929 164.762 10.3127C164.654 10.3219 164.572 10.3483 164.539 10.398C164.532 10.4063 164.599 10.4252 164.638 10.4366C164.765 10.4745 164.887 10.5194 165.03 10.5447C165.177 10.57 165.334 10.5337 165.486 10.5221C165.54 10.5181 165.591 10.5088 165.642 10.509C165.689 10.5093 165.746 10.5148 165.782 10.5263C165.948 10.5837 166.123 10.6219 166.35 10.58C166.547 10.5932 166.651 10.7038 166.901 10.6682C167.053 10.6471 167.211 10.6353 167.369 10.6249C167.411 10.6226 167.456 10.6461 167.5 10.6573C167.628 10.6884 167.73 10.7405 167.92 10.7131C168.122 10.684 168.338 10.675 168.543 10.6513C168.657 10.6378 168.74 10.6454 168.829 10.6788C168.945 10.7211 169.075 10.7521 169.252 10.7263C169.404 10.7038 169.566 10.6961 169.721 10.6803C169.923 10.6607 169.923 10.6621 170.286 10.7382C170.328 10.7468 170.382 10.7564 170.426 10.7527C170.689 10.7304 170.948 10.7041 171.211 10.6818C171.312 10.6727 171.411 10.6881 171.482 10.726C171.511 10.7417 171.502 10.7691 171.512 10.792C170.99 10.8406 170.467 10.8838 169.949 10.9405C169.753 10.9626 169.662 10.9089 169.532 10.8805C169.487 10.8707 169.439 10.8486 169.398 10.8523C169.031 10.8838 168.667 10.9165 168.303 10.9547C168.189 10.9669 168.103 10.9634 168.017 10.9259C167.796 10.8261 167.531 10.8893 167.284 10.9099C167.094 10.9251 167.035 10.9686 167.059 11.0579C167.09 11.1633 167.205 11.1933 167.496 11.1677C167.601 11.1585 167.705 11.1466 167.809 11.1388C167.911 11.131 168.003 11.1466 168.086 11.1815C168.166 11.2164 168.262 11.2333 168.36 11.2256C168.569 11.2086 168.781 11.1915 168.983 11.1665C169.151 11.1464 169.291 11.1568 169.409 11.2045C169.541 11.2573 169.692 11.2416 169.844 11.2259C170.199 11.1906 170.202 11.1919 170.425 11.2549C170.47 11.2675 170.515 11.2923 170.556 11.29C170.92 11.2613 171.287 11.2353 171.645 11.1945C171.831 11.1739 171.94 11.215 172.065 11.2475C172.109 11.2588 172.154 11.285 172.195 11.2813C172.458 11.2604 172.721 11.2394 172.977 11.2077C173.097 11.1928 173.17 11.1993 173.269 11.2297C173.506 11.3046 173.512 11.3017 173.844 11.2683C173.945 11.2578 174.056 11.2404 174.151 11.2491C174.247 11.2578 174.324 11.2955 174.413 11.318C174.454 11.3279 174.506 11.3417 174.55 11.338C174.759 11.3224 174.968 11.3013 175.176 11.2816C175.373 11.2622 175.373 11.2635 175.742 11.3395C175.892 11.3715 176.047 11.338 176.195 11.3237C176.357 11.3078 176.503 11.3045 176.627 11.3547C176.752 11.405 176.901 11.3989 177.059 11.3844C177.208 11.3701 177.36 11.3367 177.513 11.37C177.863 11.4464 177.863 11.4477 178.078 11.4265C178.392 11.3963 178.702 11.3675 179.018 11.3398C179.059 11.3362 179.114 11.3513 179.155 11.3612C179.244 11.3837 179.321 11.4228 179.417 11.4301C179.512 11.4388 179.623 11.42 179.724 11.4095C180.05 11.3763 180.072 11.3663 180.293 11.451C180.478 11.5203 180.704 11.409 180.877 11.4895C180.976 11.5348 181.11 11.5699 181.294 11.5426C181.445 11.5201 181.604 11.511 181.762 11.4966C182.012 11.4732 182.012 11.4746 182.331 11.549C182.372 11.5589 182.426 11.5713 182.468 11.5676C182.676 11.552 182.889 11.5376 183.091 11.5085C183.328 11.4746 183.481 11.5228 183.66 11.5691C183.8 11.6054 183.964 11.569 184.113 11.552C184.274 11.5347 184.42 11.5355 184.542 11.5858C184.67 11.6373 184.819 11.6271 184.977 11.6126C185.126 11.5997 185.277 11.565 185.43 11.5996C185.759 11.6765 185.759 11.6765 185.996 11.6548C186.205 11.6351 186.414 11.614 186.623 11.5984C186.664 11.5947 186.715 11.6112 186.756 11.6225C186.846 11.645 186.923 11.6841 187.018 11.6914C187.113 11.6988 187.224 11.6786 187.328 11.6694C187.433 11.6602 187.543 11.6373 187.638 11.6433C187.734 11.6493 187.823 11.6813 187.9 11.7095C187.99 11.7428 188.072 11.745 188.192 11.7287C188.344 11.7076 188.502 11.6999 188.657 11.6868C188.744 11.7107 188.833 11.7345 188.916 11.7612C189.002 11.7892 189.094 11.7844 189.211 11.7722C189.6 11.7307 189.604 11.7347 189.932 11.8116C190.082 11.8463 190.237 11.8115 190.385 11.7986C190.544 11.7841 190.692 11.7753 190.817 11.8269C190.939 11.8758 191.088 11.8792 191.246 11.8593C191.347 11.8461 191.455 11.8369 191.559 11.8304C191.607 11.828 191.664 11.8321 191.699 11.8422C191.868 11.8955 192.035 11.9435 192.265 11.9015C192.468 11.9077 192.572 12.017 192.816 11.9896C193.021 11.9659 193.237 11.9569 193.439 11.9278C193.626 11.9018 193.76 11.9369 193.856 11.9823C194.029 12.0628 194.267 11.943 194.44 12.0221C194.54 12.0675 194.667 12.1027 194.857 12.078C195.066 12.0514 195.133 12.0785 195.195 12.1628C195.231 12.211 195.226 12.2506 195.163 12.2901C195.101 12.331 195.031 12.3258 194.928 12.2832C194.81 12.2355 194.67 12.2292 194.502 12.2439C194.338 12.2585 194.235 12.1901 194.098 12.166C193.961 12.1405 193.8 12.1918 193.657 12.1583C193.319 12.0803 193.319 12.0803 193.091 12.1018C192.936 12.1162 192.774 12.1253 192.623 12.1478C192.443 12.175 192.324 12.1355 192.2 12.1003C192.155 12.0877 192.11 12.0628 192.072 12.0651C191.708 12.0937 191.341 12.1211 190.98 12.1634C190.791 12.1854 190.688 12.1387 190.561 12.1076C190.516 12.0964 190.468 12.073 190.43 12.0765C190.116 12.1027 189.806 12.1343 189.493 12.1645C189.434 12.2026 189.368 12.2395 189.312 12.2802C189.253 12.3224 189.171 12.3419 189.05 12.3433C188.85 12.3479 188.655 12.4094 188.454 12.3419C188.246 12.2731 188.23 12.2776 188.031 12.2998C187.778 12.3287 187.508 12.3294 187.272 12.3878C187.231 12.3983 187.187 12.4251 187.188 12.4442C187.185 12.4565 187.252 12.4726 187.293 12.4826C187.433 12.5121 187.594 12.4608 187.734 12.4916C187.827 12.5113 187.903 12.5422 187.996 12.5632C188.034 12.5719 188.091 12.5692 188.142 12.5667C188.196 12.5641 188.246 12.5535 188.297 12.5537C188.345 12.5539 188.395 12.5609 188.434 12.5723C188.609 12.62 188.794 12.6635 188.951 12.7211C189.104 12.7775 189.246 12.7335 189.398 12.7273C190.009 12.8087 190.009 12.81 190.417 12.7708C190.519 12.7617 190.623 12.7512 190.728 12.7502C190.772 12.7491 190.814 12.7727 190.858 12.7853C190.986 12.8232 191.107 12.8572 191.284 12.8314C191.436 12.8089 191.598 12.8011 191.753 12.7854C191.962 12.7656 191.962 12.7656 192.319 12.8433C192.408 12.863 192.503 12.8581 192.617 12.8447C192.715 12.8329 192.817 12.851 192.887 12.8889C192.916 12.9045 192.907 12.9319 192.917 12.9548C192.604 12.9837 192.287 13.0059 191.984 13.0455C191.788 13.0703 191.698 13.0139 191.567 12.9855C191.522 12.9757 191.474 12.9536 191.433 12.9573C191.123 12.9847 190.813 13.0149 190.503 13.0492C190.465 13.0528 190.418 13.0851 190.415 13.1042C190.41 13.1397 190.49 13.1719 190.604 13.168C190.756 13.1632 190.905 13.1367 191.042 13.1893C191.157 13.2357 191.3 13.2542 191.468 13.2287C191.569 13.2141 191.677 13.2116 191.778 13.1985C192.047 13.1597 192.291 13.1609 192.496 13.2488C192.652 13.2698 192.803 13.2432 192.952 13.2276C193.063 13.2155 193.17 13.2035 193.25 13.2276C193.419 13.2782 193.586 13.3288 193.816 13.2869C194.067 13.3192 194.259 13.3952 194.47 13.4557C194.569 13.4847 194.646 13.5007 194.759 13.4777C194.807 13.4685 194.864 13.4672 194.914 13.4619C195.019 13.4527 195.129 13.4298 195.224 13.4358C195.32 13.4432 195.4 13.4808 195.486 13.5034C195.528 13.5147 195.576 13.534 195.617 13.5317C195.775 13.5213 195.93 13.5041 196.085 13.4897C196.24 13.4767 196.395 13.4636 196.55 13.4506C196.681 13.483 196.815 13.5153 196.946 13.5477C197.155 13.528 197.364 13.5083 197.569 13.49C197.8 13.4684 197.8 13.4698 198.135 13.5466C198.285 13.5813 198.443 13.5532 198.585 13.5322C198.822 13.4983 198.982 13.5464 199.151 13.597C199.186 13.607 199.25 13.6124 199.291 13.606C199.455 13.5832 199.598 13.5949 199.72 13.6425C199.806 13.6759 199.892 13.6903 199.997 13.6812C200.36 13.647 200.724 13.6115 201.088 13.5801C201.133 13.5764 201.184 13.5875 201.225 13.5974C201.55 13.673 201.554 13.6771 201.791 13.6499C202.003 13.626 202.199 13.6134 202.369 13.6844C202.404 13.6999 202.458 13.7218 202.496 13.7196C202.756 13.7001 203.019 13.6791 203.275 13.6502C203.392 13.6366 203.475 13.6388 203.567 13.668C203.685 13.7048 203.791 13.75 203.984 13.728C204.518 13.6655 204.522 13.6735 205.158 13.753C205.202 13.7588 205.262 13.7465 205.313 13.7399C205.42 13.7239 205.5 13.7411 205.596 13.7702C205.81 13.8361 205.816 13.8319 206.019 13.8123C206.174 13.7966 206.335 13.7902 206.487 13.7663C206.721 13.7311 206.877 13.7806 207.053 13.8269C207.193 13.8632 207.354 13.8269 207.503 13.8113C207.664 13.794 207.81 13.7947 207.932 13.8437C208.015 13.8772 208.104 13.8942 208.209 13.885C208.572 13.8523 208.936 13.8168 209.3 13.784C209.345 13.7803 209.399 13.7899 209.44 13.7985C209.804 13.8746 209.804 13.8787 210.161 13.8393C210.275 13.8272 210.37 13.8223 210.456 13.8489C210.539 13.8742 210.629 13.898 210.715 13.9219C210.87 13.9089 211.028 13.9026 211.18 13.8828C211.297 13.8679 211.38 13.8715 211.472 13.8979C211.593 13.9319 211.696 13.9935 211.886 13.9579C211.984 13.9407 212.098 13.9422 212.196 13.9264C212.313 13.906 212.392 13.9151 212.485 13.9484C212.6 13.9879 212.718 14.0288 212.902 14.0029C213.104 13.9738 213.319 13.9648 213.525 13.9411C213.639 13.9276 213.718 13.9367 213.811 13.9699C213.926 14.0122 214.057 14.0378 214.234 14.0161C214.594 13.9739 214.598 13.9806 214.952 14.0583C215.041 14.0781 215.136 14.0732 215.25 14.0597C215.348 14.048 215.45 14.0661 215.52 14.1039C215.588 14.1459 215.582 14.1733 215.589 14.1962ZM187.061 2.57191C186.957 2.58109 186.852 2.59163 186.697 2.47676C186.687 2.45658 186.693 2.43196 186.67 2.41478C186.619 2.37921 186.539 2.35517 186.444 2.35325C186.273 2.3517 186.068 2.40262 186.072 2.43791C186.075 2.46776 186.13 2.49237 186.235 2.51448C186.28 2.52299 186.315 2.53852 186.356 2.54846C186.478 2.577 186.574 2.63606 186.748 2.60081C186.714 2.51721 186.731 2.55901 186.748 2.60081C186.733 2.65285 186.781 2.6885 186.896 2.70086C186.928 2.70422 186.975 2.70042 187 2.69168C187.098 2.65952 187.113 2.61837 187.037 2.51258C187.025 2.53055 187.035 2.56161 187.064 2.56912C187.093 2.57663 187.162 2.56825 187.197 2.55794C187.285 2.53008 187.329 2.49507 187.306 2.46701C187.293 2.45234 187.232 2.43467 187.194 2.43553C187.128 2.43705 187.068 2.46833 187.061 2.57191ZM213.055 17.7619C212.824 17.793 212.558 17.7895 212.328 17.8478C212.287 17.8583 212.246 17.8837 212.243 17.9028C212.24 17.9151 212.304 17.9314 212.343 17.94C212.429 17.9599 212.524 17.9509 212.634 17.9416C212.802 17.9282 212.902 17.9886 213.033 18.0169C213.074 18.0255 213.128 18.031 213.172 18.0273C213.429 18.0052 213.682 17.9817 213.938 17.9569C213.982 17.9518 214.03 17.9412 214.067 17.928C214.193 17.8857 214.18 17.8602 214.056 17.8331C213.919 17.8035 213.81 17.7516 213.67 17.7289C213.469 17.6967 213.267 17.7503 213.055 17.7619ZM195.078 19.1639C194.923 19.1783 194.771 19.1927 194.616 19.2071C194.565 19.2123 194.511 19.2149 194.464 19.2214C194.366 19.2332 194.294 19.2634 194.247 19.3094C194.321 19.3431 194.41 19.3614 194.508 19.3551C194.663 19.3434 194.815 19.3223 194.97 19.3147C195.138 19.3054 195.238 19.3644 195.368 19.3927C195.41 19.4013 195.461 19.4015 195.508 19.4018C195.743 19.4019 195.884 19.3279 195.837 19.2297C195.804 19.1529 195.682 19.1094 195.537 19.1222C195.385 19.1352 195.23 19.1496 195.078 19.1639ZM214.093 15.7271C214.13 15.7031 214.171 15.6859 214.19 15.665C214.245 15.5944 214.222 15.5432 214.116 15.4912C213.987 15.4274 213.833 15.4758 213.691 15.4859C213.656 15.488 213.618 15.5174 213.6 15.5355C213.587 15.5481 213.588 15.5739 213.607 15.5803C213.764 15.6312 213.93 15.6777 214.093 15.7271ZM186.503 12.3345C186.351 12.3489 186.196 12.3606 186.045 12.379C186.007 12.3839 185.972 12.4106 185.951 12.4287C185.91 12.4623 185.955 12.5062 186.086 12.5073C186.235 12.5094 186.389 12.4827 186.544 12.4683C186.741 12.4502 186.857 12.3972 186.783 12.3554C186.712 12.3148 186.617 12.3088 186.503 12.3345ZM19.59 13.2207C19.6913 13.2116 19.7958 13.2038 19.897 13.192C19.9919 13.1803 20.0641 13.1487 20.1106 13.1027C20.0306 13.0692 19.9414 13.0522 19.8432 13.0585C19.6881 13.0702 19.5362 13.0845 19.3844 13.1016C19.2895 13.1119 19.1983 13.1439 19.1771 13.1906C19.1558 13.2265 19.3685 13.2421 19.59 13.2207ZM173.027 9.52333C173.068 9.53463 173.11 9.55818 173.151 9.55725C173.253 9.55494 173.357 9.5444 173.452 9.52863C173.493 9.52226 173.524 9.49706 173.543 9.47759C173.555 9.46506 173.552 9.44337 173.532 9.43292C173.439 9.36973 173.072 9.40121 173.013 9.47738C173.007 9.49113 173.023 9.50844 173.027 9.52333ZM162.855 2.30297C162.865 2.32451 162.868 2.3462 162.881 2.36767C162.908 2.4079 162.978 2.43624 163.08 2.45434C163.159 2.41853 163.199 2.37952 163.195 2.33879C163.191 2.3171 163.181 2.29554 163.168 2.27407C163.142 2.23384 163.071 2.20552 162.969 2.18742C162.891 2.22187 162.854 2.26081 162.855 2.30297ZM221.493 18.8003C221.464 18.8186 221.436 18.8369 221.405 18.854C221.491 18.8915 221.571 18.9019 221.631 18.8788C221.669 18.8643 221.69 18.8434 221.718 18.8251C221.632 18.7876 221.555 18.7784 221.493 18.8003ZM219.525 19.03C219.567 19.0413 219.605 19.0568 219.65 19.064C219.723 19.0759 219.789 19.0513 219.839 19.0011C219.797 18.9898 219.759 18.9744 219.714 18.9672C219.641 18.9553 219.575 18.9799 219.525 19.03ZM220.768 18.7528C220.747 18.7859 220.792 18.8121 220.91 18.8326C220.938 18.8142 220.976 18.797 220.994 18.7776C221.025 18.7456 220.971 18.7182 220.856 18.6991C220.825 18.7161 220.796 18.7344 220.768 18.7528ZM214.043 17.4387C214.022 17.4719 214.067 17.4981 214.185 17.5185C214.213 17.5002 214.251 17.483 214.269 17.4635C214.3 17.4315 214.246 17.4042 214.131 17.385C214.1 17.4021 214.072 17.4204 214.043 17.4387ZM204.705 8.02216C204.677 8.04049 204.649 8.05882 204.618 8.07586C204.704 8.11336 204.784 8.12379 204.843 8.10066C204.881 8.0862 204.903 8.06529 204.931 8.04696C204.844 8.00947 204.768 8.00032 204.705 8.02216ZM195.855 3.11499C195.931 3.12279 195.994 3.10231 196.047 3.05076C196.005 3.03946 195.967 3.024 195.922 3.01685C195.849 3.00491 195.783 3.02955 195.734 3.07966C195.775 3.09233 195.816 3.10362 195.855 3.11499ZM191.21 2.90079C191.182 2.91912 191.154 2.93745 191.123 2.95449C191.209 2.99199 191.289 3.00242 191.348 2.97929C191.386 2.96483 191.408 2.94392 191.436 2.92559C191.35 2.8881 191.273 2.88031 191.21 2.90079ZM159.736 2.3725C159.708 2.39083 159.679 2.40916 159.648 2.4262C159.735 2.4637 159.814 2.47414 159.874 2.45101C159.912 2.43654 159.933 2.41563 159.961 2.39731C159.875 2.35981 159.799 2.35202 159.736 2.3725ZM3.41493 16.9971C3.37344 16.9858 3.33199 16.9745 3.29364 16.9618C3.20257 17.0006 3.17484 17.0352 3.22615 17.0599C3.25823 17.0755 3.30595 17.084 3.34744 17.0953C3.44168 17.0564 3.46311 17.0232 3.41493 16.9971Z" fill="#FFE492"/>
<path d="M115.416 21.6094C115.174 21.6407 114.934 21.6787 114.692 21.7005C114.563 21.7116 114.518 21.771 114.466 21.8265C114.425 21.8709 114.377 21.8856 114.299 21.8955C113.642 21.977 112.988 22.0625 112.333 22.1466C112.25 22.1308 112.209 22.1032 112.228 22.0689C112.238 22.0483 112.262 22.0192 112.288 22.0159C112.736 21.9554 113.182 21.8937 113.633 21.8441C113.761 21.8303 113.796 21.7697 113.86 21.7194C113.881 21.7026 113.897 21.6778 113.924 21.6676C113.952 21.6562 113.992 21.6566 114.027 21.6531C114.752 21.5592 115.476 21.4667 116.2 21.3728C116.283 21.3886 116.323 21.4162 116.305 21.4506C116.295 21.4712 116.27 21.5003 116.245 21.5036C115.967 21.5384 115.691 21.5732 115.416 21.6094Z" fill="#FFE492"/>
<path d="M248.74 28.8039C248.63 28.8227 248.492 28.849 248.376 28.7728C248.32 28.736 248.261 28.7251 248.189 28.7349C248.086 28.7508 247.981 28.7641 247.875 28.7747C247.848 28.7766 247.812 28.7625 247.784 28.7509C247.724 28.7278 247.673 28.6882 247.609 28.6788C247.546 28.6694 247.47 28.701 247.405 28.6956C247.318 28.6881 247.281 28.6523 247.304 28.6178C247.316 28.5985 247.341 28.5707 247.368 28.566C247.757 28.5069 247.759 28.5069 247.87 28.5533C247.956 28.5894 248.035 28.6297 248.154 28.6039C248.255 28.5826 248.363 28.5761 248.466 28.5615C248.609 28.5419 248.609 28.5433 248.843 28.6236C248.903 28.644 248.966 28.6412 249.042 28.6272C249.107 28.6162 249.171 28.6365 249.224 28.672C249.192 28.719 249.144 28.7499 249.079 28.7596C248.973 28.7755 248.87 28.7874 248.74 28.8039Z" fill="#FFE492"/>
<path d="M244.84 28.4065C245.105 28.3717 245.373 28.3409 245.638 28.302C245.747 28.2859 245.834 28.2989 245.911 28.3437C245.994 28.3924 246.087 28.3862 246.188 28.3743C246.251 28.3674 246.313 28.3879 246.356 28.4252C246.373 28.4399 246.37 28.4673 246.376 28.4891C246.145 28.519 245.911 28.5503 245.678 28.5776C245.65 28.5809 245.616 28.568 245.591 28.5577C245.533 28.5357 245.484 28.4958 245.422 28.489C245.291 28.4728 245.161 28.5127 245.028 28.5226C244.965 28.5268 244.904 28.5077 244.861 28.4717C244.843 28.4543 244.847 28.4282 244.84 28.4065Z" fill="#FFE492"/>
<path d="M148.404 16.0801C148.68 16.0439 148.956 16.0091 149.231 15.9729C149.314 15.99 149.353 16.0164 149.337 16.0507C149.327 16.0714 149.302 16.1005 149.277 16.1038C148.725 16.1775 148.174 16.2485 147.624 16.3194C147.542 16.3023 147.503 16.276 147.519 16.2416C147.529 16.221 147.554 16.1919 147.579 16.1886C147.853 16.1511 148.128 16.1162 148.404 16.0801Z" fill="#FFE492"/>
<path d="M105.706 24.621C105.582 24.6268 105.453 24.6824 105.313 24.646C105.285 24.6395 105.247 24.6177 105.249 24.6049C105.252 24.5835 105.277 24.556 105.304 24.5468C105.423 24.5086 105.573 24.5008 105.631 24.4001C105.66 24.3483 105.714 24.33 105.787 24.3183C105.865 24.3052 105.92 24.3081 105.981 24.3364C106.062 24.3728 106.131 24.4421 106.257 24.4023C106.263 24.4248 106.279 24.45 106.273 24.4714C106.267 24.4928 106.24 24.5133 106.215 24.5295C106.192 24.5442 106.161 24.5578 106.132 24.5627C105.993 24.583 105.855 24.6005 105.706 24.621Z" fill="#FFE492"/>
<path d="M215.794 23.7166C215.898 23.7032 216.005 23.6952 216.106 23.6736C216.186 23.6565 216.236 23.665 216.3 23.6966C216.409 23.7521 216.415 23.7464 216.679 23.7486C216.709 23.7493 216.745 23.7691 216.762 23.7867C216.773 23.7961 216.759 23.8226 216.747 23.8367C216.728 23.8551 216.701 23.8791 216.676 23.8797C216.509 23.8877 216.343 23.9729 216.178 23.8829C216.095 23.8379 216.004 23.8179 215.892 23.8412C215.825 23.8552 215.754 23.8623 215.684 23.8694C215.617 23.8765 215.547 23.8629 215.504 23.8226C215.441 23.7633 215.476 23.7391 215.586 23.7407C215.656 23.7418 215.725 23.7251 215.794 23.7166Z" fill="#FFE492"/>
<path d="M254.201 33.8044C254.333 33.7871 254.466 33.7669 254.6 33.7524C254.627 33.7489 254.661 33.7637 254.687 33.7731C254.789 33.8132 254.776 33.8859 254.781 33.9497C254.785 34.0163 254.553 34.0758 254.453 34.0327C254.342 33.9842 254.242 33.9284 254.091 33.9632C254.033 33.976 253.962 33.9521 253.924 33.9118C253.866 33.8536 253.897 33.8287 254.004 33.8304C254.067 33.8318 254.134 33.8145 254.201 33.8044Z" fill="#FFE492"/>
<path d="M186.915 13.8242C187.052 13.8057 187.188 13.779 187.325 13.7744C187.405 13.7712 187.447 13.816 187.428 13.8497C187.418 13.8708 187.394 13.9005 187.368 13.9039C187.095 13.9435 186.822 13.9776 186.548 14.0145C186.468 13.9969 186.427 13.9687 186.445 13.935C186.455 13.9139 186.48 13.8856 186.505 13.8809C186.642 13.8583 186.779 13.8426 186.915 13.8242Z" fill="#FFE492"/>
<path d="M251.54 28.9487C251.672 28.9317 251.807 28.9077 251.939 28.8977C252.009 28.8933 252.064 28.924 252.074 28.96C252.078 28.9766 252.045 29.0066 252.018 29.0141C251.829 29.0658 251.625 29.0761 251.428 29.1044C251.364 29.1128 251.297 29.0921 251.258 29.0541C251.199 28.9956 251.231 28.9726 251.338 28.9743C251.406 28.9741 251.473 28.9573 251.54 28.9487Z" fill="#FFE492"/>
<path d="M219.295 23.8902C219.362 23.8814 219.431 23.8611 219.496 23.8652C219.566 23.8708 219.611 23.9114 219.633 23.9525C219.657 23.9994 219.656 24.044 219.636 24.0847C219.604 24.1545 219.57 24.1524 219.491 24.1083C219.37 24.0393 219.362 24.0482 219.125 24.0567C219.097 24.0574 219.063 24.0366 219.042 24.0185C219.01 23.9905 219.025 23.9456 219.098 23.9179C219.153 23.8979 219.228 23.899 219.295 23.8902Z" fill="#FFE492"/>
<path d="M246.576 28.4857C246.675 28.4721 246.774 28.4515 246.873 28.4492C246.942 28.4462 246.998 28.4772 247.005 28.5122C247.007 28.529 246.976 28.5578 246.951 28.5668C246.832 28.6076 246.697 28.6135 246.567 28.6292C246.506 28.6363 246.438 28.6154 246.399 28.577C246.341 28.5193 246.374 28.4918 246.478 28.4978C246.509 28.4999 246.543 28.4907 246.576 28.4857Z" fill="#FFE492"/>
<path d="M230.913 26.7291C230.766 26.7494 230.626 26.7316 230.636 26.6949C230.65 26.6468 230.71 26.6145 230.773 26.6046C230.874 26.5882 230.975 26.5746 231.078 26.5637C231.143 26.5566 231.202 26.5763 231.256 26.6115C231.225 26.6572 231.178 26.6906 231.115 26.7019C231.05 26.7133 230.98 26.7205 230.913 26.7291Z" fill="#FFE492"/>
<path d="M229.944 26.5533C230.042 26.5397 230.141 26.5192 230.24 26.5168C230.309 26.5138 230.365 26.5448 230.372 26.5798C230.374 26.5966 230.343 26.6254 230.318 26.6344C230.199 26.6752 230.064 26.6812 229.934 26.6969C229.873 26.7039 229.805 26.683 229.766 26.6446C229.708 26.5869 229.741 26.5594 229.845 26.5655C229.876 26.5675 229.91 26.5583 229.944 26.5533Z" fill="#FFE492"/>
<path d="M218.09 23.886C218.189 23.8725 218.287 23.8519 218.386 23.8481C218.456 23.8451 218.511 23.8761 218.518 23.9111C218.521 23.9279 218.49 23.9553 218.465 23.9658C218.346 24.0065 218.211 24.0125 218.081 24.0282C218.02 24.0352 217.952 24.0143 217.913 23.9759C217.855 23.9182 217.888 23.8907 217.991 23.8968C218.023 23.8988 218.056 23.8896 218.09 23.886Z" fill="#FFE492"/>
<path d="M217.53 23.7997C217.635 23.786 217.668 23.7781 217.702 23.7773C217.765 23.7759 217.831 23.7912 217.87 23.8311C217.928 23.8888 217.894 23.9064 217.791 23.9116C217.659 23.9176 217.529 23.9502 217.396 23.9589C217.327 23.9633 217.271 23.9309 217.266 23.8958C217.264 23.879 217.295 23.8488 217.32 23.8426C217.408 23.8194 217.504 23.8045 217.53 23.7997Z" fill="#FFE492"/>
<path d="M229.041 14.9253C228.974 14.9339 228.903 14.9555 228.839 14.9499C228.755 14.942 228.721 14.9045 228.741 14.8686C228.753 14.8485 228.775 14.8196 228.801 14.8147C228.935 14.7917 229.071 14.7757 229.206 14.7584C229.286 14.7777 229.323 14.8066 229.302 14.8425C229.29 14.8627 229.268 14.8901 229.242 14.8964C229.178 14.9121 229.108 14.9166 229.041 14.9253Z" fill="#FFE492"/>
<path d="M146.884 16.2615C146.949 16.2585 147.008 16.2756 147.059 16.3101C147.029 16.3564 146.983 16.3875 146.921 16.4018C146.889 16.4082 146.854 16.4134 146.82 16.4156C146.755 16.42 146.696 16.4014 146.645 16.367C146.675 16.3206 146.723 16.2895 146.783 16.2753C146.815 16.2688 146.85 16.2665 146.884 16.2615Z" fill="#FFE492"/>
<path d="M250.822 28.9434C250.819 28.9021 250.946 28.8521 251.062 28.8508C251.123 28.8507 251.187 28.8692 251.223 28.9068C251.279 28.9639 251.248 28.9874 251.145 28.9856C251.082 28.9842 251.015 29.0101 250.952 29.0073C250.881 29.0076 250.838 28.9772 250.822 28.9434Z" fill="#FFE492"/>
<path d="M219.911 24.0639C219.909 24.0481 219.898 24.0297 219.904 24.0151C219.942 23.9351 220.182 23.9049 220.247 23.9724C220.257 23.9851 220.262 24.0065 220.254 24.0197C220.242 24.0401 220.22 24.0665 220.195 24.0729C220.13 24.0888 220.063 24.0976 219.996 24.1007C219.967 24.1014 219.939 24.0776 219.911 24.0639Z" fill="#FFE492"/>
<path d="M106.455 24.3807C106.208 24.4167 106.204 24.4139 106.246 24.3413C106.285 24.2759 106.357 24.2356 106.464 24.233C106.496 24.2323 106.529 24.2286 106.556 24.2337C106.586 24.2401 106.628 24.2534 106.635 24.2704C106.648 24.303 106.613 24.3397 106.551 24.3655C106.524 24.3776 106.488 24.3756 106.455 24.3807Z" fill="#FFE492"/>
<path d="M150.016 16.0265C149.943 16.0527 149.88 16.0456 149.833 16.0007C149.786 15.9558 149.858 15.8994 149.985 15.8834C150.019 15.8797 150.054 15.8673 150.086 15.8723C150.117 15.8759 150.149 15.8924 150.168 15.9092C150.202 15.9371 150.182 15.9765 150.116 16.0112C150.089 16.0248 150.049 16.0228 150.016 16.0265Z" fill="#FFE492"/>
<path d="M250.377 28.8325C250.395 28.813 250.413 28.7935 250.433 28.7754C250.51 28.7984 250.544 28.8269 250.524 28.8611C250.512 28.8819 250.488 28.9001 250.47 28.9197C250.393 28.8966 250.361 28.8666 250.377 28.8325Z" fill="#FFE492"/>
<path d="M109.884 41.3964C109.884 41.379 109.912 41.3507 109.935 41.3444C109.978 41.3332 110.033 41.3522 110.071 41.3919C110.124 41.4487 110.094 41.48 109.998 41.4663C109.931 41.4563 109.885 41.4284 109.884 41.3964Z" fill="#FFE492"/>
<path d="M220.764 22.667C220.791 22.6793 220.818 22.6917 220.844 22.7055C220.81 22.7599 220.766 22.784 220.72 22.7707C220.691 22.7627 220.666 22.746 220.638 22.7336C220.672 22.6793 220.714 22.6581 220.764 22.667Z" fill="#FFE492"/>
<path d="M220.033 22.6048C220.074 22.5822 220.124 22.5925 220.183 22.633C220.165 22.6523 220.149 22.6743 220.126 22.6894C220.087 22.7134 220.035 22.7031 219.978 22.6611C219.994 22.6434 220.013 22.6241 220.033 22.6048Z" fill="#FFE492"/>
<path d="M219.471 22.6731C219.498 22.6854 219.525 22.6978 219.551 22.7117C219.517 22.766 219.475 22.7901 219.427 22.7768C219.398 22.7689 219.373 22.7521 219.345 22.7398C219.379 22.6854 219.42 22.6627 219.471 22.6731Z" fill="#FFE492"/>
<path d="M219.056 22.5938C219.087 22.6223 219.071 22.6579 219.012 22.699C218.985 22.6864 218.954 22.677 218.933 22.6599C218.899 22.6328 218.915 22.5958 218.976 22.5547C219.001 22.5687 219.028 22.5812 219.056 22.5938Z" fill="#FFE492"/>
</svg>
