<svg width="346" height="33" viewBox="0 0 346 33" fill="none" xmlns="http://www.w3.org/2000/svg">
<path d="M322.511 15.6977C322.044 15.7263 321.572 15.7473 321.115 15.7881C320.818 15.8137 320.686 15.7472 320.485 15.7136C320.418 15.7018 320.345 15.6779 320.284 15.6815C319.822 15.71 319.36 15.7417 318.898 15.7733C318.76 15.8344 318.675 15.915 318.459 15.9461C318.248 15.9756 317.997 15.9777 317.762 15.9936C317.451 16.0132 317.139 16.0327 316.828 16.0508C316.672 16.0598 316.546 16.0901 316.498 16.1458C316.489 16.1551 316.595 16.1772 316.653 16.1906C316.845 16.235 317.033 16.2857 317.244 16.3192C317.445 16.3513 317.687 16.2939 317.903 16.3351C318.388 16.4277 318.392 16.4262 318.756 16.4046C319.067 16.385 319.378 16.3639 319.689 16.349C319.751 16.3454 319.823 16.3678 319.89 16.3795C320.091 16.4116 320.224 16.4873 320.516 16.4556C320.737 16.4306 320.983 16.4239 321.214 16.4096C321.411 16.4525 321.594 16.5017 321.805 16.5352C322.001 16.5673 322.06 16.593 321.958 16.6384C321.867 16.6807 321.735 16.6987 321.56 16.7033C321.404 16.7062 321.249 16.7213 321.093 16.7303C321.013 16.7356 320.938 16.7394 320.862 16.7446C320.565 16.7641 320.565 16.7641 320.014 16.6704C319.799 16.6339 319.561 16.6897 319.355 16.6546C319.216 16.6312 319.095 16.5953 318.961 16.5704C318.903 16.5601 318.813 16.5593 318.743 16.563C318.507 16.5758 318.271 16.5855 318.045 16.6074C317.885 16.6226 317.793 16.6665 317.815 16.7093C317.821 16.7262 317.936 16.7498 318.002 16.7507C318.154 16.7525 318.313 16.7296 318.461 16.7391C318.603 16.7486 318.752 16.7781 318.859 16.811C319.076 16.8798 319.314 16.8148 319.518 16.8315C319.733 16.8496 319.912 16.9095 320.118 16.9447C320.171 16.9534 320.269 16.9372 320.349 16.9319C320.58 16.9192 320.812 16.908 321.043 16.8952C321.24 16.9381 321.451 16.9762 321.629 17.0254C321.953 17.1149 322.296 17.1473 322.705 17.0992C322.935 17.0726 323.163 17.0799 323.351 17.1382C323.545 17.198 323.762 17.19 324.003 17.1757C324.224 17.1615 324.449 17.1257 324.679 17.1668C325.178 17.2578 325.183 17.2624 325.763 17.2205C325.937 17.2082 326.069 17.204 326.204 17.2382C326.329 17.2694 326.464 17.2959 326.594 17.3256C326.825 17.3128 327.061 17.3 327.292 17.2858C327.589 17.2663 327.756 17.2864 327.833 17.3718C327.879 17.4236 327.901 17.4711 328.008 17.5055C328.133 17.5475 328.266 17.5448 328.445 17.531C328.615 17.5188 328.737 17.5008 328.804 17.4449C328.831 17.4216 328.886 17.3996 328.937 17.3808C328.978 17.3666 329.043 17.3445 329.081 17.3472C329.153 17.3528 329.249 17.3688 329.274 17.3886C329.518 17.5725 329.518 17.574 329.758 17.6257C330.023 17.6834 330.296 17.7348 330.537 17.8004C330.754 17.8585 330.966 17.8306 331.197 17.8286C331.373 17.8271 331.489 17.866 331.477 17.9061C331.469 17.9292 331.405 17.9635 331.349 17.9671C330.887 18.0018 330.42 18.0319 329.953 18.0575C329.897 18.061 329.824 18.034 329.757 18.0207C329.622 17.9942 329.501 17.9522 329.358 17.9442C329.216 17.9362 329.052 17.9607 328.896 17.9697C328.74 17.9787 328.576 18.0001 328.433 17.9891C328.29 17.978 328.174 17.9344 328.039 17.9064C327.977 17.8931 327.89 17.8738 327.839 17.8789C327.496 17.9187 327.237 17.8702 326.986 17.8048C326.933 17.7914 326.842 17.7829 326.776 17.7866C326.229 17.8174 325.687 17.8528 325.14 17.8867C324.918 17.9009 324.735 17.8487 324.681 17.7584C324.654 17.708 324.603 17.6577 324.6 17.607C324.594 17.5148 324.33 17.4664 324.141 17.4788C323.83 17.4968 323.514 17.5118 323.208 17.5375C322.958 17.5581 322.744 17.5415 322.57 17.4876C322.367 17.4264 322.14 17.4406 321.914 17.4595C321.745 17.4732 321.701 17.5243 321.719 17.6517C321.735 17.7545 321.657 17.7875 321.35 17.807C320.964 17.8318 320.572 17.8567 320.181 17.877C320.119 17.8806 320.047 17.8551 319.984 17.8418C319.85 17.8153 319.728 17.7717 319.586 17.7637C319.443 17.7542 319.279 17.7787 319.124 17.7892C318.968 17.7983 318.804 17.8212 318.661 17.8116C318.518 17.8021 318.397 17.7571 318.267 17.729C318.205 17.7157 318.128 17.6963 318.066 17.6999C317.755 17.7149 317.444 17.736 317.132 17.7556C316.783 17.777 316.783 17.777 316.28 17.6861C316.05 17.645 315.825 17.6808 315.603 17.695C315.367 17.7093 315.145 17.7173 314.957 17.6575C314.831 17.6186 314.692 17.5952 314.546 17.6041C314.154 17.6259 313.768 17.6523 313.376 17.6741C313.31 17.6778 313.22 17.6708 313.167 17.6575C312.911 17.5951 312.662 17.5465 312.314 17.5818C312.013 17.612 311.686 17.6164 311.385 17.6451C311.22 17.6603 311.148 17.7101 311.184 17.7482C311.204 17.7681 311.305 17.7902 311.371 17.7897C311.523 17.7899 311.687 17.7654 311.83 17.7734C312.124 17.7894 312.28 17.9171 312.661 17.8785C312.886 17.855 313.122 17.8453 313.359 17.8372C313.42 17.8351 313.488 17.8637 313.556 17.8785C313.748 17.9184 313.917 17.9707 314.19 17.9407C314.415 17.9172 314.656 17.909 314.887 17.8947C315.255 17.8716 315.255 17.8731 315.74 17.9627C315.97 18.0053 316.195 17.9681 316.416 17.9554C316.582 17.9463 316.737 17.9296 316.871 17.95C317.076 17.9805 317.228 18.0529 317.479 18.0462C317.715 18.0395 317.945 18.016 318.182 18.0063C318.328 18.0005 318.467 18.0239 318.588 18.0643C318.714 18.1047 318.848 18.122 319.008 18.1114C319.239 18.0971 319.475 18.0798 319.711 18.07C319.777 18.0679 319.854 18.0811 319.916 18.0929C320.05 18.1194 320.18 18.1505 320.31 18.1786C320.541 18.1674 320.778 18.1623 321.004 18.1419C321.178 18.1266 321.301 18.1317 321.445 18.1612C321.628 18.2011 321.78 18.2736 322.071 18.2358C322.216 18.2176 322.387 18.2207 322.533 18.2041C322.711 18.1826 322.835 18.1892 322.966 18.2342C323.213 18.3197 323.516 18.3186 323.826 18.2822C324.165 18.2424 324.423 18.2832 324.683 18.3486C324.958 18.4169 324.958 18.4154 325.177 18.5841C325.242 18.6327 325.419 18.6543 325.565 18.6438C325.81 18.6263 326.023 18.6322 326.207 18.689C326.401 18.7503 326.627 18.7407 326.858 18.7218C327.164 18.6961 327.471 18.6735 327.727 18.7605C327.853 18.8024 327.987 18.812 328.152 18.7998C328.618 18.7682 329.091 18.7472 329.547 18.7095C329.825 18.6856 329.989 18.7334 330.181 18.7732C330.441 18.8279 330.724 18.8761 330.732 18.9975C330.733 19.0175 330.801 19.0399 330.859 19.0548C330.984 19.086 331.118 19.1125 331.248 19.1421C331.441 19.1866 331.628 19.2234 331.886 19.1966C332.112 19.1747 332.353 19.1665 332.584 19.1506C332.815 19.1348 333.028 19.1253 333.24 19.1819C333.486 19.2459 333.745 19.3067 334.023 19.3535C334.22 19.3871 334.471 19.325 334.683 19.3709C334.813 19.3989 334.938 19.4317 335.077 19.4551C335.134 19.4653 335.224 19.4569 335.299 19.4532C335.455 19.4457 335.616 19.4397 335.766 19.423C335.94 19.4046 336.073 19.4066 336.208 19.4408C336.333 19.472 336.459 19.5154 336.602 19.5234C336.816 19.5354 337.048 19.472 337.266 19.5408C337.377 19.5752 337.517 19.6078 337.659 19.6173C337.802 19.6269 337.966 19.6024 338.118 19.6026C338.184 19.6021 338.266 19.626 338.305 19.6456C338.33 19.6562 338.298 19.6856 338.266 19.7013C338.225 19.7201 338.165 19.7452 338.104 19.7488C337.637 19.7804 337.17 19.8075 336.703 19.8376C336.425 19.8554 336.425 19.8554 335.855 19.7634C335.721 19.7415 335.575 19.7474 335.41 19.7596C335.188 19.7753 334.963 19.8034 334.729 19.7777C334.419 19.6759 334.045 19.6699 333.65 19.7132C333.485 19.7315 333.334 19.7328 333.209 19.7047C332.945 19.6486 332.666 19.5972 332.43 19.53C332.246 19.4778 332.161 19.4739 332.09 19.5483C332.068 19.5716 332.046 19.5963 332.052 19.6178C332.086 19.6944 332.143 19.7692 332.176 19.8457C332.187 19.8671 332.151 19.8921 332.129 19.9153C332.058 19.9805 331.958 19.9767 331.789 19.9244C331.619 19.872 331.418 19.8384 331.155 19.8653C330.929 19.8887 330.683 19.8878 330.457 19.9127C330.109 19.9495 329.86 19.9025 329.605 19.8386C329.552 19.8252 329.461 19.8183 329.395 19.822C328.692 19.8633 327.994 19.9093 327.292 19.9507C327.141 19.9596 327.002 19.9378 326.881 19.8973C326.755 19.8569 326.616 19.8366 326.465 19.8456C325.843 19.8832 325.22 19.9177 324.598 19.963C324.343 19.9821 324.139 19.9639 323.96 19.9116C323.825 19.8728 323.701 19.8616 323.535 19.8676C323.356 19.8738 323.229 19.8902 323.142 19.9356C323.06 19.9793 323.123 20.0049 323.315 20.037C323.521 20.0721 323.713 20.1181 323.91 20.1595C324.066 20.152 324.221 20.1384 324.373 20.1386C324.439 20.138 324.503 20.1652 324.57 20.1799C324.762 20.2229 324.94 20.2659 325.208 20.239C325.434 20.2156 325.675 20.2089 325.906 20.1931C326.227 20.1734 326.227 20.1734 326.754 20.2657C326.888 20.2892 327.03 20.2864 327.199 20.2711C327.345 20.2591 327.498 20.2793 327.606 20.3245C327.649 20.3425 327.637 20.3734 327.554 20.4755C327.559 20.5508 327.656 20.5162 327.686 20.4667C327.734 20.3956 327.633 20.3734 327.446 20.4135C327.315 20.4422 327.252 20.4828 327.287 20.5147C327.307 20.5315 327.398 20.5522 327.554 20.4755C327.965 20.3798 328.281 20.3663 328.582 20.3392C328.761 20.3238 328.875 20.329 329.02 20.3677C329.193 20.4138 329.367 20.4631 329.645 20.4361C329.946 20.4058 330.267 20.4 330.574 20.3743C330.856 20.3504 331.007 20.4167 331.19 20.4551C331.411 20.5008 331.649 20.445 331.849 20.471C332.059 20.4968 332.211 20.5631 332.453 20.5734C332.8 20.5289 333.028 20.6038 333.296 20.6522C333.507 20.6888 333.751 20.6529 333.972 20.6341C334.222 20.6135 334.431 20.6286 334.61 20.6824C334.813 20.7437 335.035 20.7279 335.261 20.7122C335.789 20.6769 335.808 20.6721 336.121 20.754C336.348 20.8135 336.559 20.784 336.781 20.7744C336.978 20.8142 337.17 20.8572 337.376 20.8923C337.428 20.901 337.527 20.8848 337.607 20.8795C337.838 20.8653 338.074 20.8509 338.305 20.8367C338.461 20.8276 338.625 20.8032 338.767 20.8112C338.91 20.8207 339.031 20.8642 339.161 20.8923C339.291 20.9204 339.425 20.9485 339.551 20.9781C339.743 21.0226 339.925 21.0594 340.189 21.0341C340.415 21.0122 340.651 21.004 340.887 20.9882C341.184 20.9687 341.175 20.9734 341.735 21.0608C342.036 21.1089 342.34 21.0449 342.642 21.0361C342.793 21.0318 342.941 21.0474 343.048 21.091C343.092 21.1091 343.08 21.14 343.096 21.1659C342.318 21.2141 341.535 21.2562 340.766 21.3135C340.47 21.336 340.31 21.282 340.146 21.2374C339.876 21.1659 339.533 21.2764 339.275 21.1833C339.12 21.1278 338.9 21.0974 338.642 21.1273C338.491 21.144 338.33 21.1438 338.175 21.159C337.78 21.1962 337.415 21.2008 337.091 21.0976C336.98 21.0617 336.822 21.043 336.706 21.0087C336.571 20.9714 336.442 20.951 336.286 20.96C335.584 21.0029 334.886 21.0458 334.188 21.0918C334.127 21.0954 334.067 21.1189 334.016 21.1363C333.886 21.1804 333.931 21.2138 334.146 21.2397C334.217 21.2483 334.276 21.2677 334.343 21.2825C334.473 21.3106 334.594 21.3557 334.737 21.3652C334.879 21.3748 335.044 21.3518 335.199 21.3428C335.355 21.3338 335.519 21.3093 335.662 21.3173C335.804 21.3269 335.926 21.3704 336.06 21.3969C336.123 21.4102 336.2 21.4326 336.261 21.4305C336.573 21.4186 336.88 21.3991 337.191 21.3826C337.388 21.4224 337.558 21.4809 337.79 21.4927C337.938 21.5007 338.093 21.4824 338.244 21.4842C338.311 21.4852 338.398 21.5075 338.432 21.5272C338.452 21.5393 338.392 21.5705 338.346 21.5863C338.17 21.6462 337.923 21.6376 337.702 21.6579C337.462 21.6799 337.244 21.6757 337.055 21.6174C336.93 21.5785 336.791 21.5582 336.64 21.5671C336.248 21.5905 335.862 21.6168 335.47 21.6371C335.404 21.6407 335.323 21.6276 335.26 21.6174C334.757 21.528 334.757 21.5249 334.408 21.5479C333.894 21.5815 333.894 21.5815 333.543 21.503C333.476 21.4882 333.403 21.4597 333.346 21.4617C332.799 21.491 332.256 21.5202 331.714 21.5602C331.535 21.5725 331.412 21.5736 331.277 21.5348C331.161 21.502 331.026 21.4647 330.883 21.4567C330.736 21.4487 330.577 21.4732 330.421 21.4822C330.265 21.4912 330.101 21.5126 329.963 21.5015C329.82 21.4904 329.694 21.4485 329.569 21.4188C329.439 21.3876 329.302 21.3903 329.128 21.4041C328.59 21.4441 328.585 21.4395 328.044 21.3489C327.982 21.3387 327.901 21.3271 327.835 21.3307C327.443 21.3525 327.056 21.3789 326.665 21.4007C326.514 21.4097 326.366 21.391 326.259 21.3473C326.215 21.3292 326.227 21.2984 326.195 21.2387C326.16 21.2252 326.2 21.2494 326.211 21.2724C326.282 21.2687 326.367 21.2711 326.418 21.2583C326.549 21.228 326.613 21.189 326.577 21.1571C326.557 21.1403 326.466 21.1196 326.409 21.1201C326.305 21.121 326.217 21.1555 326.195 21.2387C325.9 21.292 325.583 21.3054 325.277 21.3327C325.098 21.3496 324.984 21.3429 324.84 21.3042C324.666 21.2565 324.488 21.2103 324.21 21.2373C323.909 21.2676 323.588 21.2749 323.277 21.2991C322.919 21.3268 322.753 21.1899 322.45 21.1955C322.138 21.2013 321.828 21.2301 321.516 21.2512C321.243 21.2689 321.243 21.2689 320.668 21.174C320.458 21.1389 320.215 21.1947 320.009 21.1581C319.87 21.1347 319.749 21.0989 319.615 21.0739C319.557 21.0636 319.468 21.0644 319.397 21.0681C319.005 21.0899 318.608 21.1056 318.232 21.1426C317.804 21.1862 317.475 21.146 317.161 21.0581C316.774 21.0783 316.382 21.0909 316 21.1233C315.722 21.1472 315.558 21.0979 315.366 21.0581C315.299 21.0448 315.24 21.0223 315.169 21.0167C315.098 21.0112 315.013 21.0242 314.938 21.0295C314.627 21.0491 314.305 21.0595 314.004 21.0898C313.633 21.1283 313.482 21.0036 313.192 20.9907C313.003 21.0676 312.906 21.1714 312.523 21.1824C312.211 21.1912 311.901 21.2185 311.59 21.238C311.434 21.2471 311.278 21.2576 311.123 21.2666C310.873 21.2826 310.758 21.3435 310.817 21.4352C310.849 21.4857 310.876 21.5362 310.903 21.5866C310.956 21.6769 310.843 21.7547 310.645 21.7671C310.098 21.801 309.556 21.8364 309.008 21.8672C308.862 21.8762 308.718 21.8513 308.597 21.8108C308.471 21.7704 308.333 21.7532 308.182 21.7621C307.635 21.796 307.093 21.8314 306.545 21.8622C306.484 21.8658 306.403 21.8512 306.34 21.8394C306.206 21.8129 306.076 21.7818 305.946 21.7537C305.635 21.7702 305.328 21.782 305.021 21.8031C304.526 21.835 304.526 21.8365 304.156 21.7552C304.089 21.7404 304.021 21.7118 303.959 21.7139C303.723 21.722 303.492 21.7394 303.256 21.7552C302.563 21.8011 302.563 21.8011 302.357 21.7568C302.169 21.7154 302 21.6646 301.722 21.6915C301.421 21.7218 301.1 21.7338 300.789 21.7518C300.558 21.7645 300.327 21.7788 300.095 21.7839C300.033 21.786 299.965 21.7573 299.898 21.7425C299.705 21.6966 299.518 21.6597 299.26 21.6881C299.109 21.7047 298.949 21.7092 298.793 21.7182C298.387 21.7432 298.387 21.7432 297.714 21.6568C297.647 21.6481 297.566 21.6381 297.5 21.6432C296.953 21.6756 296.41 21.711 295.863 21.7418C295.797 21.7455 295.716 21.7369 295.649 21.7298C294.895 21.6471 294.895 21.6472 294.103 21.697C293.801 21.7149 293.792 21.7212 293.47 21.6425C293.325 21.6084 293.206 21.5925 293.041 21.6047C292.419 21.6469 291.791 21.6769 291.174 21.7252C290.896 21.746 290.732 21.7013 290.539 21.6615C290.472 21.6482 290.399 21.6181 290.343 21.6201C289.72 21.6547 289.097 21.6954 288.474 21.7299C288.418 21.7335 288.345 21.7034 288.278 21.6901C288.148 21.6636 288.022 21.6231 287.88 21.6151C287.732 21.6072 287.573 21.6316 287.412 21.6407C287.021 21.664 287.021 21.6625 286.56 21.5758C286.498 21.564 286.416 21.5478 286.355 21.5514C285.732 21.5875 285.105 21.619 284.488 21.6688C284.134 21.6965 283.89 21.654 283.635 21.5916C283.582 21.5783 283.491 21.5729 283.425 21.5765C282.723 21.6179 282.025 21.6638 281.322 21.7052C281.176 21.7142 281.032 21.6893 280.911 21.6503C280.717 21.589 280.496 21.5986 280.26 21.6144C279.718 21.6514 279.713 21.6499 279.386 21.5789C279.319 21.5641 279.261 21.5446 279.189 21.5376C279.122 21.5305 279.037 21.5358 278.967 21.5395C278.655 21.5575 278.344 21.5771 278.033 21.5967C277.722 21.6162 277.405 21.6282 277.099 21.6569C276.723 21.6924 276.536 21.5941 276.268 21.5503C275.881 21.5736 275.484 21.5893 275.103 21.6249C274.811 21.652 274.67 21.5856 274.473 21.5519C274.406 21.5402 274.333 21.5147 274.272 21.5183C273.569 21.5581 272.866 21.601 272.169 21.6485C271.999 21.6592 271.885 21.6479 271.74 21.6122C271.417 21.532 271.403 21.5352 270.875 21.5705C270.644 21.5863 270.423 21.6005 270.22 21.5392C270.041 21.4839 269.827 21.4719 269.577 21.4925C269.271 21.5182 268.955 21.5332 268.644 21.5512C268.332 21.5708 268.022 21.5965 267.71 21.6069C267.459 21.6167 267.303 21.5458 267.102 21.5107C267.04 21.5004 266.954 21.4996 266.883 21.5033C266.572 21.5198 266.251 21.5333 265.95 21.562C265.583 21.5974 265.374 21.5147 265.11 21.4678C265.052 21.4575 264.958 21.4645 264.887 21.4697C264.34 21.5021 263.798 21.5375 263.251 21.5714C263.054 21.5315 262.853 21.4933 262.656 21.4535C262.344 21.4716 262.033 21.4911 261.722 21.5092C261.486 21.5235 261.245 21.5302 261.024 21.5551C260.737 21.5883 260.591 21.5173 260.394 21.4837C260.327 21.472 260.254 21.4465 260.193 21.4501C259.801 21.4703 259.41 21.4921 259.023 21.5216C258.656 21.5509 258.5 21.4139 258.197 21.418C257.885 21.4222 257.564 21.445 257.263 21.4752C256.915 21.5105 256.666 21.4634 256.41 21.3995C256.357 21.3861 256.267 21.3792 256.201 21.3829C255.809 21.4047 255.423 21.4311 255.031 21.4529C254.965 21.4565 254.884 21.4495 254.817 21.4409C254.063 21.3567 254.063 21.3551 253.738 21.3764C253.507 21.3906 253.271 21.408 253.035 21.4177C252.969 21.4214 252.888 21.4082 252.825 21.3965C252.327 21.307 252.327 21.3055 251.973 21.327C251.662 21.3465 251.35 21.3661 251.039 21.3857C250.842 21.3459 250.641 21.3076 250.444 21.2678C250.057 21.2911 249.661 21.3099 249.279 21.3408C249.1 21.3547 248.982 21.3511 248.842 21.3139C248.668 21.2692 248.494 21.2169 248.212 21.2455C247.911 21.2757 247.589 21.2816 247.283 21.3073C246.916 21.3381 246.755 21.1996 246.457 21.2037C246.145 21.2079 245.824 21.2306 245.523 21.2609C245.175 21.2961 244.926 21.2491 244.67 21.1852C244.617 21.1718 244.527 21.1649 244.461 21.1686C243.603 21.2205 242.749 21.2724 241.891 21.3274C241.363 21.3611 241.363 21.3627 240.349 21.2868C240.277 21.2813 240.201 21.2758 240.13 21.2795C239.819 21.296 239.498 21.3095 239.197 21.3382C238.83 21.3736 238.621 21.2924 238.357 21.244C238.299 21.2337 238.21 21.2406 238.134 21.2444C237.898 21.2571 237.667 21.273 237.432 21.2873C237.12 21.3069 236.809 21.3264 236.498 21.346C236.301 21.3077 236.1 21.268 235.903 21.2297C235.516 21.253 235.119 21.2672 234.738 21.3027C234.446 21.3298 234.305 21.2665 234.108 21.2313C234.041 21.2196 233.968 21.1941 233.907 21.1961C233.204 21.236 232.501 21.2773 231.804 21.3264C231.516 21.3473 231.379 21.2793 231.182 21.2456C231.115 21.2354 231.038 21.2161 230.977 21.2197C230.51 21.2452 230.043 21.2754 229.576 21.3055C229.312 21.3231 229.312 21.3231 228.729 21.2329C228.662 21.2227 228.585 21.2126 228.519 21.2162C227.038 21.3058 225.562 21.3999 224.081 21.4894C223.93 21.4984 223.791 21.4766 223.67 21.4361C223.544 21.3957 223.406 21.3754 223.255 21.3843C222.632 21.422 222.005 21.4566 221.387 21.5018C221.133 21.5209 220.928 21.5027 220.749 21.4504C220.614 21.4116 220.49 21.3973 220.325 21.4079C220.014 21.4291 219.703 21.4471 219.391 21.4667C219.08 21.4862 218.769 21.5058 218.458 21.5254C218.146 21.545 217.83 21.5569 217.524 21.5857C217.148 21.6212 216.957 21.5275 216.693 21.4821C216.226 21.5092 215.759 21.5363 215.297 21.5648C214.674 21.6024 214.052 21.6431 213.429 21.6792C213.373 21.6828 213.3 21.6557 213.233 21.6425C213.036 21.6057 212.89 21.5532 212.603 21.5726C211.207 21.666 209.801 21.7472 208.401 21.8392C208.109 21.8586 207.977 21.7936 207.775 21.76C207.708 21.7498 207.631 21.729 207.57 21.7326C206.792 21.7777 206.014 21.8274 205.235 21.8755C204.919 21.8951 204.919 21.8951 204.383 21.8045C204.321 21.7942 204.239 21.7811 204.173 21.7847C203.159 21.8457 202.15 21.9097 201.136 21.9722C200.985 21.9812 200.846 21.9608 200.721 21.9204C200.599 21.88 200.456 21.8581 200.31 21.8671C199.376 21.9243 198.437 21.98 197.508 22.0417C197.259 22.0592 197.049 22.0472 196.866 21.9935C196.735 21.9546 196.607 21.9388 196.446 21.9494C195.046 22.0367 193.645 22.121 192.244 22.2129C191.976 22.2306 191.784 22.203 191.611 22.1538C191.471 22.1151 191.352 22.1084 191.182 22.116C191.002 22.1252 190.895 22.143 190.799 22.19C190.675 22.251 190.599 22.3269 190.297 22.3341C189.985 22.3414 189.669 22.3626 189.363 22.3913C189.071 22.42 188.929 22.352 188.742 22.3121C188.603 22.2841 188.475 22.2806 188.3 22.2959C188.14 22.3096 188.043 22.3366 187.951 22.3865C187.75 22.4928 187.731 22.4929 187.471 22.4291C187.332 22.3949 187.207 22.3683 187.056 22.3758C186.433 22.4119 185.81 22.451 185.188 22.4917C184.83 22.5148 184.825 22.5179 184.55 22.4434C184.415 22.4061 184.286 22.3888 184.131 22.3993C182.419 22.5062 180.707 22.6101 178.995 22.7216C178.731 22.7392 178.549 22.7085 178.357 22.664C178.294 22.6492 178.231 22.6282 178.16 22.6227C178.088 22.6172 178.008 22.624 177.933 22.6277C176.688 22.7045 175.438 22.7782 174.198 22.8626C173.915 22.882 173.76 22.8341 173.564 22.7959C173.496 22.7826 173.438 22.7616 173.367 22.7561C173.295 22.7521 173.211 22.7635 173.135 22.7688C171.89 22.8456 170.64 22.9193 169.401 23.0037C169.104 23.0232 168.971 22.9597 168.775 22.9276C168.708 22.9159 168.635 22.8935 168.574 22.8971C168.182 22.9173 167.796 22.9437 167.404 22.967C166.471 23.0258 165.537 23.0814 164.603 23.1417C164.245 23.1648 164.079 23.0294 163.777 23.0381C163.385 23.0492 162.999 23.0832 162.607 23.1081C162.296 23.1277 161.985 23.1457 161.673 23.1668C161.367 23.1864 161.367 23.1864 160.594 23.1039C160.527 23.0967 160.446 23.0867 160.38 23.0903C159.291 23.1565 158.197 23.2228 157.112 23.2936C156.862 23.3095 156.653 23.3037 156.47 23.2484C156.339 23.2095 156.205 23.1907 156.05 23.2012C154.413 23.3029 152.782 23.4045 151.145 23.5046C151.084 23.5082 151.002 23.4935 150.94 23.4818C150.806 23.4553 150.676 23.4241 150.546 23.396C150.453 23.4322 150.333 23.4655 150.274 23.5059C150.192 23.5604 150.08 23.5768 149.9 23.5875C149.721 23.5983 149.607 23.5962 149.463 23.5575C149.289 23.5098 149.111 23.4729 148.833 23.4906C147.122 23.6021 145.409 23.7044 143.698 23.8144C143.415 23.8322 143.278 23.7657 143.077 23.7321C143.01 23.7219 142.933 23.7057 142.871 23.7093C142.169 23.7507 141.471 23.7951 140.768 23.838C138.82 23.9592 136.872 24.0758 134.93 24.2032C134.576 24.2262 134.332 24.1898 134.077 24.126C134.024 24.1126 133.933 24.1057 133.867 24.1093C131.142 24.2772 128.416 24.4465 125.695 24.6159C125.548 24.6248 125.405 24.6015 125.284 24.5626C125.158 24.5221 125.019 24.5034 124.868 24.5123C123.623 24.5891 122.378 24.6659 121.133 24.7442C120.822 24.7638 120.817 24.7653 120.491 24.6944C120.423 24.6796 120.35 24.651 120.299 24.6545C120.19 24.6631 120.089 24.7024 120.016 24.7553C119.944 24.8112 119.827 24.8276 119.653 24.8399C119.474 24.8522 119.355 24.8486 119.215 24.8129C119.037 24.7683 118.873 24.7252 118.59 24.743C115.011 24.9704 111.431 25.1901 107.852 25.416C107.565 25.4338 107.428 25.3705 107.227 25.3369C107.16 25.3267 107.092 25.3119 107.021 25.3094C106.945 25.307 106.865 25.3169 106.79 25.3222C100.951 25.6842 95.1132 26.0479 89.2749 26.4099C88.9259 26.4314 88.9306 26.4313 88.5567 26.5759C88.5105 26.5932 88.4505 26.6168 88.3844 26.6204C86.5973 26.7341 84.8052 26.8448 83.0131 26.9555C82.235 27.0036 81.457 27.0533 80.6787 27.1C80.4004 27.1162 80.4004 27.1162 79.7442 27.2878C79.6884 27.3021 79.6233 27.3211 79.5572 27.3248C76.4448 27.519 73.3323 27.7132 70.2149 27.9044C69.9696 27.9188 69.7727 27.9482 69.6641 28.0229C69.5871 28.0758 69.4851 28.1074 69.3295 28.1179C67.1507 28.2534 64.9722 28.3905 62.7884 28.5229C62.5291 28.539 62.3757 28.5833 62.2523 28.6489C62.2111 28.6708 62.1749 28.6957 62.1144 28.7116C62.0585 28.7259 61.9737 28.7312 61.903 28.7365C60.0355 28.8524 58.1682 28.9714 56.2956 29.0827C56.0173 29.099 55.9075 29.1568 55.7743 29.2178C55.7283 29.2382 55.697 29.2661 55.6364 29.2805C55.5757 29.2933 55.4858 29.2941 55.4103 29.2978C53.854 29.3941 52.2979 29.492 50.7416 29.5884C50.4381 29.5833 50.3778 29.6729 50.2347 29.728C50.1839 29.7468 50.1478 29.7717 50.0871 29.7846C50.0217 29.7974 49.9363 29.7966 49.856 29.8004C48.611 29.8771 47.3662 29.9585 46.1162 30.0307C45.8284 30.047 45.7768 30.1258 45.6243 30.1809C45.5733 30.1983 45.5231 30.2248 45.4619 30.23C44.684 30.2812 43.9058 30.3294 43.1276 30.376C42.8682 30.3921 42.8681 30.3906 42.4193 30.5466C42.3683 30.5639 42.308 30.5829 42.242 30.588C41.0773 30.6626 39.9077 30.7341 38.7382 30.8071C38.5873 30.8161 38.4857 30.8539 38.4134 30.9067C38.3412 30.9596 38.2347 30.9943 38.0837 31.0033C37.15 31.062 36.2163 31.1223 35.2823 31.1764C35.0228 31.1909 34.8551 31.2308 34.7461 31.3009C34.6645 31.3539 34.5621 31.3808 34.3971 31.3915C33.4633 31.4487 32.5298 31.5105 31.5908 31.5616C31.3171 31.5762 31.1786 31.6297 31.0694 31.6951C30.983 31.7481 30.8801 31.7675 30.7056 31.7782C28.9935 31.882 27.2768 31.9859 25.5701 32.0989C25.2825 32.1182 25.1321 32.0657 24.9402 32.029C24.6668 31.9775 24.4121 31.9213 24.404 31.8015C24.4028 31.7831 24.3208 31.7623 24.263 31.7474C23.834 31.6358 23.834 31.6358 23.7594 31.5135C23.7165 31.4386 23.6687 31.3621 23.6304 31.2856C23.5604 31.1602 23.4067 31.1293 22.9728 31.156C22.8172 31.1651 22.6617 31.1771 22.5059 31.1846C22.2748 31.1974 22.0962 31.1482 22.0474 31.0564C22.0203 31.0059 21.9886 30.9555 21.9615 30.905C22.1973 30.8907 22.1924 30.8892 22.5964 30.6997C22.7662 30.6199 22.7663 30.6199 22.425 30.5445C22.2952 30.5164 22.17 30.4852 22.0308 30.4587C21.9685 30.4469 21.8875 30.4399 21.8215 30.4436C21.4299 30.4654 21.0432 30.4902 20.6566 30.5151C20.0341 30.5542 20.034 30.5542 19.3893 30.403C19.3364 30.3911 19.2544 30.3688 19.263 30.3564C19.3112 30.2991 19.4373 30.2735 19.5978 30.2659C19.8339 30.2547 20.0647 30.2373 20.2958 30.2231C20.4515 30.214 20.6071 30.2035 20.7627 30.1945C20.9055 30.1349 21.0532 30.0767 21.1864 30.0156C21.3979 29.9216 21.3977 29.9185 21.0951 29.8566C20.9029 29.8152 20.6968 29.7785 20.5001 29.7403C20.269 29.7546 20.0333 29.7704 19.8021 29.7831C19.5096 29.7995 19.3893 29.7713 19.3068 29.6721C19.2346 29.5852 19.31 29.5092 19.536 29.4888C19.7666 29.4684 19.9836 29.4543 20.0967 29.3749C20.2052 29.2987 20.402 29.2678 20.6477 29.2595C20.8035 29.2536 20.959 29.2415 21.1146 29.2309C21.3173 29.2169 21.4209 29.1376 21.3724 29.0504C21.3449 28.9938 21.2943 28.9466 21.1089 28.9359C20.2865 28.8892 20.2771 28.8908 19.863 28.7898C19.8245 28.7809 19.7943 28.7535 19.8076 28.7396C19.8297 28.7163 19.8795 28.6821 19.936 28.677C20.478 28.6385 21.0202 28.6032 21.5629 28.5755C21.7422 28.5662 21.8741 28.5543 21.9318 28.497C22.0117 28.4179 21.9689 28.346 21.7997 28.2937C21.7465 28.2773 21.6597 28.2565 21.6031 28.2585C20.9802 28.2915 20.3625 28.3322 19.7397 28.3652C19.6831 28.3687 19.5772 28.3435 19.5522 28.3238C19.5024 28.2873 19.57 28.2375 19.7346 28.2192C19.9507 28.1943 20.1731 28.1909 20.3146 28.1128C20.5108 28.002 20.7549 27.9 20.975 27.7936C21.0116 27.7749 21.0709 27.739 21.0565 27.7361C20.9358 27.7033 20.7968 27.6783 20.6716 27.6471C20.4597 27.5952 20.4546 27.5199 20.497 27.4473C20.531 27.3886 20.6714 27.3644 20.8465 27.3629C20.9223 27.3622 21.0169 27.3614 21.0775 27.3471C21.2362 27.3119 21.2853 27.2684 21.2027 27.2369C21.1541 27.2188 21.0672 27.1935 21.0106 27.197C20.0012 27.2564 18.9868 27.3143 17.983 27.3859C17.686 27.4069 17.5449 27.3497 17.3623 27.3098C17.2228 27.2787 17.0942 27.2675 16.9253 27.292C16.7658 27.3149 16.6089 27.304 16.5061 27.2541C16.4228 27.2133 16.5624 27.1768 16.9431 27.1336C17.0136 27.1253 17.0937 27.12 17.1447 27.1042C17.6825 26.9336 17.6824 26.932 18.0596 26.9073C18.4274 26.8842 18.4274 26.8826 18.6155 26.7919C18.7026 26.7496 18.7991 26.7073 18.8814 26.6636C18.9134 26.6464 18.9682 26.6152 18.9486 26.6061C18.8413 26.5594 18.6985 26.5499 18.5336 26.562C18.1662 26.5913 17.7294 26.5736 17.5452 26.7211C17.4732 26.7771 17.3559 26.7935 17.1861 26.8041C15.4788 26.9079 13.7718 27.0179 12.0595 27.1186C11.7812 27.1348 11.6573 27.1928 11.5527 27.2567C11.4616 27.3097 11.3585 27.326 11.1792 27.3367C11 27.3475 10.8583 27.3533 10.7507 27.3035C10.6871 27.2733 10.7363 27.2299 10.8754 27.1856C11.0748 27.1225 11.0317 27.046 10.9606 26.9744C10.91 26.9272 10.761 26.8946 10.6051 26.899C10.3736 26.9072 10.1523 26.926 9.95411 26.8662C9.83813 26.8318 9.69446 26.8085 9.5646 26.7788C9.31424 26.718 9.06377 26.6556 8.72106 26.7C8.48337 26.6867 8.31399 26.6328 8.12177 26.5914C7.7999 26.5235 7.77078 26.513 7.99289 26.4358C8.24277 26.3491 8.03649 26.2402 8.17289 26.1561C8.31834 26.0657 8.52138 25.9856 8.70037 25.9011C8.74625 25.8791 8.78752 25.8588 8.8334 25.8369C8.72247 25.8071 8.62051 25.7696 8.49127 25.7492C8.32375 25.7229 8.23627 25.6899 8.23932 25.5946C8.20526 25.581 8.22174 25.6162 8.26023 25.6251C8.30344 25.634 8.40713 25.6254 8.45847 25.6142C8.58902 25.5839 8.65263 25.5449 8.61732 25.5129C8.59725 25.4962 8.50594 25.4755 8.44915 25.476C8.34502 25.4769 8.25739 25.5114 8.23458 25.5946C7.70874 25.6621 7.1617 25.6976 6.61433 25.7268C6.55774 25.7304 6.48472 25.7003 6.41742 25.6855C6.19618 25.6351 6.19626 25.6367 5.55627 25.6268C5.4899 25.6258 5.39858 25.6051 5.364 25.5839C5.22042 25.4914 5.21825 25.3884 5.14526 25.2891C5.26397 25.2236 5.38268 25.1596 5.50623 25.0955C5.75321 24.9658 6.07704 24.8508 6.2664 24.7094C6.21873 24.6345 6.15685 24.5597 6.36096 24.4965C6.9474 24.4146 6.9427 24.4146 7.09865 24.3395C7.54367 24.1267 7.98382 23.9124 8.44797 23.7024C8.57214 23.6476 8.57019 23.6184 8.34145 23.5973C8.27004 23.5918 8.19411 23.5909 8.11859 23.5946C7.88267 23.6074 7.64789 23.6371 7.41556 23.6329C7.18333 23.6303 7.00839 23.5642 6.81627 23.5243C6.61932 23.483 6.42228 23.4401 6.22522 23.3972C6.00308 23.4038 5.78357 23.4487 5.55646 23.3815C5.38245 23.3292 5.16689 23.2926 4.96984 23.2497C5.10869 23.1317 5.37724 23.0403 5.58328 22.9355C5.77102 22.8402 5.77575 22.8417 6.29151 22.765C6.53535 22.7291 6.60884 22.5548 6.39717 22.5059C6.14218 22.4466 5.87336 22.3921 5.61385 22.3359C5.39171 22.3424 5.16737 22.3858 4.94973 22.3186C4.78055 22.2678 4.58881 22.234 4.31565 22.2564C3.85409 22.2941 3.38195 22.3151 2.91525 22.3468C2.75495 22.3574 2.57937 22.3527 2.50485 22.3011C2.45504 22.2647 2.58888 22.2128 2.74435 22.2007C2.97996 22.1833 3.19168 22.1631 3.30482 22.0852C3.41324 22.0075 3.61991 21.9826 3.8653 21.9698C3.93136 21.9661 4.0059 21.947 4.03778 21.9283C4.20216 21.8378 4.38632 21.7594 4.75097 21.7593C4.90035 21.7273 4.97817 21.6882 4.92835 21.6517C4.89861 21.632 4.79751 21.6068 4.74092 21.6103C4.34912 21.6291 3.95733 21.6478 3.57583 21.6787C3.3968 21.6926 3.25968 21.6968 3.14298 21.6517C3.06045 21.6217 3.10025 21.5798 3.2487 21.534C3.37863 21.4944 3.41353 21.4496 3.40055 21.3974C3.3687 21.2763 3.2243 21.2422 2.77046 21.2538C2.4443 21.2627 2.36248 21.2434 2.28445 21.1396C2.26386 21.1152 2.21434 21.0818 2.24633 21.0646C2.4428 20.9584 2.56664 20.8283 2.94669 20.7758C3.09691 20.7561 3.25776 20.7547 3.34973 20.714C3.4417 20.6732 3.52382 20.6264 3.62063 20.5872C3.74058 20.54 3.82279 20.4963 3.76403 20.4676C3.66585 20.4162 3.51413 20.4129 3.34025 20.4328C3.18983 20.4495 3.02902 20.4524 2.87345 20.4629C2.59535 20.4822 2.36552 20.4442 2.32784 20.377C2.2259 20.1996 2.1193 20.0237 2.02683 19.8463C2.01592 19.8248 2.03765 19.797 2.07427 19.7782C2.20245 19.7126 2.34035 19.6499 2.47336 19.5858C2.62941 19.5122 2.88597 19.5238 3.10275 19.5081C3.40905 19.4855 3.40904 19.487 3.81087 19.3361C3.96786 19.2763 4.24867 19.297 4.4108 19.2433C4.46173 19.226 4.54032 19.1976 4.52509 19.1824C4.50481 19.1626 4.40917 19.148 4.33755 19.1394C4.27067 19.1308 4.18992 19.1269 4.11923 19.1321C3.26083 19.184 2.4074 19.239 1.5489 19.2894C1.4027 19.2983 1.23949 19.2659 1.18422 19.2188C1.12915 19.1747 1.13968 19.1208 1.1268 19.0702C1.25981 19.006 1.412 18.9463 1.52577 18.8777C1.61217 18.8247 1.71476 18.8008 1.89441 18.7962C2.13075 18.7895 2.36144 18.7691 2.62556 18.753C3.10267 18.5245 3.56956 18.2854 4.08453 18.0566C4.2914 17.9641 4.23321 17.8724 4.26928 17.7753C4.30587 17.6858 4.6239 17.697 4.83512 17.669C5.00406 17.6461 5.05746 17.5964 4.98892 17.5632C4.94971 17.5435 4.86301 17.5212 4.79675 17.5218C4.64056 17.5231 4.48531 17.5383 4.32964 17.5473C4.17397 17.5563 3.99382 17.5533 3.86779 17.5805C3.74639 17.6061 3.6694 17.659 3.59194 17.7043C3.50533 17.7542 3.38823 17.7721 3.20858 17.7767C2.97688 17.7818 2.74591 17.7976 2.51472 17.8103C2.2551 17.7526 1.98606 17.6965 1.7357 17.6357C1.68754 17.6238 1.67564 17.5886 1.67882 17.5655C1.68425 17.5055 1.61079 17.4692 1.45263 17.4414C1.31845 17.4179 1.20721 17.3836 1.08208 17.3539C1.17394 17.3116 1.27541 17.2708 1.34813 17.2256C1.50747 17.1305 1.71119 17.0611 2.0711 17.0611C2.20905 17 2.31764 16.9253 2.49943 16.8822C2.67186 16.8408 2.97274 16.8781 3.09915 16.7864C3.16241 16.7413 3.25844 16.6897 3.38499 16.6702C3.58654 16.6393 3.85262 16.6524 3.96514 16.5653C4.03282 16.5156 4.1339 16.4701 4.27033 16.4567C4.42559 16.4415 4.58626 16.4371 4.69788 16.4069C4.75838 16.391 4.82299 16.3659 4.82154 16.3444C4.82061 16.3305 4.72457 16.3098 4.65769 16.3012C4.59544 16.291 4.51437 16.284 4.44358 16.2877C4.20755 16.2989 3.97678 16.3178 3.74075 16.329C3.6747 16.3327 3.59827 16.3226 3.52665 16.314C3.31675 16.2912 3.32885 16.2604 3.49077 16.2036C3.6528 16.1485 3.76653 16.0783 3.89954 16.0142C4.05027 16.0021 4.23987 16.0051 4.34203 15.975C4.51394 15.9259 4.6323 15.8557 4.77026 15.7946C4.92582 15.784 5.08653 15.7796 5.23211 15.7615C5.29322 15.7548 5.31937 15.7207 5.37008 15.7003C5.46215 15.6611 5.53895 15.6051 5.6655 15.5856C5.87188 15.5562 6.12819 15.5647 6.24555 15.4792C6.31323 15.4294 6.41852 15.3763 6.55084 15.3721C6.9196 15.3628 7.07009 15.2769 7.25403 15.1954C7.39198 15.1343 7.69697 15.1624 7.84912 15.1012C7.95065 15.0619 8.02322 15.0136 8.12486 14.9759C8.16642 14.9602 8.2558 14.9517 8.32648 14.9465C8.71303 14.9201 9.10471 14.8999 9.49116 14.8719C9.55238 14.8668 9.60767 14.8433 9.65375 14.8245C9.75045 14.7837 9.80818 14.7278 9.92948 14.7007C10.0508 14.6735 10.2259 14.672 10.3768 14.663C10.8628 14.6358 10.9011 14.6416 11.1147 14.5091C11.2874 14.4016 11.7327 14.4731 11.8716 14.3551C11.9522 14.2868 12.1046 14.2302 12.3833 14.2201C12.7754 14.206 13.1616 14.1735 13.5531 14.1501C13.9021 14.1287 13.8973 14.1287 14.2663 13.9826C14.4324 13.9167 14.6839 13.9237 14.9055 13.9095C15.1413 13.8952 15.3578 13.8749 15.4662 13.7971C15.5747 13.7209 15.7813 13.6945 16.0219 13.6817C16.2437 13.669 16.4951 13.6746 16.6661 13.6116C17.0821 13.4605 17.0773 13.459 17.3744 13.4411C17.8413 13.4125 18.3082 13.3839 18.775 13.3538C19.0862 13.3342 19.4126 13.3283 19.7038 13.292C19.9151 13.2656 20.0039 13.1788 20.1371 13.1177C20.5237 13.0914 20.9102 13.065 21.2969 13.0401C21.8391 13.0048 22.3862 12.9724 22.9333 12.9385C23.166 12.8781 23.1905 12.7488 23.5877 12.7393C23.8241 12.7341 24.0547 12.7122 24.2905 12.6979C24.6819 12.673 25.0681 12.642 25.4602 12.6279C25.7579 12.6177 25.8043 12.5343 25.9569 12.4807C26.0078 12.4618 26.0534 12.4353 26.1146 12.4302C26.727 12.3819 27.3605 12.3672 27.9574 12.2991C28.0185 12.2924 28.0731 12.2597 28.0858 12.2365C28.0944 12.2242 28.0124 12.2018 27.9596 12.1915C27.8972 12.1798 27.816 12.1682 27.7499 12.1718C25.8021 12.2915 23.8545 12.4127 21.9067 12.5324C21.6333 12.5501 21.6332 12.5485 20.9772 12.7232C20.9213 12.7375 20.856 12.7535 20.7854 12.7587C20.4742 12.7798 20.1579 12.7933 19.8518 12.819C19.6022 12.8395 19.3927 12.8229 19.2092 12.7691C19.0787 12.7303 18.9453 12.7191 18.7845 12.7236C18.605 12.7298 18.4879 12.7477 18.3866 12.79C18.2531 12.848 18.1871 12.9224 17.8994 12.9402C16.5739 13.0177 15.2488 13.1028 13.9284 13.1848C13.7423 13.1649 13.6502 13.1334 13.695 13.0946C13.7218 13.0713 13.7766 13.0401 13.8332 13.0366C14.3753 12.9997 14.9224 12.9673 15.4646 12.9319C15.5401 12.9267 15.6444 12.9288 15.6859 12.9131C15.8895 12.8422 15.9578 12.7294 16.3501 12.7184C16.577 12.7118 16.8073 12.6868 17.0236 12.6634C17.0847 12.6567 17.1393 12.624 17.152 12.6008C17.1559 12.5885 17.0786 12.5661 17.021 12.5558C16.8098 12.5131 16.5721 12.5689 16.3618 12.54C16.29 12.5299 16.1896 12.5153 16.1741 12.497C16.1635 12.4802 16.2421 12.4519 16.2978 12.4345C16.3488 12.4187 16.4188 12.4043 16.4895 12.399C17.1119 12.3584 17.7342 12.3161 18.3571 12.2831C18.612 12.2702 18.7892 12.2302 18.898 12.1586C18.9797 12.1056 19.082 12.0771 19.2424 12.0681C20.3318 12.0018 21.4209 11.9295 22.5154 11.8678C22.7891 11.8532 22.9277 11.8013 23.0369 11.7343C23.1233 11.6813 23.2262 11.662 23.4007 11.6512C24.9619 11.5579 26.513 11.4555 28.0744 11.3652C28.3622 11.3489 28.443 11.2822 28.5859 11.2241C28.6366 11.2036 28.668 11.1788 28.7334 11.1659C28.7989 11.1531 28.8841 11.1539 28.9644 11.1501C30.2095 11.0733 31.4543 10.992 32.7044 10.9198C32.9969 10.9034 33.0484 10.8261 33.1962 10.7711C33.2472 10.7537 33.2927 10.7257 33.3539 10.7206C34.2875 10.6603 35.2213 10.6031 36.155 10.5444C36.7775 10.5052 37.3999 10.4661 38.0225 10.4285C38.3291 10.4105 38.329 10.4089 38.7357 10.2594C38.7819 10.2421 38.8468 10.2216 38.9081 10.2164C40.7 10.1027 42.4874 9.99364 44.2794 9.88144C44.4303 9.87246 44.5368 9.83618 44.609 9.78331C44.6812 9.73043 44.7878 9.69417 44.934 9.68523C46.3345 9.59637 47.7351 9.50906 49.1406 9.42476C49.3954 9.41028 49.5727 9.37187 49.6816 9.30178C49.7633 9.24883 49.8656 9.22029 50.026 9.21123C51.4267 9.12545 52.8272 9.03504 54.2328 8.95228C54.5017 8.93614 54.6306 8.88279 54.759 8.82021C54.8049 8.7983 54.8404 8.76265 54.897 8.75909C55.5946 8.71007 56.2873 8.65956 56.9905 8.62432C57.2831 8.60952 57.3782 8.54415 57.4924 8.4817C57.5837 8.43173 57.6915 8.41391 57.8709 8.40622C58.2628 8.38903 58.6492 8.3596 59.0308 8.33019C59.0873 8.3251 59.156 8.2907 59.1593 8.26915C59.166 8.22914 59.0553 8.20242 58.8745 8.19014C57.007 8.30606 55.1348 8.42201 53.2672 8.53793C52.9607 8.55747 52.9607 8.55748 52.5541 8.70697C52.5079 8.72427 52.4429 8.74481 52.3769 8.74998C50.5849 8.86218 48.7976 8.97281 47.0056 9.085C46.8547 9.09398 46.7482 9.13024 46.676 9.18312C46.6038 9.23599 46.4972 9.27225 46.351 9.28119C44.6392 9.38809 42.9275 9.49653 41.2106 9.59886C40.9558 9.61334 40.7784 9.6502 40.6696 9.72183C40.5879 9.77478 40.4856 9.80333 40.3252 9.81239C38.6887 9.9125 37.0571 10.0172 35.4156 10.1142C35.2505 10.1233 35.1245 10.0799 35.1312 10.0383C35.1345 10.0168 35.203 9.98084 35.2596 9.97728C36.1128 9.91924 36.9613 9.8597 37.8201 9.81391C38.108 9.79914 38.1886 9.73083 38.3315 9.67274C38.3775 9.65236 38.4136 9.62593 38.4744 9.61465C38.5398 9.60179 38.6251 9.6026 38.7054 9.59884C40.7285 9.47236 42.7515 9.34435 44.7797 9.22398C45.0721 9.2061 45.1238 9.13035 45.2716 9.07529C45.3224 9.05641 45.3679 9.02836 45.4293 9.02476C46.0515 8.98254 46.6741 8.94492 47.2967 8.9073C48.386 8.83955 49.4754 8.7718 50.5695 8.70402C50.8855 8.6844 50.8855 8.68439 51.2828 8.53652C51.329 8.51922 51.3939 8.49716 51.4552 8.49356C54.3366 8.31361 57.218 8.13366 60.0995 7.95525C60.2504 7.94627 60.3569 7.91001 60.4291 7.85714C60.5014 7.8058 60.6077 7.76801 60.7538 7.75753C64.6492 7.51509 68.5398 7.27269 72.4354 7.03332C72.69 7.01731 72.8676 6.98351 72.9764 6.91034C73.0533 6.85743 73.1603 6.82885 73.3206 6.81826C77.6027 6.55252 81.8848 6.28679 86.1715 6.01948C89.053 5.84107 91.9343 5.65958 94.816 5.48425C95.0801 5.46815 95.2189 5.41931 95.3472 5.35519C95.3883 5.33332 95.4285 5.29763 95.4851 5.29407C96.1026 5.25035 96.7202 5.20971 97.3378 5.16906C97.5347 5.20887 97.7314 5.24715 97.9282 5.28695C98.071 5.22733 98.209 5.1662 98.3518 5.10658C99.286 5.05399 100.204 4.97695 101.149 4.94733C101.211 4.94526 101.279 4.97388 101.346 4.98867C101.793 5.08166 102.043 5.07183 102.314 4.94041C102.41 4.89348 102.493 4.85128 102.643 4.8423C103.11 4.81063 103.582 4.78814 104.044 4.7519C104.294 4.73285 104.503 4.74642 104.686 4.80017C104.817 4.83901 104.951 4.85478 105.106 4.84422C105.965 4.79075 106.818 4.73885 107.676 4.68231C107.738 4.67871 107.793 4.6521 107.839 4.63327C107.935 4.59248 108.018 4.54875 108.11 4.50647C108.239 4.53148 108.382 4.55023 108.489 4.58313C108.624 4.62193 108.747 4.62086 108.926 4.60857C112.35 4.39323 115.778 4.18247 119.202 3.96559C119.494 3.94772 119.627 4.01114 119.828 4.04322C119.895 4.05494 119.962 4.06972 120.033 4.07219C120.109 4.07461 120.189 4.06471 120.264 4.05945C122.834 3.89908 125.405 3.74024 127.975 3.57987C128.314 3.55851 128.314 3.55851 128.827 3.6494C128.89 3.66116 128.971 3.67429 129.037 3.66912C130.207 3.59914 131.376 3.52456 132.541 3.45309C132.692 3.44412 132.821 3.46759 132.961 3.50174C133.236 3.56854 133.254 3.56839 133.446 3.46531C133.538 3.41688 133.635 3.38683 133.79 3.37167C133.96 3.35484 134.097 3.35829 134.232 3.3848C134.424 3.42157 134.565 3.4849 134.853 3.46552C136.098 3.38261 137.348 3.31195 138.588 3.22755C138.87 3.20821 139.025 3.25913 139.217 3.29591C139.285 3.30916 139.347 3.33014 139.419 3.33414C139.49 3.33814 139.575 3.32664 139.65 3.32139C141.206 3.22504 142.767 3.13021 144.318 3.02776C144.611 3.00835 144.743 3.07329 144.944 3.10537C145.011 3.11709 145.088 3.13796 145.15 3.13436C146.084 3.0787 147.022 3.01992 147.956 2.96119C148.291 2.93987 148.291 2.94141 148.808 3.03072C148.87 3.04248 148.952 3.05408 149.018 3.05043C150.107 2.98422 151.201 2.91643 152.291 2.84869C152.626 2.82737 152.626 2.82737 153.601 2.89892C153.673 2.90445 153.749 2.91303 153.82 2.90935C155.065 2.83258 156.315 2.7573 157.559 2.67592C157.809 2.65995 158.018 2.67044 158.202 2.7242C158.333 2.76303 158.466 2.7788 158.622 2.76825C160.022 2.68092 161.428 2.59663 162.824 2.50474C163.092 2.48707 163.27 2.51934 163.462 2.56226C163.524 2.57709 163.588 2.59807 163.659 2.60361C163.73 2.60914 163.81 2.6023 163.886 2.59704C165.286 2.50972 166.692 2.42697 168.088 2.33354C168.37 2.31421 168.525 2.36513 168.717 2.4019C168.784 2.41516 168.857 2.4422 168.914 2.44017C169.461 2.40935 170.009 2.38161 170.55 2.33854C170.842 2.31452 170.975 2.38406 171.176 2.41615C171.243 2.42633 171.32 2.44873 171.382 2.44513C172.551 2.37516 173.721 2.30212 174.886 2.22757C175.051 2.21694 175.175 2.22969 175.31 2.26849C175.489 2.32075 175.694 2.3405 175.948 2.32141C176.49 2.28142 177.037 2.25214 177.584 2.21824C177.905 2.19859 177.905 2.19859 178.895 2.27001C178.966 2.27555 179.043 2.28411 179.113 2.28043C180.047 2.22323 180.986 2.16754 181.915 2.10578C182.164 2.08827 182.374 2.1003 182.557 2.15405C182.688 2.19289 182.817 2.2087 182.977 2.1981C183.835 2.14463 184.689 2.0912 185.547 2.03773C185.858 2.01815 186.169 1.98628 186.481 1.9836C186.708 1.98319 186.879 2.05549 187.085 2.09061C187.143 2.10087 187.236 2.08779 187.312 2.08406C188.401 2.01632 189.496 1.95313 190.58 1.87774C190.863 1.85841 191.018 1.90933 191.21 1.9461C191.277 1.95936 191.35 1.9864 191.406 1.98438C191.798 1.96411 192.185 1.93774 192.576 1.9144C193.043 1.8858 193.515 1.86331 193.977 1.82554C194.353 1.79464 194.504 1.92705 194.808 1.92906C195.04 1.93168 195.275 1.90354 195.506 1.88926C195.973 1.86066 196.439 1.829 196.906 1.80348C197.072 1.79437 197.198 1.76869 197.246 1.71295C197.255 1.70212 197.173 1.67978 197.12 1.6664C196.48 1.51513 196.48 1.51513 195.848 1.55436C195.456 1.57923 195.07 1.60407 194.678 1.62587C194.612 1.62951 194.536 1.61788 194.469 1.60923C194.278 1.58474 194.294 1.55386 194.452 1.49719C194.609 1.44051 194.727 1.37188 194.86 1.30773C195.057 1.346 195.249 1.38429 195.446 1.42256C195.602 1.41354 195.757 1.403 195.913 1.39398C196.691 1.34735 197.469 1.29917 198.248 1.25561C198.304 1.25205 198.377 1.28216 198.445 1.29695C198.637 1.33987 198.81 1.3768 199.083 1.35755C199.781 1.30699 200.484 1.26869 201.182 1.22428C201.488 1.20474 201.488 1.20474 202.034 1.29534C202.096 1.30557 202.178 1.31717 202.244 1.31352C202.947 1.27215 203.644 1.22774 204.347 1.18483C204.498 1.17585 204.646 1.19455 204.758 1.23816C204.802 1.25623 204.794 1.28702 204.991 1.53738C205.564 1.73687 205.946 1.71209 206.332 1.69033C206.498 1.68122 206.644 1.67228 206.75 1.64063C206.806 1.62324 206.875 1.59805 206.874 1.57809C206.873 1.56273 206.767 1.53904 206.701 1.53654C206.23 1.50984 205.79 1.57818 205.331 1.59594C205.119 1.60391 204.931 1.55173 204.887 1.46451C204.876 1.44001 204.86 1.41403 204.844 1.38957C204.828 1.36512 204.817 1.33909 204.801 1.31464C204.616 1.30854 204.509 1.33712 204.432 1.39003C204.369 1.43361 204.277 1.48357 204.151 1.50771C204.025 1.53338 203.85 1.53028 203.694 1.5393C203.543 1.54828 203.379 1.56967 203.236 1.56013C203.093 1.54906 202.976 1.50549 202.842 1.47898C202.78 1.46568 202.703 1.44637 202.641 1.44997C202.099 1.48075 201.561 1.51149 201.024 1.54991C200.741 1.57077 200.595 1.50749 200.412 1.4691C200.268 1.4396 200.126 1.44849 200.108 1.51935C200.057 1.68883 200.28 1.75761 200.761 1.72121C201.156 1.69016 201.516 1.68248 201.835 1.78424C201.879 1.7977 201.978 1.80299 202.04 1.79939C202.427 1.77763 202.808 1.75129 203.195 1.72953C203.266 1.72585 203.342 1.73134 203.409 1.73691C204.38 1.81157 204.38 1.81311 204.705 1.79188C204.861 1.78132 205.012 1.77234 204.982 1.539C205.263 1.28608 205.735 1.26512 206.192 1.22432C206.489 1.19872 206.621 1.26521 206.817 1.29887C206.884 1.31059 206.957 1.33455 207.019 1.33095C208.033 1.27154 209.042 1.20908 210.051 1.14356C210.221 1.13288 210.344 1.14104 210.48 1.17984C210.653 1.22906 210.845 1.2597 211.113 1.23895C211.65 1.19746 212.198 1.16972 212.745 1.13429C213.023 1.11653 213.023 1.11651 213.593 1.20691C213.655 1.21714 213.736 1.22873 213.802 1.22509C214.35 1.19427 214.892 1.15735 215.434 1.12504C215.585 1.11606 215.724 1.13638 215.845 1.17684C215.966 1.21729 216.11 1.23757 216.256 1.22864C216.803 1.19628 217.345 1.1609 217.887 1.12858C217.954 1.12494 218.035 1.135 218.097 1.14522C218.681 1.2355 218.681 1.23548 218.945 1.21785C219.331 1.19148 219.728 1.17733 220.11 1.14332C220.481 1.10939 220.681 1.1968 220.94 1.24376C221.638 1.20242 222.342 1.1672 223.034 1.11822C223.317 1.09735 223.472 1.14674 223.664 1.18505C223.731 1.1983 223.799 1.22692 223.861 1.22485C224.097 1.21668 224.328 1.1978 224.559 1.18352C224.79 1.16924 225.026 1.15492 225.257 1.14065C225.525 1.18292 225.707 1.28586 226.084 1.24728C226.309 1.22383 226.55 1.21715 226.781 1.20287C227.013 1.18859 227.248 1.17428 227.479 1.16C227.635 1.15098 227.796 1.14498 227.946 1.12986C228.224 1.10442 228.366 1.17852 228.567 1.2106C228.634 1.22079 228.711 1.23856 228.773 1.23496C229.24 1.20943 229.712 1.18694 230.168 1.14767C230.522 1.11698 230.766 1.161 231.021 1.22335C231.074 1.23673 231.165 1.24364 231.231 1.24C231.778 1.20917 232.32 1.17224 232.863 1.13992C233.009 1.13098 233.152 1.15434 233.273 1.19326C233.399 1.23367 233.538 1.25248 233.689 1.2435C234.231 1.21118 234.778 1.17574 235.321 1.14342C235.387 1.13978 235.468 1.15138 235.53 1.16314C236.067 1.25382 236.067 1.25536 236.378 1.23425C236.454 1.22899 236.534 1.22522 236.609 1.21996C236.996 1.19513 237.398 1.18401 237.774 1.14389C238.206 1.09869 238.527 1.14819 238.841 1.2331C239.227 1.21134 239.624 1.19717 240.001 1.1632C240.283 1.13773 240.439 1.19479 240.631 1.23157C240.698 1.24482 240.771 1.27186 240.827 1.2683C241.374 1.23748 241.922 1.20974 242.459 1.16671C242.751 1.14269 242.883 1.2107 243.084 1.24432C243.152 1.25604 243.224 1.27694 243.285 1.27334C243.597 1.25837 243.908 1.23725 244.219 1.21768C244.582 1.19458 244.582 1.19612 245.072 1.28567C245.302 1.32826 245.527 1.29098 245.748 1.27832C245.984 1.264 246.206 1.25288 246.399 1.31423C246.52 1.35315 246.664 1.37651 246.81 1.36911C247.122 1.3526 247.438 1.33606 247.744 1.31039C247.989 1.28984 248.203 1.3003 248.386 1.35558C248.517 1.39442 248.651 1.41326 248.806 1.40271C249.504 1.35983 250.207 1.31537 250.905 1.27403C250.966 1.27043 251.053 1.28353 251.11 1.29687C251.245 1.32338 251.375 1.35299 251.504 1.38262C251.811 1.36615 252.128 1.3573 252.429 1.3332C252.75 1.30893 253.043 1.29873 253.299 1.38106C253.352 1.39905 253.43 1.42449 253.491 1.42243C253.728 1.41425 253.958 1.39691 254.19 1.38263C254.421 1.36835 254.656 1.35404 254.888 1.33976C255.16 1.37584 255.338 1.48497 255.714 1.44639C255.94 1.42294 256.181 1.41626 256.412 1.40198C256.643 1.3877 256.879 1.37185 257.11 1.35911C257.186 1.35539 257.27 1.34697 257.337 1.35255C257.408 1.35808 257.471 1.37906 257.534 1.3939C257.726 1.43681 257.904 1.47986 258.172 1.45143C258.398 1.42798 258.639 1.4213 258.87 1.40549C259.186 1.38587 259.186 1.38587 259.718 1.47813C259.934 1.51624 260.171 1.46195 260.377 1.49399C260.516 1.51585 260.637 1.55323 260.771 1.5782C260.829 1.58847 260.919 1.5923 260.985 1.58866C261.296 1.57215 261.613 1.55561 261.919 1.52993C262.168 1.50935 262.378 1.52599 262.557 1.57978C262.687 1.61862 262.816 1.63443 262.976 1.62383C263.754 1.57413 264.533 1.53055 265.306 1.47627C265.57 1.4571 265.784 1.4814 265.935 1.53543C266.192 1.62851 266.54 1.51334 266.805 1.5879C266.969 1.63414 267.134 1.68805 267.426 1.6625C267.963 1.61793 268.51 1.59171 269.053 1.55939C269.25 1.59919 269.446 1.63901 269.648 1.67877C269.959 1.6592 270.27 1.63961 270.582 1.62157C270.813 1.60729 271.049 1.59144 271.28 1.5787C271.355 1.57498 271.435 1.56814 271.507 1.57521C271.578 1.58228 271.637 1.60177 271.704 1.61656C272.035 1.68902 272.036 1.69056 272.573 1.65521C272.804 1.6394 273.026 1.62827 273.224 1.68805C273.408 1.74334 273.621 1.75225 273.866 1.73325C274.328 1.69855 274.795 1.67149 275.267 1.64592C275.413 1.63698 275.552 1.66192 275.678 1.7008C275.867 1.76219 276.094 1.7541 276.324 1.73521C276.631 1.71107 276.932 1.68697 277.198 1.77075C277.251 1.78874 277.334 1.81414 277.39 1.81212C277.778 1.7965 278.17 1.78392 278.547 1.75149C278.923 1.71906 279.114 1.8127 279.378 1.85654C279.764 1.83325 280.156 1.80991 280.543 1.78661C280.618 1.78135 280.707 1.76676 280.774 1.77387C281.055 1.80373 281.224 1.91755 281.605 1.87893C281.826 1.85705 282.067 1.84885 282.299 1.84225C282.36 1.84018 282.442 1.86559 282.486 1.88519C282.511 1.89574 282.489 1.92513 282.461 1.94073C282.379 1.98447 282.278 2.02531 282.205 2.0705C282.196 2.07673 282.288 2.10359 282.341 2.11543C282.47 2.14198 282.617 2.13613 282.786 2.12238C282.932 2.11037 283.085 2.13057 283.192 2.17576C283.236 2.19382 283.224 2.22466 283.141 2.32681C283.146 2.40207 283.243 2.36742 283.273 2.31798C283.32 2.24688 283.219 2.2247 283.033 2.26472C282.902 2.2935 282.838 2.33401 282.874 2.36598C282.894 2.38271 282.985 2.40345 283.141 2.32681C283.551 2.23107 283.863 2.2115 284.174 2.19193C284.254 2.18663 284.348 2.17045 284.405 2.17918C284.611 2.21429 284.803 2.25722 285.005 2.29698C285.232 2.28582 285.443 2.26094 285.669 2.31894C285.987 2.40073 286.001 2.39293 286.303 2.37344C286.459 2.36288 286.614 2.35388 286.77 2.34486C286.926 2.33584 287.05 2.35781 287.19 2.39196C287.474 2.46176 287.498 2.46155 287.675 2.36166C287.78 2.30083 287.855 2.28021 287.994 2.30668C288.454 2.39648 288.46 2.40258 288.846 2.3716C289.166 2.3458 289.469 2.33706 289.711 2.42257C289.876 2.48263 289.927 2.46836 290.051 2.40276C290.38 2.22934 290.536 2.23107 291.184 2.34846C291.486 2.40427 291.789 2.33866 292.092 2.32838C292.347 2.32005 292.529 2.35536 292.555 2.45196C292.573 2.51174 292.618 2.55439 292.79 2.5729C292.857 2.58001 292.938 2.59007 293.004 2.58643C293.396 2.56462 293.782 2.53979 294.174 2.51491C294.372 2.50245 294.476 2.42934 294.431 2.33444C294.382 2.23343 294.455 2.1959 294.737 2.16428C294.906 2.14593 295.044 2.14783 295.183 2.1743C295.337 2.20372 295.296 2.23173 295.167 2.28817C294.859 2.42605 294.903 2.50866 295.316 2.59886C295.46 2.62989 295.576 2.65811 295.612 2.70545C295.633 2.72986 295.616 2.76227 295.66 2.78034C295.899 2.88126 296.225 2.94455 296.588 2.99062C296.931 2.94618 297.172 3.01326 297.441 3.06628C297.652 3.1075 297.895 3.06853 298.117 3.05126C298.366 3.03221 298.576 3.04271 298.759 3.098C298.89 3.13684 299.023 3.15412 299.179 3.1451C299.49 3.12553 299.807 3.11206 300.113 3.08484C300.376 3.06107 300.577 3.09008 300.746 3.14089C300.959 3.20514 301.188 3.1586 301.406 3.16595C301.701 3.17419 301.857 3.30962 302.237 3.26947C302.463 3.24602 302.699 3.23631 302.936 3.22813C302.997 3.22607 303.074 3.25154 303.128 3.26952C303.384 3.35185 303.677 3.34472 303.998 3.31738C304.219 3.29858 304.436 3.28136 304.657 3.33786C305.024 3.43307 305.427 3.51568 305.812 3.60305C305.869 3.67326 305.836 3.75651 306.109 3.79567C306.252 3.81595 306.387 3.84708 306.498 3.88148C306.633 3.92181 306.757 3.93151 306.927 3.91929C307.233 3.89515 307.555 3.88777 307.856 3.85752C308.133 3.83055 308.312 3.87975 308.485 3.9259C308.625 3.96312 308.754 3.98045 308.918 3.95138C309.087 3.92381 309.211 3.93964 309.351 3.97993C309.549 4.0351 309.563 4.02884 310.207 4.04021C310.274 4.04118 310.356 4.06352 310.395 4.08316C310.415 4.09375 310.374 4.12485 310.342 4.1405C310.301 4.15929 310.236 4.18135 310.175 4.18649C309.477 4.23244 308.774 4.27381 308.076 4.31976C308.006 4.32498 307.931 4.33639 307.88 4.3522C307.824 4.36958 307.755 4.39321 307.756 4.41472C307.757 4.43008 307.853 4.4477 307.92 4.45788C308.13 4.49142 308.373 4.43556 308.579 4.47374C308.718 4.49868 308.834 4.53456 308.973 4.55796C309.031 4.56822 309.121 4.56592 309.191 4.56224C309.427 4.54946 309.658 4.53211 309.894 4.52086C309.96 4.51876 310.037 4.53347 310.099 4.54523C310.56 4.63349 310.56 4.63349 310.952 4.61015C311.107 4.60113 311.271 4.57667 311.419 4.58462C311.561 4.59262 311.687 4.63304 311.817 4.65805C312.085 4.71107 312.34 4.76268 312.367 4.88232C312.379 4.92832 312.538 4.96691 312.695 4.96864C312.846 4.97041 313.006 4.95215 313.162 4.94159C313.53 4.91999 313.53 4.91999 314.014 5.00958C314.148 5.03456 314.29 5.03641 314.46 5.01958C314.526 5.01287 314.607 5.01833 314.678 5.0254C314.912 5.04645 314.914 5.07563 314.766 5.13222C314.558 5.21546 314.578 5.22298 315.179 5.28698C315.408 5.31114 315.586 5.35879 315.778 5.40018C316.091 5.46665 316.086 5.46668 315.889 5.55905C315.843 5.57942 315.801 5.6013 315.756 5.62321C315.622 5.68429 315.518 5.74973 315.234 5.75831C314.922 5.76713 314.612 5.7944 314.3 5.81397C313.999 5.83347 313.921 5.87101 313.956 5.97521C313.998 6.10088 314.06 6.11417 314.604 6.10797C314.76 6.10663 314.899 6.11773 315.02 6.15819C314.966 6.20783 314.865 6.24712 314.714 6.25764C314.327 6.28401 313.936 6.30735 313.549 6.33065C313.238 6.35022 312.927 6.36979 312.615 6.38937C312.422 6.40179 312.304 6.48272 312.362 6.57136C312.394 6.6218 312.421 6.67228 312.448 6.72277C312.507 6.82369 312.608 6.84896 312.925 6.84163C313.006 6.83941 313.08 6.82646 313.156 6.82888C313.465 6.83699 313.62 6.96321 313.987 6.93394C314.294 6.90979 314.615 6.90243 314.916 6.87218C315.194 6.84521 315.354 6.89918 315.551 6.93898C315.618 6.95224 315.691 6.9808 315.748 6.97877C316.139 6.95851 316.531 6.93825 316.912 6.90578C317.091 6.89195 317.201 6.90023 317.345 6.93587C317.692 7.02203 317.701 7.01734 318.206 6.98535C318.573 6.96068 318.578 6.96371 319.058 7.05334C319.192 7.07832 319.334 7.07709 319.504 7.06334C319.725 7.04607 319.956 7.01951 320.189 7.04056C320.26 7.04609 320.352 7.06376 320.377 7.08352C320.392 7.09723 320.328 7.13159 320.272 7.14283C319.861 7.22627 319.372 7.21663 318.92 7.25279C318.779 7.26322 318.635 7.23525 318.513 7.1948C318.388 7.15438 318.254 7.13863 318.094 7.14769C317.782 7.16727 317.466 7.18073 317.16 7.20795C316.896 7.23173 316.709 7.19798 316.522 7.15195C316.459 7.13712 316.386 7.10854 316.325 7.1106C315.626 7.14733 314.923 7.18411 314.23 7.23309C313.952 7.25392 313.788 7.20615 313.596 7.1663C313.529 7.15305 313.461 7.12443 313.399 7.12649C313.163 7.13467 312.932 7.15355 312.696 7.16787C311.838 7.22134 310.984 7.27477 310.126 7.32517C310.069 7.32873 309.996 7.29708 309.929 7.28382C309.799 7.25727 309.665 7.2323 309.531 7.20732C309.295 7.22164 309.064 7.23899 308.828 7.25023C308.658 7.25784 308.508 7.28065 308.488 7.33922C308.477 7.37774 308.635 7.41172 308.801 7.40723C308.961 7.40278 309.121 7.38296 309.255 7.40179C309.919 7.49445 309.92 7.49599 310.33 7.47249C310.688 7.45097 310.649 7.43593 310.972 7.51769C311.112 7.55337 311.237 7.57383 311.392 7.56327C311.779 7.53844 312.17 7.51356 312.562 7.49176C312.623 7.48816 312.705 7.50283 312.767 7.51459C313.237 7.60277 313.237 7.60584 313.619 7.57951C314.119 7.54756 314.137 7.53972 314.48 7.63053C314.716 7.69305 314.926 7.64667 315.148 7.64169C315.408 7.6994 315.691 7.75077 315.927 7.81637C316.207 7.89388 316.495 7.87757 316.806 7.85185C317.036 7.83296 317.263 7.82487 317.457 7.88622C317.64 7.94304 317.859 7.94733 318.104 7.92986C318.325 7.91412 318.55 7.88298 318.785 7.91478C318.847 7.92347 318.943 7.94571 318.939 7.95957C318.936 7.98111 318.876 8.01236 318.815 8.02211C318.384 8.08882 317.906 8.09138 317.449 8.1245C317.388 8.12964 317.306 8.11343 317.244 8.10167C317.11 8.07516 316.98 8.04401 316.85 8.01592C316.618 8.02712 316.382 8.03222 316.156 8.0526C315.982 8.06793 315.849 8.06754 315.719 8.03178C315.598 7.999 315.468 7.95862 315.325 7.94908C315.182 7.93955 315.018 7.96401 314.863 7.97457C314.707 7.98512 314.527 7.98205 314.406 8.00768C314.284 8.03331 314.212 8.08773 314.135 8.13143C314.048 8.17981 313.926 8.19624 313.746 8.20239C313.581 8.20842 313.448 8.20341 313.322 8.16145C313.269 8.14347 313.197 8.13025 313.125 8.11857C313.058 8.10839 312.981 8.09214 312.92 8.09574C312.217 8.13711 311.519 8.18154 310.816 8.22445C310.467 8.24589 310.472 8.24584 309.737 8.16147C309.67 8.15436 309.589 8.1443 309.523 8.14794C309.131 8.16974 308.745 8.19458 308.353 8.21945C307.957 8.24437 307.962 8.24125 307.279 8.1503C307.154 8.13292 306.976 8.15904 306.829 8.15723C306.521 8.15219 306.361 8.02447 306.003 8.05213C305.697 8.07628 305.375 8.08364 305.069 8.11393C304.792 8.1409 304.627 8.08853 304.435 8.04868C304.368 8.03543 304.295 8.00531 304.238 8.00887C303.535 8.04872 302.837 8.09313 301.9 8.10577C301.669 8.10776 301.775 8.13913 301.927 8.14858C302.146 8.16361 302.215 8.13075 302.092 8.07032C302.004 8.02805 301.88 8.00758 301.781 8.01919C301.729 8.02578 301.665 8.05554 301.9 8.10577C302.15 8.16203 302.138 8.1944 302.182 8.21247C302.289 8.25612 302.437 8.27329 302.589 8.26584C302.824 8.25306 303.055 8.23572 303.291 8.22447C303.357 8.22083 303.439 8.23089 303.501 8.24265C304.028 8.33341 304.033 8.33952 304.584 8.29791C304.759 8.28565 304.887 8.28456 305.026 8.31256C305.218 8.35087 305.36 8.41727 305.647 8.39329C306.028 8.36081 306.42 8.34056 306.812 8.32029C306.873 8.31669 306.941 8.34377 307.013 8.35545C307.209 8.39065 307.356 8.45855 307.643 8.42689C307.864 8.40194 308.105 8.39371 308.341 8.38707C308.402 8.38501 308.499 8.40878 308.528 8.4285C308.588 8.46334 308.52 8.50543 308.361 8.53599C308.295 8.54885 308.205 8.54654 308.13 8.5518C307.818 8.57138 307.507 8.59248 307.196 8.60898C307.031 8.61809 306.876 8.64248 306.861 8.69947C306.849 8.73799 307.022 8.77031 307.183 8.76586C307.419 8.75922 307.655 8.7449 307.881 8.72299C308.281 8.68574 308.632 8.69195 308.965 8.78591C309.201 8.85151 309.185 8.82706 309.445 9.02463C309.51 9.07479 309.695 9.07781 309.855 9.07335C310.243 9.06234 310.424 9.08384 310.394 9.13174C310.356 9.19048 310.22 9.21007 310.045 9.21926C309.734 9.23422 309.423 9.25688 309.111 9.27646C309.036 9.28172 308.951 9.29165 308.88 9.28919C308.809 9.28673 308.742 9.26887 308.679 9.25557C308.545 9.22753 308.428 9.18395 308.285 9.17442C308.143 9.16488 307.978 9.18935 307.823 9.1999C307.667 9.20892 307.503 9.23339 307.36 9.22385C307.218 9.21432 307.096 9.16927 306.967 9.14272C306.904 9.12942 306.827 9.10855 306.766 9.11062C306.454 9.12558 306.143 9.14824 305.832 9.16628C305.45 9.18954 305.45 9.18954 304.979 9.09829C304.845 9.07178 304.708 9.0745 304.533 9.08829C304.157 9.11611 304.151 9.11153 303.454 9.02838C303.388 9.01973 303.306 9.00967 303.24 9.01485C302.538 9.05623 301.84 9.10063 301.142 9.14351C300.543 9.18092 300.543 9.18093 300.222 9.33737C299.983 9.45315 299.979 9.45318 300.224 9.50333C300.42 9.54467 300.6 9.60614 300.814 9.62735C301.015 9.64715 301.256 9.57592 301.479 9.64471C301.59 9.6791 301.734 9.71629 301.872 9.72125C302.09 9.72706 302.319 9.68052 302.532 9.74632C302.638 9.77922 302.797 9.81322 302.93 9.81361C303.162 9.8147 303.397 9.78808 303.628 9.77534C303.699 9.77165 303.779 9.77097 303.846 9.77808C303.918 9.78669 303.98 9.8046 304.043 9.81943C304.236 9.87003 304.441 9.89285 304.685 9.86462C305.085 9.81816 305.446 9.83658 305.765 9.9322C305.808 9.94566 305.913 9.94631 305.978 9.9396C306.148 9.92278 306.294 9.91998 306.424 9.94806C306.477 9.95991 306.554 9.98075 306.546 9.99465C306.533 10.0178 306.478 10.049 306.417 10.0572C305.976 10.1133 305.498 10.1235 305.041 10.1551C304.98 10.1587 304.903 10.1394 304.84 10.1261C304.706 10.0996 304.589 10.0545 304.446 10.045C304.304 10.0354 304.139 10.0568 303.984 10.0658C303.828 10.0748 303.664 10.0993 303.521 10.0913C303.379 10.0818 303.244 10.0445 303.128 10.0117C302.993 9.97443 302.864 9.97093 302.69 9.98779C302.465 10.0097 302.228 10.0148 301.997 10.0276C301.867 9.99946 301.737 9.96829 301.603 9.94178C301.54 9.92849 301.463 9.91225 301.397 9.91436C301.086 9.92932 300.775 9.95043 300.463 9.97C300.152 9.98958 300.152 9.9896 299.616 9.89891C299.553 9.88869 299.472 9.87709 299.406 9.88073C299.014 9.90254 298.628 9.92889 298.236 9.95069C298.085 9.95967 297.947 9.93935 297.821 9.89893C297.7 9.85848 297.556 9.83666 297.41 9.84559C296.787 9.88321 296.165 9.9193 295.542 9.96306C295.293 9.98057 295.079 9.96858 294.905 9.91474C294.702 9.85348 294.48 9.87075 294.249 9.88502C293.726 9.92025 293.721 9.91875 293.38 9.84329C293.312 9.8285 293.244 9.79988 293.183 9.80195C292.64 9.82966 292.092 9.85588 291.555 9.89737C291.273 9.91977 291.118 9.86732 290.926 9.82901C290.858 9.81575 290.786 9.78718 290.729 9.79074C290.337 9.811 289.945 9.82974 289.564 9.86375C289.183 9.89776 289.026 9.75618 288.738 9.76019C288.345 9.7651 287.959 9.80375 287.573 9.82859C287.261 9.84816 286.95 9.86773 286.639 9.88731C286.328 9.90688 286.016 9.92338 285.705 9.94603C285.54 9.9582 285.416 9.94543 285.277 9.90821C285.098 9.85903 284.887 9.82089 284.695 9.77644C284.402 9.71287 284.401 9.71286 284.052 9.7343C283.977 9.73956 283.897 9.74331 283.821 9.74857C283.251 9.78728 283.251 9.78421 282.515 9.6937C282.482 9.68938 282.398 9.70701 282.366 9.71958C282.269 9.76037 282.182 9.80414 282.095 9.84638C281.965 9.8229 281.808 9.81042 281.721 9.77583C281.472 9.67806 281.103 9.81801 280.85 9.72182C280.758 9.68573 280.599 9.65481 280.457 9.64681C280.31 9.63885 280.145 9.66178 279.994 9.6723C279.603 9.69871 279.603 9.69718 279.276 9.83676C279.11 9.90581 278.864 9.89562 278.642 9.91289C278.411 9.93178 278.189 9.9429 277.991 9.88159C277.812 9.82627 277.598 9.81427 277.349 9.83486C277.043 9.86054 276.727 9.87707 276.415 9.89358C276.349 9.89722 276.268 9.89024 276.201 9.88159C275.471 9.79718 275.471 9.79565 275.122 9.81862C274.966 9.82918 274.806 9.83362 274.655 9.84874C274.401 9.87551 274.205 9.84492 274.017 9.79735C273.954 9.78252 273.881 9.75396 273.82 9.75603C273.508 9.76639 273.201 9.78285 272.895 9.79931C272.659 9.81209 272.423 9.82027 272.197 9.84372C271.821 9.8823 271.629 9.78403 271.366 9.74018C270.979 9.76348 270.587 9.78068 270.201 9.81166C270.022 9.82549 269.903 9.8219 269.764 9.78622C269.585 9.74164 269.421 9.6908 269.139 9.71628C268.762 9.75025 268.365 9.76441 267.978 9.78617C267.715 9.74079 267.519 9.64564 267.147 9.68417C266.922 9.70763 266.681 9.71431 266.45 9.72858C266.138 9.74816 265.827 9.76621 265.516 9.78732C265.181 9.80864 265.185 9.80399 264.663 9.7178C264.362 9.6666 264.058 9.72914 263.756 9.74095C263.52 9.75066 263.406 9.82233 263.469 9.91246C263.532 10.0026 263.409 10.0743 263.192 10.0885C262.65 10.1224 262.103 10.1578 261.56 10.1886C261.494 10.1922 261.413 10.1821 261.351 10.1719C260.762 10.0801 260.762 10.0817 260.503 10.0978C260.116 10.1241 259.719 10.1398 259.338 10.1723C259.074 10.1945 258.878 10.1639 258.704 10.1132C258.569 10.0744 258.445 10.0662 258.275 10.0769C256.408 10.1959 254.54 10.3072 252.678 10.4292C252.4 10.447 252.236 10.4038 252.044 10.364C251.977 10.3507 251.913 10.3221 251.847 10.3226C251.69 10.324 251.535 10.3391 251.38 10.3497C250.682 10.3926 249.984 10.4431 249.281 10.4768C248.984 10.4917 248.908 10.563 248.784 10.6225C248.688 10.6679 248.575 10.6873 248.401 10.6949C248.231 10.7025 248.107 10.6959 247.972 10.6571C247.798 10.6063 247.602 10.5757 247.338 10.5995C247.032 10.6267 246.72 10.6402 246.404 10.6598C246.244 10.6689 246.123 10.6976 246.074 10.7533C246.066 10.7626 246.167 10.7848 246.224 10.7981C246.417 10.8426 246.6 10.8948 246.815 10.9252C247.035 10.9556 247.269 10.9167 247.496 10.9055C247.576 10.9018 247.651 10.8919 247.727 10.8928C247.798 10.8937 247.884 10.9007 247.937 10.9141C248.188 10.9811 248.451 11.0264 248.789 10.9821C249.084 10.9995 249.244 11.1257 249.616 11.0887C249.842 11.0668 250.078 11.0555 250.314 11.0458C250.375 11.0437 250.443 11.0708 250.51 11.0841C250.702 11.1209 250.858 11.181 251.14 11.1524C251.441 11.1222 251.763 11.1148 252.069 11.0907C252.239 11.0769 252.362 11.0866 252.498 11.1254C252.671 11.1747 252.868 11.2114 253.131 11.1845C253.357 11.1611 253.598 11.1544 253.829 11.1386C254.131 11.1191 254.131 11.1206 254.677 11.2112C254.739 11.2215 254.821 11.2331 254.887 11.2294C255.278 11.2076 255.665 11.1812 256.056 11.1594C256.207 11.1505 256.355 11.1692 256.462 11.2128C256.506 11.2309 256.494 11.2617 256.51 11.2877C255.732 11.3359 254.953 11.3779 254.181 11.4353C253.889 11.4578 253.752 11.3959 253.555 11.3623C253.488 11.3505 253.415 11.325 253.354 11.3286C252.807 11.3595 252.264 11.3918 251.722 11.4302C251.553 11.4424 251.425 11.4374 251.294 11.3939C250.959 11.2785 250.566 11.3464 250.198 11.3665C249.915 11.3812 249.828 11.4296 249.868 11.5307C249.919 11.6501 250.092 11.6855 250.526 11.6603C250.681 11.6513 250.837 11.6392 250.993 11.6317C251.144 11.6242 251.282 11.643 251.408 11.6834C251.529 11.7239 251.673 11.7442 251.819 11.7368C252.13 11.7203 252.446 11.7037 252.748 11.6781C252.997 11.6575 253.207 11.6711 253.386 11.7264C253.584 11.7877 253.81 11.7719 254.037 11.7562C254.565 11.7209 254.569 11.7224 254.906 11.7964C254.973 11.8111 255.041 11.8398 255.103 11.8377C255.646 11.81 256.193 11.7853 256.726 11.7439C257.004 11.723 257.168 11.7708 257.355 11.8091C257.422 11.8224 257.491 11.8526 257.552 11.849C257.944 11.8287 258.335 11.8084 258.717 11.7759C258.896 11.7606 259.005 11.7689 259.154 11.8045C259.511 11.8921 259.52 11.8889 260.015 11.8555C260.166 11.845 260.33 11.8266 260.473 11.8377C260.616 11.8488 260.733 11.8924 260.867 11.9189C260.929 11.9306 261.006 11.9469 261.072 11.9432C261.384 11.9283 261.695 11.9072 262.006 11.8876C262.298 11.8682 262.299 11.8697 262.854 11.9602C263.079 11.9982 263.309 11.9625 263.53 11.9483C263.771 11.9324 263.989 11.9305 264.177 11.9888C264.366 12.0471 264.588 12.0422 264.824 12.0278C265.046 12.0136 265.27 11.9779 265.5 12.0174C266.027 12.1082 266.028 12.1097 266.348 12.0885C266.815 12.0584 267.277 12.0298 267.749 12.0027C267.81 11.9991 267.892 12.0169 267.954 12.0286C268.089 12.0552 268.205 12.1002 268.348 12.1098C268.491 12.1208 268.655 12.101 268.806 12.0905C269.292 12.0571 269.324 12.0461 269.657 12.1447C269.938 12.2252 270.27 12.1025 270.532 12.1956C270.683 12.2481 270.884 12.2893 271.157 12.2609C271.383 12.2374 271.619 12.2293 271.855 12.2149C272.227 12.1918 272.227 12.1933 272.707 12.2814C272.769 12.2932 272.851 12.3078 272.912 12.3042C273.224 12.2893 273.54 12.2758 273.841 12.2455C274.194 12.2102 274.425 12.2667 274.694 12.3212C274.905 12.364 275.149 12.325 275.37 12.3077C275.611 12.2903 275.829 12.293 276.012 12.3514C276.206 12.4112 276.428 12.4016 276.664 12.3873C276.885 12.3746 277.11 12.3374 277.34 12.3784C277.834 12.4695 277.834 12.4695 278.188 12.448C278.499 12.4284 278.81 12.4073 279.122 12.3923C279.183 12.3887 279.26 12.408 279.323 12.4213C279.457 12.4479 279.574 12.493 279.716 12.5025C279.859 12.512 280.023 12.4906 280.179 12.4816C280.335 12.4726 280.499 12.4481 280.642 12.4561C280.784 12.4641 280.919 12.5014 281.035 12.5342C281.17 12.573 281.294 12.5766 281.473 12.5597C281.698 12.5377 281.935 12.5311 282.166 12.5184C282.296 12.5464 282.43 12.5745 282.555 12.6057C282.685 12.6384 282.822 12.6341 282.997 12.6219C283.577 12.58 283.582 12.5846 284.075 12.6756C284.301 12.7167 284.53 12.6794 284.752 12.6668C284.988 12.6524 285.21 12.6444 285.399 12.7042C285.582 12.7611 285.806 12.7668 286.041 12.7464C286.192 12.7328 286.352 12.7237 286.508 12.7178C286.579 12.7156 286.664 12.7211 286.717 12.7329C286.972 12.7952 287.222 12.8515 287.565 12.8071C287.869 12.8168 288.029 12.9414 288.392 12.9137C288.698 12.8896 289.019 12.8822 289.32 12.8519C289.598 12.825 289.8 12.8663 289.945 12.9188C290.207 13.0119 290.558 12.8797 290.82 12.9712C290.971 13.0237 291.163 13.0651 291.445 13.0397C291.756 13.0124 291.857 13.0438 291.954 13.1398C292.01 13.1946 292.003 13.2393 291.912 13.2831C291.82 13.3284 291.715 13.3217 291.56 13.2723C291.381 13.2169 291.172 13.208 290.922 13.2224C290.677 13.2368 290.52 13.1582 290.315 13.1293C290.109 13.0988 289.871 13.1546 289.655 13.1149C289.147 13.0225 289.147 13.0225 288.808 13.0438C288.577 13.0581 288.336 13.0663 288.11 13.0898C287.842 13.1182 287.664 13.0721 287.476 13.0307C287.409 13.0159 287.34 12.9873 287.284 12.9893C286.741 13.017 286.193 13.0432 285.657 13.0862C285.374 13.1087 285.219 13.0547 285.027 13.0179C284.96 13.0046 284.887 12.9776 284.83 12.9811C284.363 13.0067 283.901 13.0383 283.434 13.0684C283.347 13.1107 283.25 13.1515 283.168 13.1967C283.081 13.2436 282.96 13.2646 282.78 13.2646C282.482 13.2672 282.192 13.3342 281.889 13.2554C281.576 13.1751 281.552 13.1799 281.255 13.2024C280.879 13.2318 280.476 13.2291 280.125 13.292C280.064 13.3033 280 13.333 280.001 13.3545C279.997 13.3684 280.098 13.3875 280.161 13.3993C280.371 13.4344 280.609 13.3785 280.82 13.4151C280.959 13.4385 281.075 13.4744 281.214 13.4994C281.271 13.5096 281.356 13.5074 281.432 13.5052C281.512 13.5029 281.587 13.4915 281.663 13.4924C281.734 13.4934 281.811 13.5019 281.869 13.5153C282.133 13.5714 282.411 13.6228 282.647 13.6899C282.879 13.7556 283.089 13.7077 283.316 13.7026C284.232 13.8023 284.232 13.8039 284.84 13.7649C284.991 13.7559 285.147 13.7453 285.303 13.7455C285.369 13.7449 285.433 13.7721 285.5 13.7868C285.693 13.8313 285.875 13.8712 286.139 13.8444C286.364 13.8209 286.605 13.8142 286.836 13.7984C287.148 13.7789 287.148 13.7789 287.684 13.8711C287.818 13.8945 287.96 13.8902 288.13 13.8765C288.276 13.8645 288.429 13.8862 288.536 13.9299C288.58 13.9479 288.568 13.9788 288.584 14.0048C288.117 14.0334 287.645 14.0543 287.193 14.0951C286.901 14.1206 286.764 14.0557 286.567 14.0221C286.5 14.0103 286.428 13.9848 286.366 13.9884C285.904 14.0155 285.442 14.0455 284.98 14.0802C284.924 14.0838 284.855 14.1197 284.852 14.1413C284.845 14.1813 284.966 14.2187 285.136 14.2157C285.363 14.2122 285.584 14.1842 285.792 14.2454C285.966 14.2992 286.18 14.322 286.429 14.2953C286.58 14.2801 286.741 14.2788 286.892 14.2652C287.291 14.2249 287.656 14.2294 287.966 14.3313C288.2 14.3569 288.425 14.3289 288.647 14.3131C288.812 14.301 288.972 14.2888 289.092 14.317C289.347 14.3763 289.598 14.4356 289.94 14.3912C290.317 14.431 290.607 14.5191 290.925 14.5902C291.074 14.6243 291.189 14.6433 291.357 14.6188C291.428 14.6089 291.513 14.6082 291.588 14.6029C291.744 14.5939 291.908 14.5694 292.051 14.5774C292.194 14.587 292.315 14.6305 292.445 14.6571C292.507 14.6704 292.58 14.6928 292.641 14.6907C292.877 14.681 293.108 14.6637 293.339 14.6494C293.57 14.6366 293.801 14.6239 294.033 14.6112C294.229 14.6494 294.431 14.6877 294.628 14.7259C294.939 14.7064 295.25 14.6868 295.557 14.6688C295.901 14.6474 295.901 14.6489 296.404 14.7399C296.63 14.781 296.865 14.7513 297.076 14.7295C297.429 14.6942 297.67 14.7505 297.925 14.8098C297.977 14.8217 298.073 14.8285 298.134 14.8219C298.378 14.7983 298.592 14.8133 298.776 14.8686C298.907 14.9074 299.036 14.9248 299.191 14.9158C299.734 14.8819 300.276 14.8465 300.818 14.8157C300.885 14.8121 300.961 14.8253 301.024 14.837C301.513 14.9266 301.518 14.9311 301.871 14.9035C302.187 14.8793 302.479 14.8676 302.736 14.9499C302.789 14.9679 302.871 14.9933 302.928 14.9913C303.315 14.9726 303.707 14.9523 304.089 14.9229C304.263 14.9091 304.386 14.9127 304.526 14.9468C304.704 14.9899 304.864 15.0423 305.151 15.0199C305.947 14.9562 305.953 14.9653 306.906 15.0632C306.973 15.0703 307.062 15.0572 307.138 15.0504C307.297 15.0337 307.417 15.0542 307.562 15.0883C307.884 15.1654 307.893 15.1608 308.195 15.1413C308.426 15.1255 308.667 15.1203 308.893 15.0953C309.241 15.0585 309.477 15.1164 309.741 15.171C309.952 15.2138 310.191 15.1749 310.412 15.1591C310.653 15.1417 310.871 15.1444 311.055 15.2012C311.18 15.2401 311.314 15.2605 311.47 15.2515C312.012 15.2192 312.555 15.1838 313.097 15.1514C313.163 15.1478 313.244 15.1594 313.307 15.1696C313.853 15.2602 313.853 15.2648 314.385 15.2249C314.555 15.2127 314.697 15.2084 314.827 15.2396C314.952 15.2692 315.086 15.2973 315.216 15.3254C315.447 15.3126 315.684 15.3075 315.91 15.2872C316.084 15.2718 316.207 15.2769 316.347 15.308C316.529 15.3479 316.686 15.4188 316.967 15.381C317.113 15.3629 317.284 15.366 317.429 15.3494C317.603 15.3279 317.722 15.3392 317.862 15.378C318.036 15.4241 318.214 15.4718 318.487 15.4448C318.788 15.4146 319.11 15.4072 319.416 15.3831C319.585 15.3693 319.705 15.3806 319.845 15.4194C320.018 15.4686 320.215 15.4992 320.478 15.4769C321.015 15.4339 321.021 15.4415 321.552 15.5338C321.687 15.5572 321.828 15.553 321.998 15.5392C322.144 15.5272 322.297 15.5489 322.404 15.5926C322.507 15.6409 322.499 15.6717 322.511 15.6977ZM279.401 2.20675C279.246 2.21577 279.09 2.22632 278.854 2.09464C278.838 2.07173 278.846 2.044 278.811 2.02432C278.733 1.9835 278.612 1.95533 278.47 1.95194C278.214 1.94799 277.91 2.00285 277.917 2.04274C277.924 2.07649 278.007 2.10498 278.165 2.13128C278.232 2.14147 278.285 2.15946 278.348 2.17122C278.53 2.205 278.676 2.27291 278.934 2.23535C278.881 2.14053 278.907 2.18794 278.934 2.23535C278.915 2.29392 278.988 2.33478 279.16 2.35022C279.208 2.35442 279.278 2.35073 279.316 2.34119C279.46 2.30614 279.481 2.25987 279.364 2.13946C279.346 2.15959 279.363 2.19478 279.406 2.20363C279.449 2.21248 279.553 2.20392 279.604 2.19272C279.734 2.1624 279.798 2.12343 279.763 2.09146C279.743 2.07472 279.651 2.05399 279.595 2.05448C279.495 2.05533 279.408 2.08989 279.401 2.20675ZM318.873 19.6909C318.529 19.7231 318.131 19.7157 317.79 19.7786C317.729 19.7899 317.669 19.8181 317.666 19.8396C317.662 19.8535 317.758 19.8726 317.816 19.8829C317.945 19.9064 318.087 19.8975 318.252 19.8884C318.502 19.8755 318.653 19.9449 318.85 19.9785C318.912 19.9887 318.993 19.9957 319.059 19.9921C319.441 19.9704 319.818 19.9472 320.2 19.9224C320.266 19.9172 320.337 19.9058 320.392 19.8915C320.579 19.8453 320.558 19.8163 320.371 19.7841C320.165 19.749 320 19.6889 319.79 19.6615C319.489 19.6226 319.189 19.6805 318.873 19.6909ZM292.07 21.0428C291.839 21.0571 291.612 21.0713 291.381 21.0856C291.306 21.0909 291.226 21.0931 291.155 21.0999C291.009 21.1119 290.902 21.145 290.835 21.1963C290.946 21.2353 291.08 21.2572 291.227 21.2514C291.458 21.2402 291.684 21.2183 291.916 21.2117C292.166 21.2034 292.317 21.2712 292.514 21.3049C292.576 21.3151 292.652 21.316 292.723 21.3169C293.074 21.3201 293.281 21.2384 293.207 21.1268C293.154 21.0397 292.971 20.989 292.754 21.0016C292.527 21.0143 292.296 21.0286 292.07 21.0428ZM320.339 17.4069C320.394 17.3803 320.454 17.3613 320.481 17.338C320.561 17.259 320.524 17.2009 320.363 17.1408C320.169 17.0672 319.94 17.1198 319.728 17.1293C319.676 17.1313 319.621 17.1641 319.594 17.1843C319.576 17.1983 319.578 17.2275 319.607 17.2349C319.843 17.2943 320.093 17.349 320.339 17.4069ZM278.974 13.222C278.748 13.2362 278.517 13.2474 278.291 13.2663C278.234 13.2713 278.184 13.301 278.152 13.3212C278.093 13.3586 278.163 13.4087 278.357 13.4117C278.58 13.4159 278.81 13.3878 279.041 13.3735C279.334 13.3557 279.505 13.2973 279.393 13.2491C279.285 13.2024 279.143 13.1944 278.974 13.222ZM29.6141 12.0774C29.7651 12.0684 29.9208 12.0609 30.0716 12.0489C30.2128 12.0369 30.3195 12.0022 30.3871 11.9509C30.2661 11.912 30.132 11.8916 29.9856 11.8975C29.7543 11.9087 29.528 11.9229 29.3019 11.9402C29.1605 11.9507 29.0256 11.9856 28.9959 12.0381C28.9655 12.0784 29.2841 12.0987 29.6141 12.0774ZM258.721 9.87482C258.784 9.88811 258.847 9.91524 258.909 9.91471C259.06 9.91341 259.216 9.90285 259.357 9.88627C259.418 9.8796 259.463 9.85155 259.49 9.8298C259.508 9.81581 259.502 9.79128 259.472 9.77924C259.33 9.70669 258.783 9.73751 258.699 9.82276C258.69 9.8382 258.715 9.85796 258.721 9.87482ZM243.222 1.59201C243.237 1.61646 243.244 1.64099 243.264 1.66541C243.305 1.71116 243.412 1.74407 243.565 1.76581C243.681 1.72639 243.739 1.68286 243.731 1.63682C243.725 1.61229 243.709 1.58782 243.688 1.56341C243.648 1.51765 243.541 1.48477 243.388 1.46303C243.272 1.50091 243.218 1.54439 243.222 1.59201ZM331.523 20.9717C331.482 20.992 331.441 21.0124 331.394 21.0312C331.525 21.0747 331.645 21.0875 331.733 21.0621C331.789 21.0463 331.82 21.0229 331.861 21.0026C331.731 20.9592 331.616 20.9479 331.523 20.9717ZM328.593 21.2059C328.656 21.2191 328.714 21.2371 328.781 21.2457C328.891 21.2602 328.988 21.2332 329.06 21.1772C328.998 21.164 328.94 21.146 328.873 21.1374C328.763 21.1229 328.665 21.1499 328.593 21.2059ZM330.439 20.9088C330.408 20.9459 330.477 20.9761 330.654 21.0007C330.695 20.9803 330.751 20.9614 330.777 20.9397C330.822 20.9039 330.74 20.8724 330.568 20.8493C330.522 20.8681 330.48 20.8884 330.439 20.9088ZM320.336 19.3387C320.306 19.3759 320.374 19.406 320.551 19.4306C320.592 19.4103 320.648 19.3914 320.674 19.3696C320.719 19.3339 320.637 19.3023 320.465 19.2792C320.419 19.2981 320.377 19.3184 320.336 19.3387ZM305.991 8.58705C305.95 8.60738 305.909 8.62772 305.863 8.64656C305.994 8.69 306.113 8.70281 306.201 8.67746C306.257 8.66161 306.288 8.63829 306.33 8.61795C306.199 8.57451 306.085 8.5632 305.991 8.58705ZM292.563 2.93292C292.678 2.9427 292.771 2.92039 292.848 2.86287C292.785 2.84958 292.727 2.83163 292.66 2.82298C292.55 2.80856 292.453 2.83553 292.381 2.89147C292.443 2.9063 292.506 2.91959 292.563 2.93292ZM285.615 2.63139C285.573 2.65172 285.532 2.67206 285.486 2.6909C285.617 2.73434 285.736 2.74715 285.824 2.7218C285.88 2.70595 285.912 2.68263 285.953 2.66229C285.822 2.61885 285.708 2.60908 285.615 2.63139ZM238.564 1.63043C238.523 1.65077 238.482 1.6711 238.436 1.68994C238.567 1.73338 238.686 1.74619 238.774 1.72084C238.83 1.70499 238.861 1.68167 238.903 1.66134C238.772 1.61789 238.658 1.60812 238.564 1.63043ZM5.60287 16.1333C5.54041 16.12 5.47801 16.1067 5.42018 16.0918C5.28572 16.1345 5.24572 16.1732 5.32342 16.2017C5.37199 16.2198 5.44365 16.2299 5.50612 16.2432C5.64531 16.2005 5.67594 16.1634 5.60287 16.1333Z" fill="#FFE492"/>
<path d="M32.3915 8.89448C31.8491 8.92828 31.312 8.9697 30.7689 8.99277C30.4808 9.00445 30.3812 9.0713 30.267 9.13366C30.1756 9.18355 30.0678 9.19982 29.8933 9.21052C28.4215 9.29833 26.9548 9.3907 25.4879 9.48153C25.302 9.46317 25.2099 9.43174 25.2499 9.39303C25.272 9.36982 25.3267 9.33712 25.3833 9.33357C26.3877 9.26818 27.3872 9.2013 28.3971 9.14814C28.685 9.1334 28.761 9.06522 28.904 9.00874C28.9501 8.98993 28.9861 8.962 29.0469 8.95074C29.1076 8.93794 29.1977 8.93871 29.2779 8.93495C30.9003 8.83358 32.5228 8.73375 34.1452 8.63237C34.3312 8.65073 34.4233 8.68217 34.3833 8.72088C34.3611 8.74409 34.3065 8.77678 34.2499 8.78034C33.6273 8.8179 33.0093 8.85542 32.3915 8.89448Z" fill="#FFE492"/>
<path d="M331.893 17.3309C331.648 17.3514 331.337 17.3802 331.075 17.2934C330.95 17.2515 330.816 17.2388 330.656 17.2494C330.425 17.2667 330.189 17.281 329.953 17.2923C329.891 17.2943 329.81 17.2781 329.747 17.2649C329.613 17.2384 329.496 17.1933 329.353 17.1823C329.211 17.1712 329.043 17.2064 328.895 17.2C328.7 17.1909 328.617 17.1502 328.667 17.1114C328.694 17.0897 328.748 17.0585 328.81 17.0534C329.682 16.9891 329.686 16.9891 329.936 17.0422C330.128 17.0835 330.307 17.1296 330.575 17.1012C330.8 17.0778 331.042 17.0711 331.273 17.0553C331.593 17.0341 331.593 17.0357 332.12 17.1279C332.255 17.1513 332.397 17.1485 332.566 17.1333C332.712 17.1213 332.856 17.1446 332.977 17.185C332.905 17.2378 332.798 17.2725 332.652 17.283C332.416 17.3003 332.185 17.3131 331.893 17.3309Z" fill="#FFE492"/>
<path d="M323.13 16.8686C323.724 16.8311 324.323 16.7981 324.917 16.7559C325.162 16.7384 325.357 16.7537 325.531 16.8047C325.719 16.8602 325.927 16.8537 326.153 16.841C326.295 16.8336 326.434 16.8571 326.531 16.8995C326.57 16.9161 326.563 16.9471 326.579 16.9716C326.06 17.0039 325.537 17.0378 325.013 17.067C324.952 17.0706 324.875 17.0558 324.818 17.044C324.688 17.0189 324.576 16.9735 324.438 16.9654C324.144 16.9463 323.853 16.9905 323.556 17.0008C323.414 17.0051 323.275 16.9832 323.178 16.9423C323.138 16.9226 323.146 16.8932 323.13 16.8686Z" fill="#FFE492"/>
<path d="M106.438 2.84487C107.056 2.80578 107.673 2.76824 108.291 2.72915C108.477 2.74906 108.565 2.77903 108.529 2.81773C108.507 2.84096 108.452 2.87369 108.396 2.87725C107.16 2.95696 105.925 3.0336 104.694 3.1102C104.508 3.09029 104.421 3.06033 104.456 3.02162C104.478 2.99839 104.533 2.96567 104.589 2.96211C105.202 2.92152 105.82 2.88396 106.438 2.84487Z" fill="#FFE492"/>
<path d="M10.6224 12.2137C10.3445 12.2194 10.0563 12.2809 9.74216 12.2391C9.68034 12.2317 9.59375 12.207 9.5975 12.1927C9.60532 12.1687 9.65986 12.138 9.72049 12.1279C9.9865 12.0857 10.3209 12.0779 10.4501 11.9654C10.5122 11.9075 10.6335 11.8873 10.7977 11.8747C10.9713 11.8604 11.0941 11.8641 11.2331 11.8962C11.4151 11.9376 11.5713 12.0157 11.8514 11.9718C11.8672 11.9972 11.9021 12.0255 11.8896 12.0495C11.877 12.0735 11.8174 12.0963 11.762 12.1143C11.7112 12.1307 11.6414 12.1456 11.5757 12.151C11.2659 12.1729 10.9558 12.1916 10.6224 12.2137Z" fill="#FFE492"/>
<path d="M257.854 11.5581C258.085 11.5437 258.326 11.5354 258.551 11.5116C258.73 11.493 258.844 11.5029 258.988 11.5389C259.234 11.602 259.248 11.5957 259.839 11.5999C259.906 11.6009 259.988 11.6235 260.027 11.6433C260.051 11.654 260.02 11.6838 259.993 11.6996C259.952 11.7201 259.892 11.7471 259.835 11.7476C259.462 11.7555 259.09 11.8504 258.719 11.748C258.531 11.6968 258.326 11.6737 258.076 11.6992C257.926 11.7145 257.766 11.7221 257.61 11.7296C257.459 11.7372 257.302 11.7215 257.204 11.6757C257.063 11.6085 257.141 11.5814 257.387 11.584C257.544 11.5857 257.699 11.5673 257.854 11.5581Z" fill="#FFE492"/>
<path d="M344.191 22.9077C344.486 22.8891 344.782 22.8673 345.083 22.8519C345.144 22.8481 345.22 22.865 345.278 22.8756C345.507 22.9213 345.48 23.0028 345.494 23.0743C345.504 23.1491 344.985 23.2143 344.76 23.1653C344.511 23.1103 344.285 23.047 343.948 23.0851C343.817 23.099 343.659 23.0718 343.571 23.0264C343.439 22.9607 343.508 22.933 343.749 22.9356C343.891 22.9375 344.04 22.9186 344.191 22.9077Z" fill="#FFE492"/>
<path d="M192.904 0.457615C193.21 0.43774 193.516 0.408509 193.823 0.404251C194.002 0.401113 194.096 0.45185 194.056 0.489703C194.034 0.513335 193.979 0.546629 193.923 0.55025C193.311 0.593122 192.698 0.629753 192.086 0.669502C191.905 0.649216 191.813 0.617214 191.853 0.579361C191.875 0.555729 191.93 0.523997 191.986 0.518814C192.292 0.494254 192.598 0.477489 192.904 0.457615Z" fill="#FFE492"/>
<path d="M338.182 17.4961C338.479 17.4778 338.78 17.4517 339.077 17.4413C339.233 17.4368 339.358 17.4717 339.38 17.5122C339.39 17.5309 339.317 17.5644 339.256 17.5728C338.834 17.6297 338.376 17.64 337.934 17.6705C337.793 17.6796 337.64 17.6559 337.552 17.6128C337.42 17.5467 337.489 17.521 337.73 17.5236C337.881 17.5238 338.031 17.5053 338.182 17.4961Z" fill="#FFE492"/>
<path d="M265.714 11.7648C265.864 11.7554 266.018 11.7331 266.164 11.7382C266.32 11.7448 266.421 11.7905 266.472 11.8367C266.527 11.8893 266.526 11.9392 266.482 11.9847C266.412 12.0626 266.336 12.0601 266.159 12.0102C265.885 11.9322 265.867 11.942 265.336 11.9501C265.275 11.9507 265.199 11.9272 265.15 11.9068C265.077 11.8752 265.112 11.8251 265.274 11.7946C265.395 11.7726 265.564 11.7742 265.714 11.7648Z" fill="#FFE492"/>
<path d="M327.03 16.9654C327.251 16.9508 327.471 16.9283 327.693 16.9263C327.848 16.9234 327.974 16.9586 327.991 16.9979C327.997 17.0168 327.928 17.049 327.872 17.059C327.606 17.104 327.304 17.1098 327.012 17.1266C326.876 17.1342 326.723 17.1102 326.635 17.0668C326.503 17.0017 326.576 16.971 326.808 16.9784C326.879 16.9809 326.954 16.9708 327.03 16.9654Z" fill="#FFE492"/>
<path d="M291.845 14.9616C291.516 14.9835 291.203 14.9626 291.223 14.9214C291.253 14.8675 291.387 14.8315 291.528 14.8208C291.754 14.803 291.98 14.7884 292.21 14.7769C292.356 14.7693 292.49 14.7917 292.611 14.8317C292.543 14.8828 292.437 14.92 292.296 14.9323C292.151 14.9447 291.995 14.9524 291.845 14.9616Z" fill="#FFE492"/>
<path d="M289.658 14.7606C289.879 14.746 290.1 14.7235 290.322 14.7215C290.477 14.7185 290.603 14.7537 290.619 14.7931C290.625 14.812 290.557 14.8442 290.501 14.8541C290.235 14.8991 289.933 14.905 289.641 14.9218C289.504 14.9293 289.352 14.9054 289.264 14.862C289.132 14.7968 289.205 14.7662 289.437 14.7736C289.508 14.7761 289.583 14.766 289.658 14.7606Z" fill="#FFE492"/>
<path d="M263.008 11.7551C263.229 11.7405 263.45 11.718 263.671 11.7144C263.827 11.7115 263.952 11.7467 263.969 11.786C263.975 11.8049 263.906 11.8355 263.85 11.8471C263.584 11.8921 263.282 11.8979 262.991 11.9147C262.854 11.9223 262.701 11.8984 262.613 11.8549C262.481 11.7898 262.555 11.7591 262.787 11.7665C262.858 11.769 262.933 11.7589 263.008 11.7551Z" fill="#FFE492"/>
<path d="M261.751 11.6574C261.986 11.6426 262.061 11.6341 262.136 11.6334C262.278 11.6321 262.426 11.6498 262.514 11.6948C262.646 11.76 262.571 11.7796 262.34 11.7848C262.043 11.7906 261.753 11.8264 261.456 11.8354C261.3 11.8399 261.175 11.8031 261.163 11.7637C261.157 11.7448 261.225 11.711 261.282 11.7042C261.478 11.6788 261.694 11.6626 261.751 11.6574Z" fill="#FFE492"/>
<path d="M287.529 1.82171C287.379 1.83102 287.22 1.85471 287.078 1.84804C286.889 1.83861 286.811 1.79638 286.855 1.75622C286.882 1.73372 286.932 1.70146 286.988 1.69619C287.288 1.67122 287.594 1.65415 287.894 1.63554C288.075 1.65777 288.157 1.69042 288.113 1.73058C288.086 1.75309 288.036 1.78375 287.98 1.79062C287.835 1.80783 287.68 1.81241 287.529 1.82171Z" fill="#FFE492"/>
<path d="M103.026 3.0426C103.172 3.03967 103.305 3.05925 103.421 3.09817C103.354 3.14994 103.252 3.18444 103.112 3.2001C103.042 3.20713 102.962 3.21264 102.887 3.21492C102.741 3.21944 102.608 3.19827 102.492 3.15935C102.559 3.10758 102.665 3.07304 102.801 3.05742C102.871 3.05039 102.951 3.04807 103.026 3.0426Z" fill="#FFE492"/>
<path d="M336.563 17.4888C336.555 17.4426 336.839 17.3873 337.098 17.3865C337.235 17.3869 337.378 17.408 337.461 17.4504C337.588 17.5147 337.519 17.5409 337.288 17.5382C337.146 17.5363 336.997 17.5648 336.856 17.5613C336.695 17.5611 336.599 17.5269 336.563 17.4888Z" fill="#FFE492"/>
<path d="M267.102 11.9605C267.096 11.9429 267.071 11.9222 267.084 11.9059C267.168 11.8166 267.706 11.7843 267.852 11.8602C267.877 11.8745 267.888 11.8986 267.87 11.9132C267.843 11.936 267.794 11.9655 267.738 11.9724C267.593 11.9899 267.443 11.9993 267.293 12.0023C267.227 12.0029 267.164 11.9761 267.102 11.9605Z" fill="#FFE492"/>
<path d="M12.3062 11.9474C11.7533 11.9861 11.7437 11.983 11.8371 11.902C11.9216 11.829 12.0834 11.7842 12.3234 11.7821C12.3939 11.7814 12.469 11.7775 12.5306 11.7834C12.597 11.7908 12.6922 11.8059 12.7076 11.825C12.7383 11.8617 12.661 11.9025 12.5217 11.931C12.4614 11.9444 12.3812 11.9419 12.3062 11.9474Z" fill="#FFE492"/>
<path d="M110.061 2.79292C109.898 2.82179 109.757 2.81344 109.65 2.76288C109.543 2.71232 109.703 2.64964 109.989 2.63252C110.064 2.62861 110.143 2.61501 110.214 2.62081C110.285 2.62499 110.356 2.64364 110.4 2.66257C110.477 2.69407 110.433 2.73797 110.285 2.77637C110.225 2.79142 110.136 2.78901 110.061 2.79292Z" fill="#FFE492"/>
<path d="M335.565 17.3639C335.605 17.3422 335.645 17.3206 335.69 17.3005C335.863 17.3267 335.939 17.3587 335.895 17.3968C335.869 17.4199 335.815 17.4401 335.775 17.4618C335.602 17.4356 335.53 17.4019 335.565 17.3639Z" fill="#FFE492"/>
<path d="M20.1349 30.8915C20.1336 30.8721 20.1967 30.8406 20.2474 30.8337C20.3445 30.8214 20.467 30.843 20.5538 30.8876C20.6746 30.9515 20.6071 30.9862 20.3917 30.9703C20.2419 30.9587 20.1373 30.9272 20.1349 30.8915Z" fill="#FFE492"/>
<path d="M268.996 10.408C269.057 10.4219 269.119 10.4359 269.176 10.4516C269.101 10.5121 269.005 10.5389 268.901 10.5237C268.835 10.5146 268.778 10.4957 268.716 10.4817C268.791 10.4212 268.883 10.3977 268.996 10.408Z" fill="#FFE492"/>
<path d="M267.365 10.3365C267.457 10.3114 267.57 10.3234 267.703 10.369C267.663 10.3904 267.627 10.415 267.577 10.4317C267.49 10.4583 267.372 10.4465 267.243 10.3991C267.279 10.3794 267.32 10.358 267.365 10.3365Z" fill="#FFE492"/>
<path d="M266.097 10.4107C266.159 10.4247 266.221 10.4387 266.278 10.4544C266.202 10.5149 266.111 10.5416 266.002 10.5265C265.936 10.5174 265.879 10.4985 265.818 10.4845C265.893 10.4239 265.984 10.3988 266.097 10.4107Z" fill="#FFE492"/>
<path d="M265.165 10.3215C265.237 10.3535 265.202 10.3931 265.071 10.4386C265.01 10.4244 264.94 10.4136 264.893 10.3944C264.817 10.3641 264.851 10.3228 264.987 10.2773C265.043 10.2931 265.104 10.3073 265.165 10.3215Z" fill="#FFE492"/>
</svg>
