<svg width="140" height="47" viewBox="0 0 140 47" fill="none" xmlns="http://www.w3.org/2000/svg">
<path d="M59.6973 24.2899C59.6973 30.9306 54.529 35.8239 48.1863 35.8239C41.8436 35.8239 36.6753 30.9306 36.6753 24.2899C36.6753 17.6025 41.8436 12.756 48.1863 12.756C54.529 12.756 59.6973 17.6025 59.6973 24.2899ZM54.6583 24.2899C54.6583 20.1402 51.6629 17.3009 48.1863 17.3009C44.7097 17.3009 41.7143 20.1402 41.7143 24.2899C41.7143 28.3981 44.7097 31.279 48.1863 31.279C51.6629 31.279 54.6583 28.3929 54.6583 24.2899Z" fill="#EA4335"/>
<path d="M84.5301 24.2899C84.5301 30.9306 79.3618 35.8239 73.0191 35.8239C66.6764 35.8239 61.5081 30.9306 61.5081 24.2899C61.5081 17.6077 66.6764 12.756 73.0191 12.756C79.3618 12.756 84.5301 17.6025 84.5301 24.2899ZM79.4911 24.2899C79.4911 20.1402 76.4956 17.3009 73.0191 17.3009C69.5425 17.3009 66.547 20.1402 66.547 24.2899C66.547 28.3981 69.5425 31.279 73.0191 31.279C76.4956 31.279 79.4911 28.3929 79.4911 24.2899Z" fill="#FBBC05"/>
<path d="M108.328 13.4528V34.1598C108.328 42.6777 103.33 46.1566 97.4223 46.1566C91.8608 46.1566 88.5135 42.4177 87.2512 39.36L91.6383 37.5243C92.4195 39.4016 94.3337 41.6169 97.4171 41.6169C101.199 41.6169 103.543 39.2716 103.543 34.8567V33.1978H103.367C102.239 34.5967 100.066 35.8187 97.324 35.8187C91.5866 35.8187 86.3303 30.7953 86.3303 24.3315C86.3303 17.8209 91.5866 12.756 97.324 12.756C100.061 12.756 102.234 13.978 103.367 15.3353H103.543V13.458H108.328V13.4528ZM103.899 24.3315C103.899 20.2702 101.204 17.3009 97.7741 17.3009C94.2975 17.3009 91.3848 20.2702 91.3848 24.3315C91.3848 28.3513 94.2975 31.279 97.7741 31.279C101.204 31.279 103.899 28.3513 103.899 24.3315Z" fill="#4285F4"/>
<path d="M116.217 1.31555V35.1166H111.302V1.31555H116.217Z" fill="#34A853"/>
<path d="M135.37 28.0861L139.281 30.707C138.019 32.5843 134.977 35.8188 129.721 35.8188C123.202 35.8188 118.334 30.7538 118.334 24.2848C118.334 17.4258 123.243 12.7509 129.157 12.7509C135.111 12.7509 138.024 17.5142 138.976 20.0883L139.499 21.3987L124.159 27.7845C125.333 30.0986 127.16 31.279 129.721 31.279C132.287 31.279 134.066 30.0102 135.37 28.0861ZM123.331 23.9364L133.585 19.6567C133.021 18.2162 131.324 17.2126 129.327 17.2126C126.767 17.2126 123.202 19.4851 123.331 23.9364Z" fill="#EA4335"/>
<path d="M18.071 21.2895V16.3961H34.4761C34.6365 17.2489 34.7193 18.2578 34.7193 19.3498C34.7193 23.0211 33.7208 27.5609 30.5029 30.7954C27.3729 34.0715 23.3738 35.8187 18.0762 35.8187C8.25689 35.8187 0 27.7793 0 17.9094C0 8.03945 8.25689 0 18.0762 0C23.5083 0 27.3781 2.14247 30.2856 4.93495L26.8504 8.38786C24.7655 6.4222 21.9408 4.89335 18.071 4.89335C10.9005 4.89335 5.29248 10.7019 5.29248 17.9094C5.29248 25.1168 10.9005 30.9254 18.071 30.9254C22.722 30.9254 25.3708 29.0481 27.0677 27.3424C28.4439 25.9592 29.3492 23.9831 29.7062 21.2843L18.071 21.2895Z" fill="#4285F4"/>
</svg>
