<svg width="146" height="274" viewBox="0 0 146 274" fill="none" xmlns="http://www.w3.org/2000/svg">
<g style="mix-blend-mode:multiply" opacity="0.2">
<path d="M27.1876 273.408C24.9559 273.408 22.2899 272.565 18.7402 270.658C9.31916 265.485 -0.341484 249.95 -10.5413 233.522C-16.158 224.5 -21.9544 215.168 -27.7807 207.521C-36.288 193.704 -50.7116 184.184 -64.6709 174.956C-74.8707 168.219 -84.5014 161.844 -91.9603 153.973L-91.9753 153.956C-97.5769 147.838 -100.198 141.927 -99.9884 135.895C-99.584 124.123 -88.3956 113.641 -75.4249 101.508L-74.1817 100.34C-64.566 91.3004 -52.494 79.2023 -35.0149 61.1411L-33.5321 59.6632C-17.8954 44.0594 1.57568 24.6406 26.7982 12.8691C77.3181 -14.4032 121.532 6.7169 135.492 29.607C150.05 56.3637 148.792 84.7702 130.699 138.232C111.752 193.962 69.7843 237.044 52.6198 252.975C45.5952 258.233 41.1918 262.89 37.9866 266.293C33.9126 270.589 31.2615 273.408 27.1876 273.408ZM-90.6423 152.324C-83.3481 160.022 -73.8073 166.329 -63.7123 173.014C-49.5883 182.345 -34.97 192.003 -26.2829 206.129C-20.4416 213.776 -14.6153 223.159 -8.98363 232.216C1.08141 248.404 10.5923 263.698 19.549 268.63C28.4008 273.356 30.4827 271.156 36.6685 264.626C39.9337 261.172 44.412 256.429 51.4815 251.136C68.4363 235.378 110.104 192.622 128.886 137.39C146.725 84.7014 148.028 56.8105 133.874 30.81C120.319 8.60722 77.1384 -11.877 27.577 14.8797C2.60915 26.5481 -16.7271 45.8294 -32.259 61.3129L-33.7269 62.7908C-51.2208 80.8692 -63.3079 92.9845 -72.9536 102.041L-74.1967 103.209C-86.8079 114.998 -97.6818 125.189 -98.0562 135.946C-98.236 141.325 -95.8096 146.67 -90.6423 152.324Z" fill="#CCCCCC"/>
<path d="M24.2797 257.838C21.1943 257.838 17.9291 256.704 13.4358 254.693L13.3459 254.659C4.71877 249.692 -2.11108 237.714 -9.33035 225.049C-14.258 216.388 -19.3654 207.452 -25.5063 199.667C-34.1634 187.036 -45.0522 177.207 -55.5666 167.704C-62.6361 161.328 -69.3162 155.296 -75.1425 148.629L-75.2474 148.491C-87.1097 129.949 -78.6024 121.769 -63.1753 106.904C-61.4978 105.288 -59.7304 103.587 -57.8882 101.766C-54.2636 98.6895 -50.3993 95.2526 -46.2954 91.6094C-28.0675 75.4042 -3.08464 53.2186 32.158 35.209C75.2339 16.2885 108.514 29.9676 122.414 51.9126C136.343 74.7855 130.936 102.316 115.284 148.302C98.1349 194.804 66.8315 224.912 50.0115 241.083L48.1392 242.887C35.6328 253.542 30.2708 257.838 24.2797 257.838ZM14.1847 252.631C26.4515 258.096 28.5334 256.79 46.941 241.151L48.7683 239.399C65.4535 223.348 96.5173 193.464 113.487 147.494C128.884 102.281 134.261 75.2667 120.841 53.2358C107.391 31.9954 74.9793 18.8147 32.9069 37.2883C-2.08113 55.1605 -26.9442 77.2601 -45.1122 93.3794C-49.2161 97.0226 -53.0803 100.46 -56.675 103.518C-58.4723 105.288 -60.2397 106.99 -61.9172 108.622C-77.3592 123.504 -84.4287 130.31 -73.7196 147.116C-67.9832 153.664 -61.363 159.627 -54.3684 165.951C-43.7492 175.523 -32.7855 185.438 -24.0235 198.224C-17.8227 206.077 -12.6704 215.099 -7.69778 223.829C-0.643265 236.202 6.0368 247.905 14.1847 252.631Z" fill="#CCCCCC"/>
<path d="M21.7692 244.846C17.83 244.846 14.1755 243.231 9.62225 240.481C2.01356 235.223 -4.09738 224.345 -10.5678 212.848C-14.4021 206.009 -18.3861 198.946 -22.9394 192.467C-29.3049 182.294 -36.8537 173.598 -44.1329 165.178C-50.109 158.269 -55.7556 151.756 -60.204 145.037L-60.2639 144.934C-69.2805 127.509 -59.9643 119.38 -43.0395 104.619L-42.8448 104.447L-39.7144 101.989C-21.8909 88.0524 2.5228 68.9601 35.9681 55.1264C75.4494 40.674 100.582 55.4014 110.123 72.3799C120.323 90.4927 117.821 114.809 101.496 156.31C89.6033 185.232 70.1922 211.233 43.8164 233.59C33.6166 241.53 27.4008 244.846 21.7692 244.846ZM-58.6313 143.714C-54.2578 150.296 -48.6711 156.757 -42.7549 163.58C-35.4158 172.052 -27.8221 180.833 -21.3967 191.092C-16.7985 197.605 -12.7994 204.737 -8.93517 211.628C-2.59959 222.919 3.39151 233.573 10.5808 238.54C20.9454 244.829 26.1127 244.709 42.6931 231.769C68.7843 209.635 87.9858 183.926 99.7283 155.365C115.74 114.654 118.286 90.9566 108.49 73.5656C98.59 55.9512 72.5287 44.0594 36.5822 57.2057C3.40649 70.9364 -20.8874 89.9256 -38.6211 103.811L-41.8712 106.371C-58.9159 121.236 -66.7193 128.041 -58.6313 143.714Z" fill="#CCCCCC"/>
<path d="M20.3619 233.024C15.9585 233.024 11.8246 231.288 7.21148 227.885L7.18152 227.868C0.23185 222.403 -5.36982 212.127 -11.301 201.266C-14.0419 196.231 -16.8877 191.041 -19.9731 186.092C-24.092 178.84 -28.6602 172.138 -33.0786 165.676C-38.5006 157.737 -43.6379 150.227 -46.993 142.941C-52.8492 127.561 -44.282 119.518 -29.484 108.056C-14.2366 97.2295 9.32335 81.7976 38.2004 72.6896C65.7744 66.1766 86.4287 71.4008 96.4189 87.3826C107.203 104.602 104.522 131.908 89.0648 162.308C72.8739 198.087 47.2769 219.07 39.818 224.637C31.8798 230.274 25.9037 233.024 20.3619 233.024ZM8.25992 226.012C16.8871 232.353 23.657 233.488 38.7696 222.747C46.1087 217.265 71.3761 196.558 87.3573 161.226C102.425 131.582 105.151 105.152 94.8313 88.6887C85.3054 73.463 65.355 68.5653 38.6348 74.8721C10.0572 83.8941 -13.338 99.2058 -28.4505 109.946C-43.6829 121.735 -50.318 128.746 -45.2705 141.996C-42.0204 149.024 -36.9429 156.448 -31.5659 164.319C-27.1175 170.832 -22.5193 177.551 -18.3855 184.855C-15.2851 189.804 -12.4393 195.045 -9.6834 200.098C-3.84208 210.735 1.65474 220.805 8.25992 226.012Z" fill="#CCCCCC"/>
<path d="M19.4321 222.231C14.7591 222.231 10.4605 220.392 5.99709 216.714L5.87727 216.594C-11.2123 196.746 -31.4173 151.292 -35.2965 142.39L-35.3564 142.184C-38.3819 129.433 -31.5521 121.94 -17.9074 112.575C-5.05649 104.291 15.2384 93.3619 39.023 88.2581C60.9205 84.3056 77.3211 89.6328 85.2293 103.26C94.0063 118.4 91.3253 141.411 77.8902 166.397C66.0578 190.49 48.6237 207.83 36.2521 216.01C29.7817 220.168 24.3898 222.231 19.4321 222.231ZM7.19531 214.961C15.7476 221.956 23.3713 221.715 35.2786 214.068C47.4255 206.043 64.5451 188.995 76.2127 165.263C89.0636 141.359 91.8195 118.658 83.6117 104.498C76.1528 91.6263 60.4262 86.6255 39.3525 90.4577C15.8524 95.51 -4.21772 106.336 -16.9338 114.516C-29.9944 123.47 -36.1503 130.12 -33.5142 141.514C-22.3708 167.085 -5.8503 199.77 7.19531 214.961Z" fill="#CCCCCC"/>
<path d="M18.7492 212.282C13.7466 212.282 9.41808 210.374 6.13796 206.679C-6.98253 192.09 -20.6422 161.312 -24.6712 142.804C-25.3302 138.525 -24.3867 134.349 -21.9004 130.362C-14.2318 118.075 8.48948 107.472 38.8943 102.007C56.0438 100.099 68.8348 105.375 74.9457 116.872C81.8654 129.898 79.3791 148.853 68.1308 168.856C53.4976 194.169 35.9886 210.323 21.2954 212.11C20.4267 212.23 19.573 212.282 18.7492 212.282ZM45.5743 103.846C43.5074 103.846 41.3656 103.966 39.1489 104.224C9.31325 109.585 -12.9437 119.845 -20.2977 131.668C-22.4845 135.174 -23.3083 138.765 -22.7541 142.357C-18.8 160.487 -5.37992 190.766 7.51591 205.098C10.9159 208.913 15.6189 210.58 21.1007 209.91C35.2247 208.192 52.2095 192.399 66.5132 167.653C77.1774 148.681 79.7236 130.138 73.2981 118.04C68.3704 108.778 58.6499 103.846 45.5743 103.846Z" fill="#CCCCCC"/>
<path d="M19.1489 202.83C14.5058 202.83 10.4168 201.111 7.22657 197.777C-4.15651 185.937 -14.6859 160.899 -15.285 144.212V144.178C-15.3599 128.798 6.92701 116.167 37.6913 114.173C50.7968 113.813 60.5174 118.831 65.0856 128.351C70.3278 139.263 68.171 154.403 59.1693 169.904C48.0409 188.738 34.1116 200.974 21.8898 202.641C20.9462 202.761 20.0325 202.83 19.1489 202.83ZM-13.3379 144.144C-12.7387 160.332 -2.52393 184.631 8.54462 196.128C11.9146 199.651 16.4379 201.128 21.6501 200.424C33.3178 198.826 46.7378 186.951 57.5518 168.649C66.134 153.87 68.2608 139.555 63.3781 129.399C59.1694 120.652 50.0928 116.012 37.7662 116.373C8.58954 118.281 -13.3978 130.224 -13.3379 144.144Z" fill="#CCCCCC"/>
<path d="M19.4836 193.876C15.4247 193.876 11.8001 192.449 8.87939 189.648C-1.38036 179.87 -8.67453 160.073 -7.07191 146.394C-5.33449 133.265 13.3428 123.848 35.39 124.93C45.0656 125.566 52.195 130.137 55.4901 137.785C59.2645 146.549 57.5421 158.183 50.7422 169.68C42.7141 183.135 32.1248 192.089 22.4193 193.635C21.4157 193.807 20.4422 193.876 19.4836 193.876ZM31.9002 127.078C12.3392 127.078 -3.642 135.379 -5.13977 146.721C-6.63755 159.489 0.491861 178.753 10.1225 187.947C13.2978 190.972 17.4467 192.174 22.1497 191.436C31.331 189.975 41.411 181.365 49.1396 168.425C55.5351 157.616 57.2125 146.807 53.7527 138.764C50.7871 131.873 44.2269 127.749 35.3001 127.147C34.1618 127.113 33.0235 127.078 31.9002 127.078Z" fill="#CCCCCC"/>
<path d="M20.3998 185.318C17.1347 185.318 14.1691 184.235 11.6828 182.122C3.07062 174.784 -1.76718 160.022 0.898855 149.213C3.60983 138.524 17.6889 132.097 32.9212 134.571C39.6762 135.723 44.6338 139.572 46.8805 145.415C49.4267 152.031 48.1686 160.417 43.4356 168.425C37.9987 177.568 30.7045 183.617 23.4254 185.009C22.4069 185.215 21.3884 185.318 20.3998 185.318ZM2.77107 149.831C0.344679 159.644 4.95782 173.615 12.8361 180.334C15.6369 182.723 19.1867 183.582 23.1108 182.826C29.7759 181.537 36.7855 175.695 41.848 167.188C46.1915 159.833 47.3747 152.237 45.1131 146.326C43.151 141.205 38.7176 137.819 32.6516 136.788C18.5876 134.485 5.18249 140.345 2.77107 149.831Z" fill="#CCCCCC"/>
<path d="M21.1514 177.035C18.8898 177.035 16.7031 176.365 14.7859 174.922C8.37544 170.161 5.37989 160.057 8.09086 152.41C10.8168 144.797 20.5374 140.69 29.7786 143.267C34.0473 144.453 37.1627 147.357 38.5556 151.413C40.0833 155.881 39.3045 161.311 36.4287 166.295C32.4596 173.134 26.5734 177.035 21.1514 177.035ZM15.8343 173.066C21.3611 177.173 29.8685 173.598 34.8112 165.075C37.3274 160.71 38.0463 156.018 36.7433 152.238C35.59 148.87 32.9539 146.446 29.3143 145.433C20.9717 143.113 12.2547 146.618 9.88821 153.252C7.50675 159.971 10.1728 168.855 15.8343 173.066Z" fill="#CCCCCC"/>
<path d="M21.7146 168.907C20.4865 168.907 19.2882 168.581 18.1948 167.893C14.4504 165.539 12.9377 160.126 14.8399 155.812C16.7121 151.55 21.8494 149.506 26.2678 151.258C28.3947 152.1 29.9524 153.785 30.6264 156.019C31.3453 158.373 31.0008 161.122 29.6678 163.545C27.7656 166.965 24.6952 168.907 21.7146 168.907ZM22.9128 152.857C20.2019 152.857 17.6407 154.352 16.5473 156.826C15.1244 160.074 16.2627 164.164 19.1085 165.934C21.9393 167.721 25.9383 166.106 28.0053 162.343C29.0387 160.469 29.3083 158.493 28.7691 156.74C28.2898 155.159 27.1665 153.956 25.6088 153.338C24.7251 153.011 23.8115 152.857 22.9128 152.857Z" fill="#CCCCCC"/>
</g>
</svg>
