<svg width="219" height="441" viewBox="0 0 219 441" fill="none" xmlns="http://www.w3.org/2000/svg">
<g style="mix-blend-mode:multiply" opacity="0.2">
<path d="M-56.1649 440.354C-61.3435 440.354 -67.5299 438.998 -75.7669 435.926C-97.628 427.595 -120.045 402.574 -143.713 376.114C-156.747 361.583 -170.197 346.553 -183.717 334.237C-203.458 311.984 -236.927 296.65 -269.319 281.787C-292.987 270.937 -315.335 260.668 -332.643 247.992L-332.678 247.964C-345.676 238.111 -351.758 228.589 -351.272 218.874C-350.333 199.915 -324.371 183.031 -294.273 163.491L-291.389 161.609C-269.076 147.05 -241.063 127.564 -200.504 98.4748L-197.063 96.0945C-160.778 70.9628 -115.596 39.6866 -57.0686 20.7271C60.1609 -23.198 162.758 10.8183 195.15 47.6856C228.932 90.7803 226.013 136.532 184.029 222.639C140.063 312.399 42.679 381.788 2.84946 407.445C-13.4507 415.915 -23.6688 423.416 -31.1064 428.896C-40.5598 435.815 -46.7115 440.354 -56.1649 440.354ZM-329.585 245.335C-312.659 257.734 -290.52 267.892 -267.095 278.659C-234.32 293.688 -200.399 309.243 -180.241 331.995C-166.687 344.312 -153.167 359.424 -140.099 374.01C-116.743 400.083 -94.6737 424.716 -73.8901 432.66C-53.3497 440.271 -48.5188 436.729 -34.1649 426.211C-26.5882 420.648 -16.1964 413.009 0.208099 404.484C39.551 379.103 136.24 310.24 179.823 221.282C221.217 136.421 224.24 91.4999 191.397 49.623C159.943 13.8629 59.7439 -19.1293 -55.2613 23.9654C-113.198 42.7589 -158.067 73.8136 -194.109 98.7516L-197.515 101.132C-238.109 130.249 -266.156 149.762 -288.539 164.349L-291.423 166.231C-320.687 185.218 -345.92 201.631 -346.788 218.958C-347.205 227.621 -341.575 236.229 -329.585 245.335Z" fill="#CCCCCC"/>
<path d="M-62.9105 415.278C-70.0701 415.278 -77.6468 413.451 -88.0733 410.213L-88.2819 410.157C-108.301 402.158 -124.149 382.867 -140.901 362.468C-152.336 348.518 -164.187 334.126 -178.437 321.588C-198.526 301.244 -223.793 285.412 -248.191 270.106C-264.595 259.838 -280.096 250.123 -293.616 239.384L-293.859 239.162C-321.385 209.298 -301.644 196.123 -265.846 172.181C-261.954 169.58 -257.853 166.839 -253.578 163.906C-245.167 158.951 -236.2 153.416 -226.677 147.548C-184.38 121.447 -126.408 85.715 -44.6293 56.7084C55.3268 26.2348 132.553 48.2666 164.806 83.6115C197.128 120.451 184.582 164.791 148.262 238.858C108.468 313.755 35.8292 362.247 -3.20096 388.292L-7.54538 391.198C-36.566 408.358 -49.0084 415.278 -62.9105 415.278ZM-86.3356 406.891C-57.871 415.693 -53.04 413.59 -10.3258 388.402L-6.08566 385.579C32.6317 359.728 104.714 311.596 144.092 237.557C179.82 164.736 192.297 121.226 161.157 85.7427C129.946 51.5326 54.736 30.3035 -42.8915 60.0574C-124.08 88.8426 -181.774 124.437 -223.932 150.399C-233.455 156.266 -242.421 161.802 -250.763 166.729C-254.933 169.58 -259.034 172.32 -262.927 174.949C-298.76 198.918 -315.164 209.879 -290.314 236.948C-277.003 247.493 -261.641 257.098 -245.41 267.283C-220.769 282.7 -195.328 298.67 -174.996 319.263C-160.608 331.912 -148.652 346.443 -137.113 360.503C-120.743 380.431 -105.242 399.28 -86.3356 406.891Z" fill="#CCCCCC"/>
<path d="M-68.7392 394.354C-77.8799 394.354 -86.3601 391.753 -96.9257 387.324C-114.581 378.855 -128.762 361.334 -143.776 342.818C-152.673 331.802 -161.918 320.426 -172.484 309.991C-187.255 293.606 -204.771 279.601 -221.662 266.039C-235.53 254.912 -248.632 244.422 -258.955 233.6L-259.094 233.434C-280.016 205.368 -258.399 192.277 -219.125 168.501L-218.673 168.224L-211.41 164.266C-170.051 141.819 -113.4 111.069 -35.7912 88.7882C55.8236 65.511 114.143 89.2311 136.282 116.577C159.95 145.75 154.146 184.914 116.263 251.757C88.6673 298.339 43.6245 340.216 -17.5795 376.225C-41.2478 389.012 -55.6712 394.354 -68.7392 394.354ZM-255.305 231.469C-245.157 242.069 -232.193 252.476 -218.465 263.465C-201.435 277.11 -183.814 291.253 -168.904 307.777C-158.234 318.267 -148.954 329.754 -139.987 340.853C-125.286 359.037 -111.384 376.197 -94.7014 384.196C-70.6508 394.327 -58.6602 394.133 -20.1861 373.291C40.3575 337.642 84.9138 296.235 112.162 250.234C149.315 184.665 155.224 146.497 132.494 118.487C109.52 90.1168 49.0464 70.9635 -34.3663 92.1373C-111.349 114.252 -167.722 144.836 -208.872 167.2L-216.414 171.324C-255.966 195.266 -274.073 206.226 -255.305 231.469Z" fill="#CCCCCC"/>
<path d="M-72.0041 375.312C-82.2222 375.312 -91.8146 372.517 -102.519 367.036L-102.589 367.009C-118.715 358.207 -131.714 341.656 -145.477 324.163C-151.837 316.053 -158.44 307.695 -165.6 299.723C-175.158 288.043 -185.758 277.249 -196.011 266.842C-208.592 254.054 -220.513 241.959 -228.298 230.224C-241.888 205.452 -222.008 192.498 -187.67 174.037C-152.289 156.6 -97.6187 131.745 -30.6106 117.076C33.3738 106.586 81.3013 115 104.483 140.74C129.507 168.474 123.286 212.454 87.4182 261.417C49.8478 319.043 -9.54889 352.837 -26.857 361.805C-45.2773 370.884 -59.1447 375.312 -72.0041 375.312ZM-100.086 364.019C-80.0673 374.233 -64.358 376.059 -29.2899 358.761C-12.2598 349.931 46.3723 316.579 83.4561 259.673C118.42 211.928 124.745 169.359 100.799 142.844C78.6947 118.321 32.4007 110.433 -29.6027 120.591C-95.9157 135.122 -150.203 159.783 -185.271 177.082C-220.618 196.069 -236.014 207.361 -224.302 228.701C-216.76 240.022 -204.978 251.979 -192.501 264.655C-182.178 275.145 -171.508 285.967 -161.916 297.73C-154.722 305.702 -148.118 314.143 -141.723 322.281C-128.169 339.414 -115.413 355.633 -100.086 364.019Z" fill="#CCCCCC"/>
<path d="M-74.1618 357.929C-85.0054 357.929 -94.9802 354.967 -105.337 349.044L-105.615 348.85C-145.271 316.882 -192.156 243.673 -201.158 229.336L-201.297 229.004C-208.317 208.467 -192.469 196.399 -160.807 181.315C-130.987 167.974 -83.8933 150.371 -28.7019 142.15C22.1103 135.784 60.1673 144.364 78.518 166.313C98.8846 190.697 92.6635 227.758 61.488 268.002C34.0313 306.807 -6.42381 334.734 -35.1317 347.909C-50.1459 354.607 -62.6578 357.929 -74.1618 357.929ZM-102.557 346.221C-82.7116 357.486 -65.0212 357.098 -37.3907 344.781C-9.20421 331.856 30.5211 304.399 57.5954 266.176C87.4154 227.675 93.8104 191.113 74.7645 168.306C57.4564 147.575 20.9634 139.521 -27.9373 145.693C-82.4683 153.83 -129.04 171.267 -158.548 184.442C-188.854 198.863 -203.139 209.574 -197.022 227.925C-171.164 269.11 -132.829 321.753 -102.557 346.221Z" fill="#CCCCCC"/>
<path d="M-75.7483 341.905C-87.3565 341.905 -97.4008 338.832 -105.012 332.881C-135.458 309.383 -167.155 259.811 -176.504 230.002C-178.033 223.11 -175.843 216.384 -170.074 209.963C-152.279 190.173 -99.5556 173.096 -29.0024 164.294C10.7923 161.222 40.4733 169.719 54.6534 188.236C70.7104 209.216 64.941 239.745 38.8398 271.962C4.8839 312.732 -35.7449 338.749 -69.8398 341.628C-71.8557 341.822 -73.8367 341.905 -75.7483 341.905ZM-13.5016 167.256C-18.2978 167.256 -23.2678 167.45 -28.4116 167.865C-97.6441 176.5 -149.29 193.024 -166.355 212.067C-171.429 217.713 -173.341 223.498 -172.055 229.282C-162.88 258.483 -131.739 307.252 -101.815 330.335C-93.9253 336.48 -83.0121 339.164 -70.2917 338.085C-37.5175 335.317 1.89494 309.881 35.0862 270.025C59.8319 239.468 65.7403 209.603 50.8303 190.118C39.3959 175.199 16.8397 167.256 -13.5016 167.256Z" fill="#CCCCCC"/>
<path d="M-74.8199 326.68C-85.594 326.68 -95.0822 323.912 -102.485 318.543C-128.899 299.473 -153.332 259.146 -154.722 232.27V232.215C-154.896 207.443 -103.18 187.1 -31.7929 183.889C-1.38202 183.308 21.1742 191.39 31.7745 206.723C43.9389 224.299 38.9341 248.683 18.0462 273.649C-7.77701 303.984 -40.0994 323.691 -68.4597 326.376C-70.6493 326.569 -72.7693 326.68 -74.8199 326.68ZM-150.204 232.16C-148.814 258.232 -125.111 297.369 -99.4266 315.886C-91.6067 321.56 -81.1106 323.94 -69.0157 322.805C-41.9414 320.231 -10.8007 301.106 14.2926 271.628C34.2074 247.825 39.1426 224.769 27.8124 208.412C18.0462 194.324 -3.01552 186.85 -31.6191 187.432C-99.3223 190.504 -150.343 209.74 -150.204 232.16Z" fill="#CCCCCC"/>
<path d="M-74.0437 312.261C-83.4623 312.261 -91.8731 309.963 -98.6504 305.452C-122.458 289.703 -139.384 257.818 -135.665 235.786C-131.633 214.64 -88.2933 199.472 -37.1336 201.216C-14.6817 202.24 1.86179 209.603 9.50795 221.919C18.2663 236.035 14.2694 254.773 -1.50946 273.29C-20.1383 294.962 -44.7103 309.382 -67.2317 311.873C-69.5603 312.15 -71.8193 312.261 -74.0437 312.261ZM-45.2316 204.676C-90.622 204.676 -127.706 218.045 -131.181 236.312C-134.657 256.877 -118.113 287.904 -95.7657 302.712C-88.3976 307.583 -78.7704 309.521 -67.8572 308.33C-46.5523 305.978 -23.162 292.111 -5.22824 271.269C9.61224 253.86 13.5048 236.45 5.47633 223.497C-1.40521 212.398 -16.628 205.755 -37.3421 204.787C-39.9835 204.731 -42.6249 204.676 -45.2316 204.676Z" fill="#CCCCCC"/>
</g>
</svg>
