<svg width="680" height="68" viewBox="0 0 680 68" fill="none" xmlns="http://www.w3.org/2000/svg">
<path d="M454.194 52.2153C453.533 52.241 452.865 52.2591 452.217 52.2971C451.797 52.3209 451.616 52.2536 451.335 52.2188C451.241 52.2066 451.14 52.1822 451.054 52.1854C450.399 52.2112 449.745 52.2399 449.091 52.2687C448.891 52.329 448.765 52.4091 448.458 52.4388C448.158 52.467 447.804 52.4676 447.47 52.482C447.029 52.4997 446.588 52.5174 446.148 52.5335C445.927 52.5416 445.747 52.5711 445.674 52.6265C445.661 52.6357 445.808 52.6585 445.889 52.6722C446.156 52.7178 446.418 52.7696 446.712 52.8044C446.993 52.8377 447.34 52.7818 447.641 52.8243C448.317 52.9199 448.324 52.9184 448.838 52.8991C449.278 52.8814 449.719 52.8622 450.16 52.8492C450.247 52.8459 450.347 52.8688 450.441 52.8809C450.722 52.9142 450.903 52.9907 451.317 52.9608C451.631 52.9372 451.978 52.932 452.305 52.9192C452.58 52.9632 452.834 53.0135 453.129 53.0483C453.403 53.0816 453.483 53.1076 453.337 53.1524C453.204 53.1942 453.017 53.2114 452.77 53.2149C452.549 53.2168 452.329 53.231 452.109 53.2391C451.995 53.2439 451.888 53.2471 451.781 53.2519C451.361 53.2696 451.361 53.2696 450.591 53.1726C450.29 53.1347 449.95 53.189 449.663 53.1527C449.468 53.1284 449.301 53.0919 449.114 53.0661C449.033 53.0554 448.906 53.0541 448.806 53.0574C448.472 53.0687 448.138 53.077 447.818 53.0975C447.591 53.1117 447.458 53.155 447.485 53.1979C447.492 53.2148 447.653 53.2391 447.746 53.2405C447.96 53.2432 448.187 53.2213 448.394 53.2317C448.595 53.2421 448.802 53.2725 448.95 53.306C449.251 53.3762 449.591 53.3126 449.878 53.3305C450.179 53.35 450.427 53.411 450.715 53.4474C450.788 53.4565 450.929 53.4408 451.042 53.436C451.369 53.4247 451.697 53.4149 452.024 53.4036C452.298 53.4477 452.593 53.4871 452.841 53.5374C453.289 53.6288 453.771 53.6633 454.351 53.6177C454.678 53.5926 454.999 53.6012 455.26 53.6607C455.528 53.7217 455.836 53.715 456.176 53.7021C456.49 53.6893 456.81 53.6549 457.131 53.6974C457.827 53.7914 457.834 53.796 458.655 53.7577C458.902 53.7466 459.089 53.7432 459.277 53.7782C459.451 53.8101 459.638 53.8375 459.819 53.8679C460.146 53.8565 460.48 53.8452 460.807 53.8324C461.228 53.8147 461.462 53.8358 461.563 53.9217C461.624 53.9738 461.652 54.0214 461.799 54.0565C461.973 54.0992 462.16 54.0973 462.414 54.0846C462.654 54.0734 462.828 54.0562 462.927 54.0007C462.967 53.9776 463.047 53.956 463.12 53.9374C463.18 53.9235 463.274 53.9018 463.327 53.9048C463.427 53.9108 463.561 53.9274 463.595 53.9473C463.924 54.1327 463.924 54.1342 464.259 54.1874C464.627 54.2467 465.009 54.2998 465.344 54.3668C465.645 54.4262 465.945 54.3996 466.272 54.399C466.52 54.3986 466.681 54.4382 466.661 54.4782C466.648 54.5013 466.555 54.5352 466.475 54.5384C465.82 54.5703 465.159 54.5976 464.498 54.6202C464.418 54.6234 464.318 54.5959 464.224 54.5823C464.036 54.555 463.869 54.5122 463.668 54.5034C463.468 54.4945 463.234 54.5179 463.014 54.526C462.794 54.5341 462.56 54.5545 462.359 54.5425C462.159 54.5306 461.998 54.4863 461.811 54.4574C461.723 54.4437 461.603 54.424 461.53 54.4287C461.042 54.4665 460.681 54.4164 460.333 54.3494C460.259 54.3357 460.132 54.3267 460.039 54.3299C459.264 54.3574 458.496 54.3894 457.722 54.42C457.408 54.4328 457.153 54.3795 457.085 54.289C457.051 54.2383 456.984 54.1877 456.983 54.137C456.982 54.0449 456.614 53.9948 456.347 54.006C455.906 54.0221 455.459 54.0352 455.025 54.059C454.671 54.0781 454.37 54.0601 454.129 54.0053C453.848 53.9428 453.527 53.9556 453.207 53.9731C452.966 53.9858 452.9 54.0366 452.915 54.1641C452.93 54.267 452.816 54.2994 452.382 54.3171C451.835 54.3396 451.281 54.362 450.726 54.3799C450.639 54.3831 450.539 54.3572 450.452 54.3435C450.265 54.3162 450.097 54.2719 449.896 54.263C449.696 54.2526 449.462 54.2761 449.242 54.2857C449.022 54.2937 448.788 54.3157 448.588 54.3052C448.387 54.2948 448.219 54.2491 448.039 54.2202C447.952 54.2065 447.845 54.1867 447.758 54.1899C447.317 54.203 446.876 54.2222 446.436 54.2399C445.941 54.2591 445.941 54.2591 445.239 54.1651C444.918 54.1227 444.597 54.157 444.284 54.1699C443.95 54.1827 443.636 54.1894 443.374 54.1284C443.2 54.0888 443.006 54.0645 442.799 54.0726C442.245 54.092 441.697 54.116 441.143 54.1354C441.05 54.1386 440.923 54.1311 440.849 54.1174C440.494 54.0535 440.146 54.0034 439.652 54.0365C439.225 54.0649 438.764 54.0673 438.337 54.0941C438.103 54.1084 437.997 54.1577 438.044 54.196C438.071 54.216 438.212 54.2388 438.305 54.2386C438.519 54.2398 438.752 54.2163 438.953 54.2252C439.367 54.2429 439.576 54.3716 440.117 54.3353C440.437 54.3133 440.771 54.305 441.105 54.2983C441.192 54.2966 441.286 54.3256 441.379 54.3408C441.647 54.3818 441.882 54.4352 442.269 54.4069C442.589 54.3848 442.93 54.3781 443.257 54.3652C443.778 54.3443 443.778 54.3459 444.454 54.4384C444.775 54.4824 445.095 54.4465 445.409 54.4352C445.643 54.4271 445.863 54.4114 446.05 54.4326C446.338 54.4643 446.546 54.5377 446.9 54.5325C447.234 54.5273 447.561 54.5052 447.895 54.497C448.102 54.492 448.296 54.5162 448.464 54.5574C448.638 54.5986 448.825 54.6167 449.052 54.6071C449.379 54.5942 449.713 54.5783 450.047 54.57C450.141 54.5683 450.248 54.582 450.335 54.5941C450.522 54.6214 450.703 54.6534 450.884 54.6823C451.211 54.6725 451.545 54.6688 451.865 54.6498C452.112 54.6356 452.286 54.6414 452.487 54.6718C452.741 54.7129 452.949 54.7862 453.363 54.7502C453.57 54.7329 453.81 54.7371 454.017 54.7214C454.271 54.701 454.445 54.7083 454.626 54.7541C454.967 54.8411 455.395 54.8419 455.836 54.8073C456.316 54.7696 456.677 54.812 457.039 54.879C457.421 54.949 457.421 54.9475 457.717 55.1175C457.804 55.1665 458.051 55.1891 458.258 55.1795C458.606 55.1636 458.906 55.1707 459.161 55.2287C459.429 55.2912 459.749 55.2829 460.077 55.2655C460.511 55.2417 460.945 55.221 461.3 55.3094C461.474 55.3522 461.661 55.3626 461.895 55.3514C462.556 55.3226 463.224 55.3046 463.871 55.2696C464.265 55.2475 464.493 55.2962 464.761 55.3372C465.122 55.3934 465.517 55.4435 465.518 55.5648C465.519 55.5848 465.613 55.6077 465.693 55.6229C465.867 55.6549 466.054 55.6822 466.235 55.7126C466.503 55.7582 466.764 55.7962 467.131 55.771C467.451 55.7504 467.792 55.7437 468.119 55.7293C468.446 55.7149 468.747 55.7067 469.042 55.7646C469.383 55.83 469.745 55.8924 470.133 55.9409C470.407 55.9758 470.767 55.9152 471.062 55.9623C471.242 55.9912 471.416 56.0247 471.61 56.0489C471.691 56.0596 471.818 56.0517 471.924 56.0484C472.145 56.0419 472.372 56.0369 472.586 56.0211C472.833 56.0038 473.02 56.0066 473.207 56.0416C473.381 56.0735 473.555 56.1178 473.756 56.1266C474.057 56.1399 474.39 56.0779 474.691 56.1481C474.846 56.1831 475.04 56.2166 475.24 56.227C475.441 56.2374 475.674 56.214 475.888 56.2151C475.982 56.215 476.095 56.2393 476.149 56.2592C476.183 56.2699 476.136 56.2992 476.09 56.3146C476.03 56.3332 475.943 56.3579 475.856 56.3611C475.195 56.3899 474.534 56.4141 473.873 56.4414C473.479 56.4574 473.479 56.4574 472.683 56.362C472.496 56.3393 472.289 56.3443 472.055 56.3554C471.741 56.3698 471.421 56.3965 471.093 56.3694C470.664 56.2657 470.137 56.2574 469.576 56.2983C469.342 56.3156 469.128 56.316 468.954 56.2871C468.586 56.2293 468.198 56.1763 467.87 56.1077C467.615 56.0544 467.495 56.05 467.389 56.1239C467.356 56.147 467.323 56.1716 467.33 56.1931C467.371 56.2699 467.445 56.345 467.486 56.4218C467.5 56.4432 467.447 56.4679 467.414 56.491C467.308 56.5557 467.167 56.5514 466.933 56.498C466.698 56.4446 466.417 56.4098 466.043 56.435C465.723 56.4571 465.376 56.4546 465.055 56.4782C464.561 56.5129 464.213 56.4643 463.858 56.3989C463.785 56.3852 463.658 56.3777 463.564 56.3809C462.569 56.418 461.581 56.4597 460.586 56.4967C460.372 56.5048 460.178 56.4821 460.011 56.4409C459.837 56.3997 459.643 56.3785 459.429 56.3866C458.547 56.4204 457.666 56.4511 456.785 56.4926C456.424 56.5101 456.137 56.4906 455.889 56.4373C455.701 56.3977 455.527 56.3857 455.294 56.3907C455.04 56.3957 454.86 56.4114 454.733 56.4562C454.614 56.4994 454.701 56.5254 454.968 56.5587C455.256 56.5951 455.524 56.6423 455.798 56.6848C456.019 56.6783 456.239 56.6656 456.453 56.6667C456.546 56.6666 456.634 56.6941 456.727 56.7093C456.995 56.7534 457.243 56.7975 457.623 56.7723C457.944 56.7502 458.284 56.745 458.611 56.7306C459.065 56.7129 459.065 56.7129 459.801 56.8084C459.989 56.8327 460.189 56.8308 460.43 56.8166C460.636 56.8054 460.851 56.8266 460.998 56.8724C461.058 56.8907 461.039 56.9215 460.913 57.0231C460.914 57.0984 461.054 57.0644 461.1 57.0151C461.173 56.9443 461.032 56.9215 460.765 56.9604C460.579 56.9884 460.486 57.0285 460.533 57.0607C460.56 57.0775 460.687 57.0988 460.913 57.0231C461.5 56.9299 461.947 56.9184 462.375 56.8931C462.628 56.8788 462.789 56.8847 462.99 56.9243C463.231 56.9715 463.472 57.0218 463.866 56.9965C464.293 56.9681 464.747 56.9642 465.181 56.9404C465.582 56.9182 465.79 56.9855 466.044 57.025C466.352 57.0721 466.692 57.0177 466.973 57.0449C467.267 57.072 467.475 57.1392 467.816 57.1509C468.31 57.1086 468.625 57.1849 468.999 57.2349C469.294 57.2728 469.641 57.2384 469.954 57.221C470.308 57.2019 470.603 57.2183 470.85 57.2732C471.132 57.3357 471.446 57.3213 471.766 57.3069C472.514 57.2749 472.541 57.2702 472.976 57.354C473.29 57.4149 473.591 57.3867 473.905 57.3785C474.179 57.4195 474.447 57.4636 474.735 57.5C474.808 57.509 474.948 57.4934 475.062 57.4886C475.389 57.4758 475.723 57.4629 476.05 57.4501C476.271 57.442 476.504 57.4185 476.705 57.4274C476.905 57.4378 477.073 57.4821 477.253 57.511C477.434 57.5398 477.622 57.5687 477.796 57.5991C478.063 57.6447 478.318 57.6827 478.692 57.659C479.012 57.6385 479.346 57.6318 479.68 57.6174C480.1 57.5997 480.087 57.6044 480.87 57.6952C481.291 57.7451 481.725 57.6829 482.152 57.6761C482.366 57.6726 482.573 57.6892 482.721 57.7335C482.781 57.7518 482.762 57.7825 482.782 57.8086C481.68 57.852 480.572 57.8893 479.483 57.9419C479.063 57.9626 478.842 57.9076 478.614 57.8619C478.239 57.7888 477.746 57.8972 477.391 57.8026C477.176 57.7461 476.868 57.7144 476.501 57.7427C476.288 57.7584 476.06 57.7573 475.84 57.7715C475.279 57.8063 474.765 57.8087 474.316 57.7035C474.162 57.6669 473.941 57.6473 473.781 57.6122C473.593 57.5742 473.412 57.5529 473.192 57.561C472.197 57.5996 471.209 57.6382 470.221 57.6799C470.134 57.6831 470.047 57.7063 469.974 57.7233C469.787 57.7667 469.848 57.8004 470.149 57.8275C470.249 57.8365 470.33 57.8563 470.423 57.8716C470.604 57.9004 470.772 57.9462 470.972 57.9566C471.173 57.967 471.406 57.9451 471.627 57.9371C471.847 57.929 472.081 57.9056 472.281 57.9144C472.482 57.9248 472.649 57.9691 472.837 57.9964C472.924 58.0101 473.031 58.033 473.118 58.0313C473.559 58.0213 473.993 58.0036 474.433 57.989C474.708 58.03 474.942 58.0896 475.27 58.1028C475.477 58.1117 475.697 58.0944 475.911 58.0971C476.005 58.0985 476.125 58.1213 476.172 58.1412C476.199 58.1534 476.113 58.1843 476.046 58.1998C475.793 58.2586 475.445 58.2485 475.132 58.2674C474.791 58.288 474.484 58.2824 474.222 58.2229C474.048 58.1833 473.854 58.1621 473.64 58.1702C473.086 58.1911 472.539 58.2151 471.984 58.233C471.891 58.2362 471.777 58.2226 471.69 58.212C470.988 58.1195 470.988 58.1164 470.493 58.1372C469.766 58.1677 469.766 58.1677 469.277 58.0871C469.183 58.0719 469.083 58.0429 469.002 58.0446C468.228 58.0705 467.46 58.0964 466.692 58.1331C466.438 58.1443 466.265 58.1446 466.077 58.105C465.916 58.0714 465.729 58.0333 465.528 58.0245C465.321 58.0156 465.094 58.0391 464.874 58.0471C464.654 58.0552 464.42 58.0756 464.226 58.0636C464.026 58.0517 463.851 58.009 463.677 57.9785C463.496 57.9466 463.303 57.9484 463.056 57.9612C462.295 57.9978 462.288 57.9932 461.532 57.8993C461.445 57.8887 461.331 57.8766 461.238 57.8798C460.683 57.8992 460.136 57.9232 459.582 57.9426C459.368 57.9507 459.16 57.9311 459.013 57.8868C458.953 57.8684 458.972 57.8377 458.932 57.7778C458.885 57.7641 458.938 57.7886 458.952 57.8116C459.052 57.8084 459.172 57.8112 459.246 57.7988C459.432 57.7693 459.525 57.7307 459.478 57.6985C459.451 57.6817 459.324 57.6604 459.244 57.6605C459.097 57.6608 458.971 57.6948 458.932 57.7778C458.511 57.8293 458.064 57.8408 457.63 57.8661C457.376 57.8819 457.216 57.8745 457.015 57.8349C456.774 57.7862 456.526 57.739 456.132 57.7642C455.705 57.7926 455.251 57.7981 454.81 57.8203C454.303 57.8458 454.08 57.7079 453.653 57.7117C453.212 57.7155 452.771 57.7424 452.331 57.7616C451.943 57.7777 451.943 57.7777 451.141 57.6792C450.846 57.6428 450.499 57.6972 450.212 57.6593C450.018 57.6351 449.85 57.5985 449.663 57.5727C449.583 57.5621 449.456 57.5623 449.355 57.5655C448.801 57.5849 448.24 57.5982 447.706 57.6329C447.099 57.6739 446.637 57.6317 446.202 57.5418C445.654 57.5597 445.1 57.5699 444.559 57.6C444.165 57.6222 443.937 57.5719 443.67 57.5309C443.576 57.5172 443.496 57.4943 443.395 57.4883C443.295 57.4824 443.175 57.4949 443.068 57.4996C442.627 57.5173 442.173 57.5258 441.746 57.5542C441.219 57.5904 441.017 57.4648 440.609 57.4501C440.336 57.5259 440.19 57.6291 439.649 57.6377C439.208 57.6446 438.768 57.67 438.327 57.6876C438.107 57.6957 437.886 57.7053 437.666 57.7134C437.312 57.7278 437.146 57.788 437.22 57.8801C437.261 57.9307 437.295 57.9813 437.329 58.032C437.397 58.1225 437.231 58.1996 436.951 58.2108C436.176 58.2414 435.408 58.2734 434.633 58.3009C434.426 58.3089 434.226 58.2832 434.058 58.242C433.884 58.2008 433.69 58.1827 433.476 58.1908C432.702 58.2213 431.934 58.2534 431.159 58.2808C431.072 58.284 430.959 58.2689 430.872 58.2567C430.684 58.2294 430.504 58.1975 430.323 58.1686C429.882 58.1832 429.448 58.1931 429.014 58.2123C428.313 58.2412 428.313 58.2427 427.797 58.1591C427.704 58.1439 427.61 58.1149 427.523 58.1166C427.189 58.1233 426.862 58.1393 426.528 58.1537C425.546 58.1953 425.546 58.1953 425.259 58.1497C424.997 58.1072 424.763 58.0553 424.369 58.0806C423.942 58.109 423.488 58.119 423.047 58.1351C422.72 58.1464 422.393 58.1593 422.065 58.163C421.978 58.1646 421.885 58.1356 421.791 58.1204C421.523 58.0732 421.262 58.0353 420.895 58.062C420.681 58.0778 420.454 58.0813 420.234 58.0893C419.66 58.1118 419.66 58.1118 418.717 58.0213C418.623 58.0122 418.509 58.0017 418.416 58.0064C417.641 58.0354 416.873 58.0675 416.099 58.095C416.005 58.0982 415.891 58.0892 415.798 58.0816C414.741 57.9944 414.741 57.9944 413.619 58.0393C413.192 58.0555 413.179 58.0616 412.73 57.981C412.529 57.946 412.362 57.9294 412.128 57.9405C411.247 57.9789 410.359 58.0051 409.484 58.0496C409.09 58.0687 408.863 58.023 408.595 57.982C408.501 57.9683 408.401 57.9378 408.32 57.9395C407.439 57.9702 406.557 58.0071 405.676 58.0378C405.596 58.041 405.495 58.0104 405.402 57.9968C405.221 57.9694 405.047 57.9283 404.846 57.9194C404.639 57.9105 404.412 57.934 404.185 57.942C403.631 57.963 403.631 57.9614 402.988 57.8719C402.901 57.8598 402.788 57.8431 402.701 57.8463C401.819 57.8786 400.931 57.9062 400.057 57.9523C399.556 57.9777 399.214 57.9338 398.86 57.8699C398.786 57.8562 398.659 57.8502 398.566 57.8535C397.571 57.8905 396.582 57.9322 395.587 57.9693C395.38 57.9773 395.18 57.9515 395.012 57.9119C394.744 57.8494 394.43 57.8576 394.096 57.872C393.329 57.9056 393.322 57.9041 392.867 57.8311C392.773 57.8159 392.693 57.7961 392.592 57.7886C392.499 57.7811 392.378 57.7859 392.278 57.7891C391.838 57.8052 391.397 57.8229 390.956 57.8406C390.515 57.8582 390.068 57.8682 389.634 57.8951C389.1 57.9283 388.845 57.8289 388.47 57.7834C387.923 57.8044 387.362 57.8176 386.821 57.8508C386.407 57.8761 386.212 57.8089 385.938 57.774C385.844 57.7619 385.744 57.7359 385.657 57.7392C384.662 57.7747 383.667 57.8133 382.679 57.8565C382.438 57.8661 382.278 57.8541 382.077 57.8176C381.629 57.7354 381.609 57.7385 380.861 57.7705C380.533 57.7849 380.22 57.7978 379.938 57.7353C379.69 57.6789 379.39 57.6655 379.036 57.6846C378.602 57.7084 378.154 57.7215 377.714 57.7376C377.273 57.7553 376.832 57.7791 376.392 57.7875C376.038 57.7958 375.823 57.724 375.542 57.6876C375.455 57.677 375.335 57.6757 375.234 57.6789C374.794 57.6935 374.34 57.705 373.912 57.7319C373.392 57.7651 373.103 57.6811 372.735 57.6326C372.655 57.6219 372.521 57.6283 372.421 57.6331C371.647 57.6621 370.879 57.6942 370.104 57.7247C369.83 57.6837 369.549 57.6442 369.274 57.6032C368.833 57.6194 368.393 57.637 367.952 57.6531C367.618 57.666 367.278 57.6712 366.964 57.6948C366.557 57.7262 366.355 57.6544 366.081 57.6195C365.987 57.6074 365.887 57.5815 365.8 57.5847C365.246 57.6025 364.692 57.6219 364.144 57.649C363.623 57.676 363.415 57.5381 362.987 57.5404C362.546 57.5427 362.092 57.5635 361.665 57.5919C361.171 57.625 360.823 57.5764 360.468 57.511C360.394 57.4973 360.267 57.4898 360.174 57.493C359.62 57.5124 359.072 57.5364 358.518 57.5558C358.424 57.5591 358.311 57.5516 358.217 57.5425C357.16 57.4537 357.16 57.4522 356.7 57.4714C356.372 57.4843 356.039 57.5002 355.705 57.5085C355.611 57.5117 355.497 57.4981 355.41 57.486C354.714 57.3935 354.714 57.3919 354.214 57.4112C353.773 57.4289 353.332 57.4465 352.891 57.4642C352.617 57.4232 352.336 57.3838 352.062 57.3428C351.514 57.3637 350.953 57.38 350.412 57.4086C350.159 57.4213 349.992 57.417 349.797 57.3789C349.556 57.3333 349.315 57.2799 348.915 57.3067C348.487 57.3351 348.033 57.339 347.599 57.3628C347.078 57.3913 346.863 57.2519 346.442 57.2542C346.001 57.2565 345.547 57.2772 345.12 57.3056C344.626 57.3388 344.278 57.2902 343.923 57.2248C343.849 57.2111 343.722 57.2036 343.629 57.2068C342.414 57.2535 341.205 57.3001 339.99 57.3499C339.242 57.3804 339.242 57.3819 337.818 57.2999C337.718 57.2939 337.61 57.288 337.51 57.2912C337.07 57.3058 336.615 57.3173 336.188 57.3442C335.667 57.3774 335.379 57.2949 335.011 57.2448C334.931 57.2342 334.804 57.2406 334.697 57.2438C334.363 57.2552 334.036 57.2696 333.702 57.2825C333.262 57.3001 332.821 57.3178 332.38 57.3355C332.106 57.296 331.825 57.255 331.55 57.2155C331.003 57.2364 330.442 57.2482 329.901 57.2814C329.487 57.3067 329.292 57.2425 329.018 57.2061C328.924 57.194 328.824 57.168 328.737 57.1697C327.742 57.2052 326.747 57.2423 325.759 57.287C325.352 57.3062 325.164 57.2374 324.889 57.2025C324.796 57.1919 324.689 57.1721 324.602 57.1754C323.941 57.198 323.28 57.2253 322.619 57.2525C322.245 57.2686 322.245 57.2686 321.429 57.1747C321.335 57.1641 321.228 57.1536 321.134 57.1568C319.038 57.2372 316.948 57.3223 314.851 57.4028C314.637 57.4108 314.443 57.3881 314.276 57.3469C314.101 57.3057 313.907 57.2846 313.694 57.2926C312.812 57.3264 311.924 57.3572 311.049 57.3986C310.689 57.4161 310.401 57.3967 310.153 57.3433C309.966 57.3037 309.792 57.2886 309.558 57.2983C309.118 57.3175 308.677 57.3336 308.236 57.3513C307.796 57.3689 307.355 57.3866 306.914 57.4043C306.473 57.4219 306.026 57.4319 305.592 57.4588C305.058 57.492 304.796 57.3972 304.428 57.3502C303.767 57.3744 303.106 57.3986 302.452 57.4243C301.57 57.4581 300.689 57.495 299.807 57.5272C299.727 57.5304 299.627 57.503 299.533 57.4893C299.259 57.4514 299.058 57.3979 298.65 57.4155C296.674 57.5004 294.684 57.573 292.701 57.6563C292.287 57.6739 292.105 57.6082 291.824 57.5733C291.731 57.5627 291.624 57.5414 291.537 57.5447C290.435 57.585 289.333 57.6299 288.232 57.6733C287.784 57.691 287.784 57.691 287.035 57.597C286.948 57.5864 286.834 57.5728 286.74 57.576C285.305 57.6307 283.876 57.6885 282.44 57.7448C282.226 57.7529 282.033 57.7317 281.858 57.6905C281.691 57.6493 281.49 57.6266 281.283 57.6347C279.961 57.6861 278.632 57.7361 277.317 57.7921C276.963 57.8081 276.669 57.7948 276.414 57.7399C276.233 57.7003 276.053 57.6837 275.826 57.6933C273.842 57.772 271.859 57.8477 269.876 57.931C269.495 57.9471 269.228 57.9183 268.987 57.868C268.793 57.8284 268.625 57.821 268.385 57.8276C268.131 57.8357 267.978 57.8529 267.838 57.8992C267.658 57.9594 267.546 58.0349 267.118 58.0403C266.677 58.0457 266.23 58.0649 265.796 58.0917C265.382 58.1186 265.188 58.0498 264.927 58.0088C264.732 57.9799 264.552 57.9756 264.305 57.9899C264.078 58.0025 263.938 58.0289 263.805 58.0783C263.512 58.1833 263.486 58.1833 263.124 58.1179C262.93 58.0829 262.756 58.0555 262.542 58.062C261.661 58.0943 260.779 58.1296 259.898 58.1665C259.39 58.1874 259.384 58.1904 259.002 58.1143C258.815 58.0762 258.634 58.0581 258.414 58.0677C255.99 58.1641 253.566 58.2574 251.142 58.3584C250.768 58.3744 250.514 58.3426 250.246 58.297C250.159 58.2817 250.072 58.2604 249.972 58.2544C249.871 58.2484 249.758 58.2548 249.651 58.258C247.888 58.3272 246.118 58.3932 244.362 58.47C243.962 58.4876 243.747 58.4388 243.473 58.3994C243.379 58.3857 243.299 58.3643 243.198 58.3584C243.098 58.3539 242.978 58.3649 242.871 58.3697C241.108 58.4388 239.339 58.5049 237.583 58.5817C237.162 58.5993 236.981 58.5351 236.707 58.5018C236.613 58.4896 236.512 58.4668 236.426 58.47C235.871 58.4878 235.324 58.5118 234.77 58.5328C233.447 58.5858 232.125 58.6357 230.803 58.6902C230.296 58.7111 230.073 58.5747 229.646 58.5816C229.092 58.5903 228.544 58.6219 227.99 58.6444C227.549 58.6621 227.109 58.6782 226.668 58.6974C226.234 58.7151 226.234 58.7151 225.15 58.6278C225.057 58.6203 224.943 58.6098 224.85 58.613C223.307 58.6725 221.758 58.7321 220.222 58.7962C219.868 58.8106 219.574 58.8034 219.32 58.747C219.139 58.7074 218.952 58.6878 218.731 58.6974C216.414 58.789 214.104 58.8805 211.787 58.9706C211.7 58.9738 211.586 58.9587 211.499 58.9465C211.312 58.9192 211.131 58.8872 210.95 58.8584C210.817 58.8939 210.644 58.9265 210.557 58.9666C210.438 59.0206 210.278 59.0362 210.024 59.0459C209.77 59.0555 209.61 59.0527 209.409 59.0131C209.168 58.9644 208.92 58.9264 208.526 58.9425C206.102 59.0435 203.678 59.1352 201.254 59.2347C200.854 59.2508 200.666 59.1835 200.385 59.1486C200.291 59.138 200.184 59.1213 200.097 59.1246C199.102 59.1616 198.114 59.2018 197.119 59.2404C194.361 59.3496 191.603 59.4543 188.852 59.5697C188.352 59.5905 188.01 59.5527 187.655 59.4872C187.582 59.4735 187.455 59.4661 187.361 59.4693C183.502 59.6204 179.642 59.7731 175.789 59.9257C175.582 59.9338 175.381 59.9095 175.214 59.8699C175.04 59.8287 174.846 59.8091 174.632 59.8171C172.869 59.8862 171.106 59.9554 169.344 60.026C168.903 60.0437 168.896 60.0452 168.441 59.9723C168.347 59.9571 168.247 59.9281 168.173 59.9313C168.02 59.9392 167.873 59.9779 167.767 60.0303C167.661 60.0858 167.494 60.1014 167.247 60.1126C166.993 60.1238 166.826 60.1195 166.632 60.083C166.384 60.0373 166.156 59.9932 165.756 60.0092C160.688 60.2147 155.619 60.4124 150.551 60.6163C150.144 60.6324 149.956 60.5682 149.675 60.5334C149.581 60.5228 149.488 60.5076 149.387 60.5047C149.28 60.5018 149.167 60.5112 149.06 60.516C140.793 60.8422 132.527 61.17 124.26 61.4962C123.766 61.5155 123.773 61.5155 123.233 61.6578C123.167 61.6748 123.08 61.698 122.986 61.7012C120.456 61.804 117.918 61.9036 115.381 62.0033C114.279 62.0467 113.177 62.0916 112.076 62.1335C111.682 62.148 111.682 62.148 110.742 62.3155C110.662 62.3295 110.568 62.3481 110.475 62.3513C106.068 62.5265 101.66 62.7016 97.2466 62.8736C96.8993 62.8865 96.6191 62.9147 96.4597 62.9887C96.3467 63.0411 96.2002 63.0721 95.9798 63.0817C92.8948 63.2038 89.8099 63.3275 86.7182 63.4465C86.3509 63.461 86.1309 63.5044 85.9513 63.5692C85.8915 63.5908 85.8383 63.6155 85.7516 63.631C85.6716 63.645 85.5515 63.6498 85.4513 63.6546C82.807 63.759 80.1628 63.8666 77.5118 63.9664C77.1178 63.9809 76.9581 64.0381 76.7651 64.0983C76.6985 64.1184 76.6521 64.1461 76.5654 64.1601C76.4787 64.1726 76.3518 64.1728 76.2449 64.176C74.0414 64.2628 71.8379 64.3511 69.6343 64.4379C69.2066 64.431 69.1141 64.5203 68.9077 64.5744C68.8344 64.593 68.7814 64.6176 68.6947 64.6301C68.6013 64.6425 68.4809 64.6412 68.3674 64.6445C66.6045 64.7136 64.8417 64.7873 63.0721 64.8518C62.6648 64.8664 62.5855 64.9449 62.3657 64.999C62.2925 65.016 62.2194 65.0423 62.1326 65.0471C61.0308 65.0935 59.9291 65.1369 58.8273 65.1788C58.46 65.1932 58.46 65.1917 57.8138 65.3449C57.7405 65.362 57.6538 65.3805 57.5604 65.3853C55.911 65.4527 54.2551 65.517 52.599 65.5829C52.3854 65.5909 52.2389 65.6281 52.1326 65.6805C52.0264 65.7329 51.8732 65.767 51.6595 65.775C50.3373 65.828 49.0151 65.8826 47.6929 65.9309C47.3256 65.9439 47.0856 65.9827 46.9262 66.0521C46.8065 66.1046 46.6599 66.1309 46.4262 66.1405C45.104 66.192 43.782 66.2481 42.4531 66.2934C42.0657 66.3064 41.8659 66.3589 41.7063 66.4237C41.58 66.4762 41.4333 66.4949 41.1862 66.5045C38.7622 66.5979 36.3317 66.6912 33.9145 66.7937C33.5072 66.8113 33.2994 66.7579 33.0317 66.72C32.6503 66.6668 32.2956 66.6091 32.2941 66.4892C32.2939 66.4708 32.18 66.4495 32.0997 66.4343C31.5037 66.3201 31.5037 66.3201 31.4087 66.1974C31.3543 66.1222 31.2932 66.0455 31.2455 65.9687C31.1572 65.8429 30.9429 65.811 30.3286 65.8351C30.1082 65.8432 29.8879 65.8543 29.6675 65.8608C29.3403 65.8722 29.0925 65.8219 29.0313 65.7298C28.9973 65.6792 28.9566 65.6286 28.9226 65.5779C29.2565 65.565 29.2497 65.5635 29.8353 65.3766C30.0816 65.2978 30.0817 65.2978 29.6064 65.2203C29.4257 65.1914 29.2515 65.1595 29.0574 65.1321C28.9704 65.12 28.8568 65.1125 28.7633 65.1158C28.2091 65.1352 27.6615 65.1576 27.114 65.1801C26.2326 65.2154 26.2325 65.2154 25.3354 65.0603C25.2617 65.0481 25.1479 65.0253 25.1611 65.0129C25.2339 64.956 25.4139 64.9311 25.641 64.9245C25.9749 64.9147 26.3021 64.8988 26.6293 64.8859C26.8496 64.8779 27.07 64.8683 27.2903 64.8602C27.4967 64.8015 27.7099 64.7443 27.9029 64.684C28.2091 64.5913 28.209 64.5882 27.7873 64.5244C27.5196 64.4819 27.2318 64.444 26.9574 64.4045C26.6302 64.4174 26.2964 64.4318 25.9692 64.4431C25.5552 64.4576 25.3878 64.4287 25.2797 64.3291C25.1851 64.2416 25.2977 64.1662 25.6182 64.1472C25.9453 64.1282 26.2526 64.1154 26.4186 64.0367C26.5781 63.9612 26.8582 63.9315 27.2056 63.9247C27.426 63.9197 27.6463 63.9086 27.8666 63.899C28.1537 63.8862 28.3065 63.8076 28.2453 63.7201C28.2112 63.6633 28.1438 63.6158 27.8831 63.604C26.7267 63.5522 26.7133 63.5538 26.1375 63.4503C26.0839 63.4412 26.0436 63.4136 26.0635 63.3998C26.0966 63.3767 26.1697 63.3427 26.2498 63.338C27.0177 63.3028 27.7855 63.2708 28.5535 63.2464C28.8073 63.2383 28.9942 63.2272 29.0804 63.1702C29.1997 63.0916 29.1453 63.0195 28.9109 62.9662C28.8372 62.9494 28.7166 62.9281 28.6364 62.9298C27.7549 62.959 26.8802 62.9958 25.9987 63.025C25.9186 63.0282 25.7714 63.0024 25.7377 62.9824C25.6705 62.9457 25.77 62.8964 26.0036 62.879C26.3107 62.8555 26.6246 62.8534 26.8308 62.7762C27.1167 62.6666 27.4695 62.5662 27.7889 62.4611C27.8422 62.4426 27.9287 62.4071 27.9086 62.4041C27.7412 62.3706 27.5471 62.3448 27.373 62.3128C27.0784 62.2596 27.0774 62.1843 27.1434 62.112C27.1961 62.0535 27.3962 62.0301 27.6434 62.0297C27.7503 62.0295 27.8839 62.0293 27.9706 62.0153C28.1973 61.9811 28.2703 61.9379 28.1563 61.9059C28.0893 61.8876 27.9688 61.8617 27.8887 61.8649C26.4596 61.9181 25.0238 61.9697 23.6016 62.0352C23.181 62.0543 22.9867 61.9963 22.7323 61.9552C22.5382 61.9233 22.3575 61.9113 22.1173 61.9348C21.8904 61.9567 21.6699 61.9448 21.529 61.8944C21.4149 61.8531 21.6149 61.8174 22.1555 61.7765C22.2556 61.7686 22.3691 61.7638 22.4424 61.7483C23.2153 61.5811 23.2153 61.5795 23.7494 61.5571C24.2703 61.5362 24.2704 61.5347 24.5432 61.4451C24.6696 61.4034 24.8093 61.3617 24.929 61.3185C24.9756 61.3015 25.0555 61.2706 25.0287 61.2614C24.8811 61.2141 24.6805 61.2037 24.4468 61.2148C23.926 61.2419 23.3112 61.2214 23.0391 61.3678C22.9329 61.4233 22.7661 61.439 22.5257 61.4486C20.1084 61.5419 17.6911 61.6414 15.2671 61.7316C14.8731 61.7461 14.6935 61.8033 14.5407 61.8665C14.4077 61.919 14.2609 61.9346 14.0071 61.9443C13.7534 61.9539 13.5529 61.9589 13.4053 61.9085C13.3181 61.8779 13.3911 61.8347 13.591 61.7914C13.8775 61.7294 13.8231 61.6527 13.7287 61.5807C13.6613 61.5332 13.4538 61.4997 13.2334 61.5032C12.9061 61.5099 12.5924 61.5273 12.3177 61.4663C12.157 61.4313 11.9562 61.407 11.7755 61.3766C11.4273 61.3142 11.0791 61.2503 10.592 61.2927C10.2577 61.2779 10.0232 61.223 9.7555 61.1804C9.30704 61.1105 9.26683 61.0998 9.58658 61.024C9.9463 60.9389 9.66432 60.8288 9.86372 60.7454C10.0764 60.656 10.3695 60.5771 10.629 60.4937C10.6956 60.4721 10.7555 60.452 10.822 60.4304C10.668 60.3999 10.5273 60.3618 10.3466 60.3406C10.1125 60.3133 9.99181 60.2797 10.004 60.1845C9.95708 60.1707 9.97742 60.206 10.031 60.2151C10.0912 60.2242 10.2382 60.2163 10.3116 60.2054C10.4983 60.1759 10.5912 60.1373 10.5441 60.1052C10.5171 60.0883 10.39 60.067 10.3099 60.0672C10.1629 60.0674 10.0364 60.1014 9.99733 60.1845C9.24987 60.2488 8.47517 60.2808 7.70053 60.3068C7.6204 60.31 7.51987 60.2794 7.42616 60.2642C7.11822 60.2125 7.1182 60.214 6.21613 60.2002C6.12259 60.1989 5.99546 60.1776 5.94843 60.1562C5.75356 60.0628 5.75904 59.9598 5.66429 59.8601C5.8372 59.7953 6.00999 59.732 6.1896 59.6687C6.5488 59.5406 7.01518 59.4276 7.29406 59.2873C7.23302 59.2122 7.15192 59.137 7.44512 59.0751C8.27926 58.9968 8.27263 58.9968 8.49887 58.9227C9.14434 58.7126 9.78307 58.501 10.4553 58.294C10.635 58.2399 10.6347 58.2107 10.3137 58.1882C10.2135 58.1823 10.1064 58.1809 9.99956 58.1842C9.66566 58.1955 9.33198 58.2237 9.00456 58.2181C8.67715 58.2141 8.43583 58.1469 8.1681 58.1059C7.89367 58.0634 7.61924 58.0193 7.3448 57.9752C7.03087 57.9804 6.71746 58.0239 6.40263 57.9553C6.16148 57.902 5.86041 57.8641 5.58596 57.82C5.79164 57.7029 6.17808 57.6131 6.47746 57.5097C6.75022 57.4155 6.75677 57.417 7.49075 57.3435C7.83773 57.3091 7.95587 57.1353 7.66131 57.0851C7.30649 57.0243 6.93177 56.9681 6.57031 56.9103C6.25637 56.9155 5.93628 56.9575 5.63481 56.8889C5.40036 56.8371 5.13265 56.8022 4.74542 56.8229C4.09114 56.8578 3.42331 56.8759 2.76227 56.9047C2.53524 56.9143 2.28791 56.9086 2.18707 56.8565C2.11981 56.8198 2.31295 56.7687 2.53327 56.7576C2.86711 56.7416 3.16748 56.7227 3.33356 56.6456C3.49296 56.5685 3.78659 56.5449 4.13385 56.5336C4.22734 56.5303 4.33408 56.5117 4.38062 56.4932C4.62004 56.4037 4.88635 56.3264 5.40079 56.3286C5.61419 56.2975 5.72722 56.2589 5.65997 56.2221C5.61964 56.2022 5.4791 56.1763 5.39897 56.1796C4.84467 56.1959 4.29039 56.2122 3.7496 56.2408C3.49589 56.2535 3.30209 56.2569 3.14119 56.2111C3.02725 56.1806 3.08686 56.139 3.3001 56.0941C3.48669 56.0554 3.53965 56.0107 3.52565 55.9585C3.49077 55.8372 3.28988 55.8022 2.64864 55.811C2.18776 55.8179 2.07394 55.7982 1.97246 55.6939C1.94544 55.6693 1.87834 55.6357 1.9249 55.6187C2.21089 55.5137 2.39639 55.3843 2.93692 55.3342C3.15047 55.3154 3.37752 55.315 3.51064 55.2749C3.64377 55.2347 3.76351 55.1884 3.90334 55.1497C4.07647 55.1033 4.19608 55.0601 4.11556 55.0311C3.98131 54.9791 3.76755 54.9748 3.52059 54.9937C3.307 55.0094 3.07989 55.0114 2.85954 55.021C2.46559 55.0385 2.14451 54.9992 2.09693 54.9316C1.96783 54.7537 1.83202 54.5772 1.71629 54.3992C1.70266 54.3777 1.73564 54.35 1.78886 54.3315C1.97513 54.2666 2.17488 54.2048 2.36784 54.1415C2.5941 54.0689 2.95508 54.0821 3.26222 54.0677C3.69621 54.047 3.69608 54.0485 4.2755 53.9C4.50192 53.8413 4.89638 53.8636 5.12956 53.811C5.20284 53.794 5.31608 53.7661 5.29585 53.7508C5.26888 53.7309 5.13515 53.7157 5.03483 53.7067C4.94119 53.6976 4.82759 53.6932 4.72744 53.698C3.51212 53.7447 2.30355 53.7944 1.08821 53.8395C0.881209 53.8476 0.653651 53.8142 0.579585 53.7667C0.505557 53.7222 0.524879 53.6684 0.5109 53.6178C0.70387 53.5544 0.923533 53.4957 1.08972 53.4278C1.21602 53.3753 1.36274 53.352 1.61656 53.3485C1.95053 53.3433 2.27769 53.3243 2.65163 53.3098C3.34368 53.0843 4.02219 52.8481 4.76768 52.6225C5.06721 52.5313 4.99272 52.4393 5.05166 52.3424C5.1107 52.2532 5.55844 52.2662 5.85875 52.2396C6.09899 52.2177 6.17845 52.1684 6.08451 52.1347C6.03083 52.1149 5.91036 52.092 5.81683 52.0922C5.59637 52.0926 5.37609 52.1068 5.15572 52.1148C4.93536 52.1229 4.68145 52.1187 4.5014 52.1452C4.328 52.1701 4.215 52.2225 4.10198 52.2672C3.97564 52.3166 3.80895 52.3338 3.55513 52.3373C3.22782 52.341 2.90066 52.3553 2.57344 52.3667C2.21196 52.3074 1.83706 52.2497 1.48891 52.1873C1.42195 52.1751 1.40809 52.1398 1.41449 52.1167C1.42712 52.0568 1.32649 52.0201 1.10567 51.9913C0.918318 51.967 0.764222 51.932 0.590153 51.9015C0.72326 51.8598 0.869798 51.8196 0.976145 51.7749C1.20882 51.6808 1.50198 51.6127 2.00974 51.6149C2.20943 51.5546 2.36882 51.4806 2.62885 51.4386C2.87555 51.3983 3.29693 51.4375 3.48288 51.3465C3.57587 51.3018 3.71562 51.2508 3.89577 51.2321C4.18268 51.2024 4.55697 51.2171 4.72294 51.1308C4.82255 51.0815 4.96892 51.0367 5.16251 51.024C5.3828 51.0098 5.60984 51.0064 5.76982 50.9769C5.85648 50.9614 5.94972 50.9366 5.94946 50.9151C5.94929 50.9013 5.81552 50.88 5.72188 50.871C5.6349 50.8604 5.52111 50.8529 5.42094 50.8561C5.08702 50.8659 4.75989 50.8834 4.42597 50.8932C4.33248 50.8964 4.22549 50.8859 4.12517 50.8768C3.83093 50.8527 3.85056 50.822 4.0837 50.7663C4.31687 50.7121 4.48313 50.6427 4.6761 50.5793C4.88975 50.5682 5.15699 50.5724 5.30361 50.5429C5.55021 50.4949 5.72301 50.4254 5.9227 50.3652C6.14305 50.3556 6.37014 50.3521 6.57703 50.3348C6.6638 50.3285 6.70351 50.2947 6.77675 50.2746C6.90989 50.2359 7.02288 50.1804 7.20303 50.1617C7.49664 50.1335 7.85752 50.1436 8.03018 50.0588C8.12979 50.0095 8.28275 49.957 8.46977 49.9536C8.99078 49.9466 9.21021 49.8617 9.47646 49.7813C9.67615 49.7211 10.1041 49.7511 10.3238 49.6908C10.4703 49.6521 10.5767 49.6043 10.7232 49.5671C10.7832 49.5517 10.91 49.5438 11.0101 49.539C11.5576 49.515 12.1119 49.4971 12.6594 49.4716C12.7462 49.4668 12.8261 49.4437 12.8927 49.4251C13.0325 49.3849 13.1186 49.3295 13.292 49.3031C13.4654 49.2766 13.7125 49.2762 13.9262 49.2682C14.614 49.2439 14.6676 49.25 14.98 49.1188C15.2326 49.0124 15.8548 49.0866 16.0605 48.9695C16.1799 48.9017 16.3996 48.846 16.7937 48.8376C17.348 48.8259 17.8955 48.7957 18.4497 48.7748C18.9439 48.7555 18.9372 48.7555 19.4699 48.6117C19.7096 48.5468 20.0639 48.5554 20.3777 48.5426C20.7116 48.5297 21.0186 48.5107 21.178 48.4336C21.3375 48.3581 21.6311 48.333 21.9716 48.3216C22.2855 48.3103 22.6397 48.3174 22.8862 48.2555C23.4856 48.107 23.4789 48.1055 23.8996 48.0894C24.5607 48.0636 25.2218 48.0379 25.8828 48.0106C26.3235 47.993 26.7844 47.9891 27.1982 47.9546C27.4985 47.9295 27.6311 47.8432 27.8241 47.783C28.3716 47.759 28.9191 47.735 29.4666 47.7125C30.2345 47.6804 31.0091 47.6515 31.7837 47.6209C32.117 47.562 32.1623 47.4328 32.7234 47.4257C33.0574 47.4221 33.3845 47.4015 33.7184 47.3886C34.2726 47.3662 34.8201 47.3376 35.3744 47.3259C35.7952 47.3174 35.8676 47.2343 36.0874 47.1817C36.1607 47.1632 36.2272 47.1369 36.314 47.1322C37.1819 47.0877 38.077 47.0769 38.9246 47.0124C39.0114 47.0061 39.0912 46.9737 39.111 46.9506C39.1242 46.9383 39.0103 46.9155 38.9367 46.9049C38.8497 46.8927 38.736 46.8806 38.6425 46.8839C35.8847 46.9916 33.127 47.1009 30.3692 47.2086C29.9819 47.2246 29.9819 47.2231 29.042 47.3937C28.962 47.4077 28.8685 47.4232 28.7684 47.428C28.3277 47.4472 27.8802 47.4587 27.4463 47.4825C27.0924 47.5016 26.7983 47.4836 26.5438 47.4288C26.3629 47.3891 26.1757 47.3772 25.9486 47.3806C25.6947 47.3857 25.528 47.4029 25.3816 47.4446C25.1885 47.5018 25.0892 47.5757 24.6819 47.5918C22.8054 47.6611 20.929 47.7381 19.0593 47.812C18.7985 47.791 18.6712 47.7589 18.7375 47.7204C18.7773 47.6973 18.8571 47.6664 18.9372 47.6632C19.7051 47.6296 20.4797 47.6006 21.2476 47.5686C21.3544 47.5638 21.5014 47.5666 21.5614 47.5511C21.8545 47.4814 21.9601 47.3691 22.5145 47.3605C22.8351 47.3553 23.1621 47.3317 23.4692 47.3097C23.5559 47.3034 23.6357 47.271 23.6555 47.2479C23.662 47.2356 23.5548 47.2127 23.4745 47.2021C23.1801 47.1581 22.8401 47.2124 22.5458 47.1822C22.4454 47.1716 22.3049 47.1565 22.2846 47.1381C22.271 47.1212 22.3843 47.0934 22.4642 47.0763C22.5375 47.0609 22.6375 47.0469 22.7377 47.0421C23.6191 47.0052 24.5006 46.9668 25.3821 46.9376C25.7427 46.9262 25.996 46.8874 26.1555 46.8164C26.2751 46.764 26.4218 46.7361 26.6488 46.728C28.1913 46.6685 29.7337 46.6028 31.283 46.5479C31.6703 46.5349 31.8702 46.4839 32.0297 46.4176C32.156 46.3651 32.3028 46.3464 32.5498 46.3368C34.7601 46.253 36.9569 46.1601 39.1672 46.0795C39.5746 46.0649 39.6941 45.9986 39.9005 45.9414C39.9737 45.9213 40.0201 45.8967 40.1135 45.8842C40.2068 45.8718 40.3271 45.8731 40.4406 45.8698C42.2035 45.8007 43.9664 45.727 45.736 45.6625C46.1501 45.6479 46.2292 45.5709 46.4423 45.5168C46.5156 45.4998 46.5821 45.472 46.6689 45.4673C47.991 45.4127 49.3131 45.3613 50.6352 45.3083C51.5167 45.2729 52.3981 45.2376 53.2795 45.2038C53.7136 45.1877 53.7136 45.1862 54.2997 45.0392C54.3663 45.0222 54.4596 45.002 54.5464 44.9973C57.0838 44.8945 59.6146 44.7964 62.152 44.6952C62.3657 44.6872 62.5189 44.6516 62.6251 44.5992C62.7314 44.5467 62.8847 44.5111 63.0917 44.5031C65.0749 44.4228 67.0581 44.3441 69.048 44.2685C69.4086 44.2555 69.662 44.2182 69.8215 44.1488C69.9411 44.0964 70.0877 44.0685 70.3148 44.0604C72.298 43.9832 74.2813 43.9014 76.2712 43.8273C76.6519 43.8128 76.8382 43.7602 77.0245 43.6984C77.091 43.6768 77.1441 43.6414 77.2242 43.6382C78.2124 43.5934 79.1939 43.5472 80.1889 43.5163C80.603 43.5033 80.7425 43.4385 80.9088 43.3767C81.0418 43.3274 81.1953 43.3102 81.4491 43.3036C82.0034 43.2888 82.5509 43.2618 83.0917 43.2347C83.1718 43.23 83.2716 43.196 83.278 43.1745C83.2909 43.1345 83.1369 43.1071 82.8828 43.0937C80.2385 43.1982 77.5876 43.3026 74.9433 43.4071C74.5093 43.4247 74.5093 43.4247 73.9232 43.5717C73.8566 43.5887 73.7632 43.6089 73.6697 43.6136C71.1323 43.7148 68.6016 43.8145 66.0642 43.9157C65.8505 43.9237 65.6973 43.9593 65.591 44.0117C65.4848 44.0642 65.3314 44.0998 65.1244 44.1078C62.7005 44.2042 60.2767 44.3021 57.846 44.3939C57.4854 44.4068 57.232 44.4426 57.0726 44.5135C56.9529 44.566 56.8063 44.5939 56.5793 44.602C54.2622 44.692 51.9517 44.7867 49.6279 44.8737C49.3941 44.8818 49.22 44.8375 49.2328 44.796C49.2393 44.7745 49.3389 44.739 49.419 44.7358C50.6276 44.683 51.8296 44.6287 53.045 44.5882C53.4523 44.5752 53.5717 44.5073 53.7781 44.4501C53.8446 44.4301 53.8978 44.4038 53.9845 44.3929C54.0779 44.3805 54.1982 44.3818 54.3117 44.3786C57.1763 44.2645 60.041 44.1489 62.9124 44.041C63.3264 44.0249 63.4056 43.9495 63.6187 43.8953C63.6919 43.8768 63.7585 43.849 63.8453 43.8458C64.7267 43.8074 65.6081 43.7736 66.4895 43.7398C68.032 43.6787 69.5745 43.6177 71.1237 43.5566C71.5711 43.5389 71.5711 43.5389 72.1438 43.3935C72.2104 43.3765 72.3038 43.3548 72.3906 43.3516C76.4705 43.1894 80.5505 43.0271 84.6305 42.8664C84.8442 42.8583 84.9974 42.8227 85.1036 42.7703C85.2099 42.7194 85.3631 42.6823 85.57 42.6727C91.0856 42.4542 96.5946 42.2357 102.11 42.0202C102.471 42.0058 102.724 41.9731 102.884 41.9006C102.997 41.8481 103.15 41.8202 103.377 41.8106C109.44 41.5712 115.503 41.3317 121.573 41.0907C125.653 40.93 129.733 40.7662 133.813 40.6086C134.187 40.5941 134.387 40.5461 134.573 40.4828C134.633 40.4612 134.693 40.4258 134.773 40.4226C135.647 40.3826 136.522 40.3458 137.397 40.3089C137.671 40.3499 137.946 40.3894 138.22 40.4304C138.426 40.3717 138.626 40.3114 138.833 40.2527C140.155 40.2058 141.457 40.1344 142.792 40.1106C142.879 40.1089 142.973 40.1379 143.067 40.1531C143.689 40.2488 144.043 40.2405 144.436 40.1108C144.576 40.0645 144.695 40.0228 144.909 40.0147C145.57 39.9859 146.238 39.9663 146.892 39.9329C147.246 39.9154 147.54 39.9303 147.795 39.9851C147.976 40.0248 148.163 40.0414 148.383 40.0318C149.599 39.9835 150.807 39.9369 152.023 39.8856C152.109 39.8824 152.189 39.8561 152.256 39.8376C152.395 39.7974 152.515 39.7542 152.648 39.7125C152.829 39.7383 153.03 39.7579 153.177 39.7914C153.365 39.8311 153.538 39.8307 153.792 39.8196C158.64 39.6252 163.494 39.4355 168.342 39.2397C168.756 39.2236 168.937 39.2878 169.218 39.3211C169.312 39.3332 169.406 39.3484 169.506 39.3513C169.613 39.3542 169.726 39.3448 169.833 39.34C173.472 39.1954 177.112 39.0524 180.751 38.9078C181.232 38.8885 181.232 38.8885 181.948 38.9825C182.035 38.9947 182.148 39.0083 182.242 39.0035C183.898 38.9407 185.554 38.8733 187.203 38.809C187.417 38.801 187.598 38.8252 187.792 38.8602C188.174 38.9287 188.2 38.9286 188.479 38.8268C188.613 38.7789 188.752 38.7495 188.973 38.7353C189.213 38.7195 189.407 38.7238 189.594 38.7511C189.862 38.789 190.057 38.8532 190.464 38.8356C192.227 38.7603 193.996 38.6973 195.752 38.6206C196.153 38.603 196.367 38.6548 196.635 38.6928C196.729 38.7064 196.816 38.7278 196.916 38.7322C197.016 38.7367 197.137 38.7257 197.243 38.7209C199.447 38.6341 201.657 38.5488 203.854 38.4559C204.268 38.4383 204.449 38.504 204.73 38.5374C204.824 38.5495 204.931 38.5708 205.018 38.5676C206.34 38.5177 207.669 38.4646 208.991 38.4117C209.465 38.3924 209.465 38.3939 210.188 38.4864C210.275 38.4985 210.388 38.5106 210.482 38.5074C212.024 38.4479 213.574 38.3868 215.116 38.3257C215.59 38.3065 215.59 38.3065 216.961 38.384C217.061 38.39 217.168 38.399 217.268 38.3958C219.031 38.3266 220.801 38.259 222.563 38.1853C222.917 38.1709 223.211 38.1826 223.466 38.2375C223.647 38.2771 223.834 38.2937 224.054 38.2841C226.038 38.2054 228.028 38.1297 230.004 38.0464C230.385 38.0304 230.632 38.0637 230.9 38.1078C230.987 38.123 231.074 38.1444 231.174 38.1504C231.275 38.1563 231.388 38.15 231.495 38.1452C233.478 38.0665 235.468 37.9923 237.445 37.9075C237.845 37.8899 238.06 37.9418 238.327 37.9797C238.421 37.9934 238.522 38.0208 238.602 38.0192C239.376 37.9917 240.151 37.9673 240.919 37.9276C241.333 37.9054 241.514 37.9757 241.795 38.009C241.889 38.0196 241.996 38.0425 242.083 38.0392C243.739 37.9765 245.395 37.9106 247.044 37.8432C247.278 37.8336 247.452 37.8471 247.639 37.8867C247.887 37.9401 248.175 37.9611 248.535 37.9435C249.303 37.9069 250.078 37.8809 250.852 37.8504C251.306 37.8327 251.306 37.8327 252.697 37.9102C252.797 37.9162 252.904 37.9252 253.004 37.922C254.326 37.8705 255.655 37.8206 256.971 37.7645C257.324 37.7485 257.619 37.7618 257.873 37.8167C258.054 37.8563 258.235 37.8729 258.462 37.8633C259.677 37.8151 260.886 37.7669 262.101 37.7187C262.542 37.7011 262.982 37.6711 263.423 37.6703C263.744 37.6713 263.978 37.7446 264.266 37.781C264.346 37.7916 264.48 37.7791 264.587 37.7759C266.129 37.7148 267.678 37.6583 269.214 37.5896C269.615 37.572 269.829 37.6239 270.097 37.6618C270.191 37.6755 270.291 37.703 270.371 37.7013C270.926 37.6834 271.473 37.6594 272.027 37.6385C272.688 37.6128 273.356 37.5932 274.011 37.5582C274.545 37.5297 274.747 37.663 275.174 37.6668C275.502 37.6709 275.835 37.6442 276.163 37.6313C276.824 37.6056 277.485 37.5768 278.146 37.5541C278.38 37.546 278.56 37.5211 278.633 37.4657C278.646 37.4549 278.532 37.4321 278.458 37.4184C277.568 37.2632 277.568 37.2632 276.673 37.2986C276.119 37.321 275.571 37.3435 275.017 37.3629C274.923 37.3661 274.816 37.354 274.723 37.345C274.455 37.3193 274.482 37.2886 274.708 37.2329C274.935 37.1772 275.107 37.1093 275.3 37.0459C275.575 37.0854 275.843 37.1249 276.117 37.1643C276.337 37.1563 276.558 37.1467 276.778 37.1386C277.88 37.0968 278.982 37.0534 280.083 37.0146C280.164 37.0114 280.264 37.0419 280.358 37.0571C280.626 37.1012 280.867 37.1392 281.254 37.1216C282.242 37.0754 283.237 37.0414 284.225 37.0012C284.659 36.9836 284.659 36.9836 285.422 37.0775C285.509 37.0881 285.623 37.1002 285.716 37.097C286.711 37.0599 287.699 37.0198 288.694 36.9812C288.908 36.9731 289.115 36.9928 289.27 37.037C289.33 37.0554 289.317 37.0861 289.574 37.3376C290.365 37.5406 290.906 37.5181 291.453 37.4988C291.687 37.4907 291.894 37.4826 292.047 37.4516C292.127 37.4346 292.227 37.4098 292.227 37.3899C292.227 37.3745 292.079 37.3502 291.986 37.3473C291.324 37.3177 290.697 37.3833 290.049 37.3983C289.748 37.4049 289.487 37.3516 289.433 37.2641C289.419 37.2396 289.399 37.2135 289.378 37.1889C289.358 37.1644 289.344 37.1383 289.324 37.1138C289.063 37.1065 288.91 37.1344 288.797 37.1869C288.704 37.2301 288.571 37.2795 288.391 37.3028C288.211 37.3277 287.964 37.3235 287.743 37.3316C287.53 37.3396 287.296 37.36 287.096 37.3496C286.895 37.3377 286.734 37.2934 286.547 37.2661C286.46 37.2524 286.353 37.2326 286.266 37.2358C285.498 37.2633 284.737 37.2907 283.975 37.3258C283.575 37.345 283.374 37.2808 283.119 37.2413C282.918 37.2109 282.718 37.2189 282.685 37.2897C282.601 37.4588 282.909 37.5289 283.59 37.4955C284.151 37.4669 284.658 37.4614 285.101 37.5651C285.161 37.5788 285.301 37.5847 285.388 37.5815C285.936 37.5621 286.476 37.5381 287.024 37.5187C287.124 37.5155 287.231 37.5214 287.325 37.5274C288.689 37.608 288.689 37.6096 289.15 37.5903C289.37 37.5807 289.583 37.5727 289.561 37.3392C289.978 37.088 290.646 37.07 291.294 37.032C291.714 37.0082 291.896 37.0755 292.17 37.1104C292.264 37.1225 292.364 37.1469 292.451 37.1437C293.887 37.0905 295.316 37.0342 296.745 36.9749C296.985 36.9652 297.159 36.9742 297.346 37.0138C297.587 37.0641 297.855 37.0959 298.236 37.0768C298.997 37.0386 299.771 37.0142 300.546 36.9821C300.94 36.9661 300.94 36.9661 301.736 37.0599C301.823 37.0705 301.937 37.0826 302.03 37.0794C302.805 37.0519 303.573 37.0183 304.341 36.9894C304.554 36.9813 304.748 37.0025 304.916 37.0437C305.083 37.0849 305.284 37.106 305.491 37.098C306.266 37.069 307.034 37.0369 307.802 37.0079C307.895 37.0047 308.009 37.0153 308.096 37.0259C308.912 37.1197 308.912 37.1197 309.286 37.1037C309.833 37.0797 310.394 37.0679 310.935 37.0363C311.463 37.0046 311.738 37.0933 312.099 37.1418C313.087 37.1047 314.082 37.0738 315.064 37.0291C315.464 37.01 315.679 37.0603 315.946 37.0998C316.04 37.1134 316.134 37.1425 316.221 37.1408C316.555 37.1341 316.882 37.1166 317.209 37.1037C317.536 37.0909 317.87 37.078 318.197 37.0652C318.572 37.1091 318.821 37.2131 319.355 37.1768C319.675 37.1548 320.016 37.1496 320.343 37.1367C320.67 37.1238 321.004 37.111 321.331 37.0981C321.551 37.0901 321.779 37.085 321.992 37.0708C322.386 37.0471 322.581 37.1221 322.862 37.1554C322.955 37.166 323.062 37.1842 323.149 37.181C323.81 37.1583 324.478 37.1387 325.126 37.1023C325.626 37.0738 325.968 37.1193 326.323 37.1832C326.396 37.1969 326.523 37.2043 326.617 37.2011C327.391 37.1736 328.159 37.14 328.927 37.111C329.134 37.103 329.335 37.1272 329.502 37.1669C329.677 37.2081 329.871 37.2277 330.084 37.2197C330.852 37.1907 331.627 37.1586 332.395 37.1296C332.488 37.1264 332.602 37.1385 332.689 37.1506C333.438 37.2445 333.438 37.2461 333.879 37.2269C333.986 37.2221 334.099 37.2188 334.206 37.214C334.754 37.1916 335.322 37.1829 335.856 37.1451C336.47 37.1026 336.918 37.154 337.353 37.2408C337.901 37.2214 338.462 37.2097 338.996 37.1781C339.396 37.1543 339.611 37.2123 339.879 37.2503C339.972 37.2639 340.073 37.2914 340.153 37.2882C340.928 37.2607 341.702 37.2363 342.463 37.1966C342.877 37.1744 343.059 37.2432 343.34 37.278C343.433 37.2902 343.534 37.3115 343.62 37.3083C344.061 37.2952 344.502 37.276 344.943 37.2584C345.457 37.2375 345.457 37.239 346.139 37.3316C346.461 37.3756 346.781 37.3397 347.095 37.3284C347.429 37.3155 347.742 37.3057 348.01 37.3683C348.178 37.4079 348.379 37.4321 348.586 37.4256C349.026 37.4111 349.474 37.3965 349.908 37.3727C350.255 37.3536 350.556 37.3654 350.81 37.4218C350.991 37.4614 351.178 37.4811 351.399 37.4715C352.387 37.4329 353.382 37.3927 354.37 37.3557C354.457 37.3525 354.577 37.3661 354.658 37.3798C354.845 37.4071 355.026 37.4375 355.207 37.4679C355.641 37.4533 356.088 37.4464 356.516 37.4242C356.97 37.4019 357.384 37.3935 357.739 37.4774C357.813 37.4957 357.92 37.5216 358.007 37.5199C358.341 37.5132 358.668 37.4972 358.995 37.4844C359.322 37.4715 359.656 37.4587 359.983 37.4458C360.364 37.4835 360.606 37.5937 361.14 37.5575C361.461 37.5354 361.801 37.5302 362.129 37.5173C362.456 37.5045 362.79 37.4901 363.117 37.4788C363.224 37.4755 363.344 37.4676 363.437 37.4736C363.538 37.4796 363.625 37.5009 363.712 37.5161C363.98 37.5602 364.227 37.6044 364.608 37.5776C364.928 37.5555 365.269 37.5503 365.596 37.5359C366.044 37.5182 366.044 37.5182 366.786 37.6137C367.087 37.6532 367.427 37.6003 367.715 37.6336C367.909 37.6563 368.077 37.6945 368.264 37.7202C368.344 37.7309 368.471 37.7352 368.565 37.732C369.005 37.7174 369.453 37.7028 369.887 37.679C370.241 37.66 370.535 37.6779 370.783 37.7328C370.964 37.7724 371.144 37.789 371.371 37.7794C372.473 37.7345 373.575 37.6957 374.67 37.6461C375.044 37.6286 375.345 37.6542 375.552 37.7091C375.908 37.8038 376.407 37.6907 376.776 37.7669C377.003 37.8142 377.231 37.8691 377.645 37.8453C378.406 37.804 379.181 37.7812 379.949 37.7522C380.223 37.7932 380.498 37.8342 380.779 37.8752C381.22 37.8575 381.66 37.8399 382.101 37.8237C382.428 37.8109 382.762 37.7965 383.089 37.7851C383.196 37.7819 383.31 37.7755 383.41 37.783C383.51 37.7905 383.591 37.8104 383.684 37.8256C384.146 37.9001 384.146 37.9016 384.907 37.8696C385.235 37.8552 385.548 37.8454 385.823 37.9064C386.078 37.9628 386.378 37.973 386.726 37.9555C387.38 37.9236 388.041 37.8994 388.709 37.8768C388.916 37.8687 389.11 37.8945 389.284 37.9342C389.545 37.9967 389.866 37.99 390.193 37.9725C390.627 37.9503 391.054 37.928 391.423 38.0134C391.497 38.0317 391.61 38.0576 391.691 38.056C392.238 38.0427 392.793 38.0325 393.327 38.0024C393.861 37.9723 394.123 38.0671 394.49 38.1125C395.038 38.0916 395.592 38.0707 396.14 38.0498C396.247 38.045 396.373 38.0309 396.467 38.0385C396.862 38.07 397.09 38.1849 397.631 38.1486C397.945 38.1281 398.285 38.1213 398.612 38.1162C398.699 38.1145 398.813 38.1404 398.874 38.1602C398.907 38.1709 398.874 38.2002 398.834 38.2156C398.714 38.2588 398.568 38.2991 398.462 38.3438C398.448 38.35 398.576 38.3774 398.649 38.3895C398.83 38.4169 399.037 38.4119 399.277 38.3992C399.484 38.3881 399.698 38.4092 399.846 38.4551C399.906 38.4734 399.887 38.5042 399.761 38.6058C399.762 38.6811 399.902 38.647 399.948 38.5978C400.02 38.527 399.88 38.5042 399.613 38.543C399.426 38.571 399.333 38.6111 399.381 38.6433C399.408 38.6602 399.535 38.6815 399.761 38.6058C400.348 38.5126 400.788 38.4949 401.229 38.4773C401.343 38.4725 401.476 38.4568 401.556 38.4659C401.844 38.5023 402.112 38.5464 402.393 38.5874C402.713 38.5776 403.014 38.554 403.328 38.6134C403.77 38.6971 403.79 38.6894 404.218 38.6718C404.438 38.6622 404.658 38.6541 404.879 38.6461C405.099 38.638 405.273 38.6607 405.467 38.6957C405.862 38.7673 405.896 38.7672 406.155 38.6684C406.308 38.6082 406.415 38.5881 406.609 38.6154C407.251 38.708 407.258 38.7141 407.805 38.6855C408.259 38.6617 408.687 38.6548 409.022 38.7418C409.25 38.8028 409.323 38.7889 409.503 38.7241C409.982 38.5527 410.202 38.5554 411.106 38.6767C411.527 38.7344 411.961 38.6706 412.388 38.6622C412.749 38.6554 413.003 38.6919 413.031 38.7886C413.052 38.8485 413.112 38.8914 413.353 38.911C413.447 38.9185 413.56 38.929 413.654 38.9258C414.208 38.9064 414.756 38.8839 415.31 38.8615C415.59 38.8502 415.743 38.7778 415.689 38.6826C415.627 38.5813 415.734 38.5442 416.134 38.5143C416.374 38.497 416.568 38.4998 416.762 38.5271C416.977 38.5575 416.917 38.5852 416.73 38.6408C416.284 38.7768 416.339 38.8597 416.915 38.9524C417.115 38.9843 417.276 39.0132 417.323 39.0608C417.35 39.0853 417.324 39.1176 417.384 39.1359C417.713 39.2383 418.168 39.3036 418.676 39.3519C419.164 39.3095 419.498 39.3781 419.873 39.4327C420.168 39.4752 420.515 39.4378 420.828 39.4219C421.182 39.4043 421.476 39.4161 421.731 39.4725C421.912 39.5122 422.099 39.5303 422.319 39.5222C422.76 39.5045 423.208 39.493 423.641 39.4677C424.015 39.4455 424.296 39.4758 424.531 39.5276C424.826 39.5931 425.152 39.548 425.46 39.5567C425.874 39.5667 426.083 39.7031 426.624 39.6653C426.944 39.6432 427.278 39.635 427.612 39.6282C427.699 39.6265 427.806 39.6525 427.88 39.6708C428.235 39.7547 428.649 39.7493 429.103 39.724C429.417 39.7065 429.724 39.6906 430.032 39.7485C430.541 39.8459 431.103 39.931 431.638 40.0207C431.713 40.0912 431.66 40.1743 432.042 40.2151C432.242 40.2363 432.43 40.2682 432.584 40.3033C432.771 40.3444 432.945 40.3549 433.186 40.3437C433.619 40.3214 434.074 40.316 434.501 40.2876C434.895 40.2624 435.143 40.3127 435.384 40.3599C435.578 40.3979 435.759 40.4161 435.992 40.388C436.232 40.3615 436.406 40.378 436.6 40.4192C436.875 40.4756 436.895 40.4694 437.804 40.4847C437.897 40.4861 438.011 40.5089 438.065 40.5288C438.092 40.5395 438.032 40.5704 437.985 40.5858C437.925 40.6043 437.832 40.626 437.745 40.6308C436.757 40.6724 435.762 40.7095 434.774 40.7511C434.674 40.7559 434.567 40.7669 434.494 40.7824C434.414 40.7994 434.314 40.8226 434.314 40.8441C434.314 40.8595 434.448 40.8777 434.542 40.8883C434.836 40.9231 435.183 40.8687 435.471 40.9082C435.665 40.934 435.825 40.9705 436.019 40.9948C436.1 41.0054 436.227 41.0037 436.327 41.0004C436.661 40.9891 436.988 40.9731 437.322 40.9633C437.415 40.9616 437.522 40.9768 437.609 40.989C438.252 41.08 438.252 41.08 438.806 41.0591C439.026 41.051 439.26 41.0276 439.467 41.0364C439.668 41.0453 439.842 41.0865 440.023 41.1123C440.397 41.1669 440.752 41.2201 440.78 41.3399C440.794 41.3859 441.015 41.4255 441.236 41.4282C441.449 41.4309 441.676 41.4136 441.897 41.404C442.418 41.3847 442.418 41.3847 443.093 41.4772C443.281 41.503 443.481 41.5057 443.722 41.4899C443.815 41.4836 443.929 41.4896 444.029 41.4971C444.357 41.5196 444.357 41.5488 444.144 41.6044C443.844 41.6864 443.871 41.694 444.714 41.7617C445.035 41.7873 445.282 41.836 445.55 41.8785C445.985 41.9469 445.979 41.9469 445.693 42.0381C445.626 42.0581 445.566 42.0798 445.499 42.1014C445.306 42.1616 445.154 42.2264 444.753 42.2333C444.312 42.2402 443.871 42.2655 443.431 42.2832C443.003 42.3008 442.89 42.3379 442.932 42.4423C442.98 42.5682 443.067 42.5819 443.835 42.579C444.056 42.5786 444.249 42.5906 444.417 42.6318C444.337 42.6811 444.191 42.7197 443.977 42.7293C443.43 42.7533 442.875 42.7742 442.328 42.7952C441.887 42.8128 441.447 42.8305 441.006 42.8482C440.732 42.8594 440.559 42.9396 440.634 43.0286C440.675 43.0792 440.708 43.1298 440.743 43.1805C440.817 43.2817 440.958 43.3076 441.405 43.3022C441.519 43.3005 441.626 43.288 441.733 43.2909C442.167 43.3009 442.376 43.4281 442.896 43.401C443.33 43.3788 443.785 43.3734 444.212 43.345C444.606 43.3197 444.827 43.3746 445.101 43.4157C445.195 43.4293 445.296 43.4583 445.376 43.4566C445.93 43.4388 446.484 43.4209 447.025 43.3908C447.279 43.3781 447.432 43.387 447.633 43.4235C448.115 43.5118 448.129 43.5072 448.843 43.4783C449.364 43.4559 449.371 43.4589 450.04 43.5515C450.227 43.5773 450.428 43.5769 450.668 43.5642C450.982 43.5483 451.309 43.5232 451.637 43.5456C451.737 43.5516 451.864 43.5698 451.898 43.5897C451.918 43.6035 451.825 43.6375 451.745 43.6484C451.158 43.7293 450.47 43.7167 449.829 43.75C449.628 43.7596 449.427 43.7308 449.26 43.6896C449.086 43.6484 448.899 43.6318 448.671 43.6399C448.231 43.6576 447.783 43.6691 447.349 43.6944C446.976 43.7166 446.715 43.6817 446.453 43.6345C446.366 43.6193 446.266 43.5903 446.179 43.592C445.191 43.6244 444.196 43.6569 443.214 43.7016C442.82 43.7207 442.592 43.672 442.325 43.631C442.231 43.6173 442.137 43.5883 442.05 43.5899C441.716 43.5967 441.389 43.6141 441.055 43.627C439.84 43.6752 438.631 43.7234 437.416 43.7685C437.336 43.7717 437.235 43.7396 437.142 43.726C436.961 43.6986 436.774 43.6728 436.586 43.6471C436.252 43.6599 435.925 43.6759 435.591 43.6856C435.351 43.6922 435.137 43.7141 435.105 43.7725C435.085 43.811 435.306 43.8459 435.54 43.8424C435.767 43.839 435.994 43.8201 436.181 43.8398C437.111 43.9365 437.111 43.938 437.692 43.9171C438.199 43.8977 438.146 43.8825 438.594 43.9662C438.788 44.0027 438.962 44.0239 439.183 44.0143C439.73 43.9919 440.285 43.9694 440.839 43.95C440.926 43.9468 441.039 43.962 441.126 43.9741C441.782 44.0651 441.782 44.0682 442.323 44.0442C443.031 44.0153 443.058 44.0076 443.533 44.1005C443.861 44.1645 444.161 44.1194 444.475 44.1158C444.837 44.175 445.231 44.2281 445.56 44.2952C445.948 44.3744 446.355 44.3598 446.796 44.336C447.123 44.3186 447.444 44.3119 447.712 44.3744C447.966 44.4323 448.274 44.4379 448.621 44.422C448.935 44.4076 449.255 44.3778 449.583 44.4111C449.67 44.4201 449.804 44.443 449.797 44.4568C449.791 44.4783 449.704 44.5092 449.617 44.5186C449.004 44.5826 448.329 44.5823 447.681 44.6126C447.594 44.6173 447.481 44.6006 447.394 44.5885C447.206 44.5612 447.026 44.5292 446.845 44.5003C446.518 44.5101 446.184 44.5138 445.863 44.5328C445.616 44.547 445.429 44.5458 445.248 44.5093C445.081 44.4758 444.9 44.4346 444.699 44.4242C444.499 44.4138 444.265 44.4372 444.045 44.4468C443.825 44.4564 443.571 44.4522 443.397 44.4771C443.224 44.502 443.118 44.556 443.005 44.5992C442.878 44.647 442.705 44.6627 442.451 44.6678C442.217 44.6728 442.03 44.6669 441.856 44.6242C441.782 44.6059 441.682 44.5923 441.581 44.5801C441.488 44.5696 441.381 44.5528 441.294 44.5561C440.299 44.5931 439.311 44.6333 438.316 44.6719C437.821 44.6912 437.828 44.6911 436.798 44.6023C436.705 44.5948 436.591 44.5842 436.497 44.5874C435.943 44.6068 435.396 44.6293 434.841 44.6518C434.281 44.6743 434.287 44.6712 433.331 44.576C433.157 44.5579 432.903 44.5829 432.696 44.5802C432.262 44.5733 432.046 44.4446 431.539 44.4701C431.105 44.4923 430.651 44.4977 430.217 44.5261C429.823 44.5514 429.595 44.498 429.327 44.457C429.234 44.4434 429.133 44.4128 429.053 44.416C428.058 44.4515 427.07 44.4917 425.747 44.4986C425.42 44.4991 425.567 44.5312 425.781 44.5415C426.089 44.5579 426.188 44.5255 426.021 44.4643C425.9 44.4215 425.726 44.4003 425.586 44.4113C425.512 44.4175 425.419 44.4469 425.747 44.4986C426.095 44.5563 426.076 44.5886 426.136 44.607C426.283 44.6513 426.491 44.6693 426.705 44.6628C427.038 44.6515 427.366 44.6356 427.699 44.6258C427.793 44.6225 427.907 44.6331 427.994 44.6452C428.73 44.7392 428.736 44.7453 429.518 44.7071C429.765 44.6959 429.945 44.6956 430.139 44.7245C430.407 44.7639 430.601 44.8312 431.009 44.809C431.549 44.7789 432.104 44.761 432.658 44.7431C432.745 44.7399 432.839 44.7674 432.939 44.7795C433.213 44.8159 433.415 44.8847 433.822 44.8548C434.135 44.8312 434.476 44.8245 434.81 44.8193C434.897 44.8176 435.031 44.8419 435.071 44.8618C435.152 44.897 435.052 44.9387 434.825 44.9683C434.732 44.9807 434.605 44.9779 434.498 44.9827C434.057 45.0003 433.617 45.0195 433.176 45.0341C432.942 45.0422 432.722 45.0657 432.696 45.1225C432.676 45.161 432.917 45.1944 433.144 45.1909C433.478 45.1857 433.812 45.1728 434.133 45.1523C434.7 45.1175 435.195 45.1259 435.657 45.2219C435.985 45.2889 435.965 45.2644 436.314 45.4635C436.402 45.514 436.662 45.5182 436.89 45.5147C437.437 45.5061 437.691 45.5287 437.645 45.5764C437.586 45.6349 437.392 45.6536 437.145 45.6617C436.704 45.6748 436.264 45.6955 435.823 45.7132C435.716 45.718 435.596 45.7274 435.496 45.7245C435.396 45.7216 435.302 45.7034 435.215 45.6897C435.027 45.6608 434.866 45.6165 434.666 45.6061C434.465 45.5957 434.232 45.6192 434.012 45.6288C433.791 45.6368 433.558 45.6603 433.357 45.6499C433.157 45.6395 432.989 45.5937 432.808 45.5664C432.721 45.5527 432.614 45.5313 432.527 45.533C432.087 45.5461 431.646 45.5668 431.205 45.583C430.664 45.6039 430.664 45.6039 430.008 45.5098C429.821 45.4824 429.627 45.4843 429.38 45.497C428.846 45.5225 428.839 45.5179 427.863 45.4305C427.769 45.4215 427.655 45.4109 427.562 45.4157C426.567 45.4527 425.579 45.4929 424.59 45.5315C423.742 45.5652 423.742 45.5652 423.277 45.7196C422.931 45.8339 422.924 45.8339 423.265 45.8856C423.54 45.9281 423.788 45.9907 424.089 46.0132C424.369 46.0342 424.716 45.9645 425.024 46.0346C425.178 46.0697 425.379 46.1078 425.573 46.1136C425.88 46.1207 426.207 46.0756 426.502 46.1427C426.649 46.1762 426.87 46.2112 427.057 46.2124C427.385 46.2149 427.719 46.1897 428.046 46.1784C428.146 46.1751 428.259 46.175 428.353 46.1825C428.453 46.1915 428.54 46.2098 428.627 46.225C428.895 46.2768 429.183 46.3009 429.53 46.2741C430.097 46.2301 430.605 46.2508 431.047 46.3483C431.108 46.362 431.255 46.3633 431.348 46.357C431.588 46.3412 431.795 46.3393 431.976 46.3682C432.05 46.3804 432.157 46.4017 432.144 46.4155C432.124 46.4386 432.044 46.4695 431.957 46.4773C431.33 46.5307 430.656 46.538 430.008 46.5668C429.921 46.57 429.814 46.5502 429.727 46.5365C429.54 46.5092 429.379 46.4634 429.178 46.453C428.978 46.4426 428.744 46.4629 428.524 46.471C428.303 46.4791 428.07 46.5025 427.869 46.4937C427.669 46.4832 427.481 46.4452 427.32 46.4116C427.133 46.3736 426.952 46.3693 426.705 46.3851C426.385 46.4056 426.051 46.4092 425.724 46.4206C425.543 46.3917 425.362 46.3597 425.175 46.3324C425.088 46.3187 424.981 46.302 424.887 46.3037C424.447 46.3168 424.006 46.336 423.565 46.3536C423.124 46.3713 423.124 46.3713 422.375 46.2774C422.288 46.2668 422.174 46.2547 422.081 46.2579C421.526 46.2773 420.979 46.3013 420.425 46.3207C420.211 46.3287 420.017 46.3076 419.843 46.2664C419.675 46.2252 419.475 46.2025 419.268 46.2105C418.386 46.2443 417.505 46.2766 416.623 46.3165C416.269 46.3325 415.969 46.3192 415.727 46.2643C415.446 46.2018 415.132 46.2177 414.805 46.2306C414.064 46.2626 414.057 46.2611 413.582 46.1835C413.488 46.1683 413.394 46.1393 413.308 46.141C412.54 46.1654 411.765 46.1882 411.004 46.2264C410.603 46.2471 410.389 46.1937 410.121 46.1542C410.027 46.1406 409.927 46.1115 409.847 46.1147C409.292 46.1326 408.738 46.1489 408.197 46.1806C407.656 46.2123 407.448 46.0698 407.04 46.072C406.486 46.0745 405.938 46.1108 405.391 46.1333C404.95 46.1509 404.509 46.1686 404.069 46.1862C403.628 46.2039 403.187 46.2185 402.747 46.2392C402.513 46.2504 402.339 46.2369 402.145 46.1988C401.897 46.1485 401.603 46.1091 401.335 46.0635C400.927 45.9981 400.926 45.9981 400.432 46.0174C400.326 46.0222 400.212 46.0255 400.105 46.0303C399.297 46.0655 399.297 46.0624 398.267 45.9674C398.22 45.9629 398.1 45.98 398.054 45.9924C397.914 46.0325 397.788 46.0758 397.661 46.1175C397.48 46.0932 397.26 46.0798 397.139 46.0446C396.797 45.9454 396.264 46.083 395.916 45.9853C395.788 45.9487 395.568 45.9168 395.367 45.9079C395.16 45.899 394.926 45.921 394.713 45.9306C394.158 45.9546 394.158 45.953 393.686 46.0906C393.446 46.1586 393.099 46.1469 392.785 46.1628C392.458 46.1803 392.144 46.19 391.869 46.1275C391.621 46.0711 391.32 46.0578 390.967 46.0769C390.533 46.1007 390.085 46.1153 389.644 46.1299C389.551 46.1331 389.437 46.1256 389.344 46.1166C388.32 46.0277 388.32 46.0262 387.826 46.047C387.606 46.0566 387.379 46.06 387.165 46.0742C386.805 46.0995 386.53 46.0677 386.269 46.019C386.182 46.0037 386.082 45.9747 385.995 45.9764C385.554 45.9849 385.12 45.9995 384.686 46.014C384.352 46.0254 384.018 46.0321 383.698 46.0542C383.164 46.0904 382.902 45.991 382.534 45.9456C381.986 45.9665 381.432 45.9813 380.885 46.0099C380.631 46.0226 380.464 46.0183 380.27 45.9818C380.022 45.9361 379.794 45.8843 379.393 45.908C378.859 45.9397 378.298 45.9514 377.751 45.9708C377.383 45.9238 377.114 45.8275 376.587 45.8637C376.267 45.8858 375.926 45.891 375.599 45.9038C375.158 45.9215 374.717 45.9376 374.277 45.9568C373.803 45.9761 373.809 45.9715 373.08 45.8821C372.658 45.8291 372.225 45.8897 371.797 45.8997C371.463 45.9079 371.297 45.9789 371.379 46.0694C371.46 46.1599 371.28 46.2309 370.973 46.2437C370.205 46.2742 369.431 46.3063 368.663 46.3338C368.569 46.337 368.456 46.3264 368.369 46.3158C367.546 46.2205 367.546 46.222 367.178 46.2365C366.631 46.2605 366.07 46.2737 365.529 46.3039C365.155 46.3245 364.881 46.2927 364.64 46.2409C364.452 46.2013 364.279 46.1924 364.038 46.202C361.394 46.3095 358.749 46.4094 356.112 46.5199C355.718 46.536 355.49 46.4918 355.223 46.4508C355.129 46.4372 355.042 46.4081 354.948 46.4083C354.728 46.4087 354.507 46.4229 354.287 46.4325C353.299 46.4711 352.311 46.5173 351.316 46.5467C350.895 46.5597 350.782 46.6306 350.602 46.6893C350.463 46.7341 350.303 46.7528 350.056 46.7594C349.815 46.7659 349.641 46.7586 349.454 46.7189C349.213 46.6671 348.938 46.6353 348.565 46.6575C348.131 46.6828 347.69 46.6944 347.242 46.712C347.015 46.7201 346.842 46.7481 346.769 46.8035C346.756 46.8127 346.896 46.8355 346.977 46.8492C347.245 46.8949 347.499 46.9482 347.8 46.9799C348.108 47.0117 348.441 46.9742 348.762 46.9644C348.875 46.9611 348.982 46.9517 349.089 46.9531C349.189 46.9545 349.31 46.9619 349.383 46.9756C349.732 47.0442 350.1 47.0912 350.58 47.0488C350.994 47.0681 351.21 47.1952 351.737 47.1605C352.058 47.14 352.392 47.1302 352.726 47.1219C352.812 47.1202 352.906 47.1477 353 47.1614C353.268 47.1993 353.482 47.2604 353.883 47.2336C354.31 47.2052 354.764 47.1998 355.198 47.1776C355.438 47.1648 355.612 47.1753 355.8 47.2149C356.041 47.2652 356.315 47.3031 356.689 47.2779C357.009 47.2558 357.35 47.2506 357.677 47.2362C358.105 47.2186 358.105 47.2201 358.867 47.314C358.954 47.3247 359.068 47.3367 359.162 47.3335C359.716 47.3141 360.263 47.2901 360.818 47.2707C361.031 47.2627 361.239 47.2823 361.386 47.3266C361.447 47.3449 361.427 47.3757 361.447 47.4018C360.345 47.4452 359.244 47.4824 358.149 47.535C357.735 47.5557 357.547 47.493 357.272 47.4582C357.179 47.446 357.078 47.4201 356.991 47.4233C356.217 47.4508 355.449 47.4798 354.681 47.5149C354.441 47.5261 354.26 47.5202 354.079 47.476C353.617 47.3585 353.057 47.424 352.536 47.4418C352.135 47.4548 352.009 47.5026 352.057 47.604C352.118 47.7237 352.359 47.7601 352.973 47.7376C353.194 47.7295 353.414 47.7184 353.635 47.7118C353.848 47.7053 354.042 47.7249 354.216 47.7661C354.384 47.8073 354.585 47.8285 354.792 47.822C355.232 47.8074 355.68 47.7928 356.107 47.769C356.461 47.7499 356.755 47.7648 357.003 47.8212C357.278 47.8837 357.598 47.8693 357.919 47.8549C358.667 47.8229 358.673 47.8245 359.142 47.9005C359.235 47.9157 359.329 47.9447 359.416 47.943C360.184 47.9186 360.959 47.8973 361.713 47.8591C362.107 47.84 362.335 47.8888 362.596 47.9283C362.69 47.9419 362.784 47.9725 362.87 47.9693C363.425 47.9514 363.979 47.9335 364.52 47.9034C364.773 47.8891 364.927 47.8981 365.135 47.9346C365.63 48.0244 365.644 48.0213 366.345 47.9909C366.558 47.9813 366.792 47.964 366.992 47.9759C367.193 47.9879 367.354 48.0321 367.541 48.0595C367.628 48.0716 367.735 48.0883 367.829 48.0851C368.27 48.072 368.71 48.0528 369.151 48.0352C369.565 48.0176 369.565 48.0191 370.341 48.113C370.656 48.1524 370.983 48.118 371.297 48.1052C371.637 48.0908 371.944 48.0902 372.206 48.1497C372.467 48.2092 372.781 48.2055 373.115 48.1927C373.429 48.1798 373.749 48.1455 374.07 48.1864C374.806 48.2804 374.806 48.2819 375.26 48.2627C375.921 48.2354 376.576 48.2097 377.243 48.1855C377.33 48.1823 377.444 48.2005 377.531 48.2127C377.718 48.24 377.879 48.2858 378.08 48.2962C378.28 48.3081 378.514 48.2893 378.728 48.2797C379.415 48.2493 379.462 48.2385 379.924 48.3391C380.313 48.4214 380.792 48.3007 381.154 48.3953C381.362 48.4487 381.643 48.4913 382.03 48.4645C382.35 48.4424 382.684 48.4357 383.018 48.4228C383.546 48.4019 383.546 48.4035 384.215 48.4945C384.302 48.5066 384.416 48.5218 384.503 48.5186C384.943 48.5055 385.391 48.494 385.818 48.4656C386.319 48.4325 386.64 48.4903 387.015 48.5465C387.309 48.5905 387.656 48.553 387.97 48.5371C388.311 48.5212 388.618 48.5252 388.872 48.5847C389.14 48.6457 389.454 48.6375 389.788 48.6246C390.102 48.6133 390.422 48.5774 390.744 48.6199C391.433 48.7139 391.433 48.7139 391.934 48.6946C392.374 48.677 392.815 48.6578 393.256 48.6447C393.343 48.6415 393.45 48.6613 393.537 48.6749C393.724 48.7023 393.885 48.7481 394.086 48.7585C394.286 48.7689 394.52 48.7485 394.74 48.7405C394.96 48.7324 395.194 48.7089 395.395 48.7178C395.595 48.7267 395.783 48.7648 395.943 48.7983C396.131 48.8379 396.305 48.8422 396.558 48.8264C396.879 48.8059 397.213 48.8007 397.54 48.7894C397.721 48.8182 397.908 48.8471 398.082 48.8791C398.263 48.9125 398.457 48.9091 398.704 48.898C399.525 48.8597 399.532 48.8643 400.221 48.9583C400.535 49.0008 400.862 48.9649 401.176 48.9536C401.51 48.9407 401.824 48.934 402.085 48.995C402.34 49.053 402.654 49.0601 402.988 49.0411C403.201 49.0284 403.428 49.0204 403.649 49.0154C403.749 49.0136 403.869 49.0196 403.943 49.0317C404.298 49.0957 404.646 49.1534 405.133 49.1111C405.561 49.1227 405.776 49.2483 406.29 49.2228C406.724 49.2005 407.178 49.1951 407.606 49.1667C407.999 49.1415 408.281 49.184 408.482 49.2374C408.844 49.332 409.35 49.2021 409.712 49.2952C409.919 49.3486 410.187 49.3912 410.588 49.3674C411.028 49.3421 411.169 49.3741 411.297 49.4706C411.371 49.5258 411.359 49.5704 411.225 49.6137C411.092 49.6584 410.945 49.651 410.731 49.6007C410.483 49.5443 410.189 49.534 409.835 49.5469C409.488 49.5598 409.273 49.4803 408.985 49.4501C408.698 49.4183 408.358 49.4727 408.057 49.4317C407.347 49.3362 407.347 49.3362 406.866 49.3554C406.539 49.3683 406.199 49.375 405.878 49.3971C405.498 49.4239 405.25 49.3767 404.989 49.3341C404.895 49.3189 404.801 49.2899 404.721 49.2916C403.953 49.3159 403.178 49.3388 402.417 49.3785C402.017 49.3992 401.802 49.3443 401.535 49.3063C401.441 49.2927 401.34 49.2652 401.26 49.2684C400.599 49.291 399.945 49.3198 399.284 49.3471C399.157 49.3888 399.017 49.429 398.898 49.4737C398.771 49.5201 398.598 49.5403 398.344 49.5392C397.923 49.54 397.51 49.6052 397.088 49.5245C396.653 49.4423 396.619 49.447 396.199 49.4677C395.665 49.4947 395.097 49.4896 394.596 49.5504C394.51 49.5613 394.416 49.5906 394.417 49.6121C394.41 49.6259 394.551 49.6457 394.638 49.6578C394.932 49.6942 395.272 49.6398 395.567 49.6777C395.761 49.702 395.921 49.7386 396.115 49.7643C396.196 49.7749 396.316 49.7732 396.423 49.7715C396.536 49.7698 396.643 49.7588 396.75 49.7602C396.85 49.7615 396.957 49.7706 397.038 49.7842C397.406 49.842 397.794 49.8951 398.122 49.9637C398.444 50.0307 398.744 49.9841 399.064 49.9805C400.348 50.0858 400.348 50.0873 401.21 50.052C401.423 50.044 401.644 50.0344 401.864 50.0355C401.958 50.0353 402.045 50.0628 402.139 50.078C402.406 50.1237 402.661 50.1647 403.035 50.1395C403.355 50.1174 403.696 50.1122 404.023 50.0978C404.464 50.0801 404.464 50.0801 405.213 50.1756C405.4 50.1999 405.601 50.1965 405.841 50.1838C406.048 50.1727 406.262 50.1953 406.409 50.2396C406.47 50.258 406.45 50.2887 406.471 50.3148C405.809 50.3405 405.142 50.3586 404.501 50.3966C404.087 50.4203 403.899 50.3546 403.625 50.3197C403.531 50.3076 403.43 50.2817 403.344 50.2849C402.689 50.3091 402.035 50.3363 401.381 50.3682C401.3 50.3714 401.201 50.4069 401.194 50.4284C401.181 50.4684 401.349 50.5065 401.589 50.5046C401.91 50.5025 402.224 50.4758 402.512 50.5383C402.753 50.5932 403.054 50.6173 403.407 50.5921C403.621 50.5779 403.848 50.5775 404.062 50.5648C404.629 50.5269 405.144 50.5337 405.573 50.6374C405.9 50.6645 406.221 50.6379 406.534 50.6235C406.768 50.6123 406.995 50.6012 407.163 50.6301C407.517 50.6909 407.865 50.7518 408.353 50.7094C408.881 50.7515 409.283 50.8415 409.725 50.9145C409.932 50.9494 410.093 50.9691 410.333 50.9457C410.433 50.9363 410.553 50.9361 410.66 50.9313C410.881 50.9232 411.114 50.8998 411.315 50.9086C411.515 50.919 411.683 50.9633 411.863 50.9906C411.95 51.0043 412.051 51.0272 412.138 51.0255C412.472 51.0172 412.799 51.0013 413.126 50.9884C413.453 50.9771 413.78 50.9658 414.108 50.9545C414.382 50.9939 414.663 51.0334 414.937 51.0729C415.378 51.0552 415.819 51.0375 416.253 51.0214C416.741 51.0021 416.74 51.0037 417.443 51.0977C417.758 51.1402 418.091 51.1119 418.392 51.0914C418.892 51.0583 419.227 51.1161 419.582 51.177C419.656 51.1891 419.789 51.1966 419.876 51.1903C420.223 51.1682 420.524 51.1845 420.778 51.2409C420.959 51.2806 421.14 51.2987 421.36 51.2906C422.128 51.2601 422.896 51.228 423.664 51.2006C423.758 51.1974 423.865 51.211 423.952 51.2231C424.634 51.3157 424.641 51.3203 425.142 51.2948C425.589 51.2725 426.003 51.2626 426.358 51.3465C426.432 51.3648 426.546 51.3907 426.626 51.389C427.173 51.3727 427.728 51.3548 428.269 51.3278C428.516 51.3151 428.689 51.3194 428.884 51.3544C429.131 51.3985 429.352 51.4519 429.76 51.4312C430.888 51.3724 430.895 51.3816 432.232 51.4853C432.326 51.4928 432.453 51.4803 432.559 51.474C432.786 51.4582 432.954 51.4794 433.154 51.5144C433.603 51.5935 433.616 51.5889 434.044 51.5713C434.371 51.5569 434.712 51.5532 435.032 51.5296C435.526 51.4949 435.854 51.5543 436.222 51.6105C436.517 51.6545 436.857 51.6171 437.171 51.6027C437.511 51.5867 437.819 51.5908 438.073 51.6487C438.247 51.6884 438.435 51.7096 438.655 51.7015C439.423 51.6725 440.191 51.6405 440.959 51.6115C441.052 51.6082 441.166 51.6203 441.253 51.6309C442.016 51.7249 442.016 51.7295 442.77 51.6928C443.011 51.6817 443.211 51.6782 443.392 51.7102C443.566 51.7406 443.753 51.7695 443.934 51.7984C444.261 51.787 444.595 51.7834 444.916 51.7644C445.163 51.7501 445.336 51.756 445.53 51.7879C445.785 51.829 446 51.9008 446.4 51.8647C446.607 51.8475 446.847 51.8517 447.054 51.836C447.301 51.8156 447.468 51.8276 447.663 51.8672C447.904 51.9144 448.151 51.9631 448.539 51.9378C448.966 51.9094 449.42 51.904 449.854 51.8818C450.094 51.8691 450.262 51.8811 450.456 51.9207C450.697 51.971 450.971 52.0028 451.345 51.9821C452.106 51.9424 452.113 51.9501 452.856 52.0456C453.043 52.0698 453.244 52.0664 453.484 52.0537C453.691 52.0426 453.905 52.0653 454.052 52.1096C454.193 52.1585 454.18 52.1892 454.194 52.2153ZM394.495 38.4628C394.274 38.4709 394.054 38.4805 393.732 38.3474C393.711 38.3244 393.724 38.2967 393.677 38.2768C393.57 38.2355 393.403 38.2066 393.202 38.2024C392.841 38.1968 392.408 38.2498 392.415 38.2898C392.422 38.3235 392.536 38.3525 392.757 38.3798C392.85 38.3904 392.924 38.4087 393.011 38.4208C393.265 38.4557 393.467 38.5245 393.834 38.4886C393.766 38.3934 393.8 38.441 393.834 38.4886C393.801 38.547 393.902 38.5883 394.142 38.6048C394.209 38.6093 394.309 38.606 394.363 38.5967C394.57 38.5626 394.602 38.5164 394.447 38.3953C394.421 38.4153 394.441 38.4506 394.501 38.4597C394.562 38.4689 394.708 38.4609 394.782 38.45C394.969 38.4205 395.062 38.382 395.015 38.3498C394.988 38.3329 394.86 38.3116 394.78 38.3118C394.64 38.312 394.513 38.346 394.495 38.4628ZM448.731 56.1855C448.243 56.2155 447.682 56.2057 447.195 56.2665C447.108 56.2774 447.022 56.3052 447.016 56.3267C447.009 56.3406 447.143 56.3603 447.223 56.3709C447.404 56.3952 447.604 56.3871 447.838 56.3791C448.192 56.3677 448.4 56.438 448.674 56.4729C448.761 56.4835 448.875 56.4909 448.968 56.4877C449.509 56.4683 450.043 56.4474 450.584 56.425C450.678 56.4202 450.778 56.4093 450.858 56.3953C451.124 56.3503 451.097 56.3212 450.836 56.2878C450.549 56.2515 450.321 56.1904 450.027 56.1617C449.605 56.121 449.178 56.177 448.731 56.1855ZM410.805 57.3729C410.478 57.3857 410.158 57.3986 409.83 57.4114C409.724 57.4162 409.61 57.4179 409.51 57.4243C409.303 57.4354 409.15 57.4679 409.05 57.5188C409.204 57.5585 409.392 57.5812 409.599 57.5762C409.926 57.5664 410.246 57.5459 410.574 57.5407C410.928 57.534 411.136 57.6027 411.41 57.6376C411.497 57.6482 411.604 57.6495 411.704 57.6509C412.198 57.6562 412.498 57.5758 412.403 57.4638C412.335 57.3763 412.081 57.3246 411.774 57.3358C411.453 57.3472 411.126 57.36 410.805 57.3729ZM450.988 53.9108C451.068 53.8846 451.154 53.866 451.194 53.8429C451.313 53.7643 451.266 53.706 451.045 53.645C450.776 53.5701 450.45 53.6214 450.149 53.6296C450.076 53.6313 449.996 53.6637 449.956 53.6837C449.93 53.6976 449.93 53.7268 449.97 53.7344C450.298 53.7953 450.646 53.8515 450.988 53.9108ZM392.979 49.4733C392.658 49.4861 392.331 49.4959 392.01 49.5134C391.93 49.5181 391.857 49.5474 391.811 49.5675C391.724 49.6045 391.818 49.655 392.092 49.6592C392.406 49.6648 392.733 49.6381 393.061 49.6252C393.475 49.6091 393.721 49.5519 393.567 49.503C393.419 49.4556 393.219 49.4467 392.979 49.4733ZM41.2804 46.8009C41.4941 46.7929 41.7144 46.7863 41.9281 46.7752C42.1284 46.7641 42.2817 46.7301 42.3813 46.6792C42.2138 46.6395 42.0264 46.6183 41.8194 46.6233C41.4921 46.6331 41.1717 46.6459 40.8512 46.6619C40.6509 46.6714 40.4576 46.7056 40.4115 46.7579C40.3652 46.7979 40.813 46.8202 41.2804 46.8009ZM364.684 46.0027C364.771 46.0164 364.858 46.0439 364.945 46.0437C365.158 46.0433 365.379 46.0337 365.579 46.018C365.666 46.0117 365.732 45.984 365.772 45.9624C365.799 45.9485 365.792 45.9239 365.752 45.9117C365.557 45.8383 364.782 45.8658 364.656 45.9505C364.643 45.9659 364.677 45.9858 364.684 46.0027ZM343.504 37.6265C343.524 37.6511 343.531 37.6756 343.558 37.7002C343.612 37.7462 343.76 37.7797 343.974 37.8024C344.14 37.7637 344.227 37.7205 344.22 37.6744C344.213 37.6499 344.192 37.6253 344.165 37.6008C344.111 37.5548 343.964 37.5212 343.75 37.4986C343.583 37.5357 343.503 37.5789 343.504 37.6265ZM466.471 57.5435C466.411 57.5636 466.351 57.5837 466.285 57.6022C466.466 57.6464 466.633 57.66 466.76 57.6352C466.84 57.6197 466.886 57.5966 466.946 57.5765C466.765 57.5322 466.604 57.5202 466.471 57.5435ZM462.318 57.7597C462.405 57.7733 462.486 57.7916 462.579 57.8007C462.733 57.8158 462.873 57.7894 462.979 57.7339C462.892 57.7202 462.812 57.7019 462.718 57.6929C462.565 57.6778 462.425 57.7042 462.318 57.7597ZM464.947 57.4739C464.901 57.5109 464.995 57.5415 465.242 57.5672C465.302 57.5471 465.382 57.5285 465.422 57.5069C465.488 57.4715 465.374 57.4394 465.133 57.4152C465.067 57.4338 465.007 57.4539 464.947 57.4739ZM450.824 55.8423C450.778 55.8793 450.872 55.9098 451.119 55.9355C451.179 55.9154 451.259 55.8969 451.299 55.8753C451.365 55.8398 451.251 55.8078 451.011 55.7836C450.944 55.8022 450.884 55.8222 450.824 55.8423ZM431.479 45.0048C431.419 45.0249 431.359 45.045 431.292 45.0635C431.473 45.1078 431.64 45.1213 431.767 45.0965C431.847 45.081 431.893 45.0579 431.953 45.0378C431.772 44.9936 431.612 44.9815 431.479 45.0048ZM413.003 39.2695C413.164 39.28 413.297 39.2583 413.41 39.2012C413.323 39.1875 413.243 39.1692 413.149 39.1602C412.995 39.1451 412.855 39.1715 412.749 39.227C412.836 39.2422 412.923 39.2558 413.003 39.2695ZM403.225 38.9255C403.166 38.9455 403.106 38.9656 403.039 38.9842C403.22 39.0284 403.387 39.0419 403.514 39.0171C403.594 39.0016 403.64 38.9785 403.7 38.9584C403.519 38.9142 403.359 38.9037 403.225 38.9255ZM336.93 37.6364C336.871 37.6565 336.811 37.6765 336.744 37.6951C336.925 37.7393 337.092 37.7529 337.219 37.7281C337.299 37.7126 337.345 37.6894 337.405 37.6694C337.224 37.6251 337.064 37.6146 336.93 37.6364ZM7.06926 50.7088C6.98225 50.6952 6.89531 50.6815 6.81495 50.6663C6.62172 50.7081 6.56208 50.7466 6.66933 50.7756C6.73636 50.7939 6.83662 50.8045 6.92364 50.8182C7.12355 50.7764 7.16984 50.7394 7.06926 50.7088Z" fill="#FFE492"/>
<path d="M239.065 8.6103C238.297 8.64081 237.536 8.67899 236.767 8.69875C236.36 8.70867 236.214 8.775 236.048 8.83675C235.915 8.88615 235.761 8.90177 235.514 8.91142C233.431 8.99029 231.354 9.07377 229.277 9.1557C229.016 9.13618 228.889 9.10413 228.949 9.06561C228.982 9.0425 229.062 9.0101 229.142 9.00689C230.564 8.94759 231.98 8.88676 233.409 8.83974C233.816 8.82675 233.929 8.75894 234.135 8.70327C234.202 8.68471 234.255 8.65696 234.342 8.64606C234.428 8.63362 234.555 8.63494 234.669 8.63167C236.966 8.54014 239.263 8.45015 241.56 8.35861C241.821 8.37814 241.948 8.41019 241.889 8.44871C241.856 8.47181 241.776 8.50422 241.696 8.50743C240.814 8.54121 239.939 8.57499 239.065 8.6103Z" fill="#FFE492"/>
<path d="M659.872 15.6937C659.525 15.7127 659.084 15.7396 658.722 15.6511C658.548 15.6084 658.361 15.5949 658.134 15.6045C657.807 15.6204 657.473 15.6333 657.139 15.6431C657.052 15.6448 656.938 15.628 656.851 15.6144C656.664 15.587 656.503 15.5412 656.302 15.5293C656.102 15.5173 655.862 15.5515 655.655 15.5442C655.38 15.5339 655.266 15.4926 655.339 15.4541C655.379 15.4325 655.459 15.4016 655.546 15.3969C656.781 15.3379 656.788 15.3379 657.136 15.3926C657.404 15.4352 657.651 15.4824 658.032 15.4556C658.352 15.4335 658.693 15.4283 659.02 15.4139C659.474 15.3947 659.474 15.3963 660.21 15.4918C660.398 15.5161 660.598 15.5142 660.838 15.5C661.045 15.4888 661.246 15.5131 661.414 15.5543C661.307 15.6067 661.154 15.6408 660.947 15.6504C660.613 15.6663 660.286 15.6776 659.872 15.6937Z" fill="#FFE492"/>
<path d="M647.57 15.2505C648.411 15.2168 649.259 15.1878 650.1 15.1495C650.448 15.1335 650.722 15.1499 650.963 15.2017C651.224 15.2581 651.518 15.253 651.838 15.2417C652.039 15.2352 652.233 15.2594 652.367 15.3022C652.421 15.319 652.408 15.3497 652.428 15.3742C651.693 15.4031 650.952 15.4336 650.211 15.4594C650.124 15.4626 650.017 15.4475 649.937 15.4353C649.756 15.4095 649.602 15.3637 649.408 15.3548C648.994 15.3341 648.58 15.3762 648.159 15.3846C647.959 15.388 647.765 15.3653 647.631 15.3241C647.577 15.3043 647.59 15.2751 647.57 15.2505Z" fill="#FFE492"/>
<path d="M343.187 2.91867C344.062 2.88337 344.937 2.84962 345.812 2.81431C346.073 2.83537 346.193 2.86589 346.14 2.90439C346.107 2.9275 346.027 2.9599 345.947 2.96311C344.198 3.03526 342.448 3.10432 340.705 3.17338C340.445 3.15232 340.324 3.1218 340.377 3.0833C340.41 3.06019 340.49 3.02779 340.57 3.02458C341.438 2.98775 342.313 2.95398 343.187 2.91867Z" fill="#FFE492"/>
<path d="M208.383 11.6859C207.989 11.6897 207.576 11.7469 207.135 11.7049C207.048 11.6974 206.927 11.6731 206.934 11.6593C206.947 11.6364 207.027 11.6072 207.113 11.5979C207.493 11.559 207.968 11.5536 208.16 11.4463C208.253 11.3911 208.426 11.3725 208.66 11.3614C208.907 11.3487 209.081 11.353 209.275 11.3848C209.529 11.4256 209.744 11.5017 210.144 11.4612C210.164 11.4857 210.211 11.5131 210.192 11.5361C210.172 11.559 210.085 11.5806 210.006 11.5975C209.932 11.6129 209.832 11.6269 209.739 11.6316C209.298 11.6507 208.857 11.6668 208.383 11.6859Z" fill="#FFE492"/>
<path d="M555.892 10.5456C556.219 10.5328 556.56 10.5261 556.88 10.504C557.134 10.4867 557.295 10.4972 557.495 10.5336C557.837 10.5975 557.857 10.5913 558.692 10.5991C558.786 10.6005 558.899 10.6233 558.953 10.6431C558.987 10.6538 558.94 10.683 558.9 10.6984C558.84 10.7185 558.754 10.7447 558.674 10.7448C558.146 10.7503 557.613 10.8418 557.097 10.7383C556.836 10.6866 556.548 10.6626 556.195 10.6862C555.981 10.7004 555.754 10.7069 555.534 10.7134C555.32 10.7199 555.099 10.7034 554.965 10.6576C554.771 10.5905 554.884 10.5642 555.231 10.5682C555.452 10.5709 555.672 10.5537 555.892 10.5456Z" fill="#FFE492"/>
<path d="M677.087 20.7273C677.507 20.7113 677.928 20.6923 678.355 20.6793C678.442 20.6761 678.549 20.6928 678.629 20.7033C678.951 20.7486 678.905 20.8266 678.919 20.8954C678.926 20.9672 678.186 21.0266 677.871 20.9782C677.523 20.9238 677.208 20.8617 676.728 20.8961C676.541 20.9087 676.32 20.8815 676.2 20.8374C676.018 20.7735 676.118 20.7473 676.459 20.7513C676.66 20.7541 676.873 20.7369 677.087 20.7273Z" fill="#FFE492"/>
<path d="M464.769 0.5582C465.203 0.540603 465.637 0.513824 466.072 0.511554C466.325 0.50959 466.453 0.559941 466.393 0.596826C466.36 0.619872 466.28 0.652194 466.2 0.655395C465.332 0.693654 464.464 0.725786 463.596 0.760979C463.342 0.739954 463.215 0.70799 463.274 0.671105C463.308 0.648059 463.387 0.617269 463.467 0.612535C463.901 0.590341 464.335 0.575796 464.769 0.5582Z" fill="#FFE492"/>
<path d="M668.715 15.8032C669.136 15.7872 669.563 15.7634 669.984 15.755C670.204 15.7516 670.379 15.7865 670.406 15.8263C670.419 15.8447 670.313 15.8771 670.226 15.8849C669.626 15.938 668.978 15.9452 668.35 15.9724C668.15 15.9804 667.936 15.9562 667.815 15.9135C667.634 15.8479 667.734 15.8233 668.074 15.8273C668.288 15.8284 668.502 15.8112 668.715 15.8032Z" fill="#FFE492"/>
<path d="M566.933 10.7246C567.147 10.7166 567.367 10.6964 567.574 10.7021C567.795 10.7094 567.936 10.7534 568.003 10.7976C568.077 10.8478 568.071 10.8951 568.005 10.938C567.899 11.0114 567.792 11.0086 567.544 10.9601C567.162 10.8845 567.136 10.8937 566.381 10.898C566.294 10.8982 566.187 10.8754 566.12 10.8557C566.02 10.8254 566.073 10.778 566.306 10.7501C566.479 10.73 566.72 10.7326 566.933 10.7246Z" fill="#FFE492"/>
<path d="M653.054 15.3418C653.368 15.329 653.681 15.3086 653.995 15.3081C654.216 15.3061 654.39 15.341 654.41 15.3793C654.417 15.3976 654.317 15.4284 654.237 15.4377C653.857 15.4797 653.43 15.4835 653.016 15.498C652.822 15.5044 652.608 15.4803 652.487 15.4376C652.306 15.3737 652.413 15.3444 652.74 15.353C652.84 15.3559 652.947 15.3466 653.054 15.3418Z" fill="#FFE492"/>
<path d="M603.609 13.5971C603.142 13.6162 602.701 13.594 602.734 13.5542C602.78 13.5021 602.973 13.4681 603.174 13.4585C603.494 13.4427 603.814 13.4299 604.142 13.4201C604.349 13.4137 604.536 13.4363 604.703 13.4758C604.604 13.525 604.451 13.5604 604.25 13.5715C604.043 13.5825 603.823 13.589 603.609 13.5971Z" fill="#FFE492"/>
<path d="M600.542 13.4094C600.856 13.3966 601.17 13.3762 601.483 13.3757C601.704 13.3738 601.878 13.4087 601.899 13.4469C601.905 13.4652 601.806 13.496 601.726 13.5053C601.345 13.5473 600.918 13.5511 600.504 13.5656C600.31 13.572 600.096 13.5479 599.975 13.5053C599.794 13.4413 599.901 13.4121 600.228 13.4207C600.328 13.4236 600.435 13.4142 600.542 13.4094Z" fill="#FFE492"/>
<path d="M563.144 10.722C563.457 10.7092 563.771 10.6888 564.085 10.6867C564.305 10.6848 564.48 10.7197 564.5 10.7579C564.507 10.7763 564.407 10.8055 564.327 10.8164C563.947 10.8584 563.519 10.8622 563.105 10.8766C562.912 10.8831 562.698 10.859 562.577 10.8163C562.396 10.7524 562.502 10.7231 562.83 10.7317C562.93 10.7346 563.037 10.7252 563.144 10.722Z" fill="#FFE492"/>
<path d="M561.387 10.6366C561.721 10.6237 561.828 10.6159 561.935 10.6157C562.135 10.6154 562.342 10.6334 562.463 10.6776C562.644 10.7415 562.538 10.7601 562.21 10.7637C561.79 10.7675 561.376 10.8003 560.955 10.8072C560.735 10.8106 560.56 10.7742 560.547 10.7359C560.54 10.7176 560.64 10.6853 560.72 10.679C561 10.6556 561.307 10.6413 561.387 10.6366Z" fill="#FFE492"/>
<path d="M597.718 1.61307C597.504 1.62108 597.278 1.64287 597.077 1.63557C596.81 1.62533 596.702 1.58424 596.769 1.5459C596.809 1.52443 596.882 1.49373 596.962 1.48901C597.389 1.46687 597.823 1.45236 598.25 1.43634C598.504 1.45884 598.618 1.49075 598.552 1.52908C598.512 1.55055 598.439 1.57972 598.359 1.58598C598.152 1.60162 597.932 1.60506 597.718 1.61307Z" fill="#FFE492"/>
<path d="M338.401 3.11004C338.608 3.10816 338.795 3.1277 338.956 3.16562C338.856 3.21467 338.71 3.247 338.51 3.2611C338.41 3.26738 338.296 3.27215 338.189 3.27386C337.982 3.27727 337.795 3.2562 337.634 3.21828C337.734 3.16923 337.887 3.13688 338.08 3.1228C338.181 3.11652 338.294 3.11481 338.401 3.11004Z" fill="#FFE492"/>
<path d="M666.427 15.8017C666.42 15.7574 666.827 15.7063 667.194 15.7072C667.388 15.7084 667.588 15.7294 667.702 15.7705C667.877 15.8328 667.777 15.8574 667.449 15.8534C667.249 15.8507 667.036 15.877 666.835 15.8728C666.608 15.8716 666.474 15.8383 666.427 15.8017Z" fill="#FFE492"/>
<path d="M568.874 10.9048C568.867 10.888 568.833 10.8682 568.853 10.8529C568.979 10.7688 569.747 10.7415 569.948 10.8144C569.981 10.8281 569.995 10.851 569.969 10.8647C569.929 10.8862 569.856 10.9138 569.776 10.92C569.569 10.9356 569.355 10.9436 569.141 10.9455C569.048 10.9457 568.961 10.9199 568.874 10.9048Z" fill="#FFE492"/>
<path d="M210.757 11.437C209.969 11.4704 209.956 11.4674 210.095 11.3908C210.221 11.3219 210.454 11.2802 210.795 11.2797C210.895 11.2795 211.002 11.2763 211.089 11.2822C211.182 11.2897 211.316 11.3047 211.336 11.323C211.377 11.3581 211.264 11.3964 211.064 11.4227C210.977 11.4351 210.863 11.4323 210.757 11.437Z" fill="#FFE492"/>
<path d="M348.268 2.87253C348.034 2.89887 347.834 2.89006 347.686 2.84147C347.539 2.79289 347.772 2.73449 348.179 2.72006C348.286 2.71683 348.399 2.70444 348.5 2.71037C348.6 2.71478 348.7 2.7329 348.761 2.75111C348.868 2.78145 348.802 2.82278 348.588 2.85825C348.502 2.87213 348.375 2.86929 348.268 2.87253Z" fill="#FFE492"/>
<path d="M665.038 15.6916C665.098 15.6717 665.157 15.6518 665.224 15.6334C665.47 15.6589 665.577 15.6891 665.511 15.7243C665.471 15.7456 665.392 15.7641 665.332 15.784C665.085 15.7585 664.985 15.7267 665.038 15.6916Z" fill="#FFE492"/>
<path d="M221.497 28.7047C221.497 28.6864 221.589 28.6573 221.663 28.6511C221.802 28.6402 221.976 28.6612 222.096 28.7037C222.263 28.7644 222.164 28.7965 221.857 28.7803C221.644 28.7685 221.497 28.7382 221.497 28.7047Z" fill="#FFE492"/>
<path d="M571.58 9.48359C571.667 9.49717 571.754 9.51076 571.834 9.52587C571.721 9.5825 571.582 9.60713 571.435 9.59213C571.342 9.58313 571.261 9.56497 571.175 9.55139C571.287 9.49476 571.42 9.47319 571.58 9.48359Z" fill="#FFE492"/>
<path d="M569.264 9.4206C569.397 9.39749 569.557 9.40944 569.744 9.45335C569.684 9.47328 569.631 9.49625 569.558 9.51163C569.432 9.53624 569.265 9.52431 569.085 9.47886C569.138 9.46047 569.198 9.44054 569.264 9.4206Z" fill="#FFE492"/>
<path d="M567.494 9.49219C567.581 9.50577 567.668 9.51935 567.748 9.53446C567.635 9.59109 567.502 9.61571 567.349 9.60072C567.256 9.59173 567.176 9.57356 567.089 9.55998C567.201 9.50335 567.334 9.48026 567.494 9.49219Z" fill="#FFE492"/>
<path d="M566.192 9.41486C566.292 9.44514 566.239 9.48177 566.047 9.52321C565.96 9.50965 565.86 9.49918 565.793 9.48102C565.686 9.45227 565.739 9.4141 565.939 9.37265C566.019 9.38774 566.105 9.4013 566.192 9.41486Z" fill="#FFE492"/>
</svg>
