<svg width="235" height="39" viewBox="0 0 235 39" fill="none" xmlns="http://www.w3.org/2000/svg">
<path d="M219.176 19.7731C218.857 19.8066 218.535 19.8303 218.222 19.8793C218.019 19.91 217.932 19.825 217.796 19.7812C217.751 19.766 217.702 19.7352 217.66 19.7394C217.344 19.7728 217.029 19.8102 216.713 19.8475C216.617 19.9242 216.556 20.0258 216.408 20.0639C216.263 20.1 216.092 20.1012 215.931 20.1199C215.718 20.1429 215.506 20.1659 215.293 20.1869C215.186 20.1974 215.1 20.235 215.065 20.3054C215.058 20.3171 215.129 20.3458 215.168 20.363C215.298 20.4204 215.424 20.4857 215.566 20.5294C215.702 20.5713 215.869 20.5 216.015 20.5534C216.341 20.6737 216.344 20.6717 216.593 20.6465C216.805 20.6235 217.018 20.5986 217.231 20.5815C217.273 20.5773 217.321 20.6061 217.367 20.6214C217.502 20.6632 217.59 20.7599 217.79 20.7215C217.941 20.6912 218.109 20.6841 218.267 20.6674C218.399 20.7229 218.522 20.7862 218.665 20.8299C218.797 20.8718 218.836 20.9046 218.766 20.9616C218.701 21.0146 218.611 21.0367 218.492 21.0414C218.386 21.0441 218.279 21.0624 218.173 21.0729C218.118 21.0792 218.067 21.0835 218.015 21.0897C217.812 21.1126 217.812 21.1126 217.44 20.9907C217.295 20.9431 217.131 21.0124 216.992 20.9667C216.898 20.9363 216.817 20.8902 216.726 20.8577C216.688 20.8444 216.626 20.8429 216.578 20.8471C216.417 20.8619 216.256 20.8728 216.101 20.8993C215.991 20.9176 215.927 20.9726 215.941 21.027C215.944 21.0484 216.022 21.0789 216.067 21.0806C216.17 21.0837 216.279 21.0556 216.38 21.0685C216.476 21.0814 216.577 21.1196 216.648 21.1619C216.794 21.2504 216.958 21.1694 217.096 21.1918C217.242 21.216 217.362 21.293 217.501 21.3387C217.536 21.3501 217.604 21.3301 217.659 21.3239C217.816 21.3091 217.975 21.2963 218.132 21.2815C218.265 21.337 218.407 21.3866 218.527 21.4499C218.744 21.5651 218.977 21.6082 219.257 21.5497C219.415 21.5174 219.569 21.528 219.696 21.603C219.825 21.6799 219.974 21.671 220.138 21.6542C220.29 21.6375 220.444 21.5936 220.599 21.647C220.935 21.7652 220.939 21.771 221.335 21.7214C221.454 21.7069 221.545 21.7023 221.635 21.7465C221.719 21.7867 221.81 21.8211 221.897 21.8594C222.055 21.8446 222.216 21.8298 222.374 21.8131C222.577 21.7902 222.69 21.8166 222.74 21.9252C222.769 21.9912 222.782 22.0515 222.854 22.0957C222.938 22.1496 223.028 22.147 223.151 22.1305C223.267 22.116 223.35 22.094 223.398 22.0236C223.417 21.9943 223.456 21.9667 223.491 21.9431C223.52 21.9254 223.565 21.8978 223.591 21.9015C223.639 21.9089 223.704 21.9299 223.72 21.955C223.88 22.1894 223.88 22.1914 224.042 22.2583C224.22 22.3329 224.404 22.3997 224.566 22.4842C224.712 22.559 224.856 22.5249 225.014 22.5237C225.134 22.5229 225.212 22.5729 225.202 22.6236C225.196 22.6528 225.151 22.696 225.113 22.7001C224.797 22.7414 224.478 22.7768 224.159 22.8064C224.12 22.8106 224.071 22.7759 224.026 22.7587C223.935 22.7243 223.854 22.6704 223.758 22.6594C223.661 22.6485 223.548 22.6785 223.442 22.689C223.335 22.6995 223.223 22.7257 223.126 22.7108C223.029 22.6959 222.951 22.64 222.861 22.6037C222.818 22.5865 222.76 22.5616 222.725 22.5677C222.49 22.6162 222.315 22.5532 222.147 22.4688C222.111 22.4515 222.05 22.4403 222.005 22.4445C221.631 22.4803 221.26 22.522 220.886 22.5617C220.735 22.5784 220.612 22.5111 220.579 22.3965C220.562 22.3324 220.529 22.2684 220.529 22.2042C220.528 22.0874 220.35 22.0245 220.221 22.039C220.009 22.0601 219.793 22.0772 219.583 22.1079C219.412 22.1325 219.267 22.1102 219.151 22.041C219.015 21.9622 218.86 21.9789 218.705 22.0015C218.589 22.0179 218.557 22.0823 218.565 22.2438C218.572 22.3742 218.518 22.4155 218.308 22.4384C218.044 22.4676 217.776 22.4968 217.509 22.5202C217.467 22.5244 217.418 22.4917 217.376 22.4744C217.286 22.4401 217.205 22.3842 217.108 22.3732C217.011 22.3603 216.898 22.3903 216.792 22.4028C216.686 22.4133 216.573 22.4414 216.476 22.4285C216.379 22.4155 216.298 22.3578 216.211 22.3214C216.169 22.3042 216.117 22.2793 216.075 22.2835C215.862 22.3006 215.65 22.3255 215.437 22.3485C215.199 22.3736 215.199 22.3736 214.859 22.2554C214.704 22.202 214.549 22.246 214.398 22.2626C214.237 22.2794 214.085 22.2883 213.959 22.2113C213.875 22.1613 213.781 22.1309 213.681 22.1414C213.413 22.1667 213.149 22.1978 212.882 22.2231C212.837 22.2273 212.775 22.2181 212.74 22.2008C212.568 22.1203 212.4 22.0573 212.162 22.0999C211.955 22.1364 211.733 22.14 211.527 22.1746C211.414 22.193 211.363 22.2556 211.386 22.3041C211.399 22.3293 211.467 22.358 211.512 22.3577C211.615 22.3589 211.728 22.3289 211.825 22.3398C212.025 22.3617 212.126 22.5245 212.387 22.4778C212.541 22.4494 212.703 22.4385 212.864 22.4296C212.906 22.4273 212.951 22.464 212.996 22.4831C213.126 22.5347 213.239 22.602 213.426 22.5656C213.581 22.5372 213.745 22.5283 213.903 22.5115C214.154 22.4844 214.154 22.4863 214.481 22.6027C214.636 22.658 214.791 22.6121 214.942 22.5974C215.055 22.5868 215.161 22.5666 215.252 22.5932C215.391 22.633 215.491 22.7257 215.662 22.7186C215.823 22.7116 215.981 22.6832 216.142 22.6723C216.242 22.6657 216.336 22.6962 216.417 22.7481C216.501 22.8001 216.592 22.8228 216.701 22.8103C216.859 22.7936 217.02 22.7729 217.182 22.762C217.227 22.7597 217.279 22.7769 217.321 22.7921C217.411 22.8265 217.498 22.8668 217.586 22.9031C217.744 22.8903 217.905 22.8852 218.06 22.8607C218.179 22.8423 218.263 22.8495 218.36 22.8877C218.483 22.9394 218.583 23.0321 218.783 22.9859C218.883 22.9637 218.999 22.9687 219.099 22.9485C219.221 22.9223 219.305 22.9314 219.393 22.9892C219.558 23.0989 219.764 23.0993 219.977 23.055C220.209 23.0066 220.383 23.0598 220.558 23.1442C220.743 23.2324 220.743 23.2304 220.886 23.4454C220.928 23.5074 221.048 23.5357 221.148 23.5233C221.315 23.5026 221.461 23.5113 221.584 23.5844C221.713 23.6632 221.868 23.6524 222.026 23.6298C222.235 23.5991 222.445 23.5722 222.617 23.6839C222.701 23.7378 222.791 23.7507 222.904 23.7363C223.223 23.6989 223.545 23.6752 223.858 23.6301C224.048 23.6014 224.158 23.6629 224.287 23.7145C224.462 23.7852 224.653 23.8481 224.654 24.0019C224.654 24.0272 224.7 24.056 224.738 24.0752C224.823 24.1155 224.913 24.1498 225 24.1881C225.13 24.2456 225.256 24.2933 225.433 24.2609C225.588 24.2345 225.752 24.2255 225.91 24.2068C226.068 24.1881 226.213 24.1773 226.356 24.2502C226.521 24.3327 226.695 24.4113 226.883 24.4722C227.015 24.516 227.189 24.4388 227.331 24.4981C227.419 24.5345 227.503 24.5767 227.597 24.6071C227.635 24.6205 227.697 24.6103 227.748 24.606C227.855 24.5975 227.964 24.5908 228.067 24.5706C228.186 24.5483 228.277 24.5516 228.367 24.5957C228.452 24.6359 228.536 24.6918 228.633 24.7027C228.778 24.7192 228.939 24.6402 229.084 24.7286C229.159 24.7729 229.253 24.815 229.35 24.8279C229.446 24.8408 229.559 24.8108 229.662 24.812C229.708 24.8117 229.763 24.8424 229.788 24.8675C229.805 24.881 229.782 24.9182 229.76 24.9378C229.731 24.9614 229.689 24.9928 229.648 24.997C229.328 25.0344 229.009 25.0659 228.69 25.1014C228.5 25.1222 228.5 25.1222 228.115 25.0024C228.025 24.9739 227.925 24.9804 227.812 24.9949C227.661 25.0135 227.506 25.0477 227.348 25.0138C227.141 24.883 226.886 24.8732 226.615 24.9257C226.502 24.948 226.399 24.9487 226.315 24.9124C226.137 24.8397 225.95 24.773 225.791 24.6865C225.668 24.6193 225.61 24.6139 225.559 24.7077C225.543 24.737 225.527 24.7683 225.53 24.7955C225.551 24.8927 225.587 24.9878 225.607 25.085C225.613 25.1122 225.588 25.1435 225.572 25.1728C225.521 25.255 225.453 25.2496 225.34 25.1823C225.226 25.115 225.091 25.0712 224.91 25.1037C224.756 25.1321 224.588 25.1294 224.433 25.1597C224.195 25.2043 224.027 25.1432 223.855 25.0608C223.82 25.0435 223.758 25.0342 223.713 25.0385C223.233 25.0868 222.756 25.1408 222.276 25.1891C222.173 25.1996 222.079 25.1711 221.998 25.1191C221.914 25.0672 221.82 25.0406 221.717 25.0511C221.291 25.0951 220.866 25.1352 220.44 25.1889C220.266 25.2116 220.128 25.1873 220.008 25.12C219.917 25.0701 219.833 25.0551 219.72 25.0618C219.598 25.0685 219.511 25.0887 219.45 25.1456C219.392 25.2005 219.434 25.2332 219.564 25.2751C219.703 25.3208 219.832 25.3802 219.965 25.4338C220.071 25.4252 220.177 25.4088 220.281 25.41C220.326 25.4097 220.368 25.4444 220.413 25.4636C220.543 25.5191 220.662 25.5747 220.846 25.5422C221.001 25.5138 221.165 25.5067 221.323 25.4881C221.542 25.4651 221.542 25.4651 221.898 25.5851C221.988 25.6156 222.085 25.6129 222.201 25.5945C222.301 25.5802 222.404 25.6067 222.476 25.6646C222.505 25.6877 222.496 25.7267 222.435 25.8556C222.436 25.951 222.503 25.9077 222.525 25.8452C222.56 25.7554 222.492 25.7267 222.364 25.7763C222.274 25.812 222.229 25.863 222.252 25.9037C222.265 25.925 222.326 25.9518 222.435 25.8556C222.718 25.7368 222.934 25.7216 223.14 25.6889C223.263 25.6705 223.34 25.6777 223.437 25.7276C223.554 25.7871 223.67 25.8505 223.861 25.818C224.067 25.7814 224.286 25.7759 224.495 25.7452C224.689 25.7165 224.789 25.8014 224.912 25.8511C225.061 25.9104 225.225 25.8411 225.361 25.8751C225.503 25.9091 225.603 25.994 225.768 26.0084C226.006 25.9541 226.159 26.0503 226.34 26.1132C226.482 26.1609 226.649 26.1168 226.801 26.0943C226.972 26.0697 227.114 26.0901 227.233 26.1593C227.369 26.2381 227.521 26.2194 227.676 26.2008C228.037 26.1592 228.049 26.1533 228.26 26.2588C228.412 26.3356 228.557 26.2995 228.708 26.2886C228.841 26.3402 228.97 26.3957 229.109 26.4414C229.145 26.4528 229.213 26.4329 229.267 26.4266C229.425 26.4099 229.586 26.3932 229.744 26.3764C229.851 26.3659 229.963 26.3359 230.06 26.3469C230.157 26.3598 230.238 26.4157 230.325 26.452C230.413 26.4883 230.503 26.5247 230.588 26.563C230.717 26.6204 230.84 26.6682 231.02 26.6377C231.175 26.6112 231.336 26.6023 231.497 26.5836C231.7 26.5607 231.694 26.5666 232.072 26.6806C232.276 26.7434 232.485 26.664 232.691 26.6547C232.794 26.65 232.894 26.6707 232.966 26.7266C232.995 26.7498 232.986 26.7888 232.995 26.8218C232.464 26.8782 231.929 26.9269 231.403 26.995C231.2 27.0218 231.093 26.9525 230.983 26.8949C230.802 26.8028 230.564 26.9408 230.393 26.8213C230.289 26.7501 230.14 26.7103 229.963 26.7466C229.86 26.7669 229.75 26.7657 229.644 26.784C229.373 26.8288 229.125 26.8326 228.908 26.6998C228.833 26.6537 228.727 26.6291 228.649 26.5849C228.559 26.5369 228.471 26.5103 228.365 26.5208C227.885 26.571 227.408 26.6212 226.931 26.6753C226.889 26.6795 226.847 26.7091 226.812 26.7307C226.722 26.7859 226.751 26.8285 226.897 26.8625C226.945 26.8738 226.984 26.8988 227.029 26.9179C227.117 26.9543 227.198 27.0121 227.294 27.025C227.391 27.0379 227.504 27.0099 227.61 26.9994C227.717 26.9888 227.829 26.9588 227.926 26.9698C228.023 26.9827 228.104 27.0386 228.195 27.073C228.237 27.0902 228.289 27.119 228.33 27.1167C228.543 27.1035 228.753 27.0805 228.965 27.0615C229.098 27.1131 229.211 27.1881 229.37 27.2045C229.47 27.2155 229.576 27.1933 229.679 27.1964C229.724 27.198 229.783 27.2268 229.805 27.2519C229.818 27.2674 229.777 27.3067 229.745 27.3264C229.623 27.4012 229.455 27.3888 229.303 27.4133C229.139 27.4398 228.991 27.4331 228.864 27.3581C228.78 27.3081 228.686 27.2815 228.583 27.292C228.316 27.3193 228.051 27.3504 227.784 27.3738C227.739 27.378 227.684 27.3609 227.642 27.3476C227.302 27.2313 227.302 27.2274 227.064 27.2545C226.712 27.294 226.713 27.294 226.476 27.1926C226.431 27.1734 226.382 27.1368 226.344 27.139C225.97 27.1729 225.599 27.2068 225.229 27.2542C225.106 27.2688 225.022 27.2694 224.932 27.2194C224.854 27.1772 224.763 27.1292 224.666 27.1182C224.566 27.1073 224.457 27.1373 224.35 27.1478C224.244 27.1583 224.131 27.1844 224.038 27.1695C223.941 27.1547 223.857 27.1008 223.773 27.0625C223.685 27.0222 223.592 27.0248 223.472 27.0413C223.105 27.0887 223.102 27.0829 222.736 26.9649C222.694 26.9516 222.64 26.9364 222.594 26.9406C222.327 26.966 222.063 26.9971 221.795 27.0224C221.692 27.0329 221.592 27.0083 221.52 26.9524C221.491 26.9292 221.501 26.8902 221.481 26.8145C221.458 26.7971 221.484 26.8281 221.491 26.8572C221.539 26.853 221.597 26.8564 221.633 26.8406C221.723 26.803 221.767 26.754 221.745 26.7133C221.731 26.6919 221.67 26.6651 221.631 26.6654C221.56 26.6659 221.499 26.7092 221.481 26.8145C221.278 26.8802 221.062 26.8954 220.853 26.9281C220.73 26.9484 220.653 26.9393 220.556 26.8894C220.439 26.8279 220.319 26.7684 220.129 26.801C219.923 26.8375 219.704 26.845 219.491 26.8738C219.246 26.9067 219.139 26.7323 218.932 26.7377C218.719 26.7432 218.507 26.7778 218.294 26.8027C218.107 26.8236 218.107 26.8236 217.719 26.6999C217.577 26.6542 217.41 26.7235 217.271 26.6759C217.177 26.6454 217.096 26.5993 217.005 26.5669C216.967 26.5535 216.905 26.554 216.857 26.5582C216.589 26.5835 216.319 26.6011 216.061 26.6458C215.768 26.6986 215.545 26.6457 215.334 26.5324C215.07 26.5557 214.802 26.5694 214.542 26.6083C214.351 26.6369 214.241 26.5735 214.112 26.5219C214.067 26.5047 214.028 26.4758 213.979 26.4683C213.931 26.4609 213.873 26.4769 213.821 26.4831C213.609 26.5061 213.389 26.5174 213.183 26.554C212.929 26.6006 212.831 26.4417 212.634 26.4236C212.502 26.52 212.432 26.6509 212.171 26.6626C211.958 26.6719 211.746 26.7046 211.533 26.7276C211.427 26.7381 211.32 26.7505 211.214 26.7611C211.043 26.7798 210.963 26.8563 210.999 26.9728C211.019 27.0369 211.036 27.101 211.052 27.1652C211.085 27.2798 211.005 27.3777 210.87 27.3923C210.496 27.432 210.126 27.4737 209.752 27.5095C209.652 27.5199 209.555 27.4876 209.474 27.4356C209.39 27.3836 209.296 27.361 209.193 27.3715C208.819 27.4112 208.448 27.4528 208.074 27.4887C208.032 27.4929 207.978 27.4738 207.935 27.4585C207.845 27.4241 207.758 27.3839 207.67 27.3476C207.457 27.3666 207.248 27.3798 207.038 27.4047C206.7 27.4422 206.7 27.4442 206.451 27.3389C206.406 27.3198 206.36 27.2832 206.318 27.2854C206.157 27.2944 205.999 27.315 205.838 27.3337C205.364 27.3878 205.364 27.3878 205.225 27.3304C205.099 27.2768 204.986 27.2115 204.796 27.244C204.589 27.2805 204.37 27.2938 204.157 27.3148C204 27.3296 203.842 27.3464 203.684 27.3514C203.642 27.3537 203.596 27.317 203.551 27.2979C203.422 27.2385 203.295 27.1907 203.118 27.2251C203.015 27.2453 202.906 27.25 202.799 27.2605C202.522 27.2898 202.522 27.2898 202.066 27.1763C202.021 27.165 201.966 27.1518 201.921 27.1579C201.547 27.1957 201.177 27.2374 200.803 27.2732C200.758 27.2774 200.703 27.2661 200.658 27.2567C200.147 27.1475 200.147 27.1476 199.606 27.206C199.399 27.227 199.393 27.2348 199.176 27.1332C199.079 27.0892 198.998 27.0684 198.886 27.0828C198.46 27.1326 198.031 27.1669 197.609 27.2245C197.419 27.2493 197.309 27.1917 197.18 27.14C197.134 27.1229 197.086 27.0843 197.047 27.0865C196.622 27.1266 196.196 27.1745 195.771 27.2146C195.732 27.2188 195.683 27.1802 195.638 27.163C195.551 27.1286 195.467 27.0767 195.37 27.0657C195.27 27.0547 195.16 27.0847 195.051 27.0953C194.783 27.1225 194.783 27.1206 194.473 27.008C194.431 26.9928 194.376 26.9717 194.334 26.9759C193.908 27.018 193.48 27.0542 193.057 27.1137C192.816 27.1467 192.651 27.0914 192.479 27.0109C192.444 26.9936 192.382 26.9863 192.337 26.9905C191.857 27.0388 191.38 27.0929 190.9 27.1412C190.8 27.1516 190.703 27.1193 190.622 27.0692C190.492 26.9904 190.341 27.0012 190.18 27.0199C189.809 27.0635 189.806 27.0616 189.586 26.9698C189.541 26.9506 189.502 26.9256 189.453 26.9162C189.408 26.9068 189.35 26.9131 189.302 26.9173C189.089 26.9384 188.876 26.9613 188.664 26.9843C188.451 27.0073 188.235 27.0205 188.025 27.0551C187.768 27.0979 187.644 26.9723 187.463 26.9152C187.199 26.9424 186.928 26.96 186.667 27.0028C186.467 27.0354 186.373 26.9504 186.241 26.9066C186.196 26.8914 186.147 26.8586 186.105 26.8628C185.625 26.9092 185.144 26.9594 184.668 27.0154C184.551 27.028 184.474 27.013 184.377 26.967C184.16 26.8634 184.15 26.8674 183.789 26.909C183.632 26.9276 183.48 26.9443 183.344 26.8655C183.224 26.7944 183.079 26.7779 182.908 26.8025C182.699 26.8332 182.483 26.8504 182.27 26.8714C182.057 26.8944 181.845 26.9251 181.632 26.9364C181.461 26.9474 181.357 26.8567 181.221 26.811C181.179 26.7976 181.121 26.7961 181.073 26.8003C180.86 26.8194 180.641 26.8346 180.435 26.8692C180.184 26.912 180.044 26.8059 179.866 26.7449C179.827 26.7316 179.763 26.7399 179.715 26.746C179.341 26.7838 178.97 26.8255 178.596 26.8652C178.464 26.8136 178.328 26.764 178.195 26.7124C177.983 26.7334 177.77 26.7564 177.557 26.7774C177.396 26.7941 177.231 26.8012 177.08 26.8315C176.884 26.8719 176.786 26.7811 176.654 26.7373C176.608 26.722 176.56 26.6893 176.518 26.6935C176.25 26.7169 175.983 26.7422 175.719 26.7772C175.467 26.8121 175.366 26.6377 175.16 26.6411C174.947 26.6446 174.728 26.6715 174.522 26.7081C174.283 26.7507 174.115 26.6896 173.943 26.6072C173.908 26.5899 173.847 26.5807 173.801 26.5849C173.534 26.6102 173.27 26.6413 173.002 26.6666C172.957 26.6709 172.902 26.6615 172.857 26.6502C172.346 26.5391 172.346 26.5371 172.124 26.5621C171.966 26.5788 171.805 26.5995 171.644 26.6104C171.599 26.6146 171.544 26.5975 171.502 26.5822C171.165 26.4659 171.165 26.464 170.924 26.4891C170.711 26.5121 170.498 26.5351 170.285 26.558C170.153 26.5064 170.017 26.4568 169.884 26.4052C169.62 26.4325 169.349 26.4539 169.088 26.4908C168.966 26.5073 168.885 26.5021 168.791 26.4541C168.675 26.3966 168.558 26.3293 168.365 26.3638C168.159 26.4003 167.94 26.4058 167.73 26.4366C167.479 26.4734 167.374 26.2971 167.171 26.3005C166.958 26.304 166.739 26.3309 166.533 26.3674C166.295 26.4101 166.126 26.349 165.955 26.2666C165.919 26.2493 165.858 26.24 165.813 26.2442C165.226 26.305 164.643 26.3657 164.056 26.4303C163.695 26.4699 163.695 26.4719 163.008 26.3698C162.959 26.3624 162.908 26.355 162.859 26.3593C162.646 26.3783 162.427 26.3936 162.221 26.4282C161.97 26.4709 161.83 26.3668 161.653 26.3038C161.614 26.2905 161.552 26.2987 161.501 26.303C161.34 26.3178 161.182 26.3365 161.021 26.3532C160.808 26.3762 160.595 26.3992 160.383 26.4221C160.25 26.3725 160.114 26.3209 159.982 26.2713C159.717 26.2985 159.446 26.3141 159.185 26.3569C158.986 26.3895 158.892 26.3085 158.759 26.2627C158.714 26.2475 158.665 26.2147 158.623 26.217C158.143 26.2633 157.663 26.3116 157.186 26.3696C156.989 26.3944 156.898 26.3074 156.766 26.2636C156.721 26.2503 156.669 26.2254 156.627 26.2296C156.308 26.2592 155.989 26.2946 155.67 26.3301C155.489 26.3508 155.489 26.3508 155.095 26.233C155.05 26.2197 154.998 26.2065 154.953 26.2107C153.941 26.3154 152.932 26.426 151.92 26.5307C151.817 26.5412 151.723 26.5127 151.642 26.4607C151.558 26.4088 151.464 26.3822 151.361 26.3927C150.935 26.4367 150.507 26.4768 150.085 26.5305C149.911 26.5532 149.772 26.5289 149.652 26.4616C149.561 26.4117 149.477 26.3928 149.365 26.4054C149.152 26.4303 148.939 26.4513 148.726 26.4742C148.514 26.4972 148.301 26.5202 148.088 26.5432C147.876 26.5661 147.66 26.5794 147.45 26.614C147.192 26.6568 147.066 26.537 146.888 26.478C146.569 26.5095 146.25 26.541 145.934 26.5745C145.508 26.6185 145.083 26.6663 144.658 26.7084C144.619 26.7126 144.57 26.6779 144.525 26.6607C144.392 26.613 144.295 26.5456 144.099 26.5684C143.145 26.6786 142.184 26.7732 141.227 26.8814C141.027 26.9043 140.939 26.8212 140.804 26.7774C140.758 26.7641 140.707 26.7373 140.665 26.7415C140.133 26.794 139.601 26.8524 139.069 26.9088C138.853 26.9318 138.853 26.9318 138.491 26.8138C138.449 26.8005 138.394 26.7834 138.349 26.7876C137.656 26.8588 136.967 26.934 136.274 27.0071C136.17 27.0176 136.077 26.9911 135.993 26.9391C135.912 26.8872 135.815 26.8587 135.715 26.8691C135.077 26.9361 134.435 27.0011 133.8 27.0739C133.629 27.0946 133.487 27.0781 133.364 27.009C133.277 26.959 133.19 26.9382 133.08 26.9507C132.123 27.0531 131.166 27.1516 130.208 27.2598C130.025 27.2806 129.896 27.2445 129.779 27.1812C129.685 27.1312 129.604 27.1221 129.488 27.1307C129.366 27.1413 129.292 27.1633 129.224 27.2222C129.138 27.2987 129.084 27.3945 128.877 27.4019C128.665 27.4093 128.449 27.4342 128.239 27.4688C128.04 27.5034 127.945 27.4165 127.819 27.3648C127.725 27.3285 127.638 27.3233 127.519 27.3417C127.41 27.3581 127.342 27.3917 127.278 27.4544C127.137 27.5878 127.124 27.5879 126.949 27.5055C126.855 27.4614 126.771 27.427 126.668 27.4355C126.243 27.4776 125.817 27.5235 125.392 27.5714C125.147 27.5985 125.144 27.6024 124.959 27.5064C124.869 27.4584 124.781 27.4357 124.675 27.4481C123.505 27.5735 122.335 27.695 121.165 27.8261C120.985 27.8469 120.862 27.8069 120.733 27.7495C120.69 27.7303 120.648 27.7034 120.6 27.6959C120.551 27.6885 120.497 27.6967 120.445 27.701C119.594 27.7909 118.74 27.877 117.893 27.9766C117.699 27.9994 117.596 27.9379 117.463 27.8883C117.418 27.8711 117.379 27.8441 117.33 27.8367C117.282 27.8312 117.224 27.8452 117.172 27.8514C116.322 27.9414 115.467 28.0274 114.62 28.1271C114.417 28.1499 114.329 28.0688 114.197 28.027C114.151 28.0117 114.103 27.9829 114.061 27.9871C113.793 28.0104 113.529 28.0416 113.262 28.0688C112.623 28.1377 111.985 28.2028 111.347 28.2736C111.102 28.3007 110.994 28.1282 110.788 28.1375C110.52 28.1492 110.256 28.1901 109.989 28.2193C109.776 28.2423 109.563 28.2633 109.351 28.2882C109.141 28.3111 109.141 28.3111 108.618 28.2021C108.573 28.1927 108.518 28.1794 108.473 28.1837C107.728 28.2611 106.98 28.3386 106.239 28.4219C106.068 28.4407 105.926 28.432 105.803 28.3609C105.716 28.3109 105.625 28.2862 105.519 28.2987C104.401 28.4178 103.285 28.5369 102.167 28.6541C102.125 28.6583 102.07 28.6392 102.028 28.624C101.938 28.5896 101.85 28.5494 101.763 28.513C101.699 28.5583 101.615 28.5997 101.574 28.6507C101.516 28.7192 101.439 28.7392 101.316 28.7518C101.194 28.7644 101.116 28.7611 101.019 28.7112C100.903 28.6497 100.783 28.6019 100.593 28.6228C99.423 28.754 98.253 28.8735 97.0831 29.0027C96.8897 29.0236 96.7988 28.9386 96.6631 28.8948C96.6178 28.8815 96.566 28.8605 96.5241 28.8647C96.0438 28.913 95.5669 28.9651 95.0866 29.0154C93.7556 29.1575 92.4245 29.2937 91.0967 29.4436C90.855 29.4707 90.6901 29.4232 90.5186 29.3407C90.483 29.3235 90.4217 29.3142 90.3765 29.3184C88.5136 29.515 86.6507 29.7135 84.7911 29.9121C84.6912 29.9225 84.5942 29.8921 84.5132 29.8421C84.429 29.7901 84.3353 29.7655 84.2321 29.776C83.3813 29.8659 82.5304 29.9559 81.6796 30.0477C81.4669 30.0707 81.4636 30.0726 81.2436 29.9808C81.1984 29.9617 81.1497 29.9251 81.1143 29.9292C81.0402 29.9395 80.9695 29.9887 80.9184 30.0552C80.8673 30.1257 80.7868 30.1457 80.6675 30.1602C80.5451 30.1747 80.4644 30.1695 80.3706 30.1235C80.2508 30.066 80.1408 30.0103 79.9474 30.0312C77.5012 30.2982 75.0549 30.5555 72.6087 30.8206C72.4121 30.8415 72.3212 30.7604 72.1854 30.7167C72.1402 30.7034 72.0949 30.6842 72.0465 30.6807C71.9949 30.6772 71.9402 30.6893 71.8886 30.6955C67.8985 31.1198 63.9086 31.5461 59.9185 31.9704C59.68 31.9955 59.6832 31.9955 59.4233 32.1764C59.3911 32.1981 59.3494 32.2276 59.3043 32.2318C58.0828 32.3653 56.8581 32.4949 55.6333 32.6246C55.1016 32.681 54.5698 32.7394 54.038 32.7939C53.8478 32.8128 53.8478 32.8129 53.3946 33.0264C53.356 33.0442 53.3109 33.0679 53.2658 33.0721C51.1387 33.2998 49.0115 33.5275 46.8811 33.7514C46.7135 33.7682 46.5783 33.8042 46.5016 33.8982C46.4472 33.9648 46.3765 34.0042 46.2702 34.0167C44.7812 34.1755 43.2922 34.3363 41.7999 34.4913C41.6227 34.5101 41.5166 34.5654 41.4301 34.6477C41.4012 34.6752 41.3756 34.7065 41.3339 34.7263C41.2953 34.7441 41.2373 34.7504 41.1889 34.7566C39.9126 34.8924 38.6364 35.0322 37.3569 35.1622C37.1667 35.1811 37.0898 35.2537 36.9968 35.3303C36.9647 35.3558 36.9423 35.391 36.9005 35.4089C36.8587 35.4247 36.7974 35.4252 36.7459 35.4295C35.6823 35.5423 34.6187 35.6572 33.5552 35.7701C33.3487 35.7618 33.3043 35.8751 33.2048 35.9439C33.1695 35.9675 33.144 35.9989 33.1021 36.0148C33.0571 36.0307 32.999 36.0291 32.9442 36.0334C32.0933 36.1233 31.2425 36.2191 30.3883 36.3032C30.1917 36.3222 30.1537 36.4217 30.0478 36.4906C30.0124 36.5123 29.9772 36.5457 29.9353 36.5518C29.4036 36.6121 28.8718 36.6686 28.34 36.7231C28.1627 36.7419 28.1627 36.7399 27.8512 36.9349C27.8159 36.9566 27.7741 36.9803 27.729 36.9864C26.9329 37.074 26.1337 37.1577 25.3344 37.2434C25.2312 37.2539 25.1606 37.3011 25.1095 37.3676C25.0583 37.4342 24.9845 37.4776 24.8813 37.4881C24.2432 37.557 23.605 37.6278 22.9668 37.6909C22.7895 37.7077 22.6738 37.7572 22.597 37.8454C22.5394 37.912 22.4687 37.9456 22.3559 37.9581C21.7178 38.0251 21.0797 38.0979 20.4382 38.1571C20.2513 38.174 20.155 38.2409 20.0781 38.3232C20.0173 38.3898 19.9465 38.4137 19.8273 38.4263C18.6573 38.5477 17.4842 38.6692 16.3175 38.8023C16.1209 38.8251 16.0204 38.7577 15.8911 38.71C15.7068 38.6432 15.5353 38.5705 15.5343 38.4187C15.5341 38.3953 15.4791 38.3685 15.4402 38.3493C15.1522 38.2054 15.1521 38.2054 15.1059 38.05C15.0794 37.9549 15.0497 37.8578 15.0264 37.7606C14.9834 37.6013 14.8798 37.5612 14.5833 37.5925C14.477 37.603 14.3706 37.6174 14.2643 37.626C14.1063 37.6408 13.9865 37.5774 13.9567 37.4608C13.9401 37.3967 13.9203 37.3326 13.9038 37.2685C14.0649 37.2518 14.0616 37.2499 14.3438 37.0123C14.4624 36.9121 14.4625 36.9121 14.2328 36.8145C14.1454 36.7782 14.0613 36.7379 13.9675 36.7035C13.9255 36.6883 13.8706 36.679 13.8254 36.6832C13.5579 36.7085 13.2937 36.7377 13.0294 36.7669C12.6039 36.8128 12.6039 36.8128 12.1703 36.6174C12.1347 36.6021 12.0797 36.5733 12.086 36.5577C12.121 36.4854 12.2078 36.4536 12.3175 36.445C12.4786 36.4322 12.6365 36.4116 12.7944 36.3948C12.9008 36.3843 13.0072 36.3719 13.1135 36.3614C13.213 36.2867 13.3157 36.2139 13.4087 36.1373C13.5563 36.0194 13.5562 36.0155 13.3524 35.9353C13.223 35.8817 13.084 35.8341 12.9514 35.7844C12.7935 35.8011 12.6323 35.8198 12.4744 35.8346C12.2746 35.8536 12.1937 35.8172 12.1412 35.6911C12.0952 35.5804 12.1494 35.4847 12.304 35.4602C12.4619 35.4357 12.6102 35.419 12.6902 35.3192C12.7669 35.2232 12.9021 35.1852 13.0697 35.1762C13.1761 35.1696 13.2824 35.1552 13.3888 35.1428C13.5274 35.1262 13.6009 35.0264 13.5711 34.9156C13.5544 34.8437 13.5217 34.7836 13.3958 34.769C12.8374 34.7049 12.8309 34.7069 12.5526 34.5766C12.5267 34.5651 12.5072 34.5302 12.5167 34.5126C12.5326 34.4833 12.5678 34.4402 12.6065 34.4341C12.9771 34.3886 13.3477 34.3469 13.7184 34.315C13.8409 34.3044 13.9311 34.2901 13.9725 34.2177C14.0299 34.1181 14.0034 34.0268 13.8901 33.9595C13.8544 33.9383 13.7961 33.9115 13.7575 33.9137C13.332 33.9519 12.9098 33.9997 12.4843 34.0379C12.4456 34.042 12.3745 34.0095 12.3582 33.9843C12.3256 33.9378 12.3735 33.8752 12.4862 33.8529C12.6344 33.8227 12.786 33.8196 12.8853 33.7215C13.023 33.5823 13.193 33.4546 13.3469 33.3211C13.3725 33.2975 13.4142 33.2524 13.4045 33.2486C13.3235 33.2064 13.2298 33.174 13.1456 33.1337C13.0032 33.0666 13.0025 32.9713 13.0341 32.8796C13.0594 32.8054 13.1559 32.7755 13.2753 32.7746C13.3269 32.7742 13.3914 32.7738 13.4332 32.756C13.5425 32.7123 13.5776 32.6576 13.5225 32.6171C13.4901 32.594 13.4319 32.5613 13.3932 32.5655C12.7034 32.6348 12.0104 32.7021 11.324 32.7869C11.121 32.8118 11.027 32.7385 10.904 32.6868C10.8102 32.6466 10.723 32.6317 10.6071 32.6617C10.4976 32.6898 10.3911 32.675 10.3229 32.6113C10.2677 32.5591 10.3641 32.5137 10.625 32.4611C10.6733 32.4511 10.7281 32.4448 10.7634 32.4251C11.1361 32.2121 11.1361 32.2102 11.3939 32.181C11.6453 32.1539 11.6453 32.152 11.7768 32.0381C11.8377 31.9851 11.905 31.932 11.9626 31.8771C11.9851 31.8555 12.0235 31.8163 12.0106 31.8047C11.9392 31.7449 11.8423 31.732 11.7295 31.7465C11.4782 31.7814 11.1813 31.7563 11.0504 31.9422C10.9993 32.0126 10.9188 32.0327 10.8027 32.0452C9.636 32.1667 8.46928 32.2959 7.29929 32.4134C7.10913 32.4323 7.02261 32.505 6.94899 32.5853C6.88495 32.652 6.81412 32.672 6.69164 32.6845C6.56917 32.6971 6.47241 32.7037 6.401 32.64C6.35879 32.6013 6.3939 32.5466 6.49027 32.4914C6.6284 32.4125 6.6019 32.3154 6.5561 32.2242C6.52342 32.1641 6.42314 32.122 6.31674 32.1267C6.15875 32.1356 6.00736 32.1581 5.87458 32.0812C5.79685 32.037 5.69986 32.0066 5.6125 31.9683C5.44423 31.8897 5.27593 31.8092 5.04086 31.8635C4.87946 31.8452 4.76608 31.776 4.63669 31.7224C4.41997 31.6344 4.40052 31.6209 4.55466 31.5244C4.72806 31.4161 4.59159 31.2769 4.6876 31.1711C4.79001 31.0575 4.93127 30.9572 5.05631 30.8512C5.08837 30.8237 5.11723 30.7982 5.14929 30.7707C5.07483 30.7323 5.00677 30.6841 4.9195 30.6575C4.80637 30.6233 4.74801 30.5809 4.75361 30.4602C4.73091 30.4428 4.74083 30.4875 4.76672 30.499C4.79583 30.5105 4.86677 30.5002 4.90215 30.4863C4.99219 30.4487 5.03695 30.3997 5.01409 30.359C5.00104 30.3377 4.93961 30.3109 4.90091 30.3112C4.82995 30.3117 4.76899 30.3549 4.75038 30.4602C4.38972 30.5426 4.01581 30.5843 3.6419 30.6182C3.60322 30.6224 3.5546 30.5838 3.50931 30.5646C3.36048 30.4996 3.36047 30.5015 2.92493 30.4852C2.87976 30.4836 2.81832 30.4568 2.79556 30.4297C2.70118 30.3117 2.70351 30.1812 2.65747 30.055C2.74075 29.9727 2.82397 29.8923 2.91049 29.8118C3.08351 29.649 3.30832 29.5052 3.44253 29.3271C3.41283 29.232 3.37345 29.1369 3.51481 29.058C3.91727 28.9577 3.91407 28.9577 4.02307 28.8635C4.33405 28.5965 4.64177 28.3275 4.96567 28.0643C5.05227 27.9956 5.05202 27.9586 4.897 27.9305C4.84857 27.9231 4.79688 27.9215 4.74531 27.9258C4.58414 27.9406 4.42313 27.9768 4.26504 27.9702C4.10696 27.9655 3.99025 27.8807 3.86087 27.8291C3.72825 27.7756 3.59562 27.7201 3.46299 27.6646C3.31145 27.6716 3.16027 27.7272 3.00807 27.6407C2.89148 27.5734 2.74601 27.5258 2.61338 27.4703C2.71231 27.3217 2.89861 27.2074 3.04282 27.0759C3.17422 26.9562 3.17738 26.9581 3.53151 26.8641C3.69892 26.82 3.75543 26.5996 3.61306 26.5364C3.44157 26.4598 3.26049 26.3891 3.08581 26.3164C2.93426 26.3234 2.77985 26.3771 2.6341 26.2906C2.52075 26.2252 2.3914 26.1814 2.20451 26.208C1.88874 26.2532 1.56638 26.2769 1.24733 26.3143C1.13776 26.3268 1.01833 26.3199 0.969488 26.2541C0.936906 26.2076 1.02999 26.1427 1.13633 26.1283C1.29745 26.1076 1.4424 26.0832 1.52235 25.9853C1.59907 25.8874 1.74075 25.8572 1.90837 25.8423C1.95349 25.8381 2.00497 25.8143 2.02738 25.7908C2.14269 25.6771 2.27102 25.5788 2.51939 25.5809C2.62233 25.5412 2.67678 25.4921 2.64419 25.4457C2.62466 25.4205 2.55674 25.3879 2.51806 25.3921C2.2505 25.4135 1.98296 25.4349 1.72196 25.4719C1.59951 25.4884 1.50596 25.4929 1.42814 25.4351C1.37304 25.3966 1.40169 25.3438 1.5045 25.2866C1.59446 25.2373 1.61989 25.1806 1.61297 25.1145C1.59576 24.9608 1.49867 24.9168 1.18912 24.9288C0.96663 24.9382 0.911619 24.9133 0.862305 24.7813C0.849184 24.7502 0.816686 24.7077 0.839112 24.6861C0.976861 24.5527 1.06602 24.3886 1.32682 24.3244C1.42986 24.3002 1.53948 24.2994 1.60363 24.2484C1.66777 24.1973 1.72544 24.1385 1.79283 24.0893C1.87627 24.0303 1.93388 23.9754 1.89492 23.9387C1.82995 23.873 1.72673 23.8679 1.60757 23.8921C1.5045 23.9123 1.39485 23.9151 1.2885 23.9275C1.09837 23.9503 0.943234 23.9009 0.920052 23.8154C0.857178 23.59 0.791073 23.3667 0.734649 23.1413C0.728006 23.1141 0.74384 23.0789 0.769477 23.0554C0.859206 22.973 0.95545 22.8944 1.04842 22.8139C1.15743 22.7216 1.33174 22.7379 1.47998 22.7193C1.68944 22.6924 1.68938 22.6944 1.96866 22.5055C2.07779 22.4307 2.2683 22.4585 2.38071 22.3915C2.41604 22.3698 2.47062 22.3344 2.46081 22.315C2.44773 22.2898 2.38312 22.2708 2.33466 22.2595C2.28942 22.2481 2.23457 22.2427 2.18623 22.2489C1.59964 22.3096 1.01631 22.3742 0.429705 22.433C0.329792 22.4435 0.219828 22.4015 0.183925 22.3414C0.148048 22.2852 0.157211 22.217 0.150307 22.1528C0.243275 22.0723 0.349144 21.9976 0.429169 21.9113C0.489981 21.8447 0.560742 21.815 0.683274 21.8102C0.844494 21.8032 1.00238 21.7787 1.18287 21.7598C1.51629 21.4732 1.84313 21.173 2.20235 20.8862C2.34667 20.7703 2.31043 20.6537 2.33859 20.5309C2.36682 20.4178 2.58302 20.4337 2.72792 20.3996C2.84384 20.3715 2.88205 20.3089 2.83659 20.2664C2.81061 20.2413 2.75238 20.2125 2.70723 20.2128C2.6008 20.2136 2.49449 20.2319 2.38813 20.2424C2.28177 20.2529 2.15917 20.248 2.07232 20.2817C1.98869 20.3135 1.9343 20.3801 1.87987 20.4369C1.81903 20.4996 1.7386 20.5217 1.61607 20.5264C1.45806 20.5315 1.30016 20.5502 1.14222 20.5649C0.967522 20.4903 0.786349 20.4177 0.618074 20.3391C0.585711 20.3238 0.57891 20.279 0.581929 20.2498C0.587843 20.1739 0.539147 20.1275 0.432453 20.0913C0.341927 20.0608 0.267424 20.0166 0.183293 19.9783C0.247427 19.9252 0.318049 19.8741 0.369254 19.8173C0.481298 19.6977 0.622619 19.611 0.867764 19.6131C0.963984 19.5365 1.04071 19.4425 1.16612 19.3891C1.2851 19.3376 1.48865 19.3867 1.57815 19.2712C1.6229 19.2144 1.69022 19.1497 1.77713 19.1257C1.91556 19.0877 2.0963 19.1058 2.17616 18.9963C2.2241 18.9336 2.29463 18.8766 2.38805 18.8604C2.49436 18.8421 2.60396 18.8374 2.68111 18.7999C2.7229 18.7801 2.76784 18.7486 2.76764 18.7214C2.76752 18.7038 2.70287 18.6771 2.65764 18.6657C2.61561 18.6524 2.56065 18.6431 2.5123 18.6473C2.35112 18.6602 2.19324 18.6827 2.03206 18.6956C1.98694 18.6998 1.93525 18.6866 1.88679 18.6752C1.74466 18.6451 1.75404 18.6061 1.86643 18.5352C1.97883 18.4663 2.05889 18.3781 2.15186 18.2976C2.25497 18.2832 2.384 18.2881 2.45469 18.2506C2.5736 18.1894 2.65681 18.1012 2.75303 18.0246C2.85938 18.0121 2.96901 18.0074 3.06884 17.9853C3.11071 17.9772 3.12978 17.9342 3.16508 17.9087C3.22924 17.8595 3.28361 17.7891 3.37053 17.7651C3.51219 17.729 3.68645 17.7414 3.76955 17.6337C3.81749 17.571 3.89117 17.5043 3.98145 17.4998C4.23296 17.4902 4.33864 17.3823 4.46694 17.2801C4.56316 17.2035 4.76985 17.241 4.87575 17.1643C4.94636 17.1151 4.99757 17.0544 5.06819 17.0071C5.09708 16.9874 5.15827 16.9773 5.20661 16.9711C5.47087 16.94 5.7384 16.9166 6.00265 16.8835C6.04454 16.8774 6.08307 16.8479 6.11515 16.8243C6.18253 16.7732 6.22391 16.7028 6.30753 16.6691C6.39116 16.6354 6.51047 16.6345 6.61361 16.6241C6.9456 16.5924 6.97149 16.6 7.1219 16.4334C7.24351 16.2982 7.54417 16.3914 7.64311 16.2428C7.70056 16.1567 7.80645 16.0859 7.99667 16.0747C8.26426 16.0592 8.52847 16.0202 8.79598 15.993C9.03448 15.9679 9.03127 15.9679 9.28801 15.785C9.40354 15.7024 9.57459 15.7128 9.72607 15.6961C9.88722 15.6794 10.0354 15.655 10.1121 15.5571C10.1888 15.4611 10.3305 15.4289 10.4949 15.4141C10.6464 15.3994 10.8174 15.4079 10.9362 15.3291C11.2252 15.1402 11.2219 15.1382 11.425 15.1173C11.7441 15.0838 12.0631 15.0503 12.3822 15.0149C12.5949 14.9919 12.8174 14.9864 13.0171 14.9421C13.162 14.9099 13.2257 14.8005 13.3187 14.7239C13.583 14.6927 13.8472 14.6616 14.1115 14.6324C14.4821 14.5908 14.856 14.553 15.2299 14.5133C15.3906 14.4381 15.4121 14.2745 15.6829 14.2647C15.8442 14.2596 16.002 14.2332 16.1632 14.2164C16.4307 14.1872 16.6949 14.1502 16.9625 14.1347C17.1656 14.1234 17.2003 14.0181 17.3063 13.9511C17.3416 13.9275 17.3736 13.8942 17.4155 13.888C17.8344 13.8305 18.2665 13.8156 18.6755 13.7328C18.7174 13.7247 18.7558 13.6836 18.7653 13.6543C18.7716 13.6387 18.7166 13.6099 18.681 13.5965C18.639 13.5813 18.584 13.5661 18.5389 13.5703C17.2078 13.7105 15.8768 13.8526 14.5457 13.9927C14.3587 14.0136 14.3587 14.0116 13.9055 14.229C13.8669 14.2468 13.8218 14.2666 13.7735 14.2728C13.5608 14.2977 13.3448 14.3129 13.1354 14.3437C12.9646 14.3683 12.8226 14.3459 12.6995 14.2768C12.6121 14.2268 12.5216 14.2119 12.412 14.2166C12.2895 14.2233 12.209 14.2453 12.1385 14.2984C12.0454 14.3711 11.9977 14.4649 11.8011 14.4858C10.8954 14.5761 9.98973 14.6762 9.0873 14.7723C8.96132 14.746 8.89976 14.7055 8.93167 14.6567C8.95081 14.6273 8.98926 14.5881 9.02793 14.5839C9.39854 14.5403 9.77241 14.5026 10.143 14.4609C10.1946 14.4547 10.2656 14.4581 10.2945 14.4384C10.4358 14.3498 10.4864 14.2073 10.754 14.1956C10.9088 14.1886 11.0666 14.1583 11.2148 14.13C11.2567 14.1219 11.2951 14.0807 11.3045 14.0514C11.3077 14.0358 11.2558 14.007 11.217 13.9937C11.0747 13.9383 10.9108 14.0076 10.7686 13.9697C10.7201 13.9564 10.6522 13.9375 10.6424 13.9142C10.6358 13.8928 10.6903 13.8574 10.7289 13.8357C10.7642 13.816 10.8125 13.7981 10.8608 13.7919C11.2862 13.744 11.7117 13.6942 12.1372 13.656C12.3112 13.6411 12.4334 13.5916 12.5102 13.5015C12.5678 13.4349 12.6385 13.3993 12.7481 13.3888C13.4926 13.3113 14.237 13.2261 14.9848 13.1544C15.1718 13.1375 15.2681 13.0726 15.3449 12.9883C15.4057 12.9217 15.4765 12.8978 15.5958 12.8852C16.6626 12.7762 17.7229 12.6556 18.7898 12.5504C18.9864 12.5315 19.0439 12.4474 19.1433 12.3746C19.1786 12.349 19.2009 12.3177 19.246 12.3018C19.291 12.2859 19.3491 12.2874 19.4039 12.2831C20.2548 12.1932 21.1056 12.0975 21.9598 12.0134C22.1596 11.9944 22.1976 11.8968 22.3003 11.8279C22.3356 11.8062 22.3677 11.771 22.4095 11.7648C23.0477 11.694 23.6858 11.627 24.3239 11.5581C24.7494 11.5122 25.1748 11.4662 25.6002 11.4223C25.8097 11.4013 25.8097 11.3993 26.0922 11.2123C26.1243 11.1907 26.1694 11.165 26.2112 11.1589C27.4359 11.0253 28.6574 10.8977 29.8822 10.7661C29.9853 10.7556 30.0591 10.7103 30.1103 10.6437C30.1614 10.5772 30.2353 10.5319 30.3353 10.5214C31.2925 10.4171 32.2497 10.3147 33.2101 10.2162C33.3842 10.1994 33.5064 10.1517 33.5832 10.0636C33.6408 9.99698 33.7115 9.96144 33.821 9.95091C34.7783 9.85047 35.7355 9.74419 36.696 9.64762C36.8797 9.62876 36.9695 9.56193 37.0593 9.48341C37.0913 9.45593 37.1168 9.41097 37.1555 9.40679C37.6325 9.3488 38.1062 9.28888 38.5865 9.24839C38.7863 9.23136 38.8535 9.1491 38.9336 9.07066C38.9976 9.0079 39.0717 8.98595 39.1942 8.97727C39.4618 8.95779 39.726 8.92278 39.987 8.88778C40.0256 8.88166 40.0737 8.83848 40.0768 8.81121C40.0829 8.76055 40.0084 8.72606 39.8857 8.70943C38.6094 8.84529 37.3299 8.98116 36.0536 9.11702C35.8442 9.13996 35.8441 9.13997 35.5616 9.32696C35.5295 9.34861 35.4845 9.37424 35.4394 9.38041C34.2147 9.512 32.9932 9.64162 31.7685 9.7732C31.6653 9.78369 31.5915 9.829 31.5404 9.89556C31.4892 9.96211 31.4153 10.0074 31.3154 10.0179C30.1455 10.1432 28.9756 10.2705 27.8024 10.3901C27.6283 10.4069 27.5061 10.4525 27.4293 10.5427C27.3717 10.6093 27.301 10.6448 27.1914 10.6554C26.0731 10.7725 24.9579 10.8955 23.8363 11.0088C23.7234 11.0194 23.6392 10.9636 23.6453 10.911C23.6484 10.8837 23.6963 10.8386 23.735 10.8344C24.3183 10.7659 24.8985 10.6955 25.4851 10.6425C25.6817 10.6255 25.7391 10.5394 25.8386 10.4667C25.8707 10.4412 25.8963 10.4079 25.9381 10.3939C25.9831 10.378 26.0412 10.3796 26.096 10.3753C27.4787 10.227 28.8613 10.0767 30.2473 9.93616C30.4471 9.91523 30.4851 9.81956 30.5878 9.75068C30.6231 9.72706 30.6551 9.6918 30.697 9.6876C31.1224 9.63778 31.5479 9.59378 31.9733 9.54979C32.7178 9.47038 33.4623 9.39097 34.21 9.31153C34.426 9.28854 34.426 9.28853 34.702 9.10354C34.7341 9.08189 34.7791 9.05433 34.821 9.05013C36.7903 8.83913 38.7595 8.62813 40.7288 8.41908C40.8319 8.40859 40.9058 8.36328 40.9569 8.29673C41.008 8.23212 41.0819 8.18486 41.1818 8.17245C43.8439 7.88826 46.5029 7.60408 49.1651 7.32378C49.3391 7.30498 49.4614 7.26321 49.5381 7.17116C49.5925 7.10458 49.6664 7.06901 49.776 7.05653C52.7024 6.7451 55.6289 6.43367 58.5586 6.12027C60.5278 5.91122 62.497 5.69828 64.4663 5.49312C64.6468 5.47428 64.7431 5.41322 64.8328 5.33276C64.8617 5.30529 64.8904 5.26031 64.9291 5.25613C65.3512 5.20439 65.7734 5.15654 66.1956 5.10868C66.3282 5.16027 66.4608 5.20992 66.5934 5.2615C66.6929 5.18681 66.7891 5.11018 66.8886 5.03549C67.5268 4.97437 68.1551 4.88218 68.7999 4.85022C68.8418 4.84796 68.8872 4.88462 68.9325 4.90376C69.2333 5.02419 69.4042 5.01321 69.5933 4.84832C69.6607 4.78943 69.7183 4.73645 69.8215 4.72596C70.1405 4.68859 70.4629 4.66287 70.7787 4.61969C70.9495 4.59703 71.0915 4.61545 71.2146 4.68463C71.302 4.7346 71.3925 4.75536 71.4988 4.7429C72.0854 4.68022 72.6688 4.6195 73.2553 4.55292C73.2972 4.54872 73.3357 4.51534 73.3677 4.49174C73.4351 4.44064 73.4928 4.38573 73.5569 4.3327C73.6443 4.36515 73.7412 4.38975 73.8125 4.43206C73.9031 4.48201 73.987 4.48138 74.1094 4.46686C76.4493 4.21422 78.7924 3.9674 81.1322 3.71282C81.3321 3.69189 81.4197 3.77301 81.5555 3.81485C81.6008 3.83009 81.646 3.84921 81.6944 3.85275C81.7461 3.85627 81.8008 3.8442 81.8524 3.83798C83.6089 3.64995 85.3654 3.46385 87.122 3.27582C87.354 3.25077 87.354 3.25077 87.7 3.36893C87.742 3.38419 87.7969 3.40131 87.8421 3.39514C88.6414 3.31338 89.4406 3.22579 90.2367 3.14211C90.3399 3.13162 90.4272 3.16212 90.521 3.20621C90.7055 3.29246 90.7183 3.29237 90.8529 3.16291C90.917 3.1021 90.9844 3.06461 91.0907 3.04631C91.2067 3.026 91.3003 3.03117 91.3909 3.06555C91.5202 3.11327 91.6144 3.19432 91.811 3.17147C92.6618 3.07377 93.5159 2.99161 94.3635 2.89198C94.5568 2.86916 94.6605 2.93458 94.7899 2.9823C94.8352 2.99948 94.8773 3.02643 94.9257 3.03192C94.9741 3.0374 95.032 3.02334 95.0836 3.01712C96.1472 2.90423 97.214 2.79329 98.2743 2.67264C98.4741 2.64976 98.5618 2.73281 98.6975 2.77464C98.7428 2.78988 98.7946 2.81677 98.8365 2.81257C99.4747 2.74756 100.116 2.67862 100.754 2.60972C100.983 2.58468 100.983 2.58663 101.332 2.70282C101.374 2.71808 101.429 2.73326 101.474 2.72903C102.219 2.65157 102.967 2.57213 103.711 2.49272C103.94 2.46769 103.94 2.4677 104.602 2.56408C104.65 2.57151 104.702 2.58283 104.75 2.57858C105.601 2.48866 106.455 2.40065 107.306 2.30489C107.477 2.28612 107.619 2.30065 107.742 2.36982C107.829 2.4198 107.92 2.44056 108.026 2.4281C108.983 2.32572 109.944 2.22722 110.898 2.11902C111.082 2.09821 111.201 2.14015 111.331 2.19565C111.373 2.21481 111.415 2.24176 111.463 2.24919C111.512 2.25662 111.566 2.24843 111.618 2.24221C112.575 2.13984 113.536 2.04328 114.49 1.93314C114.683 1.91031 114.787 1.97573 114.916 2.02345C114.961 2.04064 115.01 2.07532 115.049 2.07309C115.422 2.03727 115.796 2.00535 116.167 1.95397C116.367 1.92526 116.454 2.01415 116.59 2.05598C116.635 2.06927 116.687 2.09811 116.729 2.09391C117.528 2.01215 118.328 1.9265 119.124 1.83893C119.237 1.82642 119.321 1.84331 119.411 1.89326C119.531 1.96051 119.67 1.98675 119.844 1.96407C120.215 1.91659 120.588 1.88272 120.962 1.843C121.181 1.81999 121.181 1.81999 121.853 1.91631C121.901 1.92374 121.953 1.93503 122.002 1.93078C122.64 1.86383 123.281 1.7988 123.916 1.72603C124.087 1.70532 124.229 1.72179 124.352 1.79097C124.439 1.84094 124.526 1.86173 124.636 1.84925C125.223 1.78656 125.806 1.72389 126.393 1.66121C126.605 1.63824 126.818 1.59969 127.031 1.59814C127.186 1.59895 127.299 1.69155 127.438 1.73726C127.477 1.7506 127.541 1.73457 127.593 1.7303C128.337 1.65089 129.085 1.57729 129.826 1.48817C130.02 1.46534 130.123 1.53076 130.253 1.57848C130.298 1.59567 130.347 1.63036 130.385 1.62813C130.653 1.60476 130.917 1.57363 131.185 1.54636C131.504 1.51289 131.826 1.48717 132.142 1.44204C132.4 1.40512 132.498 1.57375 132.704 1.57808C132.862 1.58276 133.023 1.5485 133.181 1.53177C133.5 1.49829 133.819 1.46093 134.138 1.43134C134.251 1.42078 134.338 1.38899 134.373 1.31866C134.379 1.30499 134.324 1.2762 134.289 1.25894C133.858 1.06354 133.858 1.06353 133.426 1.10951C133.159 1.13872 132.895 1.16791 132.627 1.19322C132.582 1.19745 132.53 1.18225 132.485 1.1709C132.356 1.13876 132.369 1.09974 132.478 1.02886C132.587 0.957989 132.67 0.87174 132.763 0.791251C132.896 0.840893 133.025 0.890539 133.158 0.94018C133.264 0.92967 133.37 0.91723 133.477 0.90672C134.009 0.852222 134.54 0.795774 135.072 0.745169C135.111 0.740993 135.159 0.779574 135.205 0.798709C135.334 0.854213 135.451 0.902012 135.638 0.879234C136.114 0.819297 136.595 0.774909 137.072 0.722758C137.281 0.699814 137.281 0.699816 137.65 0.817809C137.692 0.831127 137.747 0.846299 137.792 0.842076C138.272 0.793795 138.749 0.74165 139.229 0.691422C139.332 0.680935 139.433 0.705507 139.507 0.761412C139.536 0.784557 139.53 0.823526 139.655 1.14185C140.037 1.39795 140.298 1.3688 140.563 1.34351C140.676 1.33295 140.775 1.32248 140.849 1.28301C140.888 1.26131 140.936 1.22981 140.936 1.20451C140.936 1.18504 140.865 1.15441 140.819 1.15085C140.5 1.11425 140.197 1.19823 139.885 1.21804C139.739 1.22689 139.613 1.15968 139.587 1.04892C139.58 1.01782 139.57 0.984805 139.56 0.953733C139.55 0.92266 139.544 0.889619 139.534 0.858546C139.408 0.849734 139.334 0.885306 139.28 0.951887C139.235 1.00672 139.171 1.06948 139.084 1.09931C138.997 1.13109 138.878 1.12613 138.771 1.13664C138.668 1.14713 138.555 1.17326 138.459 1.16034C138.362 1.14547 138.284 1.08958 138.193 1.05521C138.151 1.038 138.099 1.01308 138.058 1.01728C137.687 1.05308 137.319 1.08884 136.952 1.13435C136.759 1.15913 136.661 1.07809 136.538 1.02838C136.441 0.99016 136.345 1.00059 136.329 1.09024C136.289 1.30466 136.438 1.39311 136.767 1.34983C137.037 1.31281 137.282 1.3052 137.496 1.436C137.525 1.45331 137.593 1.46059 137.635 1.45639C137.899 1.4311 138.16 1.39999 138.424 1.3747C138.473 1.37046 138.525 1.37785 138.57 1.38531C139.228 1.48561 139.228 1.48756 139.451 1.46258C139.557 1.45012 139.66 1.43964 139.649 1.14385C139.849 0.825087 140.172 0.801322 140.484 0.75232C140.687 0.721638 140.775 0.80665 140.908 0.850452C140.953 0.865693 141.001 0.896477 141.043 0.892277C141.736 0.822975 142.426 0.749795 143.116 0.67273C143.232 0.660203 143.316 0.671271 143.406 0.721218C143.523 0.784603 143.652 0.824544 143.836 0.799842C144.203 0.75044 144.577 0.718515 144.951 0.676851C145.141 0.655995 145.141 0.655975 145.526 0.77385C145.568 0.787168 145.623 0.80234 145.668 0.798117C146.042 0.762293 146.412 0.718718 146.783 0.68097C146.886 0.670483 146.98 0.697048 147.061 0.749012C147.142 0.800978 147.239 0.827517 147.339 0.817054C147.713 0.779283 148.083 0.737655 148.454 0.699908C148.499 0.695685 148.554 0.708908 148.596 0.722227C148.99 0.840031 148.99 0.840011 149.171 0.819226C149.435 0.788096 149.706 0.772506 149.967 0.731667C150.221 0.690875 150.354 0.802793 150.529 0.863807C151.006 0.815549 151.486 0.775063 151.96 0.717097C152.153 0.692324 152.257 0.755797 152.386 0.805462C152.432 0.82265 152.477 0.859307 152.519 0.857054C152.68 0.848089 152.838 0.825526 152.996 0.808799C153.154 0.792072 153.315 0.775324 153.473 0.758597C153.654 0.813724 153.774 0.945209 154.032 0.898554C154.187 0.870172 154.351 0.86313 154.509 0.846404C154.667 0.829677 154.828 0.812928 154.986 0.796201C155.092 0.785691 155.202 0.779041 155.305 0.760769C155.495 0.730181 155.589 0.824885 155.725 0.866717C155.77 0.880012 155.822 0.902977 155.864 0.898778C156.183 0.869193 156.506 0.84348 156.818 0.796425C157.06 0.75962 157.225 0.816819 157.396 0.897321C157.432 0.914579 157.493 0.923863 157.538 0.91964C157.912 0.883815 158.283 0.840217 158.653 0.802469C158.753 0.792006 158.85 0.822441 158.931 0.87246C159.015 0.924401 159.109 0.949041 159.212 0.938554C159.583 0.900806 159.957 0.85913 160.328 0.821383C160.373 0.81716 160.428 0.832334 160.47 0.847599C160.832 0.965639 160.832 0.967587 161.044 0.942673C161.096 0.936457 161.151 0.932148 161.202 0.925931C161.467 0.896748 161.741 0.885025 161.998 0.836424C162.295 0.7817 162.511 0.846303 162.722 0.955719C162.986 0.930428 163.257 0.914819 163.515 0.874004C163.708 0.843393 163.812 0.9166 163.941 0.964318C163.986 0.981506 164.035 1.01619 164.074 1.01201C164.447 0.976189 164.821 0.944267 165.189 0.892918C165.388 0.864206 165.476 0.951144 165.612 0.994922C165.657 1.01016 165.706 1.03707 165.748 1.03288C165.96 1.01575 166.173 0.990822 166.386 0.967855C166.634 0.940736 166.634 0.942681 166.964 1.05901C167.119 1.11433 167.274 1.06842 167.425 1.05369C167.586 1.03694 167.738 1.02416 167.867 1.10302C167.948 1.15304 168.045 1.18347 168.145 1.17496C168.358 1.15588 168.574 1.13679 168.783 1.10606C168.951 1.08148 169.096 1.09598 169.219 1.16711C169.307 1.21708 169.397 1.24174 169.503 1.22928C169.98 1.17908 170.461 1.12688 170.938 1.07862C170.98 1.07443 171.038 1.09153 171.077 1.10876C171.167 1.14314 171.254 1.18142 171.342 1.21971C171.551 1.20066 171.767 1.19132 171.974 1.16256C172.193 1.13371 172.393 1.12251 172.564 1.22831C172.6 1.25141 172.652 1.28411 172.694 1.28185C172.855 1.27289 173.013 1.25227 173.171 1.23555C173.329 1.21882 173.49 1.20207 173.648 1.18535C173.832 1.23266 173.949 1.37196 174.207 1.3253C174.361 1.29692 174.526 1.28988 174.684 1.27315C174.842 1.25642 175.003 1.23773 175.161 1.22295C175.212 1.21868 175.27 1.20852 175.315 1.21597C175.364 1.2234 175.406 1.25035 175.448 1.26951C175.577 1.32502 175.697 1.3806 175.881 1.34616C176.035 1.31778 176.2 1.31074 176.358 1.29207C176.574 1.26907 176.574 1.26908 176.933 1.38909C177.078 1.43864 177.242 1.37126 177.381 1.41306C177.475 1.44158 177.556 1.48964 177.646 1.52207C177.685 1.53541 177.746 1.54079 177.792 1.53657C178.004 1.5175 178.22 1.49841 178.43 1.46768C178.601 1.44307 178.743 1.46539 178.862 1.53459C178.95 1.58456 179.037 1.60535 179.147 1.59287C179.678 1.53448 180.21 1.48385 180.739 1.41965C180.919 1.39692 181.065 1.42895 181.165 1.4983C181.337 1.61773 181.578 1.47387 181.756 1.5699C181.866 1.62943 181.976 1.69871 182.176 1.66805C182.543 1.61475 182.917 1.58475 183.288 1.54701C183.42 1.59859 183.553 1.65019 183.689 1.70176C183.902 1.67879 184.114 1.65581 184.327 1.63479C184.485 1.61806 184.646 1.59937 184.804 1.58459C184.856 1.58032 184.91 1.57213 184.959 1.58151C185.007 1.59089 185.046 1.61591 185.091 1.63505C185.315 1.7288 185.315 1.73075 185.682 1.68914C185.84 1.67046 185.991 1.65768 186.124 1.73457C186.247 1.80569 186.392 1.81825 186.56 1.79561C186.876 1.75437 187.195 1.72284 187.517 1.69323C187.617 1.68277 187.711 1.71518 187.795 1.76517C187.922 1.84406 188.076 1.83514 188.234 1.81257C188.444 1.78379 188.65 1.75504 188.828 1.86274C188.864 1.88584 188.919 1.91851 188.957 1.91628C189.222 1.89878 189.489 1.88515 189.747 1.84628C190.005 1.80741 190.132 1.92717 190.309 1.98427C190.574 1.95703 190.841 1.92977 191.105 1.90253C191.157 1.89631 191.218 1.87836 191.263 1.88776C191.454 1.92724 191.565 2.07242 191.826 2.02574C191.977 1.99933 192.141 1.99035 192.299 1.98336C192.341 1.98111 192.396 2.01378 192.426 2.03887C192.442 2.05238 192.426 2.08948 192.407 2.10908C192.349 2.16401 192.278 2.21515 192.227 2.27197C192.221 2.27981 192.282 2.31438 192.318 2.32969C192.405 2.36409 192.505 2.35754 192.621 2.34112C192.721 2.32676 192.824 2.35325 192.896 2.41113C192.925 2.43427 192.916 2.47327 192.855 2.60219C192.856 2.69756 192.923 2.65423 192.945 2.59178C192.98 2.50199 192.912 2.47329 192.784 2.52289C192.694 2.55859 192.649 2.60953 192.672 2.65024C192.685 2.67156 192.746 2.69836 192.855 2.60219C193.138 2.48332 193.351 2.46037 193.564 2.4374C193.619 2.43116 193.683 2.41121 193.722 2.42261C193.861 2.46831 193.99 2.52382 194.126 2.57538C194.281 2.56257 194.426 2.5323 194.578 2.60711C194.791 2.71261 194.801 2.70281 195.007 2.67989C195.114 2.66743 195.22 2.65694 195.326 2.64643C195.433 2.63591 195.517 2.66449 195.611 2.70858C195.801 2.79867 195.818 2.79854 195.942 2.67305C196.016 2.59659 196.068 2.57092 196.161 2.60527C196.472 2.72174 196.475 2.7295 196.739 2.69253C196.958 2.66173 197.165 2.65244 197.327 2.76221C197.437 2.83926 197.472 2.82149 197.559 2.7391C197.79 2.52135 197.896 2.52445 198.332 2.67699C198.536 2.74947 198.745 2.66814 198.952 2.6569C199.126 2.64784 199.249 2.69365 199.262 2.81618C199.273 2.89202 199.302 2.94632 199.418 2.97078C199.464 2.98018 199.518 2.9934 199.564 2.98917C199.831 2.96386 200.095 2.93467 200.363 2.90546C200.498 2.89085 200.572 2.79884 200.545 2.67835C200.515 2.55009 200.566 2.50298 200.76 2.46459C200.876 2.44233 200.969 2.44555 201.063 2.47991C201.167 2.51808 201.138 2.55333 201.048 2.62406C200.833 2.79693 200.86 2.90183 201.138 3.01854C201.235 3.05871 201.312 3.09514 201.335 3.15531C201.349 3.18636 201.336 3.22733 201.365 3.25048C201.524 3.37973 201.744 3.46184 201.99 3.52233C202.225 3.46806 202.387 3.55445 202.568 3.6232C202.71 3.67667 202.877 3.62874 203.029 3.60817C203.2 3.58551 203.342 3.60003 203.465 3.67116C203.552 3.72113 203.643 3.74382 203.749 3.73331C203.962 3.71034 204.178 3.69514 204.387 3.66247C204.567 3.63389 204.703 3.67184 204.817 3.73719C204.959 3.81985 205.117 3.76224 205.265 3.77283C205.465 3.785 205.566 3.9575 205.827 3.90887C205.982 3.88049 206.143 3.86958 206.304 3.86062C206.346 3.85836 206.398 3.89108 206.434 3.91418C206.605 4.01999 206.805 4.01268 207.024 3.97994C207.176 3.95742 207.324 3.93688 207.473 4.00976C207.719 4.13254 207.991 4.23957 208.25 4.35252C208.286 4.4418 208.261 4.54708 208.445 4.59829C208.542 4.62483 208.632 4.66506 208.707 4.70929C208.798 4.76118 208.881 4.7742 208.997 4.75973C209.207 4.73094 209.426 4.72348 209.632 4.68694C209.822 4.6544 209.942 4.71778 210.059 4.77727C210.153 4.82525 210.24 4.84796 210.353 4.8121C210.468 4.77816 210.552 4.79895 210.646 4.85082C210.779 4.92187 210.789 4.91403 211.227 4.93223C211.273 4.93385 211.328 4.96263 211.354 4.98775C211.367 5.00128 211.338 5.04044 211.315 5.06007C211.287 5.08364 211.242 5.11121 211.2 5.11735C210.723 5.17145 210.243 5.21973 209.766 5.27383C209.717 5.28002 209.666 5.29404 209.63 5.31376C209.592 5.33545 209.544 5.36499 209.544 5.39224C209.544 5.4117 209.609 5.4346 209.654 5.44789C209.796 5.49162 209.963 5.42227 210.102 5.47187C210.196 5.50427 210.274 5.55041 210.368 5.58087C210.406 5.59421 210.468 5.59183 210.516 5.58758C210.677 5.57278 210.835 5.55216 210.996 5.5393C211.041 5.53703 211.093 5.55612 211.135 5.57139C211.446 5.68591 211.446 5.6859 211.713 5.65864C211.82 5.64813 211.932 5.61811 212.032 5.62906C212.129 5.64003 212.213 5.69197 212.301 5.72442C212.482 5.79317 212.653 5.86005 212.667 6.01178C212.674 6.07013 212.781 6.11995 212.887 6.12306C212.99 6.1262 213.1 6.10401 213.206 6.09155C213.458 6.06635 213.458 6.06635 213.784 6.1827C213.875 6.21513 213.972 6.21831 214.088 6.198C214.133 6.18988 214.188 6.19728 214.236 6.20666C214.394 6.2347 214.395 6.27167 214.292 6.3425C214.147 6.44672 214.16 6.45637 214.567 6.54099C214.722 6.57294 214.842 6.63436 214.972 6.68792C215.182 6.77398 215.179 6.77399 215.041 6.88984C215.009 6.91538 214.98 6.94285 214.948 6.97034C214.855 7.04693 214.781 7.12922 214.588 7.13842C214.375 7.14776 214.162 7.18047 213.95 7.20344C213.743 7.22636 213.689 7.27346 213.709 7.40568C213.733 7.56512 213.775 7.58234 214.146 7.57768C214.252 7.5769 214.346 7.59178 214.427 7.64375C214.389 7.70632 214.318 7.7555 214.215 7.76793C213.951 7.79906 213.683 7.82633 213.419 7.85357C213.206 7.87654 212.993 7.89949 212.781 7.92246C212.649 7.93705 212.565 8.03889 212.602 8.15153C212.621 8.21562 212.638 8.27973 212.655 8.34385C212.691 8.47205 212.759 8.50466 212.975 8.49724C213.03 8.49489 213.081 8.47893 213.133 8.48244C213.343 8.49454 213.444 8.65536 213.695 8.62043C213.905 8.59165 214.124 8.58421 214.33 8.54766C214.52 8.51513 214.627 8.58444 214.76 8.63603C214.805 8.65322 214.854 8.68983 214.892 8.6876C215.16 8.66423 215.427 8.64088 215.688 8.60199C215.811 8.58552 215.885 8.59665 215.982 8.64266C216.215 8.75385 216.222 8.74797 216.566 8.71041C216.818 8.68132 216.821 8.68519 217.144 8.80156C217.235 8.83399 217.332 8.83328 217.448 8.81686C217.599 8.79629 217.757 8.76399 217.915 8.79203C217.964 8.79946 218.025 8.82238 218.041 8.84757C218.051 8.86501 218.006 8.90817 217.968 8.92207C217.685 9.02537 217.352 9.01028 217.043 9.05342C216.946 9.0658 216.849 9.02952 216.768 8.97756C216.684 8.92562 216.594 8.90487 216.484 8.91541C216.271 8.93838 216.055 8.95357 215.846 8.98625C215.665 9.01482 215.539 8.97097 215.413 8.91155C215.371 8.89239 215.322 8.85575 215.28 8.85801C214.803 8.90042 214.323 8.94288 213.849 9.00084C213.659 9.02559 213.549 8.96411 213.42 8.9125C213.375 8.89531 213.329 8.85866 213.287 8.86091C213.126 8.86987 212.968 8.89244 212.807 8.90919C212.22 8.97187 211.637 9.03453 211.05 9.09333C211.012 9.0975 210.963 9.05697 210.918 9.03979C210.83 9.00539 210.74 8.97295 210.649 8.94052C210.488 8.95727 210.33 8.97789 210.169 8.99075C210.053 8.99938 209.95 9.0274 209.934 9.10148C209.925 9.15022 210.032 9.1942 210.145 9.18948C210.254 9.18479 210.364 9.16063 210.454 9.18527C210.904 9.30656 210.904 9.30852 211.184 9.28116C211.429 9.25601 211.403 9.23673 211.62 9.3422C211.714 9.38823 211.798 9.41488 211.904 9.40243C212.168 9.37324 212.436 9.34403 212.703 9.31872C212.745 9.31452 212.8 9.33359 212.842 9.34885C213.159 9.46333 213.159 9.46722 213.42 9.43611C213.762 9.39858 213.775 9.38875 214.005 9.50581C214.163 9.58641 214.308 9.52889 214.459 9.52389C214.634 9.59853 214.825 9.66528 214.984 9.74977C215.171 9.84962 215.368 9.83064 215.581 9.79989C215.739 9.77732 215.893 9.76841 216.023 9.84727C216.146 9.92034 216.294 9.92705 216.462 9.90636C216.613 9.88774 216.768 9.84961 216.926 9.89128C216.968 9.90265 217.033 9.93138 217.03 9.94893C217.027 9.9762 216.985 10.0154 216.943 10.0274C216.647 10.1094 216.321 10.1098 216.009 10.1491C215.967 10.1552 215.912 10.1342 215.87 10.119C215.779 10.0846 215.692 10.0444 215.605 10.008C215.447 10.0208 215.286 10.0259 215.131 10.0504C215.012 10.0688 214.921 10.0675 214.834 10.0214C214.753 9.9792 214.666 9.92727 214.569 9.91436C214.472 9.90144 214.359 9.93146 214.253 9.94392C214.146 9.95638 214.024 9.95142 213.94 9.98318C213.857 10.0149 213.805 10.0834 213.751 10.1383C213.69 10.1991 213.606 10.2192 213.484 10.226C213.371 10.2326 213.281 10.2255 213.197 10.1716C213.161 10.1485 213.112 10.1313 213.064 10.1161C213.019 10.1028 212.967 10.0818 212.925 10.086C212.445 10.1343 211.968 10.1864 211.487 10.2367C211.249 10.2618 211.252 10.2617 210.755 10.1505C210.709 10.1411 210.655 10.1279 210.609 10.1321C210.342 10.1574 210.078 10.1866 209.81 10.2158C209.539 10.245 209.543 10.2411 209.081 10.1219C208.997 10.0991 208.874 10.1312 208.774 10.128C208.564 10.1198 208.46 9.95707 208.215 9.99C208.006 10.0188 207.786 10.0262 207.577 10.0628C207.387 10.0953 207.277 10.028 207.148 9.9764C207.102 9.95921 207.054 9.92063 207.015 9.92481C206.535 9.97114 206.058 10.0233 205.419 10.0338C205.261 10.035 205.332 10.0753 205.436 10.0882C205.584 10.1085 205.632 10.0673 205.551 9.99002C205.493 9.93594 205.409 9.90929 205.341 9.92341C205.305 9.93145 205.261 9.96878 205.419 10.0338C205.587 10.1065 205.578 10.1475 205.607 10.1706C205.678 10.2266 205.779 10.2492 205.882 10.2406C206.043 10.2258 206.201 10.2052 206.362 10.1924C206.407 10.1881 206.462 10.2014 206.504 10.2166C206.86 10.3347 206.863 10.3425 207.24 10.293C207.359 10.2785 207.446 10.2779 207.54 10.3142C207.67 10.3638 207.764 10.4488 207.96 10.4201C208.221 10.3812 208.489 10.3579 208.756 10.3345C208.798 10.3303 208.844 10.365 208.892 10.3802C209.025 10.426 209.122 10.5128 209.318 10.4744C209.47 10.4441 209.634 10.4351 209.795 10.4281C209.837 10.4258 209.902 10.4565 209.922 10.4817C209.961 10.5262 209.913 10.5791 209.803 10.6169C209.758 10.6328 209.697 10.6293 209.645 10.6355C209.433 10.6585 209.22 10.6834 209.007 10.7025C208.894 10.713 208.788 10.743 208.776 10.8151C208.766 10.8639 208.883 10.9058 208.993 10.9011C209.154 10.8941 209.315 10.8774 209.469 10.8509C209.743 10.8061 209.982 10.816 210.206 10.937C210.364 11.0215 210.354 10.9905 210.524 11.2423C210.566 11.3062 210.692 11.3111 210.802 11.3064C211.066 11.2948 211.189 11.3231 211.167 11.3836C211.138 11.4578 211.045 11.4818 210.925 11.4924C210.713 11.5095 210.5 11.5364 210.287 11.5594C210.236 11.5656 210.178 11.5777 210.129 11.5741C210.081 11.5706 210.036 11.5476 209.994 11.5304C209.903 11.494 209.825 11.4381 209.728 11.4252C209.632 11.4123 209.519 11.4423 209.412 11.4548C209.306 11.4653 209.193 11.4953 209.097 11.4824C209 11.4695 208.919 11.4117 208.831 11.3773C208.789 11.3601 208.738 11.3332 208.696 11.3354C208.483 11.3526 208.27 11.3794 208.057 11.4005C207.796 11.4277 207.796 11.4277 207.479 11.3093C207.389 11.2749 207.295 11.2776 207.176 11.294C206.918 11.327 206.915 11.3212 206.443 11.2118C206.398 11.2004 206.343 11.1872 206.298 11.1934C205.818 11.2416 205.341 11.2938 204.864 11.344C204.455 11.3879 204.455 11.3879 204.23 11.5842C204.063 11.7294 204.06 11.7295 204.225 11.7944C204.358 11.848 204.478 11.9269 204.623 11.955C204.759 11.9813 204.926 11.8925 205.075 11.9809C205.149 12.0252 205.246 12.0731 205.34 12.0802C205.488 12.0889 205.646 12.0313 205.789 12.1159C205.86 12.1582 205.967 12.2022 206.057 12.2035C206.215 12.2062 206.376 12.1739 206.534 12.1591C206.582 12.1548 206.637 12.1544 206.682 12.1638C206.731 12.1752 206.773 12.1982 206.815 12.2174C206.944 12.2826 207.083 12.3127 207.251 12.2784C207.525 12.2219 207.77 12.2474 207.984 12.3704C208.013 12.3877 208.084 12.3891 208.129 12.381C208.245 12.3607 208.345 12.358 208.432 12.3944C208.468 12.4097 208.52 12.4365 208.513 12.4541C208.504 12.4834 208.465 12.5226 208.423 12.5326C208.121 12.601 207.795 12.6112 207.482 12.6485C207.441 12.6527 207.389 12.6278 207.347 12.6106C207.256 12.5762 207.178 12.5184 207.082 12.5055C206.985 12.4925 206.872 12.5187 206.766 12.5292C206.659 12.5397 206.547 12.5697 206.45 12.5587C206.353 12.5458 206.262 12.4978 206.184 12.4556C206.094 12.4076 206.007 12.4024 205.888 12.4227C205.733 12.4491 205.572 12.4542 205.414 12.469C205.326 12.4326 205.239 12.3924 205.148 12.358C205.106 12.3408 205.055 12.3198 205.01 12.3221C204.797 12.3392 204.584 12.3641 204.371 12.3871C204.159 12.41 204.159 12.41 203.797 12.292C203.755 12.2787 203.7 12.2635 203.654 12.2677C203.387 12.293 203.123 12.3242 202.855 12.3495C202.752 12.36 202.658 12.3334 202.574 12.2815C202.493 12.2295 202.396 12.201 202.296 12.2115C201.871 12.2554 201.445 12.2975 201.02 12.3493C200.849 12.37 200.704 12.3535 200.587 12.2843C200.451 12.2055 200.3 12.2261 200.142 12.2428C199.784 12.2843 199.781 12.2824 199.551 12.1848C199.506 12.1657 199.46 12.129 199.419 12.1313C199.048 12.1632 198.674 12.1932 198.307 12.2426C198.113 12.2693 198.01 12.2019 197.88 12.1523C197.835 12.1351 197.786 12.0984 197.748 12.1026C197.48 12.126 197.212 12.1474 196.951 12.1883C196.691 12.2291 196.589 12.0488 196.393 12.0522C196.125 12.0561 195.861 12.1028 195.596 12.132C195.384 12.1549 195.171 12.1779 194.958 12.2009C194.746 12.2238 194.533 12.2429 194.32 12.2698C194.207 12.2842 194.123 12.2673 194.03 12.2193C193.91 12.156 193.768 12.1064 193.638 12.049C193.441 11.9667 193.441 11.9667 193.202 11.9918C193.151 11.998 193.096 12.0023 193.044 12.0085C192.654 12.0542 192.654 12.0503 192.157 11.9313C192.134 11.9256 192.076 11.9475 192.054 11.9632C191.986 12.0143 191.926 12.0693 191.865 12.1223C191.777 12.0918 191.671 12.075 191.612 12.0307C191.447 11.9054 191.19 12.0805 191.022 11.9571C190.96 11.9109 190.853 11.8708 190.756 11.8598C190.656 11.8488 190.544 11.8769 190.441 11.8894C190.173 11.9205 190.173 11.9186 189.945 12.0935C189.83 12.18 189.662 12.1656 189.511 12.1862C189.353 12.2088 189.201 12.2215 189.068 12.1427C188.948 12.0716 188.803 12.0551 188.632 12.0797C188.423 12.1104 188.207 12.1295 187.994 12.1486C187.949 12.1528 187.894 12.1435 187.849 12.1322C187.355 12.0209 187.355 12.019 187.116 12.046C187.01 12.0585 186.9 12.0632 186.797 12.0814C186.623 12.1139 186.491 12.0739 186.365 12.0126C186.322 11.9934 186.274 11.9568 186.232 11.9591C186.019 11.9704 185.81 11.9894 185.6 12.0085C185.439 12.0233 185.278 12.0322 185.123 12.0606C184.865 12.1073 184.739 11.9816 184.561 11.9245C184.297 11.9518 184.029 11.9713 183.765 12.0082C183.642 12.0247 183.562 12.0195 183.468 11.9734C183.348 11.9159 183.238 11.8505 183.045 11.8811C182.787 11.922 182.516 11.9376 182.252 11.9629C182.074 11.9038 181.944 11.7821 181.69 11.8287C181.535 11.8571 181.371 11.8642 181.213 11.8809C181 11.9039 180.787 11.9249 180.575 11.9498C180.346 11.9748 180.349 11.969 179.997 11.8567C179.793 11.7901 179.584 11.8675 179.377 11.8807C179.216 11.8916 179.136 11.9817 179.176 12.0963C179.215 12.2108 179.129 12.301 178.981 12.3177C178.61 12.3574 178.236 12.399 177.865 12.4348C177.82 12.439 177.765 12.4258 177.723 12.4125C177.326 12.2928 177.326 12.2947 177.148 12.3136C176.884 12.3447 176.613 12.3622 176.352 12.4011C176.172 12.4277 176.039 12.3878 175.923 12.3225C175.832 12.2726 175.748 12.2615 175.632 12.274C174.356 12.4138 173.08 12.5438 171.807 12.6874C171.616 12.7083 171.506 12.6526 171.377 12.601C171.332 12.5838 171.29 12.5471 171.244 12.5475C171.138 12.5482 171.032 12.5665 170.925 12.579C170.448 12.6292 169.971 12.6891 169.491 12.7277C169.288 12.7447 169.234 12.8347 169.147 12.9093C169.08 12.9662 169.003 12.9901 168.883 12.9988C168.767 13.0074 168.683 12.9983 168.593 12.9484C168.476 12.883 168.344 12.8431 168.163 12.8717C167.954 12.9044 167.741 12.9196 167.525 12.9426C167.415 12.9531 167.332 12.9887 167.297 13.0591C167.291 13.0708 167.359 13.0995 167.397 13.1167C167.527 13.1742 167.65 13.2414 167.795 13.2812C167.944 13.321 168.105 13.2731 168.26 13.2603C168.314 13.256 168.366 13.244 168.417 13.2455C168.466 13.2471 168.524 13.2564 168.56 13.2737C168.728 13.3601 168.906 13.4191 169.138 13.3649C169.338 13.3887 169.442 13.5495 169.697 13.5048C169.851 13.4784 170.012 13.4655 170.174 13.4546C170.216 13.4524 170.261 13.4871 170.306 13.5043C170.436 13.552 170.539 13.6291 170.733 13.5946C170.939 13.558 171.158 13.5506 171.367 13.5218C171.483 13.5054 171.567 13.5184 171.658 13.5683C171.775 13.6317 171.907 13.6794 172.088 13.6469C172.242 13.6186 172.407 13.6115 172.565 13.5928C172.771 13.5699 172.771 13.5719 173.139 13.6899C173.181 13.7032 173.236 13.7184 173.281 13.7141C173.549 13.6888 173.813 13.6577 174.081 13.6324C174.184 13.6219 174.284 13.6465 174.355 13.7024C174.385 13.7255 174.375 13.7645 174.385 13.7976C173.853 13.854 173.321 13.9027 172.793 13.9708C172.593 13.9975 172.502 13.9184 172.37 13.8746C172.325 13.8593 172.276 13.8266 172.234 13.8308C171.86 13.8666 171.489 13.9044 171.119 13.9499C171.003 13.9644 170.916 13.9572 170.828 13.9014C170.605 13.7532 170.334 13.8369 170.083 13.8601C169.89 13.8771 169.829 13.9379 169.852 14.0662C169.882 14.2178 169.999 14.2637 170.295 14.2343C170.402 14.2238 170.508 14.2094 170.614 14.2008C170.717 14.1923 170.811 14.2169 170.895 14.2688C170.976 14.3208 171.073 14.3473 171.173 14.3388C171.386 14.3197 171.602 14.3007 171.808 14.2699C171.979 14.2453 172.121 14.2638 172.241 14.3349C172.374 14.4137 172.528 14.3951 172.683 14.3764C173.044 14.3349 173.047 14.3368 173.274 14.4325C173.319 14.4516 173.364 14.4883 173.406 14.486C173.777 14.4541 174.151 14.4261 174.515 14.3767C174.705 14.3519 174.815 14.4134 174.941 14.4631C174.987 14.4803 175.032 14.5189 175.074 14.5147C175.342 14.4913 175.609 14.468 175.87 14.4291C175.992 14.4106 176.067 14.4218 176.167 14.4678C176.407 14.5809 176.413 14.5769 176.751 14.5375C176.854 14.525 176.967 14.5028 177.064 14.5177C177.161 14.5325 177.239 14.5884 177.329 14.6228C177.371 14.6381 177.423 14.6591 177.468 14.6549C177.681 14.6377 177.894 14.6128 178.106 14.5899C178.306 14.567 178.306 14.5689 178.681 14.6869C178.833 14.7364 178.991 14.6924 179.142 14.6757C179.307 14.657 179.455 14.6559 179.581 14.7309C179.708 14.8059 179.859 14.8009 180.02 14.7841C180.172 14.7675 180.326 14.7235 180.482 14.7749C180.837 14.893 180.837 14.895 181.056 14.87C181.375 14.8346 181.691 14.8011 182.014 14.7696C182.056 14.7654 182.11 14.7883 182.153 14.8036C182.243 14.838 182.321 14.8958 182.418 14.9087C182.515 14.9236 182.627 14.8994 182.73 14.887C183.062 14.8476 183.085 14.8338 183.308 14.9606C183.496 15.0643 183.727 14.9108 183.902 15.0302C184.003 15.0976 184.139 15.1511 184.325 15.1167C184.48 15.0883 184.641 15.0793 184.802 15.0626C185.057 15.0354 185.057 15.0374 185.38 15.1518C185.422 15.1671 185.477 15.1861 185.519 15.1819C185.732 15.1648 185.948 15.1496 186.154 15.113C186.396 15.0704 186.551 15.1432 186.732 15.2139C186.875 15.2694 187.042 15.2214 187.193 15.2008C187.358 15.1802 187.506 15.1849 187.629 15.2599C187.759 15.3368 187.91 15.326 188.071 15.3093C188.223 15.2945 188.377 15.2486 188.533 15.302C188.866 15.4202 188.866 15.4202 189.107 15.3951C189.32 15.3721 189.533 15.3472 189.746 15.3301C189.787 15.3259 189.839 15.3508 189.881 15.368C189.972 15.4024 190.05 15.4603 190.147 15.4732C190.243 15.4861 190.356 15.46 190.462 15.4495C190.569 15.4389 190.682 15.4089 190.778 15.4199C190.875 15.4309 190.966 15.4789 191.044 15.5211C191.134 15.5711 191.218 15.5763 191.341 15.5559C191.495 15.5295 191.656 15.5225 191.814 15.5077C191.902 15.544 191.992 15.5804 192.076 15.6206C192.164 15.6628 192.257 15.6582 192.376 15.6437C192.773 15.5941 192.776 15.5999 193.109 15.7182C193.261 15.7716 193.419 15.7257 193.57 15.7109C193.732 15.6942 193.883 15.6853 194.009 15.7622C194.132 15.8353 194.284 15.8439 194.445 15.8194C194.548 15.803 194.658 15.7925 194.764 15.7859C194.813 15.7836 194.871 15.791 194.906 15.8063C195.078 15.8868 195.246 15.9595 195.481 15.9053C195.688 15.9193 195.792 16.0782 196.04 16.0452C196.25 16.0164 196.469 16.009 196.675 15.9724C196.865 15.9399 197.001 15.9934 197.098 16.0608C197.273 16.1802 197.517 16.015 197.692 16.1324C197.793 16.1998 197.922 16.2534 198.115 16.2228C198.328 16.1901 198.396 16.2304 198.458 16.3526C198.494 16.4224 198.488 16.4789 198.424 16.5339C198.36 16.5908 198.289 16.5816 198.185 16.5181C198.065 16.447 197.923 16.4344 197.753 16.4512C197.585 16.468 197.481 16.3675 197.342 16.3296C197.203 16.2898 197.039 16.3591 196.894 16.3076C196.551 16.1875 196.551 16.1875 196.319 16.2125C196.161 16.2293 195.996 16.2382 195.842 16.2666C195.658 16.3011 195.538 16.2416 195.412 16.188C195.367 16.1689 195.321 16.1322 195.283 16.1344C194.912 16.1663 194.538 16.1963 194.171 16.2477C193.978 16.2744 193.874 16.2051 193.745 16.1574C193.699 16.1402 193.651 16.1055 193.612 16.1097C193.293 16.1393 192.977 16.1766 192.658 16.212C192.597 16.265 192.53 16.3161 192.472 16.373C192.411 16.4318 192.327 16.4578 192.205 16.4567C192.002 16.4582 191.802 16.5414 191.598 16.4397C191.388 16.3362 191.372 16.3421 191.169 16.3689C190.911 16.4039 190.637 16.3981 190.396 16.4758C190.354 16.4897 190.309 16.527 190.309 16.5543C190.306 16.5718 190.374 16.5966 190.416 16.6119C190.558 16.6576 190.722 16.5882 190.864 16.6359C190.958 16.6663 191.036 16.7125 191.13 16.7449C191.168 16.7582 191.226 16.7559 191.278 16.7535C191.333 16.7512 191.384 16.7372 191.436 16.7388C191.484 16.7403 191.536 16.7516 191.575 16.7689C191.753 16.8415 191.94 16.9083 192.099 16.9947C192.254 17.0793 192.399 17.0198 192.554 17.0148C193.174 17.1465 193.174 17.1484 193.59 17.1026C193.693 17.0921 193.799 17.0796 193.906 17.0808C193.951 17.0805 193.993 17.1152 194.038 17.1343C194.168 17.1918 194.291 17.2434 194.471 17.211C194.626 17.1826 194.79 17.1756 194.948 17.1569C195.161 17.1339 195.161 17.1339 195.523 17.2539C195.614 17.2844 195.71 17.2798 195.826 17.2634C195.926 17.249 196.029 17.2775 196.101 17.3334C196.13 17.3565 196.121 17.3955 196.131 17.4286C195.812 17.462 195.489 17.4858 195.18 17.5348C194.98 17.5654 194.889 17.4824 194.757 17.4386C194.711 17.4234 194.663 17.3906 194.621 17.3948C194.305 17.4263 193.989 17.4617 193.673 17.503C193.635 17.5071 193.587 17.5523 193.584 17.5795C193.578 17.6302 193.658 17.6783 193.775 17.6755C193.929 17.6724 194.081 17.6382 194.22 17.717C194.337 17.7862 194.482 17.8163 194.653 17.7839C194.756 17.7656 194.865 17.7648 194.969 17.7485C195.242 17.6998 195.491 17.7077 195.698 17.8385C195.856 17.8724 196.011 17.8382 196.162 17.8196C196.275 17.8051 196.385 17.7907 196.466 17.8271C196.637 17.9037 196.805 17.9803 197.04 17.9261C197.296 17.9787 197.49 18.0921 197.703 18.184C197.804 18.228 197.881 18.2528 197.997 18.2227C198.046 18.2107 198.104 18.2103 198.155 18.204C198.262 18.1935 198.374 18.1635 198.471 18.1745C198.568 18.1874 198.649 18.2433 198.736 18.2777C198.778 18.2949 198.827 18.3237 198.869 18.3215C199.03 18.3106 199.188 18.2899 199.346 18.2732C199.504 18.2584 199.662 18.2437 199.82 18.2289C199.952 18.2785 200.088 18.3281 200.221 18.3778C200.433 18.3548 200.646 18.3318 200.856 18.3108C201.091 18.2858 201.091 18.2877 201.43 18.4059C201.582 18.4593 201.743 18.4231 201.888 18.3967C202.13 18.3541 202.292 18.4269 202.463 18.5035C202.499 18.5188 202.563 18.528 202.605 18.52C202.773 18.4915 202.918 18.5118 203.041 18.5829C203.128 18.6329 203.216 18.6557 203.322 18.6451C203.693 18.6055 204.063 18.5638 204.434 18.528C204.479 18.5238 204.531 18.5409 204.573 18.5562C204.903 18.6725 204.906 18.6783 205.148 18.6454C205.364 18.6166 205.563 18.6034 205.735 18.7092C205.771 18.7323 205.826 18.765 205.865 18.7628C206.129 18.7414 206.396 18.718 206.657 18.683C206.777 18.6666 206.861 18.6718 206.954 18.7159C207.074 18.7715 207.181 18.8388 207.378 18.8121C207.922 18.7361 207.925 18.7477 208.571 18.8773C208.617 18.8867 208.678 18.8707 208.729 18.8626C208.839 18.8423 208.92 18.869 209.017 18.913C209.234 19.0126 209.24 19.0068 209.446 18.9838C209.604 18.9652 209.769 18.9601 209.923 18.9297C210.162 18.8852 210.32 18.9599 210.498 19.0307C210.64 19.0861 210.805 19.0381 210.956 19.0195C211.12 18.9989 211.269 19.0036 211.392 19.0767C211.476 19.1267 211.567 19.1533 211.673 19.1428C212.044 19.105 212.414 19.0634 212.785 19.0256C212.83 19.0214 212.885 19.0366 212.927 19.0499C213.296 19.1679 213.296 19.1737 213.66 19.1263C213.776 19.1118 213.872 19.1072 213.96 19.1475C214.044 19.1858 214.135 19.2221 214.222 19.2584C214.38 19.2436 214.541 19.2386 214.696 19.2141C214.815 19.1957 214.899 19.2029 214.993 19.2431C215.116 19.2947 215.219 19.3854 215.413 19.3393C215.512 19.3171 215.629 19.3221 215.728 19.3019C215.848 19.2757 215.928 19.2907 216.022 19.3406C216.139 19.4001 216.258 19.4615 216.445 19.429C216.651 19.3925 216.871 19.3851 217.08 19.3563C217.196 19.3399 217.277 19.3548 217.371 19.4048C217.487 19.4681 217.62 19.5081 217.8 19.4814C218.168 19.4301 218.171 19.4398 218.53 19.5598C218.62 19.5903 218.717 19.5857 218.833 19.5693C218.933 19.5549 219.036 19.5834 219.108 19.6393C219.176 19.7011 219.17 19.74 219.176 19.7731ZM190.312 2.42807C190.206 2.43858 190.1 2.45103 189.944 2.28282C189.934 2.25369 189.94 2.21862 189.917 2.19348C189.865 2.1413 189.784 2.10491 189.688 2.09978C189.513 2.09327 189.304 2.16097 189.308 2.21155C189.311 2.25435 189.366 2.29092 189.473 2.32518C189.518 2.33848 189.554 2.36158 189.596 2.37684C189.719 2.42072 189.816 2.50761 189.993 2.46155C189.96 2.34111 189.977 2.40133 189.993 2.46155C189.978 2.53563 190.027 2.58784 190.143 2.6084C190.175 2.614 190.223 2.60975 190.249 2.59788C190.349 2.55433 190.364 2.49583 190.289 2.3426C190.277 2.368 190.287 2.41268 190.316 2.42415C190.345 2.43561 190.416 2.42537 190.451 2.41149C190.541 2.37385 190.586 2.32485 190.563 2.28414C190.55 2.26282 190.488 2.23602 190.45 2.2363C190.382 2.2368 190.321 2.28006 190.312 2.42807ZM216.551 24.8105C216.316 24.8492 216.045 24.8376 215.81 24.9152C215.768 24.9291 215.727 24.9645 215.723 24.9918C215.72 25.0093 215.785 25.0341 215.824 25.0475C215.911 25.078 216.008 25.0675 216.121 25.057C216.291 25.0421 216.392 25.1309 216.525 25.1747C216.567 25.188 216.622 25.1974 216.667 25.1931C216.928 25.1679 217.186 25.1407 217.447 25.1115C217.492 25.1054 217.54 25.0914 217.579 25.0736C217.707 25.0162 217.694 24.9793 217.568 24.9374C217.429 24.8917 217.319 24.8146 217.177 24.7787C216.973 24.7276 216.767 24.7992 216.551 24.8105ZM198.245 26.3653C198.087 26.382 197.932 26.3988 197.774 26.4155C197.723 26.4217 197.668 26.424 197.62 26.4322C197.52 26.4465 197.446 26.4879 197.398 26.5525C197.473 26.6026 197.563 26.6311 197.663 26.6246C197.821 26.6117 197.976 26.5853 198.134 26.5783C198.305 26.5693 198.405 26.6561 198.538 26.6999C198.58 26.7133 198.631 26.7148 198.68 26.7164C198.918 26.7224 199.063 26.6202 199.017 26.4784C198.984 26.3677 198.861 26.3024 198.712 26.3171C198.558 26.3319 198.4 26.3486 198.245 26.3653ZM217.634 21.9256C217.672 21.8922 217.714 21.8685 217.733 21.8392C217.791 21.7395 217.767 21.6657 217.66 21.5886C217.531 21.4942 217.373 21.5596 217.228 21.5704C217.193 21.5726 217.154 21.6137 217.135 21.6392C217.122 21.6568 217.123 21.6938 217.142 21.7034C217.301 21.7801 217.469 21.8509 217.634 21.9256ZM189.614 16.3803C189.46 16.397 189.302 16.4098 189.147 16.4324C189.108 16.4385 189.073 16.4757 189.051 16.5012C189.009 16.5482 189.055 16.6121 189.187 16.617C189.339 16.6237 189.496 16.5894 189.654 16.5727C189.854 16.5518 189.973 16.4789 189.898 16.4171C189.827 16.3573 189.73 16.3463 189.614 16.3803ZM19.8122 13.4617C19.9153 13.4513 20.0217 13.4427 20.1248 13.4283C20.2214 13.414 20.2954 13.3706 20.3433 13.306C20.2623 13.256 20.1718 13.2294 20.0718 13.236C19.9139 13.2488 19.7592 13.2655 19.6045 13.2861C19.5079 13.2985 19.4147 13.342 19.3925 13.4083C19.3703 13.4591 19.5866 13.4867 19.8122 13.4617ZM175.943 12.0206C175.985 12.0378 176.028 12.0726 176.069 12.0723C176.173 12.0715 176.279 12.0591 176.376 12.0389C176.418 12.0308 176.45 11.9955 176.469 11.9681C176.481 11.9505 176.478 11.9194 176.459 11.904C176.364 11.8112 175.99 11.8471 175.93 11.9546C175.924 11.9741 175.94 11.9992 175.943 12.0206ZM165.692 1.43621C165.702 1.46728 165.706 1.49839 165.719 1.52944C165.745 1.58765 165.816 1.62996 165.92 1.6584C166 1.60915 166.042 1.55435 166.038 1.49598C166.035 1.46486 166.025 1.43377 166.012 1.40272C165.985 1.34452 165.914 1.30223 165.811 1.27379C165.73 1.32109 165.692 1.37587 165.692 1.43621ZM225.12 26.5076C225.091 26.5331 225.062 26.5586 225.03 26.5822C225.118 26.638 225.199 26.6549 225.26 26.6233C225.298 26.6036 225.321 26.5742 225.349 26.5487C225.262 26.4929 225.184 26.4779 225.12 26.5076ZM223.116 26.7869C223.158 26.8042 223.197 26.8272 223.242 26.8386C223.316 26.8575 223.384 26.8239 223.435 26.7535C223.393 26.7362 223.354 26.7132 223.309 26.7018C223.234 26.6829 223.167 26.7165 223.116 26.7869ZM224.384 26.4215C224.362 26.4683 224.407 26.5069 224.527 26.5392C224.556 26.5136 224.594 26.49 224.613 26.4626C224.645 26.4176 224.59 26.3771 224.474 26.3468C224.442 26.3704 224.413 26.3959 224.384 26.4215ZM217.561 24.3729C217.539 24.4198 217.584 24.4584 217.704 24.4906C217.732 24.4651 217.771 24.4415 217.79 24.4141C217.822 24.3691 217.767 24.3286 217.651 24.2983C217.619 24.3219 217.59 24.3474 217.561 24.3729ZM208.188 10.6676C208.159 10.6931 208.13 10.7186 208.098 10.7422C208.185 10.798 208.266 10.815 208.327 10.7834C208.366 10.7636 208.388 10.7343 208.417 10.7087C208.33 10.6529 208.252 10.6379 208.188 10.6676ZM199.251 3.42554C199.328 3.4386 199.392 3.41089 199.447 3.33847C199.405 3.32126 199.366 3.29818 199.321 3.28683C199.246 3.26791 199.179 3.3015 199.128 3.37195C199.17 3.39111 199.212 3.40831 199.251 3.42554ZM194.529 3.00262C194.5 3.02814 194.471 3.05365 194.439 3.07725C194.527 3.13306 194.607 3.14998 194.668 3.11839C194.707 3.09864 194.729 3.06928 194.758 3.04376C194.671 2.98795 194.593 2.9749 194.529 3.00262ZM162.519 1.45746C162.49 1.48297 162.461 1.50849 162.429 1.53208C162.517 1.58789 162.597 1.60482 162.658 1.57323C162.697 1.55348 162.719 1.52412 162.748 1.4986C162.661 1.44279 162.583 1.42973 162.519 1.45746ZM3.30763 18.4585C3.26558 18.4413 3.22356 18.4241 3.18472 18.4049C3.09156 18.4582 3.06289 18.507 3.11476 18.5436C3.14717 18.5667 3.19561 18.58 3.23766 18.5972C3.33405 18.544 3.35628 18.4971 3.30763 18.4585Z" fill="#FFE492"/>
<path d="M21.9541 10.927C21.5835 10.9667 21.2162 11.0161 20.8454 11.0421C20.6488 11.0552 20.5785 11.1394 20.4984 11.2178C20.4343 11.2806 20.3602 11.3006 20.241 11.3131C19.2354 11.4158 18.233 11.5243 17.2307 11.6309C17.1047 11.6065 17.0432 11.5661 17.0718 11.5172C17.0878 11.4879 17.1262 11.4468 17.1649 11.4426C17.8513 11.3656 18.5345 11.2867 19.2243 11.2252C19.421 11.2082 19.4752 11.1222 19.5747 11.0514C19.6068 11.0278 19.6324 10.9926 19.6742 10.9787C19.716 10.9628 19.7773 10.9643 19.8321 10.96C20.9408 10.841 22.0495 10.724 23.1582 10.6049C23.2842 10.6293 23.3458 10.6697 23.3171 10.7186C23.3012 10.7479 23.2627 10.789 23.2241 10.7932C22.7986 10.8372 22.3763 10.8811 21.9541 10.927Z" fill="#FFE492"/>
<path d="M225.136 20.738C224.968 20.7626 224.756 20.7972 224.581 20.6856C224.497 20.6317 224.406 20.6149 224.297 20.6274C224.139 20.648 223.977 20.6647 223.816 20.6776C223.774 20.6798 223.719 20.6588 223.677 20.6416C223.587 20.6073 223.509 20.5495 223.412 20.5346C223.315 20.5197 223.199 20.5634 223.099 20.5544C222.967 20.5417 222.912 20.4896 222.947 20.4407C222.966 20.4133 223.005 20.3741 223.046 20.368C223.643 20.2916 223.646 20.2916 223.814 20.3604C223.943 20.414 224.063 20.4734 224.247 20.439C224.401 20.4106 224.566 20.4036 224.724 20.3849C224.943 20.3599 224.943 20.3619 225.299 20.4819C225.389 20.5124 225.486 20.5097 225.602 20.4914C225.702 20.477 225.799 20.5074 225.88 20.5594C225.829 20.6259 225.755 20.6693 225.655 20.6817C225.494 20.7023 225.336 20.7171 225.136 20.738Z" fill="#FFE492"/>
<path d="M219.198 20.16C219.604 20.1161 220.014 20.0781 220.42 20.0283C220.587 20.0076 220.72 20.0281 220.836 20.0935C220.963 20.1647 221.104 20.1578 221.259 20.143C221.356 20.1345 221.45 20.165 221.514 20.2191C221.54 20.2403 221.534 20.2794 221.544 20.3105C221.19 20.3482 220.832 20.3878 220.474 20.4216C220.432 20.4258 220.38 20.4067 220.342 20.3914C220.254 20.3589 220.18 20.301 220.086 20.29C219.886 20.2641 219.686 20.3182 219.483 20.3295C219.387 20.3341 219.293 20.3055 219.228 20.2534C219.202 20.2282 219.208 20.1911 219.198 20.16Z" fill="#FFE492"/>
<path d="M72.2085 3.61635C72.6307 3.57045 73.0529 3.52651 73.4751 3.48061C73.601 3.50694 73.6594 3.54543 73.6339 3.59427C73.618 3.62358 73.5796 3.66474 73.5409 3.66891C72.6965 3.76266 71.8521 3.85251 71.0109 3.94235C70.885 3.91602 70.8266 3.87753 70.8521 3.82869C70.868 3.79938 70.9064 3.75822 70.9451 3.75405C71.3641 3.70622 71.7863 3.66226 72.2085 3.61635Z" fill="#FFE492"/>
<path d="M7.15009 14.9141C6.95987 14.9194 6.76049 14.9936 6.54729 14.9402C6.5053 14.9307 6.44702 14.8996 6.45012 14.8819C6.45636 14.8524 6.4948 14.8148 6.53664 14.8027C6.72009 14.7522 6.94902 14.7446 7.04156 14.6064C7.08621 14.5353 7.16988 14.5111 7.28264 14.4965C7.40184 14.4799 7.4857 14.4851 7.5795 14.5257C7.70241 14.5779 7.8063 14.6753 7.99942 14.6228C8.00931 14.6542 8.03208 14.6894 8.02261 14.7189C8.01314 14.7485 7.97149 14.7763 7.93294 14.7982C7.89761 14.8181 7.84932 14.8361 7.80422 14.8424C7.59156 14.8675 7.37887 14.8888 7.15009 14.9141Z" fill="#FFE492"/>
<path d="M174.924 13.8796C175.082 13.8628 175.246 13.8538 175.401 13.8254C175.523 13.803 175.601 13.8161 175.698 13.8622C175.863 13.943 175.872 13.9351 176.276 13.9439C176.321 13.9455 176.376 13.9744 176.402 13.9996C176.418 14.0131 176.396 14.0504 176.376 14.07C176.348 14.0956 176.306 14.1291 176.267 14.1294C176.012 14.1371 175.755 14.2542 175.506 14.1233C175.38 14.0579 175.241 14.0276 175.07 14.0582C174.967 14.0765 174.857 14.0851 174.751 14.0937C174.648 14.1023 174.541 14.0816 174.477 14.0235C174.382 13.9383 174.437 13.9047 174.605 13.9093C174.711 13.9124 174.817 13.8902 174.924 13.8796Z" fill="#FFE492"/>
<path d="M233.464 27.3631C233.667 27.3419 233.87 27.3169 234.076 27.2996C234.118 27.2954 234.17 27.3166 234.209 27.3301C234.364 27.3879 234.342 27.4882 234.349 27.5766C234.353 27.669 233.996 27.7463 233.844 27.6846C233.675 27.6151 233.523 27.5356 233.292 27.5806C233.201 27.597 233.095 27.5624 233.036 27.5059C232.949 27.424 232.997 27.3902 233.161 27.3949C233.258 27.3981 233.361 27.3757 233.464 27.3631Z" fill="#FFE492"/>
<path d="M130.898 0.683021C131.107 0.659968 131.317 0.6252 131.526 0.621699C131.649 0.61884 131.711 0.682897 131.682 0.730035C131.666 0.759481 131.628 0.800826 131.589 0.805022C131.17 0.855038 130.751 0.89724 130.332 0.943346C130.209 0.916878 130.148 0.876277 130.176 0.829139C130.192 0.799693 130.231 0.760303 130.269 0.754152C130.479 0.725233 130.688 0.706074 130.898 0.683021Z" fill="#FFE492"/>
<path d="M229.41 20.9049C229.613 20.8838 229.819 20.8529 230.022 20.8416C230.129 20.8369 230.213 20.8813 230.226 20.9321C230.233 20.9555 230.182 20.997 230.14 21.0071C229.85 21.0757 229.537 21.0859 229.234 21.1213C229.138 21.1318 229.034 21.1013 228.976 21.047C228.888 20.9635 228.936 20.9318 229.101 20.9365C229.204 20.9377 229.307 20.9154 229.41 20.9049Z" fill="#FFE492"/>
<path d="M180.257 14.1259C180.36 14.1153 180.466 14.0888 180.566 14.096C180.672 14.105 180.741 14.1617 180.773 14.2186C180.809 14.2834 180.806 14.3445 180.774 14.3999C180.724 14.4949 180.672 14.4913 180.552 14.4292C180.368 14.332 180.355 14.3439 179.991 14.3506C179.949 14.3509 179.897 14.3217 179.864 14.2963C179.816 14.2573 179.841 14.196 179.954 14.1597C180.037 14.1335 180.154 14.1365 180.257 14.1259Z" fill="#FFE492"/>
<path d="M221.846 20.2812C221.997 20.2643 222.149 20.2377 222.3 20.2366C222.407 20.2339 222.491 20.2783 222.501 20.3273C222.504 20.3508 222.456 20.3904 222.417 20.4024C222.234 20.4567 222.028 20.4622 221.828 20.4813C221.734 20.4898 221.631 20.4592 221.572 20.4047C221.485 20.323 221.536 20.2854 221.694 20.296C221.743 20.2996 221.794 20.2874 221.846 20.2812Z" fill="#FFE492"/>
<path d="M197.97 17.9292C197.744 17.9544 197.531 17.9266 197.547 17.8755C197.569 17.8087 197.662 17.7648 197.759 17.7524C197.914 17.7316 198.068 17.7148 198.226 17.7019C198.326 17.6933 198.417 17.722 198.498 17.7724C198.45 17.8355 198.376 17.8811 198.279 17.8955C198.179 17.91 198.073 17.9187 197.97 17.9292Z" fill="#FFE492"/>
<path d="M196.488 17.6835C196.64 17.6667 196.791 17.6401 196.943 17.639C197.049 17.6362 197.133 17.6807 197.143 17.7296C197.147 17.7531 197.099 17.7927 197.06 17.8048C196.877 17.8591 196.67 17.8645 196.47 17.8836C196.377 17.8922 196.274 17.8616 196.215 17.8071C196.127 17.7254 196.179 17.6878 196.337 17.6984C196.385 17.7019 196.437 17.6898 196.488 17.6835Z" fill="#FFE492"/>
<path d="M178.424 14.1157C178.575 14.0988 178.727 14.0722 178.878 14.0691C178.985 14.0664 179.069 14.1109 179.079 14.1598C179.082 14.1833 179.034 14.2209 178.996 14.235C178.812 14.2893 178.606 14.2947 178.406 14.3138C178.312 14.3224 178.209 14.2918 178.151 14.2373C178.063 14.1556 178.114 14.1179 178.272 14.1285C178.321 14.1321 178.372 14.12 178.424 14.1157Z" fill="#FFE492"/>
<path d="M177.575 14.0025C177.736 13.9857 177.787 13.9755 177.839 13.9751C177.936 13.9744 178.036 13.9972 178.094 14.0536C178.182 14.1353 178.13 14.1592 177.972 14.1643C177.769 14.1698 177.57 14.2124 177.367 14.2218C177.26 14.2265 177.176 14.18 177.169 14.1311C177.166 14.1075 177.214 14.066 177.253 14.0579C177.388 14.0275 177.536 14.0087 177.575 14.0025Z" fill="#FFE492"/>
<path d="M195.092 2.23107C194.989 2.24166 194.879 2.26998 194.782 2.26087C194.653 2.24808 194.601 2.19543 194.633 2.14608C194.653 2.11844 194.688 2.07888 194.726 2.0727C194.933 2.04366 195.142 2.02441 195.348 2.00323C195.471 2.03178 195.526 2.07263 195.494 2.12198C195.475 2.14962 195.44 2.18721 195.401 2.19536C195.301 2.21575 195.195 2.22048 195.092 2.23107Z" fill="#FFE492"/>
<path d="M69.8962 3.85948C69.9962 3.85677 70.0866 3.88167 70.1643 3.93027C70.1164 3.99358 70.0458 4.03542 69.9492 4.05385C69.9009 4.06208 69.8461 4.06838 69.7945 4.07074C69.6946 4.07542 69.6041 4.04855 69.5264 3.99995C69.5743 3.93663 69.6481 3.89477 69.7415 3.87637C69.7898 3.86814 69.8447 3.86577 69.8962 3.85948Z" fill="#FFE492"/>
<path d="M228.306 20.9004C228.302 20.8434 228.498 20.777 228.676 20.7776C228.769 20.7789 228.866 20.8057 228.921 20.8584C229.006 20.9384 228.957 20.9703 228.799 20.9655C228.703 20.9623 228.6 20.9965 228.503 20.9913C228.393 20.9902 228.328 20.9474 228.306 20.9004Z" fill="#FFE492"/>
<path d="M181.19 14.3607C181.186 14.339 181.17 14.3135 181.18 14.2937C181.24 14.1849 181.611 14.1486 181.708 14.2425C181.724 14.2601 181.731 14.2896 181.718 14.3074C181.699 14.3352 181.664 14.3709 181.625 14.3791C181.525 14.3995 181.422 14.4102 181.319 14.4129C181.274 14.4133 181.232 14.3801 181.19 14.3607Z" fill="#FFE492"/>
<path d="M8.29492 14.5923C7.91475 14.6365 7.90828 14.6326 7.9753 14.5337C8.03593 14.4446 8.14843 14.3906 8.31286 14.3894C8.36123 14.389 8.41277 14.3847 8.45474 14.3923C8.49995 14.4018 8.56461 14.421 8.57445 14.4445C8.59411 14.4897 8.5396 14.5393 8.4431 14.5735C8.4013 14.5896 8.34647 14.5861 8.29492 14.5923Z" fill="#FFE492"/>
<path d="M74.6587 3.55902C74.5461 3.59338 74.4493 3.58228 74.378 3.51974C74.3066 3.45719 74.4189 3.38144 74.6155 3.36223C74.667 3.3579 74.7217 3.34173 74.7701 3.34925C74.8185 3.3548 74.8671 3.37807 74.8963 3.40151C74.9481 3.44055 74.9163 3.49402 74.8134 3.54013C74.7716 3.55818 74.7103 3.5547 74.6587 3.55902Z" fill="#FFE492"/>
<path d="M227.632 20.7545C227.661 20.7285 227.69 20.7025 227.722 20.6786C227.841 20.7113 227.893 20.7505 227.861 20.7963C227.842 20.8241 227.803 20.8482 227.775 20.8741C227.655 20.8414 227.607 20.8002 227.632 20.7545Z" fill="#FFE492"/>
<path d="M13.5298 37.2165C13.5296 37.1928 13.5744 37.155 13.6097 37.1468C13.6772 37.1325 13.761 37.1595 13.8193 37.2144C13.9002 37.2928 13.8523 37.3346 13.7042 37.314C13.6012 37.299 13.5301 37.26 13.5298 37.2165Z" fill="#FFE492"/>
<path d="M182.493 12.5045C182.535 12.5219 182.577 12.5394 182.616 12.5588C182.562 12.6323 182.494 12.6643 182.423 12.6451C182.378 12.6336 182.339 12.6102 182.298 12.5928C182.352 12.5194 182.416 12.4913 182.493 12.5045Z" fill="#FFE492"/>
<path d="M181.376 12.4196C181.44 12.3895 181.517 12.4047 181.608 12.4613C181.579 12.4871 181.554 12.5169 181.518 12.5369C181.457 12.5689 181.377 12.5537 181.29 12.4952C181.315 12.4713 181.344 12.4455 181.376 12.4196Z" fill="#FFE492"/>
<path d="M180.522 12.5103C180.564 12.5278 180.606 12.5452 180.645 12.5646C180.591 12.6381 180.527 12.6701 180.453 12.6509C180.407 12.6394 180.369 12.616 180.327 12.5986C180.381 12.5252 180.445 12.4951 180.522 12.5103Z" fill="#FFE492"/>
<path d="M179.889 12.4069C179.938 12.4461 179.912 12.4938 179.819 12.548C179.777 12.5305 179.729 12.517 179.697 12.4935C179.645 12.4563 179.671 12.4066 179.767 12.3524C179.805 12.3719 179.847 12.3894 179.889 12.4069Z" fill="#FFE492"/>
</svg>
