<svg width="320" height="216" viewBox="0 0 320 216" fill="none" xmlns="http://www.w3.org/2000/svg">
<path d="M287.918 154.944C287.918 84.2975 230.647 27.0271 160.001 27.0271C89.3539 27.0271 32.0835 84.2975 32.0835 154.944" stroke="#A7CEFC" stroke-width="2" stroke-dasharray="15 15"/>
<line x1="31.3889" y1="153.444" x2="287.916" y2="153.444" stroke="#A7CEFC" stroke-width="3" stroke-dasharray="15 15"/>
<line x1="84.2604" y1="51.4586" x2="137.993" y2="126.337" stroke="#A7CEFC" stroke-width="3" stroke-dasharray="15 15"/>
<line x1="246.618" y1="60.5842" x2="193.415" y2="127.796" stroke="#A7CEFC" stroke-width="3" stroke-dasharray="15 15"/>
<rect x="137.234" y="127.325" width="55.2387" height="55.2387" rx="8.5" stroke="#A7CEFC" stroke-width="3" stroke-dasharray="15 15"/>
<g filter="url(#filter0_d_5_47614)">
<rect x="147.52" y="137.611" width="34.6659" height="34.6659" rx="10" fill="white"/>
</g>
<path d="M155 150.268V153.651C155 154.682 156.287 155.231 157.073 154.51L160.827 151.127C161.649 150.388 161.113 149.083 159.987 149.083H156.233C155.554 149.083 155 149.615 155 150.268Z" fill="#5986EF"/>
<path d="M172.767 149.083H169.013C167.905 149.083 167.351 150.388 168.173 151.127L171.927 154.51C172.713 155.214 174 154.682 174 153.651V150.268C174 149.615 173.446 149.083 172.767 149.083Z" fill="#5986EF"/>
<path d="M165.349 157.344L171.927 163.286C172.713 163.99 174 163.458 174 162.427V159.01C174 158.683 173.857 158.374 173.607 158.151L165.349 150.68C164.866 150.251 164.134 150.251 163.651 150.68L155.393 158.151C155.143 158.374 155 158.683 155 159.01V162.427C155 163.458 156.287 164.007 157.073 163.286L163.651 157.344C164.134 156.914 164.866 156.914 165.349 157.344Z" fill="#5986EF"/>
<g filter="url(#filter1_d_5_47614)">
<rect x="14.75" y="137.611" width="34.6659" height="34.6659" rx="10" fill="white"/>
</g>
<path d="M31.3049 156.279C31.1385 156.279 30.9721 156.215 30.8454 156.088C30.5916 155.834 30.5916 155.423 30.8454 155.169L35.0576 150.957C35.3111 150.703 35.7232 150.703 35.9767 150.957C36.2305 151.211 36.2305 151.622 35.9767 151.876L31.7645 156.088C31.6377 156.215 31.4713 156.279 31.3049 156.279Z" fill="#FFE492"/>
<path d="M31.3054 156.279C31.139 156.279 30.9729 156.215 30.8458 156.088L28.7223 153.965C28.4685 153.711 28.4685 153.3 28.7223 153.046C28.9758 152.792 29.3876 152.792 29.6414 153.046L31.7649 155.169C32.0187 155.423 32.0187 155.835 31.7649 156.088C31.6382 156.215 31.4718 156.279 31.3054 156.279Z" fill="#FFE492"/>
<path d="M32.0822 163.047C32.0146 163.047 31.946 163.036 31.8784 163.014C27.7237 161.644 24.9324 157.784 24.9324 153.408C24.9324 153.049 25.2236 152.758 25.5824 152.758C25.9411 152.758 26.2323 153.049 26.2323 153.408C26.2323 157.221 28.6649 160.585 32.2856 161.78C32.6266 161.892 32.8118 162.26 32.6994 162.601C32.6093 162.874 32.3552 163.047 32.0822 163.047Z" fill="#FFE492"/>
<path d="M25.5824 154.058C25.2236 154.058 24.9324 153.767 24.9324 153.408V148.81C24.9324 148.451 25.2236 148.16 25.5824 148.16C25.9411 148.16 26.2323 148.451 26.2323 148.81V153.408C26.2323 153.767 25.9411 154.058 25.5824 154.058Z" fill="#FFE492"/>
<path d="M25.5818 149.46C25.2627 149.46 24.9841 149.224 24.9386 148.899C24.8892 148.544 25.1372 148.215 25.4931 148.166C27.6887 147.861 29.808 147.205 31.7924 146.216C32.1138 146.056 32.5041 146.186 32.664 146.508C32.8243 146.829 32.6933 147.219 32.3722 147.379C30.2614 148.431 28.0072 149.129 25.6718 149.454C25.6416 149.458 25.6114 149.46 25.5818 149.46Z" fill="#FFE492"/>
<path d="M32.0824 163.047C31.8097 163.047 31.5553 162.874 31.4653 162.601C31.3528 162.26 31.5381 161.892 31.879 161.78C35.4997 160.586 37.9323 157.221 37.9323 153.408C37.9323 153.049 38.2235 152.758 38.5823 152.758C38.9411 152.758 39.2323 153.049 39.2323 153.408C39.2323 157.783 36.4409 161.644 32.2859 163.014C32.2183 163.037 32.15 163.047 32.0824 163.047Z" fill="#FFE492"/>
<path d="M38.5824 154.058C38.2236 154.058 37.9324 153.767 37.9324 153.408V148.81C37.9324 148.451 38.2236 148.16 38.5824 148.16C38.9411 148.16 39.2323 148.451 39.2323 148.81V153.408C39.2323 153.767 38.9411 154.058 38.5824 154.058Z" fill="#FFE492"/>
<path d="M38.5833 149.46C38.5534 149.46 38.5232 149.458 38.493 149.454C36.1576 149.129 33.9034 148.431 31.7926 147.379C31.4715 147.219 31.3405 146.829 31.5008 146.508C31.6607 146.186 32.051 146.056 32.3724 146.216C34.3568 147.204 36.4761 147.861 38.6717 148.166C39.0273 148.215 39.2756 148.544 39.2262 148.899C39.1813 149.224 38.9028 149.46 38.5833 149.46Z" fill="#FFE492"/>
<g filter="url(#filter2_d_5_47614)">
<rect x="270.584" y="137.611" width="34.6659" height="34.6659" rx="10" fill="white"/>
</g>
<g clip-path="url(#clip0_5_47614)">
<path d="M293.767 152.181H292.303V148.841C292.303 146.472 290.335 144.544 287.916 144.544C285.497 144.544 283.529 146.472 283.529 148.841V152.181H282.068C280.724 152.181 279.63 153.275 279.63 154.619V162.906C279.63 164.25 280.724 165.344 282.068 165.344H293.767C295.111 165.344 296.205 164.25 296.205 162.906V154.619C296.205 153.275 295.111 152.181 293.767 152.181ZM285.153 148.841C285.153 147.368 286.393 146.169 287.916 146.169C289.439 146.169 290.678 147.368 290.678 148.841V152.181H285.153V148.841ZM294.58 162.906C294.58 163.354 294.215 163.719 293.767 163.719H282.068C281.62 163.719 281.255 163.354 281.255 162.906V154.619C281.255 154.171 281.62 153.806 282.068 153.806H293.767C294.215 153.806 294.58 154.171 294.58 154.619V162.906Z" fill="#4F9CF9"/>
<path d="M287.916 156.162C287.086 156.162 286.413 156.835 286.413 157.665C286.413 158.195 286.688 158.661 287.102 158.929V160.712C287.102 161.161 287.466 161.525 287.915 161.525C288.364 161.525 288.727 161.161 288.727 160.712V158.931C289.144 158.663 289.42 158.197 289.42 157.665C289.42 156.835 288.747 156.162 287.916 156.162Z" fill="#4F9CF9"/>
</g>
<g filter="url(#filter3_d_5_47614)">
<rect x="227.945" y="35" width="34.6659" height="34.6659" rx="10" fill="white"/>
</g>
<g clip-path="url(#clip1_5_47614)">
<path d="M241.991 41.9333C237.799 41.9333 234.878 43.389 234.878 44.6956C234.878 46.0021 237.799 47.4579 241.991 47.4579C246.184 47.4579 249.105 46.0021 249.105 44.6956C249.105 43.3891 246.184 41.9333 241.991 41.9333Z" fill="#FFE492"/>
<path d="M234.878 57.3869V59.9705C234.878 61.277 237.799 62.7328 241.991 62.7328C243.87 62.7328 245.644 62.4369 246.985 61.8995C247.859 61.5493 248.506 61.1149 248.843 60.6635C248.209 60.1671 247.476 59.4534 246.838 58.4688C245.433 58.9186 243.773 59.1546 241.992 59.1546C239.75 59.1546 237.653 58.7684 236.087 58.0671C235.63 57.8626 235.226 57.6346 234.878 57.3869V57.3869Z" fill="#FFE492"/>
<path d="M234.878 52.307L234.878 54.8553C234.878 56.1618 237.799 57.6175 241.991 57.6175C243.478 57.6175 244.905 57.4311 246.1 57.0861C245.666 56.0842 245.386 54.9782 245.263 53.7813C244.24 53.9736 243.126 54.0739 241.991 54.0739C239.735 54.0739 237.628 53.6834 236.059 52.9742C235.614 52.7729 235.219 52.5493 234.878 52.307Z" fill="#FFE492"/>
<path d="M234.878 47.2248V49.7749C234.878 51.0814 237.799 52.5372 241.991 52.5372C243.113 52.5372 244.206 52.4315 245.19 52.2296C245.191 51.9881 245.263 51.3597 245.845 51.1999C246.762 50.9482 247.404 50.3439 247.46 49.5151C247.484 49.1738 247.911 48.6957 248.229 48.7004H249.105V47.2248C248.764 47.4672 248.37 47.6908 247.924 47.8923C246.353 48.6032 244.246 48.9948 241.992 48.9948C239.737 48.9948 237.63 48.6032 236.059 47.8923C235.613 47.6908 235.219 47.4672 234.878 47.2248V47.2248Z" fill="#FFE492"/>
<path d="M253.499 50.2375H248.914C248.658 51.3034 247.838 52.1778 246.729 52.5591C246.816 57.6755 249.757 59.6264 251.053 60.2381C251.127 60.273 251.215 60.2693 251.288 60.2282C252.59 59.4947 255.541 57.3114 255.678 52.5573C254.573 52.1751 253.755 51.3018 253.499 50.2375ZM250.932 56.9003C250.621 57.2204 250.085 57.2028 249.796 56.8631L248.335 55.1487L249.505 54.1519L250.418 55.2237L252.966 52.6029L254.069 53.6741L250.932 56.9003Z" fill="#FFE492"/>
</g>
<g filter="url(#filter4_d_5_47614)">
<rect x="65.7095" y="35" width="34.6659" height="34.6659" rx="10" fill="white"/>
</g>
<g clip-path="url(#clip2_5_47614)">
<path d="M90.7876 43.8938C88.1737 41.2799 83.9206 41.28 81.3068 43.8938C79.5215 45.6791 78.9016 48.3107 79.6743 50.6976L72.127 58.2449C72.0127 58.3592 71.9485 58.5142 71.9485 58.6759V62.1235C71.9485 62.4601 72.2214 62.7329 72.5579 62.7329H76.0055C76.1672 62.7329 76.3222 62.6687 76.4365 62.5544L77.2986 61.6923C77.4302 61.5606 77.4945 61.376 77.473 61.191L77.3654 60.2655L78.6485 60.1445C78.9398 60.1171 79.1706 59.8864 79.198 59.595L79.319 58.3118L80.2447 58.4193C80.4175 58.4395 80.5904 58.3848 80.7204 58.2691C80.8502 58.1535 80.9245 57.9879 80.9245 57.814V56.679H82.0388C82.1992 56.679 82.3532 56.6158 82.4673 56.503L83.9814 55.0063C86.369 55.7802 89.0019 55.1604 90.7877 53.3746C93.4014 50.7608 93.4014 46.5076 90.7876 43.8938ZM89.9257 52.5128C88.3875 54.051 86.08 54.5311 84.0473 53.7361C83.823 53.6484 83.5681 53.701 83.3969 53.8703L81.7884 55.4601H80.315C79.9784 55.4601 79.7056 55.733 79.7056 56.0696V57.1296L78.8411 57.0291C78.6782 57.0102 78.5147 57.0577 78.3872 57.1608C78.2598 57.2639 78.1793 57.414 78.1639 57.5773L78.0318 58.9783L76.6308 59.1104C76.4676 59.1258 76.3175 59.2062 76.2143 59.3337C76.1112 59.4611 76.0637 59.6247 76.0826 59.7875L76.2281 61.0389L75.7531 61.5141H73.1673V58.9284L80.8086 51.2871C80.9798 51.116 81.0334 50.8597 80.9453 50.6342C80.1502 48.6014 80.6304 46.2941 82.1686 44.7558C84.3073 42.6172 87.7871 42.6172 89.9257 44.7558C92.0643 46.8943 92.0643 50.3742 89.9257 52.5128Z" fill="#4F9CF9"/>
<path d="M89.0649 45.6174C88.352 44.9045 87.1921 44.9045 86.4792 45.6174C85.7664 46.3302 85.7664 47.4902 86.4792 48.2031C87.1921 48.9159 88.352 48.916 89.0649 48.2031C89.7778 47.4902 89.7778 46.3302 89.0649 45.6174ZM88.203 47.3412C87.9654 47.5788 87.5788 47.5788 87.3412 47.3412C87.1035 47.1036 87.1035 46.7169 87.3412 46.4793C87.5794 46.2411 87.9648 46.2411 88.203 46.4793C88.4413 46.7175 88.4412 47.103 88.203 47.3412Z" fill="#4F9CF9"/>
</g>
<circle cx="161.039" cy="27.027" r="5.54654" fill="#A7CEFC"/>
<circle cx="119.094" cy="102.599" r="5.54654" fill="#A7CEFC"/>
<circle cx="237.998" cy="154.944" r="5.54654" fill="#A7CEFC"/>
<defs>
<filter id="filter0_d_5_47614" x="109.52" y="103.611" width="110.666" height="110.666" filterUnits="userSpaceOnUse" color-interpolation-filters="sRGB">
<feFlood flood-opacity="0" result="BackgroundImageFix"/>
<feColorMatrix in="SourceAlpha" type="matrix" values="0 0 0 0 0 0 0 0 0 0 0 0 0 0 0 0 0 0 127 0" result="hardAlpha"/>
<feMorphology radius="2" operator="erode" in="SourceAlpha" result="effect1_dropShadow_5_47614"/>
<feOffset dy="4"/>
<feGaussianBlur stdDeviation="20"/>
<feComposite in2="hardAlpha" operator="out"/>
<feColorMatrix type="matrix" values="0 0 0 0 0 0 0 0 0 0 0 0 0 0 0 0 0 0 0.2 0"/>
<feBlend mode="normal" in2="BackgroundImageFix" result="effect1_dropShadow_5_47614"/>
<feBlend mode="normal" in="SourceGraphic" in2="effect1_dropShadow_5_47614" result="shape"/>
</filter>
<filter id="filter1_d_5_47614" x="-24.25" y="102.611" width="112.666" height="112.666" filterUnits="userSpaceOnUse" color-interpolation-filters="sRGB">
<feFlood flood-opacity="0" result="BackgroundImageFix"/>
<feColorMatrix in="SourceAlpha" type="matrix" values="0 0 0 0 0 0 0 0 0 0 0 0 0 0 0 0 0 0 127 0" result="hardAlpha"/>
<feMorphology radius="11" operator="erode" in="SourceAlpha" result="effect1_dropShadow_5_47614"/>
<feOffset dy="4"/>
<feGaussianBlur stdDeviation="25"/>
<feComposite in2="hardAlpha" operator="out"/>
<feColorMatrix type="matrix" values="0 0 0 0 0 0 0 0 0 0 0 0 0 0 0 0 0 0 0.2 0"/>
<feBlend mode="normal" in2="BackgroundImageFix" result="effect1_dropShadow_5_47614"/>
<feBlend mode="normal" in="SourceGraphic" in2="effect1_dropShadow_5_47614" result="shape"/>
</filter>
<filter id="filter2_d_5_47614" x="231.584" y="102.611" width="112.666" height="112.666" filterUnits="userSpaceOnUse" color-interpolation-filters="sRGB">
<feFlood flood-opacity="0" result="BackgroundImageFix"/>
<feColorMatrix in="SourceAlpha" type="matrix" values="0 0 0 0 0 0 0 0 0 0 0 0 0 0 0 0 0 0 127 0" result="hardAlpha"/>
<feMorphology radius="11" operator="erode" in="SourceAlpha" result="effect1_dropShadow_5_47614"/>
<feOffset dy="4"/>
<feGaussianBlur stdDeviation="25"/>
<feComposite in2="hardAlpha" operator="out"/>
<feColorMatrix type="matrix" values="0 0 0 0 0 0 0 0 0 0 0 0 0 0 0 0 0 0 0.2 0"/>
<feBlend mode="normal" in2="BackgroundImageFix" result="effect1_dropShadow_5_47614"/>
<feBlend mode="normal" in="SourceGraphic" in2="effect1_dropShadow_5_47614" result="shape"/>
</filter>
<filter id="filter3_d_5_47614" x="188.945" y="0" width="112.666" height="112.666" filterUnits="userSpaceOnUse" color-interpolation-filters="sRGB">
<feFlood flood-opacity="0" result="BackgroundImageFix"/>
<feColorMatrix in="SourceAlpha" type="matrix" values="0 0 0 0 0 0 0 0 0 0 0 0 0 0 0 0 0 0 127 0" result="hardAlpha"/>
<feMorphology radius="11" operator="erode" in="SourceAlpha" result="effect1_dropShadow_5_47614"/>
<feOffset dy="4"/>
<feGaussianBlur stdDeviation="25"/>
<feComposite in2="hardAlpha" operator="out"/>
<feColorMatrix type="matrix" values="0 0 0 0 0 0 0 0 0 0 0 0 0 0 0 0 0 0 0.2 0"/>
<feBlend mode="normal" in2="BackgroundImageFix" result="effect1_dropShadow_5_47614"/>
<feBlend mode="normal" in="SourceGraphic" in2="effect1_dropShadow_5_47614" result="shape"/>
</filter>
<filter id="filter4_d_5_47614" x="26.7095" y="0" width="112.666" height="112.666" filterUnits="userSpaceOnUse" color-interpolation-filters="sRGB">
<feFlood flood-opacity="0" result="BackgroundImageFix"/>
<feColorMatrix in="SourceAlpha" type="matrix" values="0 0 0 0 0 0 0 0 0 0 0 0 0 0 0 0 0 0 127 0" result="hardAlpha"/>
<feMorphology radius="11" operator="erode" in="SourceAlpha" result="effect1_dropShadow_5_47614"/>
<feOffset dy="4"/>
<feGaussianBlur stdDeviation="25"/>
<feComposite in2="hardAlpha" operator="out"/>
<feColorMatrix type="matrix" values="0 0 0 0 0 0 0 0 0 0 0 0 0 0 0 0 0 0 0.2 0"/>
<feBlend mode="normal" in2="BackgroundImageFix" result="effect1_dropShadow_5_47614"/>
<feBlend mode="normal" in="SourceGraphic" in2="effect1_dropShadow_5_47614" result="shape"/>
</filter>
<clipPath id="clip0_5_47614">
<rect width="20.7995" height="20.7995" fill="white" transform="translate(277.517 144.544)"/>
</clipPath>
<clipPath id="clip1_5_47614">
<rect width="20.7995" height="20.7995" fill="white" transform="translate(234.878 41.9333)"/>
</clipPath>
<clipPath id="clip2_5_47614">
<rect width="20.7995" height="20.7995" fill="white" transform="translate(71.9485 41.9333)"/>
</clipPath>
</defs>
</svg>
