<svg width="287" height="232" viewBox="0 0 287 232" fill="none" xmlns="http://www.w3.org/2000/svg">
<circle cx="140.18" cy="88.5078" r="70.625" stroke="#4F9CF9" stroke-width="2" stroke-dasharray="15 15"/>
<circle cx="89.5312" cy="160.133" r="70.625" stroke="#4F9CF9" stroke-width="2" stroke-dasharray="15 15"/>
<circle cx="196.969" cy="160.133" r="70.625" stroke="#4F9CF9" stroke-width="2" stroke-dasharray="15 15"/>
<circle cx="211.294" cy="90.0428" r="17.9062" fill="white"/>
<g clip-path="url(#clip0_5_47841)">
<path d="M208.416 90.6726C207.176 90.6726 206.168 91.6811 206.168 92.9207V98.5387C206.168 99.7783 207.176 100.787 208.416 100.787C209.656 100.787 210.664 99.7784 210.664 98.5387V92.9207C210.664 91.6811 209.656 90.6726 208.416 90.6726Z" fill="#FF4340"/>
<path d="M204.91 90.6722H202.733C201.533 90.6722 200.557 91.6486 200.557 92.8487C200.557 94.0488 201.533 95.0251 202.733 95.0251C203.933 95.0251 204.91 94.0488 204.91 92.8487V90.6722Z" fill="#FF4340"/>
<path d="M200.551 87.1652C200.551 88.4049 201.559 89.4134 202.799 89.4134H208.417C209.657 89.4134 210.665 88.4049 210.665 87.1652C210.665 85.9256 209.657 84.9171 208.417 84.9171H202.799C201.559 84.9171 200.551 85.9256 200.551 87.1652V87.1652Z" fill="#36C6FF"/>
<path d="M208.489 83.6577H210.666V81.4813C210.666 80.2811 209.689 79.3048 208.489 79.3048C207.289 79.3048 206.313 80.2812 206.313 81.4813C206.313 82.6813 207.289 83.6577 208.489 83.6577Z" fill="#36C6FF"/>
<path d="M214.172 89.4133C215.412 89.4133 216.42 88.4048 216.42 87.1652V81.5472C216.42 80.3076 215.412 79.2991 214.172 79.2991C212.932 79.2991 211.924 80.3076 211.924 81.5472V87.1651C211.924 88.4048 212.932 89.4133 214.172 89.4133Z" fill="#0DC46E"/>
<path d="M217.68 89.4137H219.856C221.056 89.4137 222.033 88.4373 222.033 87.2372C222.033 86.0371 221.056 85.0608 219.856 85.0608C218.656 85.0608 217.68 86.0372 217.68 87.2372V89.4137Z" fill="#0DC46E"/>
<path d="M222.038 92.9202C222.038 91.6806 221.03 90.6721 219.79 90.6721H214.172C212.932 90.6721 211.924 91.6806 211.924 92.9202C211.924 94.1599 212.932 95.1684 214.172 95.1684H219.79C221.03 95.1684 222.038 94.1599 222.038 92.9202Z" fill="#FDCB02"/>
<path d="M214.1 96.4276H211.924V98.6041C211.924 99.8042 212.9 100.781 214.1 100.781C215.3 100.781 216.277 99.8041 216.277 98.6041C216.277 97.404 215.3 96.4276 214.1 96.4276Z" fill="#FDCB02"/>
</g>
<circle cx="17.9062" cy="154.505" r="17.9062" fill="white"/>
<g clip-path="url(#clip1_5_47841)">
<path d="M27.979 148.463H18.5782C18.2076 148.463 17.9067 148.764 17.9067 149.134C17.9067 149.505 18.2076 149.806 18.5782 149.806H26.0223L21.8967 153.014L18.9381 151.133L18.2183 152.266L21.5757 154.401C21.6845 154.471 21.8107 154.506 21.9356 154.506C22.0807 154.506 22.2271 154.459 22.3479 154.365L27.3075 150.507V159.207H18.5782C18.2076 159.207 17.9067 159.507 17.9067 159.878C17.9067 160.249 18.2076 160.55 18.5782 160.55H27.979C28.3497 160.55 28.6505 160.249 28.6505 159.878V149.134C28.6505 148.764 28.3497 148.463 27.979 148.463Z" fill="#1976D2"/>
<path d="M19.0062 144.588C18.8531 144.46 18.6477 144.405 18.4543 144.446L7.71053 146.46C7.39225 146.519 7.1626 146.796 7.1626 147.119V161.892C7.1626 162.214 7.39225 162.492 7.71053 162.552L18.4543 164.566C18.4946 164.574 18.5362 164.578 18.5778 164.578C18.7336 164.578 18.8854 164.524 19.0062 164.424C19.1607 164.296 19.2493 164.105 19.2493 163.907V145.105C19.2493 144.905 19.1607 144.716 19.0062 144.588Z" fill="#2196F3"/>
<path d="M13.2056 159.206C11.355 159.206 9.84814 157.399 9.84814 155.177C9.84814 152.956 11.355 151.148 13.2056 151.148C15.0562 151.148 16.563 152.956 16.563 155.177C16.563 157.399 15.0562 159.206 13.2056 159.206ZM13.2056 152.491C12.0949 152.491 11.1911 153.696 11.1911 155.177C11.1911 156.659 12.0949 157.863 13.2056 157.863C14.3162 157.863 15.22 156.659 15.22 155.177C15.22 153.696 14.3162 152.491 13.2056 152.491Z" fill="#FAFAFA"/>
</g>
<circle cx="268.594" cy="154.505" r="17.9062" fill="white"/>
<g clip-path="url(#clip2_5_47841)">
<path d="M268.575 150.55L264.115 158.285H264.103L266.685 161.435L260.89 163.866C260.777 163.803 260.689 163.715 260.638 163.627L257.917 158.588C257.778 158.31 257.892 158.096 257.93 157.97L265.224 145.373C265.274 145.297 265.35 145.221 265.451 145.158H265.463L269.205 146.317L268.575 150.55Z" fill="#59C36A"/>
<path d="M279.338 158.285L274.286 161.435L273.089 158.285L268.575 150.55L265.463 145.158C265.551 145.095 265.665 145.057 265.766 145.057H271.426C271.552 145.095 271.804 145.083 271.968 145.372L279.262 157.97C279.313 158.058 279.338 158.172 279.338 158.285Z" fill="#FFDA2D"/>
<path d="M271.968 145.373C271.804 145.083 271.552 145.096 271.426 145.058H268.575V150.551L273.089 158.286L274.286 161.435L279.337 158.286C279.337 158.172 279.312 158.059 279.262 157.971L271.968 145.373Z" fill="#FDBF00"/>
<path d="M279.339 158.285C279.339 158.399 279.313 158.512 279.276 158.588L276.554 163.627C276.454 163.791 276.214 163.954 276 163.954H261.193C261.093 163.954 260.979 163.917 260.891 163.866L264.104 158.285H279.339Z" fill="#4086F4"/>
<path d="M268.575 163.954H275.999C276.213 163.954 276.453 163.79 276.553 163.626L279.274 158.587C279.312 158.512 279.337 158.398 279.337 158.285H268.575V163.954H268.575Z" fill="#4175DF"/>
</g>
<circle cx="68.5549" cy="90.0426" r="17.9062" fill="white"/>
<g clip-path="url(#clip3_5_47841)">
<path d="M62.032 95.3762V93.6495L64.9482 95.3378L68.555 91.9612V99.6353L62.032 95.3762Z" fill="#0093EB"/>
<path d="M58.5398 90.8101L62.3385 87.3567L68.5545 91.1938L64.9477 94.5704L58.5398 90.8101Z" fill="#0093EB"/>
<path d="M62.339 87.3566L57.8113 83.9033L64.3343 80.45L68.9387 83.5196L62.339 87.3566Z" fill="#0093EB"/>
<path d="M75.0784 95.4145L68.5554 99.6353V91.9612L72.2774 95.1843L75.0784 93.4193V95.4145Z" fill="#0093EB"/>
<path d="M72.2774 94.4166L68.5554 91.1934L74.8098 87.2029L78.5701 90.426L72.2774 94.4166Z" fill="#0093EB"/>
<path d="M74.8109 87.2032L68.9402 83.5196L73.5446 80.45L79.3002 83.9033L74.8109 87.2032Z" fill="#0093EB"/>
</g>
<circle cx="143.25" cy="205.154" r="17.9062" fill="white"/>
<g clip-path="url(#clip4_5_47841)">
<path d="M152.08 200.79H134.454C134.106 200.79 133.824 200.508 133.824 200.16V196.299C133.824 195.258 134.672 194.411 135.713 194.411H150.821C151.863 194.411 152.71 195.258 152.71 196.299V200.16C152.71 200.508 152.428 200.79 152.08 200.79Z" fill="#E3E7EA"/>
<path d="M150.822 194.411H143.268V200.79H152.081C152.429 200.79 152.711 200.508 152.711 200.16V196.299C152.711 195.258 151.863 194.411 150.822 194.411Z" fill="#BABAC0"/>
<path d="M133.8 207.715C133.8 207.714 133.8 207.713 133.8 207.713L132.548 201.747C132.46 201.18 132.611 200.614 132.964 200.198C133.329 199.77 133.857 199.531 134.411 199.531H152.088C152.642 199.531 153.171 199.77 153.536 200.198C153.889 200.614 154.04 201.18 153.952 201.722L152.699 207.716L153.952 213.683C154.04 214.249 153.889 214.816 153.536 215.231C153.171 215.659 152.642 215.898 152.088 215.898H134.411C133.857 215.898 133.329 215.659 132.964 215.231C132.611 214.816 132.46 214.249 132.548 213.708C132.548 213.708 133.778 207.819 133.8 207.715Z" fill="#4086F4"/>
<path d="M133.8 207.713C133.8 207.713 133.8 207.714 133.8 207.715H152.7L153.952 201.722C154.04 201.18 153.889 200.614 153.536 200.198C153.171 199.77 152.642 199.531 152.088 199.531H134.411C133.857 199.531 133.329 199.77 132.964 200.198C132.611 200.614 132.46 201.18 132.548 201.747L133.8 207.713Z" fill="#4175DF"/>
<path d="M136.954 198.188C137.301 198.188 137.583 197.906 137.583 197.558C137.583 197.211 137.301 196.929 136.954 196.929C136.606 196.929 136.324 197.211 136.324 197.558C136.324 197.906 136.606 198.188 136.954 198.188Z" fill="#FFF5F5"/>
<path d="M149.546 198.188C149.893 198.188 150.175 197.906 150.175 197.558C150.175 197.211 149.893 196.929 149.546 196.929C149.198 196.929 148.916 197.211 148.916 197.558C148.916 197.906 149.198 198.188 149.546 198.188Z" fill="#E3E7EA"/>
<path d="M140.731 212.121C139.666 212.121 138.711 211.446 138.357 210.442C138.24 210.114 138.412 209.755 138.74 209.639C139.067 209.522 139.428 209.695 139.543 210.023C139.721 210.524 140.198 210.862 140.731 210.862C141.425 210.862 141.99 210.297 141.99 209.603C141.99 208.909 141.425 208.344 140.731 208.344H139.948C139.601 208.344 139.319 208.062 139.319 207.714C139.319 207.366 139.601 207.085 139.948 207.085H140.731C141.425 207.085 141.99 206.52 141.99 205.826C141.99 205.132 141.425 204.567 140.731 204.567C140.198 204.567 139.721 204.904 139.543 205.406C139.428 205.734 139.066 205.906 138.74 205.789C138.412 205.674 138.24 205.314 138.357 204.987C138.711 203.982 139.666 203.308 140.731 203.308C142.12 203.308 143.249 204.437 143.249 205.826C143.249 206.577 142.918 207.253 142.394 207.714C142.918 208.176 143.249 208.852 143.249 209.603C143.249 210.992 142.12 212.121 140.731 212.121Z" fill="#FFF5F5"/>
<path d="M138.74 205.789C139.066 205.906 139.428 205.734 139.543 205.406C139.721 204.904 140.199 204.567 140.731 204.567C141.425 204.567 141.99 205.132 141.99 205.826C141.99 206.52 141.425 207.085 140.731 207.085H139.948C139.601 207.085 139.319 207.366 139.319 207.714H142.395C142.918 207.252 143.249 206.577 143.249 205.826C143.249 204.437 142.12 203.308 140.731 203.308C139.666 203.308 138.711 203.982 138.357 204.987C138.24 205.314 138.412 205.674 138.74 205.789Z" fill="#E3E7EA"/>
<path d="M147.026 212.121C146.678 212.121 146.397 211.839 146.397 211.491V205.113L145.487 205.72C145.197 205.912 144.806 205.834 144.614 205.545C144.421 205.256 144.499 204.865 144.788 204.672L146.677 203.413C146.87 203.285 147.119 203.272 147.323 203.382C147.528 203.491 147.656 203.705 147.656 203.937V211.491C147.656 211.839 147.374 212.121 147.026 212.121Z" fill="#FFF5F5"/>
<path d="M145.487 205.72L146.397 205.113V207.714H147.656V203.937C147.656 203.705 147.528 203.491 147.323 203.382C147.119 203.272 146.87 203.285 146.677 203.413L144.788 204.672C144.499 204.865 144.421 205.256 144.614 205.545C144.806 205.834 145.197 205.912 145.487 205.72Z" fill="#E3E7EA"/>
</g>
<circle cx="141.716" cy="17.9062" r="17.9062" fill="white"/>
<g clip-path="url(#clip5_5_47841)">
<path d="M149.774 9.84851H133.658V25.9641H149.774V9.84851Z" fill="#ECEFF1"/>
<path d="M141.717 19.6009L149.774 25.9639V13.4017L141.717 19.6009Z" fill="#CFD8DC"/>
<path d="M150.445 9.84839H149.774L141.716 16.2114L133.658 9.84839H132.987C131.875 9.84839 130.972 10.7509 130.972 11.8628V23.9496C130.972 25.0615 131.875 25.964 132.987 25.964H133.658V13.4019L141.716 19.5997L149.774 13.4005V25.964H150.445C151.557 25.964 152.46 25.0615 152.46 23.9496V11.8628C152.46 10.7509 151.557 9.84839 150.445 9.84839Z" fill="#F44336"/>
</g>
<circle cx="142.83" cy="137.444" r="25.5804" fill="white"/>
<path d="M129.25 128.547V133.355C129.25 134.819 131.079 135.6 132.196 134.575L137.53 129.768C138.699 128.718 137.937 126.863 136.337 126.863H131.003C130.037 126.863 129.25 127.62 129.25 128.547Z" fill="#5986EF"/>
<path d="M154.497 126.863H149.163C147.589 126.863 146.801 128.718 147.97 129.768L153.304 134.575C154.421 135.576 156.25 134.819 156.25 133.355V128.547C156.25 127.62 155.463 126.863 154.497 126.863Z" fill="#5986EF"/>
<path d="M143.956 138.602L153.304 147.047C154.421 148.047 156.25 147.291 156.25 145.826V140.97C156.25 140.506 156.047 140.067 155.691 139.749L143.956 129.133C143.271 128.523 142.229 128.523 141.544 129.133L129.809 139.749C129.453 140.067 129.25 140.506 129.25 140.97V145.826C129.25 147.291 131.079 148.072 132.196 147.047L141.544 138.602C142.229 137.992 143.271 137.992 143.956 138.602Z" fill="#5986EF"/>
<defs>
<clipPath id="clip0_5_47841">
<rect width="21.4875" height="21.4875" fill="white" transform="translate(200.551 79.2991)"/>
</clipPath>
<clipPath id="clip1_5_47841">
<rect width="21.4875" height="21.4875" fill="white" transform="translate(7.1626 143.762)"/>
</clipPath>
<clipPath id="clip2_5_47841">
<rect width="21.4875" height="21.4875" fill="white" transform="translate(257.85 143.762)"/>
</clipPath>
<clipPath id="clip3_5_47841">
<rect width="21.4875" height="21.4875" fill="white" transform="translate(57.8113 79.2991)"/>
</clipPath>
<clipPath id="clip4_5_47841">
<rect width="21.4875" height="21.4875" fill="white" transform="translate(132.506 194.411)"/>
</clipPath>
<clipPath id="clip5_5_47841">
<rect width="21.4875" height="21.4875" fill="white" transform="translate(130.972 7.16248)"/>
</clipPath>
</defs>
</svg>
