<svg width="183" height="271" viewBox="0 0 183 271" fill="none" xmlns="http://www.w3.org/2000/svg">
<g opacity="0.2">
<path d="M10.5505 270.61C7.3123 270.61 3.44386 269.776 -1.70683 267.888C-15.3768 262.769 -29.3945 247.393 -44.1945 231.132C-52.3444 222.202 -60.755 212.967 -69.209 205.398C-81.5533 191.722 -102.482 182.299 -122.737 173.166C-137.537 166.498 -151.511 160.188 -162.334 152.398L-162.356 152.381C-170.484 146.326 -174.287 140.474 -173.983 134.504C-173.396 122.853 -157.162 112.478 -138.341 100.469L-136.537 99.3128C-122.585 90.3661 -105.068 78.3918 -79.706 60.5154L-77.5545 59.0527C-54.8654 43.6086 -26.6127 24.3885 9.98546 12.7374C83.2903 -14.2558 147.446 6.64817 167.701 29.3041C188.825 55.787 187 83.9027 160.746 136.818C133.254 191.977 72.3587 234.619 47.4529 250.386C37.2602 255.591 30.8707 260.2 26.2199 263.568C20.3086 267.82 16.4618 270.61 10.5505 270.61ZM-160.422 150.765C-149.838 158.385 -135.994 164.627 -121.346 171.244C-100.852 180.479 -79.6408 190.038 -67.0358 204.02C-58.56 211.589 -50.1059 220.876 -41.9343 229.839C-27.3298 245.862 -13.5295 261 -0.533234 265.881C12.3109 270.559 15.3317 268.382 24.3074 261.918C29.0452 258.499 35.5433 253.805 45.8012 248.566C70.4028 232.969 130.864 190.651 158.117 135.984C184 83.8347 185.891 56.2292 165.354 30.4947C145.685 8.51914 83.0296 -11.7555 11.1156 14.7274C-25.1131 26.2765 -53.1702 45.3605 -75.7072 60.6855L-77.837 62.1483C-103.221 80.0417 -120.759 92.033 -134.755 100.997L-136.559 102.153C-154.858 113.821 -170.636 123.908 -171.18 134.555C-171.44 139.879 -167.92 145.169 -160.422 150.765Z" fill="#CCCCCC"/>
<path d="M6.13791 255.2C1.66095 255.2 -3.07683 254.077 -9.59668 252.087L-9.72707 252.053C-22.2452 247.137 -32.1554 235.282 -42.6306 222.747C-49.7807 214.174 -57.1916 205.329 -66.1021 197.624C-78.6637 185.123 -94.4634 175.394 -109.72 165.988C-119.978 159.678 -129.671 153.707 -138.125 147.108L-138.277 146.972C-155.489 128.619 -143.145 120.523 -120.76 105.81C-118.326 104.211 -115.762 102.528 -113.089 100.725C-107.829 97.68 -102.222 94.2782 -96.2673 90.6723C-69.8184 74.6329 -33.568 52.6744 17.5694 34.849C80.0731 16.1222 128.363 29.6613 148.532 51.3817C168.743 74.0206 160.898 101.269 138.187 146.785C113.303 192.811 67.881 222.611 43.475 238.616L40.7584 240.402C22.6114 250.947 14.8311 255.2 6.13791 255.2ZM-8.51004 250.046C9.28917 255.455 12.3101 254.162 39.0197 238.684L41.6711 236.949C65.8815 221.063 110.955 191.484 135.579 145.985C157.92 101.235 165.722 74.4968 146.25 52.6914C126.733 31.6683 79.7036 18.6225 18.656 36.9071C-32.1119 54.5964 -68.1884 76.4698 -94.5504 92.4242C-100.505 96.0301 -106.112 99.4319 -111.328 102.46C-113.936 104.211 -116.501 105.895 -118.935 107.511C-141.341 122.241 -151.599 128.976 -136.06 145.611C-127.736 152.092 -118.131 157.994 -107.981 164.253C-92.5727 173.727 -76.6642 183.541 -63.9505 196.196C-54.9531 203.969 -47.477 212.898 -40.2617 221.539C-30.0256 233.785 -20.3327 245.369 -8.51004 250.046Z" fill="#CCCCCC"/>
<path d="M2.3148 242.341C-3.40093 242.341 -8.70375 240.742 -15.3105 238.021C-26.3508 232.816 -35.2178 222.049 -44.6064 210.67C-50.17 203.901 -55.951 196.91 -62.5578 190.498C-71.7942 180.428 -82.7476 171.822 -93.3097 163.488C-101.981 156.65 -110.174 150.204 -116.629 143.553L-116.716 143.451C-129.799 126.204 -116.281 118.159 -91.7232 103.548L-91.4407 103.378L-86.8985 100.946C-61.0364 87.1515 -25.6119 68.2546 22.9175 54.5624C80.2053 40.2579 116.673 54.8346 130.517 71.6394C145.317 89.5668 141.688 113.634 117.999 154.711C100.743 183.337 72.5771 209.072 34.3056 231.2C19.5055 239.058 10.4864 242.341 2.3148 242.341ZM-114.347 142.243C-108.001 148.758 -99.8948 155.153 -91.3103 161.906C-80.6612 170.291 -69.6427 178.983 -60.3193 189.137C-53.6473 195.583 -47.8446 202.642 -42.2375 209.463C-33.0445 220.638 -24.3514 231.183 -13.9196 236.099C1.1195 242.324 8.61734 242.205 32.6756 229.397C70.5342 207.49 98.3957 182.044 115.434 153.776C138.667 113.481 142.361 90.026 128.148 72.813C113.783 55.3788 75.9674 43.6087 23.8086 56.6205C-24.3297 70.2106 -59.5804 89.0055 -85.312 102.749L-90.0281 105.283C-114.76 119.996 -126.083 126.731 -114.347 142.243Z" fill="#CCCCCC"/>
<path d="M0.263481 230.639C-6.12598 230.639 -12.1242 228.921 -18.818 225.554L-18.8614 225.537C-28.9455 220.128 -37.0736 209.956 -45.6798 199.207C-49.6569 194.223 -53.7861 189.086 -58.2631 184.188C-64.2396 177.01 -70.8682 170.377 -77.2793 163.981C-85.1466 156.123 -92.601 148.69 -97.4692 141.478C-105.967 126.255 -93.5355 118.295 -72.0634 106.95C-49.9394 96.2346 -15.7536 80.9606 26.1473 71.9459C66.1575 65.4995 96.1271 70.6702 110.623 86.4885C126.271 103.531 122.38 130.559 99.9521 160.647C76.4588 196.06 39.3174 216.828 28.4945 222.339C16.9761 227.918 8.30464 230.639 0.263481 230.639ZM-17.2967 223.7C-4.77854 229.976 5.04469 231.098 26.9731 220.468C37.6222 215.042 74.2856 194.546 97.4745 159.576C119.338 130.235 123.293 104.076 108.319 87.7812C94.4971 72.7113 65.549 67.8637 26.7776 74.106C-14.6887 83.0357 -48.6354 98.1907 -70.5639 108.821C-92.6662 120.489 -102.294 127.429 -94.9699 140.543C-90.2539 147.5 -82.8864 154.847 -75.0843 162.637C-68.6297 169.084 -61.9577 175.734 -55.9594 182.963C-51.4607 187.862 -47.3315 193.049 -43.3326 198.05C-34.8568 208.579 -26.8809 218.546 -17.2967 223.7Z" fill="#CCCCCC"/>
<path d="M-0.880157 219.957C-7.6608 219.957 -13.8981 218.137 -20.3745 214.497L-20.5484 214.378C-45.3456 194.733 -74.6632 149.744 -80.292 140.934L-80.3789 140.73C-84.769 128.109 -74.8588 120.693 -55.0602 111.423C-36.4134 103.225 -6.96535 92.4073 27.5464 87.3556C59.3198 83.4436 83.1173 88.7164 94.5922 102.204C107.328 117.189 103.438 139.964 83.9432 164.695C66.7742 188.542 41.4772 205.704 23.5258 213.8C14.1372 217.916 6.31342 219.957 -0.880157 219.957ZM-18.6359 212.763C-6.22643 219.685 4.83559 219.447 22.1132 211.878C39.7385 203.935 64.5792 187.062 81.5091 163.573C100.156 139.913 104.155 117.444 92.2451 103.429C81.4221 90.6894 58.6027 85.7398 28.0245 89.5328C-6.0743 94.5334 -35.1963 105.249 -53.6475 113.345C-72.5986 122.207 -81.5308 128.789 -77.7058 140.066C-61.5366 165.376 -37.5652 197.727 -18.6359 212.763Z" fill="#CCCCCC"/>
<path d="M-2.05236 210.109C-9.31113 210.109 -15.5919 208.221 -20.3514 204.564C-39.3894 190.124 -59.2097 159.661 -65.0559 141.342C-66.0121 137.107 -64.643 132.974 -61.0353 129.027C-49.9081 116.866 -16.9393 106.372 27.1784 100.963C52.0625 99.0748 70.6223 104.297 79.4893 115.675C89.5299 128.568 85.9222 147.329 69.6009 167.128C48.3679 192.182 22.9622 208.17 1.64225 209.939C0.381744 210.058 -0.857056 210.109 -2.05236 210.109ZM36.8712 102.783C33.8721 102.783 30.7643 102.902 27.5478 103.157C-15.744 108.464 -48.0391 118.618 -58.7099 130.32C-61.8829 133.79 -63.0782 137.345 -62.2741 140.9C-56.5366 158.844 -37.064 188.814 -18.352 202.999C-13.4186 206.775 -6.59451 208.425 1.35972 207.762C21.8538 206.061 46.4988 190.43 67.2537 165.937C82.7275 147.159 86.4221 128.806 77.0987 116.832C69.9486 107.664 55.844 102.783 36.8712 102.783Z" fill="#CCCCCC"/>
<path d="M-1.37965 200.754C-8.11683 200.754 -14.0499 199.053 -18.679 195.754C-35.196 184.034 -50.4742 159.252 -51.3435 142.737V142.703C-51.4521 127.48 -19.1137 114.978 25.5256 113.005C44.5418 112.648 58.6465 117.614 65.275 127.037C72.8815 137.838 69.7519 152.823 56.6905 168.165C40.543 186.807 20.3314 198.917 2.59743 200.567C1.22826 200.686 -0.0974083 200.754 -1.37965 200.754ZM-48.5182 142.669C-47.6489 158.691 -32.8271 182.742 -16.7665 194.121C-11.8766 197.607 -5.3133 199.07 2.24973 198.373C19.1796 196.791 38.6523 185.038 54.3434 166.923C66.7963 152.296 69.8824 138.127 62.7974 128.075C56.6905 119.417 43.5204 114.825 25.6343 115.182C-16.7013 117.07 -48.6051 128.891 -48.5182 142.669Z" fill="#CCCCCC"/>
<path d="M-0.398823 191.893C-6.28843 191.893 -11.5478 190.481 -15.7857 187.709C-30.6727 178.03 -41.2566 158.436 -38.9312 144.897C-36.4102 131.902 -9.3093 122.581 22.6815 123.653C36.7209 124.282 47.0657 128.807 51.8469 136.376C57.3236 145.05 54.8244 156.565 44.9576 167.944C33.3088 181.262 17.9437 190.124 3.8608 191.655C2.4047 191.825 0.992081 191.893 -0.398823 191.893ZM17.6177 125.779C-10.7654 125.779 -33.9544 133.994 -36.1276 145.22C-38.3009 157.858 -27.9561 176.925 -13.9819 186.025C-9.37449 189.018 -3.35449 190.209 3.46962 189.477C16.7919 188.032 31.4181 179.51 42.6322 166.703C51.9122 156.004 54.3462 145.305 49.3259 137.345C45.0228 130.525 35.5039 126.442 22.5511 125.847C20.8994 125.813 19.2477 125.779 17.6177 125.779Z" fill="#CCCCCC"/>
<path d="M0.724743 183.422C-4.01302 183.422 -8.31611 182.351 -11.9238 180.259C-24.4202 172.996 -31.4399 158.385 -27.5714 147.686C-23.6378 137.107 -3.2089 130.746 18.8934 133.195C28.6949 134.334 35.8885 138.144 39.1484 143.928C42.843 150.476 41.0175 158.776 34.1499 166.702C26.2609 175.751 15.677 181.738 5.11479 183.116C3.63696 183.32 2.15911 183.422 0.724743 183.422ZM-24.8548 148.299C-28.3755 158.011 -21.6818 171.839 -10.2503 178.49C-6.18628 180.854 -1.03559 181.704 4.65842 180.956C14.3295 179.68 24.5005 173.897 31.8462 165.478C38.1487 158.198 39.8656 150.68 36.5839 144.829C33.7369 139.76 27.304 136.41 18.5022 135.389C-1.90491 133.11 -21.3558 138.91 -24.8548 148.299Z" fill="#CCCCCC"/>
<path d="M1.92414 175.224C-1.35752 175.224 -4.53052 174.56 -7.31232 173.132C-16.614 168.42 -20.9606 158.419 -17.0269 150.85C-13.0715 143.315 1.03311 139.25 14.4423 141.801C20.6361 142.975 25.1566 145.849 27.1777 149.863C29.3945 154.286 28.2644 159.661 24.0916 164.593C18.3324 171.363 9.79143 175.224 1.92414 175.224ZM-5.79103 171.295C2.22839 175.36 14.5727 171.822 21.7445 163.385C25.3956 159.065 26.4388 154.422 24.548 150.68C22.8746 147.346 19.0496 144.948 13.7685 143.944C1.66334 141.648 -10.9852 145.118 -14.4189 151.683C-17.8745 158.334 -14.0061 167.127 -5.79103 171.295Z" fill="#CCCCCC"/>
<path d="M2.9224 167.179C1.14031 167.179 -0.598331 166.855 -2.18483 166.175C-7.61804 163.845 -9.81304 158.487 -7.05297 154.218C-4.33636 150 3.11798 147.976 9.52917 149.71C12.6152 150.544 14.8755 152.211 15.8534 154.422C16.8966 156.752 16.3968 159.474 14.4625 161.872C11.7025 165.257 7.24724 167.179 2.9224 167.179ZM4.66104 151.292C0.727392 151.292 -2.98892 152.772 -4.57542 155.221C-6.64004 158.436 -4.98837 162.484 -0.859124 164.236C3.24838 166.005 9.05106 164.406 12.0502 160.681C13.5498 158.827 13.9409 156.871 13.1586 155.136C12.4631 153.571 10.8331 152.381 8.57292 151.769C7.29069 151.445 5.96501 151.292 4.66104 151.292Z" fill="#CCCCCC"/>
</g>
</svg>
