<svg width="768" height="701" viewBox="0 0 768 701" fill="none" xmlns="http://www.w3.org/2000/svg">
<g opacity="0.3">
<path d="M356.87 700.38C351.981 700.38 347.222 699.808 342.648 698.666C333.056 696.27 324.195 691.352 316.309 684.046C307.834 676.196 300.4 665.5 294.213 652.255C281.779 625.633 275.558 593.752 269.541 562.919C268.359 556.865 267.137 550.605 265.896 544.531C257.43 503.131 246.697 466.867 233.088 433.667C205.94 367.438 167.761 310.917 122.676 270.213C70.5352 223.143 14.4758 199.695 -35.1772 204.19C-64.3607 206.834 -102.92 231.973 -120.153 274.906C-130.381 300.386 -131.205 328.663 -122.537 356.674L-122.709 356.792C-127.254 342.102 -129.234 327.374 -128.593 313.019C-128.005 299.851 -125.221 286.978 -120.316 274.76C-112.516 255.325 -99.6518 238.101 -83.1147 224.946C-67.8335 212.793 -50.814 205.321 -35.1886 203.906C-9.20352 201.555 18.4328 206.772 46.9524 219.416C72.805 230.88 98.3153 247.887 122.774 269.968C167.885 310.694 206.088 367.246 233.251 433.515C246.868 466.737 257.606 503.021 266.077 544.443C267.32 550.517 268.542 556.78 269.722 562.835C275.733 593.645 281.951 625.504 294.368 652.086C306.377 677.797 322.632 693.373 342.68 698.379C370.443 705.312 404.157 690.811 432.862 659.583C474.228 614.584 502.937 549.086 530.702 485.746C535.569 474.644 540.6 463.163 545.582 452.078C558.516 423.291 576.033 385.99 596.85 352.759C618.13 318.792 639.753 293.836 662.957 276.462C677.16 265.827 692.213 258.663 707.696 255.167C721.998 251.937 737.135 251.737 752.689 254.567C779.368 259.424 808.111 273.142 840.561 296.502C904.455 342.505 968.281 398.341 1030.26 462.464C1089.18 523.411 1146.96 592.377 1202 667.439L1201.87 667.647C1087.77 512.046 966.185 387.261 840.478 296.756C769.457 245.624 713.076 239.254 663.043 276.713C612.141 314.82 576.583 383.591 545.739 452.233C540.759 463.316 535.728 474.796 530.861 485.898C503.088 549.26 474.37 614.779 432.975 659.809C419.599 674.361 404.55 685.712 389.458 692.631C381.486 696.287 373.56 698.677 365.9 699.737C362.847 700.168 359.834 700.38 356.87 700.38Z" fill="#A1A1A1"/>
<path d="M361.649 684.593C349.181 684.593 337.631 681.055 327.31 674.074C315.8 666.289 305.868 654.225 297.788 638.221C297.073 636.803 296.363 635.338 295.679 633.861C283.376 607.354 276.879 575.888 270.598 545.455C269.327 539.305 268.014 532.943 266.682 526.771C258.751 490.016 249.201 457.622 237.484 427.742C236.041 424.064 234.546 420.377 233.039 416.786C205.491 351.127 167.002 295.321 121.731 255.401C69.2146 209.134 12.9963 186.656 -36.5678 192.11C-65.5395 195.331 -103.921 220.882 -121.228 263.485C-131.592 288.996 -132.764 317.329 -124.623 345.422L-124.797 345.535C-129.065 330.81 -130.818 316.055 -130.006 301.683C-129.261 288.483 -126.364 275.583 -121.391 263.338C-113.511 243.938 -100.685 226.694 -84.3029 213.472C-69.1616 201.25 -52.2159 193.564 -36.5848 191.828C-10.6319 188.972 17.0346 193.691 45.645 205.85C71.5601 216.865 97.1914 233.456 121.826 255.159C167.123 295.101 205.633 350.941 233.198 416.637C234.705 420.23 236.201 423.92 237.645 427.601C249.37 457.501 258.925 489.912 266.86 526.686C268.194 532.859 269.506 539.22 270.777 545.373C277.057 575.786 283.549 607.23 295.834 633.7C296.517 635.171 297.226 636.637 297.939 638.052C314.637 671.134 337.58 684.593 361.708 684.593C361.84 684.593 361.971 684.593 362.103 684.593C361.952 684.59 361.801 684.593 361.649 684.593ZM366.796 684.395C389.227 682.679 412.373 669.834 432.23 650.727C475.062 609.342 505.846 545.421 535.617 483.607C536.843 481.059 538.069 478.516 539.295 475.974C541.986 470.393 545.177 463.786 548.434 457.126C563.046 427.257 580.729 392.504 601.095 361.223C622.763 327.938 644.411 303.239 667.273 285.71C681.321 274.951 696.167 267.372 711.4 263.183C725.512 259.302 740.426 258.206 755.722 259.922C782.148 262.89 810.562 274.142 842.588 294.323C873.813 313.969 899.48 332.462 923.364 352.522C957.198 380.967 989.427 413.742 1016.49 442.049C1079.41 508.05 1141.15 582.993 1199.99 664.8L1199.86 665.006C1141.03 583.21 1079.3 508.272 1016.38 442.28C989.323 413.976 957.1 381.207 923.273 352.77C899.395 332.716 873.735 314.228 842.516 294.588C772.749 250.624 717.091 247.881 667.36 285.963C615.746 325.531 578.989 395.148 548.587 457.295C545.328 463.955 542.139 470.559 539.448 476.143C538.222 478.683 536.996 481.228 535.771 483.776C505.99 545.61 475.194 609.553 432.332 650.97C421.704 661.195 410.394 669.319 398.717 675.111C387.846 680.497 377.131 683.612 366.796 684.395Z" fill="#A1A1A1"/>
<path d="M366.923 669.168C365.423 669.168 363.933 669.121 362.454 669.022C349.996 668.202 338.468 663.943 328.19 656.358C316.949 648.063 307.209 635.776 299.244 619.837C298.537 618.417 297.831 616.948 297.151 615.471C284.986 589.095 278.219 558.048 271.676 528.027C270.312 521.77 268.901 515.298 267.471 509.018C259.149 472.388 249.347 440.253 237.503 410.776C236.037 407.132 234.52 403.476 232.99 399.913C205.043 334.826 166.244 279.736 120.788 240.6C67.8967 195.136 11.5195 173.625 -37.9576 180.037C-65.8152 183.704 -104.085 207.797 -122.281 252.027C-132.794 277.58 -134.324 305.989 -126.707 334.181L-126.883 334.285C-130.874 319.515 -132.397 304.726 -131.413 290.329C-130.509 277.087 -127.49 264.152 -122.442 251.88C-114.479 232.525 -101.695 215.275 -85.4695 201.991C-70.4701 189.71 -53.602 181.815 -37.9747 179.758C-12.052 176.401 15.6448 180.618 44.3441 192.292C70.3234 202.862 96.0739 219.032 120.882 240.358C166.365 279.519 205.185 334.64 233.149 399.764C234.679 403.329 236.198 406.985 237.664 410.635C249.514 440.129 259.321 472.284 267.647 508.934C269.077 515.216 270.488 521.688 271.852 527.945C278.393 557.949 285.155 588.974 297.304 615.319C297.985 616.796 298.686 618.262 299.394 619.677C331.759 684.443 389.116 677.489 431.6 641.87C476.22 604.132 509.379 541.41 541.447 480.753L541.776 480.131C544.882 474.251 548.094 468.174 551.29 462.173C585.021 398.867 622.096 333.809 671.596 294.954C685.492 284.069 700.134 276.075 715.111 271.196C729.042 266.658 743.729 264.665 758.764 265.274C784.978 266.334 813.062 275.122 844.624 292.141C877.792 309.963 902.752 326.345 925.556 345.26C958.046 372.265 989.518 406.39 1017.28 436.499C1079.11 503.894 1139.9 579.816 1197.99 662.15L1197.86 662.353C1139.78 580.027 1078.99 504.114 1017.17 436.724C989.41 406.621 957.943 372.502 925.463 345.506C902.669 326.596 877.717 310.22 844.559 292.403C776.147 255.513 721.215 256.401 671.683 295.199C622.215 334.028 585.155 399.059 551.438 462.342C548.241 468.343 545.03 474.423 541.924 480.3L541.595 480.923C525.614 511.149 509.09 542.405 491.246 570.323C471.192 601.697 451.712 625.179 431.691 642.11C410.745 659.67 387.928 669.168 366.923 669.168Z" fill="#A1A1A1"/>
<path d="M1195.85 659.693C1138.53 576.838 1078.68 499.949 1017.96 431.164C1015.39 428.272 1012.81 425.366 1010.23 422.451C983.929 392.794 956.736 362.128 927.656 338.237C899.445 315.125 870.854 300.992 846.605 290.217C779.671 260.289 725.464 264.807 676.007 304.431C625.238 345.227 585.9 412.961 554.291 467.388C552.394 470.655 550.501 473.928 548.604 477.203C547.204 479.621 545.802 482.04 544.401 484.455C526.403 515.477 510.033 543.212 491.945 568.52C471.28 597.43 451.363 618.604 431.051 633.252C412.015 646.981 391.68 654.245 372.765 654.248C369.319 654.248 365.923 654.008 362.587 653.52C350.406 651.742 339.129 646.745 329.07 638.666C318.094 629.853 308.547 617.332 300.692 601.452C299.99 600.029 299.291 598.558 298.613 597.078C286.593 570.84 279.563 540.23 272.765 510.629C271.301 504.253 269.786 497.657 268.253 491.256C259.534 454.741 249.479 422.863 237.517 393.798C236.028 390.181 234.487 386.559 232.936 383.028C204.588 318.513 165.48 264.139 119.841 225.784C66.5754 181.123 10.0412 160.584 -39.3489 167.946C-73.1136 173.078 -107.641 202.916 -123.313 240.502C-133.991 266.109 -135.884 294.608 -128.793 322.918L-128.971 323.017C-132.684 308.194 -133.977 293.359 -132.816 278.925C-131.747 265.636 -128.604 252.659 -123.474 240.353C-115.428 221.054 -102.685 203.804 -86.6225 190.472C-71.7669 178.141 -54.9857 170.04 -39.3679 167.667C-13.4755 163.805 14.2497 167.523 43.0379 178.713C69.0797 188.837 94.9531 204.59 119.936 225.535C165.603 263.914 204.732 318.318 233.097 382.873C234.65 386.407 236.191 390.032 237.68 393.648C249.649 422.73 259.708 454.626 268.433 491.158C269.965 497.562 271.48 504.154 272.944 510.533C279.738 540.117 286.765 570.707 298.771 596.915C299.448 598.391 300.146 599.86 300.845 601.281C334.633 669.587 392.06 661.055 430.969 632.995C477.392 599.516 512.915 538.29 544.259 484.269C545.661 481.851 547.06 479.432 548.462 477.017C550.357 473.742 552.252 470.469 554.149 467.202C572.192 436.136 590.01 405.946 609.598 378.126C632.123 346.132 653.819 321.946 675.92 304.183C689.671 293.165 704.105 284.757 718.823 279.196C732.578 273.996 747.04 271.109 761.808 270.613C787.854 269.74 815.611 276.065 846.662 289.946C870.918 300.727 899.523 314.865 927.749 337.992C956.842 361.891 984.041 392.566 1010.35 422.229C1012.93 425.143 1015.51 428.049 1018.08 430.941C1078.8 499.732 1138.66 576.629 1195.99 659.493L1195.85 659.693Z" fill="#A1A1A1"/>
<path d="M1193.85 657.038C1136.2 572.069 1077.29 494.202 1018.75 425.606C1015.25 421.502 1011.66 417.271 1008.2 413.181C983.381 383.89 957.72 353.602 929.847 330.971C902.014 308.453 873.182 296.626 848.648 288.03C783.343 264.926 729.858 273.071 680.33 313.665C633.089 352.525 596.078 410.96 560.286 467.47L556.355 473.674C553.251 478.576 550.042 483.641 546.877 488.61C511.049 544.796 475.183 597.456 430.41 624.39C419.545 630.927 408.389 635.456 397.248 637.86C385.285 640.439 373.664 640.476 362.706 637.967C350.805 635.242 339.784 629.517 329.948 620.952C319.244 611.63 309.889 598.882 302.145 583.064C301.447 581.632 300.753 580.158 300.082 578.681C288.209 552.598 280.925 522.439 273.881 493.272C272.309 486.764 270.683 480.033 269.041 473.496C259.916 437.094 249.612 405.472 237.536 376.824C236.027 373.244 234.463 369.651 232.887 366.147C204.141 302.204 164.724 248.547 118.898 210.972C65.2556 167.12 8.56247 147.548 -40.7425 155.865C-74.1989 161.629 -108.569 191.676 -124.321 228.935C-135.176 254.607 -137.444 283.215 -130.881 311.669L-131.06 311.762C-134.495 296.874 -135.556 281.984 -134.215 267.507C-132.978 254.161 -129.704 241.134 -124.484 228.788C-116.35 209.554 -103.653 192.321 -87.7607 178.95C-73.0526 166.573 -56.3623 158.278 -40.7652 155.589C-14.9031 151.226 12.8504 154.442 41.7294 165.147C67.8355 174.826 93.8281 190.159 118.987 210.727C164.84 248.321 204.279 302.013 233.042 365.992C234.618 369.498 236.184 373.095 237.693 376.675C249.776 405.337 260.087 436.976 269.215 473.398C270.857 479.934 272.483 486.668 274.055 493.176C281.095 522.326 288.375 552.471 300.235 578.523C300.905 579.995 301.599 581.466 302.295 582.898C335.269 650.254 390.057 648.362 430.336 624.131C475.073 597.219 510.924 544.579 546.737 488.418C549.902 483.449 553.111 478.384 556.215 473.482L560.146 467.279C577.716 439.541 595.881 410.856 615.611 384.172C637.957 353.951 659.096 330.808 680.235 313.417C693.846 302.261 708.076 293.439 722.527 287.198C736.113 281.33 750.35 277.547 764.843 275.955C790.775 273.105 818.199 276.967 848.69 287.753C873.235 296.356 902.082 308.185 929.934 330.723C957.822 353.362 983.491 383.659 1008.31 412.958C1011.78 417.048 1015.36 421.276 1018.87 425.383C1077.41 493.985 1136.32 571.857 1193.98 656.835L1193.85 657.038Z" fill="#A1A1A1"/>
<path d="M1191.84 654.383C1134.69 568.469 1076.72 489.627 1019.54 420.05C1015.24 414.821 1010.84 409.384 1006.58 404.127C983.099 375.152 958.82 345.19 932.039 323.71C904.336 301.578 875.374 292.15 850.694 285.848C787.199 269.384 734.439 281.16 684.653 322.904C641.206 359.486 605.535 411.332 571.036 461.469C567.407 466.745 563.652 472.199 559.994 477.484C555.698 483.691 552.417 488.406 549.354 492.77C532.953 516.125 513.426 543.017 492.934 565.385C471.218 589.087 450.557 605.491 429.77 615.537C418.839 620.819 407.73 624.15 396.75 625.436C384.961 626.817 373.546 625.802 362.825 622.417C351.209 618.75 340.445 612.298 330.827 603.242C320.397 593.422 311.237 580.445 303.599 564.678C302.911 563.249 302.22 561.772 301.551 560.289C289.835 534.381 282.307 504.687 275.025 475.971C273.336 469.31 271.59 462.425 269.829 455.736C260.294 419.435 249.738 388.073 237.555 359.85C236.023 356.301 234.436 352.742 232.837 349.266C203.692 285.896 163.965 232.954 117.953 196.16C63.9384 153.114 7.0865 134.514 -42.1315 143.782C-70.1366 149.171 -106.714 173.997 -125.299 217.308C-136.349 243.058 -139.001 271.797 -132.966 300.414L-133.145 300.499C-136.302 285.535 -137.127 270.579 -135.599 256.047C-134.187 242.633 -130.777 229.549 -125.458 217.156C-117.238 198 -104.588 180.796 -88.8716 167.396C-74.3111 154.983 -57.721 146.499 -42.1542 143.503C-16.3223 138.638 11.4615 141.352 40.4275 151.572C66.596 160.806 92.7096 175.722 118.042 195.912C164.081 232.725 203.83 285.698 232.993 349.106C234.591 352.581 236.18 356.146 237.712 359.698C249.9 387.935 260.462 419.314 270.003 455.632C271.766 462.323 273.512 469.209 275.201 475.869C282.477 504.571 290.003 534.248 301.706 560.129C302.375 561.608 303.064 563.082 303.752 564.509C331.184 621.146 378.273 640.121 429.711 615.263C476.294 592.754 514.294 542.304 549.224 492.561C552.286 488.198 555.566 483.482 559.862 477.276C563.52 471.991 567.274 466.537 570.904 461.26C587.887 436.578 605.448 411.056 624.179 387.157C645.36 360.129 665.112 339.029 684.562 322.653C698.043 311.35 712.064 302.114 726.241 295.203C739.668 288.655 753.681 283.979 767.887 281.298C793.755 276.422 820.852 277.817 850.726 285.563C875.419 291.871 904.402 301.302 932.128 323.453C958.926 344.948 983.211 374.918 1006.7 403.902C1010.96 409.159 1015.36 414.596 1019.66 419.824C1076.84 489.41 1134.82 568.257 1191.98 654.177L1191.84 654.383Z" fill="#A1A1A1"/>
<path d="M1189.84 651.728C1133.18 564.864 1076.15 485.044 1020.33 414.492C1015.58 408.491 1010.7 402.191 1005.98 396.1C983.511 367.086 960.279 337.084 934.227 316.444C906.506 294.577 877.477 287.601 852.737 283.661C792.121 273.748 738.553 289.605 688.973 332.138C649.497 366.158 615.656 411.67 582.93 455.686C576.319 464.575 569.485 473.77 562.841 482.533C558.776 487.897 555.175 492.606 551.827 496.93C536.258 517.015 515.548 542.769 493.418 563.816C471.182 584.961 450.151 598.983 429.123 606.681C406.189 615.078 383.3 615.139 362.933 606.864C351.609 602.261 341.1 595.085 331.697 585.533C321.546 575.22 312.58 562.017 305.046 546.298C304.364 544.866 303.679 543.386 303.013 541.904C291.464 516.192 283.701 486.986 276.196 458.744C274.38 451.911 272.504 444.848 270.61 437.985C260.657 401.78 249.85 370.671 237.568 342.885C236.013 339.367 234.404 335.839 232.783 332.394C203.238 269.596 163.203 217.367 117.006 181.359C62.6185 139.123 5.60764 121.492 -43.5252 131.71C-76.8227 138.785 -110.069 168.493 -126.252 205.63C-137.514 231.474 -140.558 260.362 -135.054 289.171L-135.235 289.247C-138.112 274.193 -138.698 259.159 -136.979 244.564C-135.39 231.074 -131.834 217.922 -126.411 205.475C-118.104 186.41 -105.503 169.245 -89.9703 155.834C-75.563 143.396 -59.0769 134.726 -43.5517 131.428C-17.7502 126.061 10.0639 128.277 39.1188 138.009C65.3516 146.798 91.5863 161.297 117.093 181.106C163.317 217.136 203.374 269.393 232.938 332.231C234.559 335.675 236.168 339.207 237.725 342.727C250.012 370.53 260.826 401.653 270.784 437.875C272.678 444.738 274.554 451.804 276.37 458.637C283.871 486.865 291.63 516.057 303.168 541.743C303.834 543.226 304.517 544.7 305.2 546.132C332.161 602.402 378.47 624.934 429.078 606.408C475.214 589.516 515.28 543.705 551.702 496.719C555.048 492.395 558.651 487.688 562.714 482.324C569.357 473.561 576.193 464.37 582.801 455.48C615.535 411.456 649.381 365.933 688.877 331.898C702.238 320.435 716.056 310.787 729.945 303.216C743.228 295.978 757.015 290.406 770.921 286.654C796.783 279.678 823.552 278.61 852.754 283.384C877.511 287.328 906.564 294.307 934.314 316.199C960.384 336.853 983.627 366.866 1006.1 395.892C1010.82 401.983 1015.7 408.279 1020.45 414.28C1076.27 484.838 1133.31 564.664 1189.97 651.533L1189.84 651.728Z" fill="#A1A1A1"/>
<path d="M1187.83 649.073C1131.68 561.251 1075.59 480.458 1021.12 408.936C1016.11 402.363 1010.96 395.404 1005.98 388.673C984.332 359.414 961.946 329.156 936.419 309.18C908.58 287.5 879.529 283.01 854.781 281.476C796.456 277.598 743.633 297.19 693.297 341.374C657.996 372.509 626.528 411.913 596.094 450.017C585.631 463.121 575.746 475.498 565.693 487.581C561.603 492.499 557.879 496.919 554.304 501.088C531.237 527.963 512.047 547.395 493.907 562.237C471.151 580.86 449.751 592.501 428.483 597.822C420.233 599.885 412.012 600.914 403.942 600.914C389.634 600.914 375.791 597.69 363.046 591.303C339.981 579.744 320.957 558.415 306.5 527.91C305.82 526.464 305.141 524.984 304.482 523.507C293.109 498.018 285.129 469.331 277.412 441.584C275.456 434.555 273.436 427.288 271.399 420.222C261.02 384.102 249.959 353.252 237.588 325.909C236.011 322.422 234.379 318.924 232.735 315.511C202.791 253.285 162.446 201.772 116.063 166.545C61.3033 125.12 4.13553 108.457 -44.9122 119.624C-78.3478 127.395 -110.635 156.539 -127.165 193.874C-138.655 219.825 -142.102 248.885 -137.135 277.914L-137.318 277.984C-139.911 262.826 -140.256 247.701 -138.34 233.03C-136.565 219.45 -132.86 206.225 -127.322 193.719C-118.927 174.758 -106.381 157.65 -91.0376 144.239C-76.7854 131.78 -60.4147 122.941 -44.9406 119.345C-19.1693 113.476 8.67505 115.19 37.817 124.438C64.1141 132.784 90.4679 146.866 116.15 166.291C162.559 201.541 202.927 253.082 232.89 315.345C234.534 318.761 236.166 322.259 237.745 325.748C250.123 353.106 261.19 383.972 271.573 420.106C273.61 427.173 275.632 434.442 277.586 441.471C285.299 469.204 293.275 497.88 304.639 523.346C305.297 524.82 305.975 526.3 306.656 527.743C333.651 584.713 378.044 610.154 428.451 597.54C476.436 585.533 518.937 541.932 554.187 500.862C557.76 496.694 561.484 492.277 565.573 487.358C575.625 475.275 585.51 462.901 595.973 449.798C626.411 411.685 657.887 372.275 693.2 341.129C706.462 329.488 720.073 319.426 733.657 311.218C746.814 303.27 760.376 296.801 773.964 291.995C799.879 282.832 826.318 279.298 854.789 281.192C879.558 282.725 908.635 287.221 936.506 308.927C962.054 328.916 984.449 359.188 1006.11 388.459C1011.09 395.19 1016.24 402.149 1021.24 408.719C1075.71 480.247 1131.81 561.048 1187.97 648.875L1187.83 649.073Z" fill="#A1A1A1"/>
<path d="M1185.83 646.419C1129.39 556.381 1075.77 476.883 1021.9 403.379C1016.76 396.367 1011.7 389.205 1006.34 381.623C985.4 351.982 963.742 321.335 938.608 301.918C910.422 280.246 880.096 278.442 856.825 279.293C801.155 281.063 749.077 304.393 697.618 350.615C666.743 378.483 638.237 411.948 610.669 444.314C596.18 461.324 582.495 477.387 568.54 492.633C564.398 497.163 560.549 501.289 556.777 505.249C533.396 529.76 513.574 547.365 494.391 560.657C471.107 576.791 449.338 586.05 427.839 588.964C416.793 590.461 405.822 590.179 395.232 588.127C384.019 585.954 373.227 581.786 363.155 575.74C340.83 562.337 322.257 540.062 307.952 509.528C307.277 508.079 306.603 506.596 305.949 505.12C294.767 479.893 286.586 451.752 278.674 424.539C276.563 417.278 274.38 409.769 272.184 402.469C261.371 366.427 250.06 335.834 237.604 308.942C236.002 305.486 234.347 302.02 232.685 298.637C202.342 236.983 161.688 186.186 115.12 151.74C72.1385 120.079 27.8138 103.559 -12.8321 103.559C-24.3228 103.559 -35.5108 104.878 -46.3016 107.547C-79.3343 115.879 -111.419 145.128 -128.045 182.063C-139.78 208.135 -143.644 237.392 -139.22 266.669L-139.406 266.731C-141.715 251.454 -141.811 236.225 -139.693 221.47C-137.73 207.791 -133.864 194.479 -128.204 181.905C-119.723 163.063 -107.235 146.024 -92.0885 132.627C-77.7909 119.98 -61.9687 111.212 -46.3357 107.271C-20.5947 100.901 7.27995 102.116 36.5108 110.876C62.8703 118.774 89.3471 132.436 115.204 151.484C161.798 185.95 202.476 236.775 232.838 298.465C234.502 301.848 236.159 305.317 237.761 308.776C250.222 335.682 261.539 366.289 272.358 402.348C274.554 409.648 276.739 417.157 278.85 424.42C286.758 451.622 294.935 479.752 306.108 504.959C306.762 506.433 307.436 507.916 308.109 509.362C334.86 566.458 378.493 595.366 427.824 588.68C477.742 581.912 522.903 540.411 556.671 505.012C560.443 501.052 564.29 496.926 568.432 492.399C582.386 477.159 596.068 461.093 610.555 444.086C638.127 411.717 666.637 378.243 697.523 350.367C724.017 326.57 750.015 309.227 777.007 297.344C803.037 285.883 829.147 279.885 856.825 279.006C872.615 278.428 885.498 279.431 897.369 282.16C912.695 285.683 926.214 292.061 938.699 301.662C963.856 321.096 985.522 351.759 1006.48 381.414C1011.83 388.996 1016.9 396.155 1022.03 403.168C1075.91 476.674 1129.53 556.179 1185.97 646.222L1185.83 646.419Z" fill="#A1A1A1"/>
<path d="M1183.82 643.763C1127.9 552.739 1075.2 472.293 1022.69 397.82C1017.5 390.452 1012.37 382.862 1006.95 374.826C986.633 344.717 965.625 313.58 940.799 294.65C912.38 273.08 882.086 273.942 858.87 277.102C806.334 284.005 755.002 311.072 701.94 359.845C675.796 383.992 650.905 411.625 626.832 438.351C607.802 459.477 589.829 479.432 571.391 497.672C567.224 501.798 563.138 505.744 559.252 509.397C535.826 531.393 514.768 547.637 494.875 559.058C471.056 572.734 448.918 579.617 427.197 580.096C416.145 580.338 405.218 578.85 394.726 575.668C383.727 572.331 373.142 567.113 363.265 560.157C341.706 544.973 323.584 521.751 309.403 491.132C308.738 489.687 308.068 488.201 307.415 486.716C296.443 461.796 288.085 434.25 280 407.612C277.714 400.075 275.347 392.278 272.97 384.699C261.714 348.725 250.151 318.392 237.622 291.959C235.997 288.534 234.319 285.098 232.634 281.747C201.892 220.665 160.928 170.584 114.175 136.919C58.6718 97.12 1.1843 82.3957 -47.6932 95.4571C-80.2984 104.322 -112.17 133.646 -128.888 170.161C-140.888 196.371 -145.182 225.848 -141.308 255.41L-141.493 255.463C-143.513 240.054 -143.358 224.707 -141.03 209.85C-138.868 196.059 -134.837 182.651 -129.045 170.001C-120.481 151.294 -108.056 134.34 -93.1131 120.971C-78.98 108.327 -63.2865 99.4088 -47.7273 95.178C-22.0146 88.3091 5.88838 89.0194 35.2062 97.2948C61.63 104.753 88.226 117.997 114.256 136.662C161.038 170.345 202.025 220.456 232.784 281.575C234.471 284.926 236.15 288.365 237.775 291.792C250.312 318.239 261.878 348.587 273.14 384.575C275.519 392.154 277.884 399.951 280.173 407.49C288.253 434.118 296.607 461.653 307.572 486.555C308.225 488.038 308.895 489.523 309.558 490.966C336.591 549.334 378.368 580.891 427.193 579.808C466.81 578.935 508.74 556.482 559.149 509.152C563.034 505.499 567.118 501.556 571.285 497.429C589.717 479.193 607.69 459.243 626.716 438.117C650.793 411.389 675.689 383.749 701.84 359.597C728.593 335.004 754.173 316.39 780.043 302.684C806.251 288.799 832.03 280.335 858.853 276.812C882.094 273.646 912.423 272.787 940.886 294.391C965.738 313.343 986.758 344.495 1007.09 374.617C1012.51 382.653 1017.63 390.241 1022.82 397.606C1075.33 472.082 1128.04 552.533 1183.96 643.562L1183.82 643.763Z" fill="#A1A1A1"/>
<path d="M1181.81 641.108C1126.42 549.094 1074.63 467.696 1023.48 392.265C1018.29 384.607 1013.16 376.65 1007.73 368.225C987.991 337.578 967.574 305.889 942.993 287.387C914.305 265.895 884.06 269.433 860.916 274.915C811.486 286.401 762.346 316.323 706.264 369.082C685.231 388.958 664.676 410.763 644.798 431.849C620.656 457.459 597.852 481.651 574.241 502.72C569.987 506.52 565.776 510.167 561.727 513.555C537.881 533.494 516.173 547.857 495.361 557.463C483.704 562.844 472.196 566.742 461.157 569.05C449.383 571.511 437.741 572.246 426.555 571.237C403.859 569.188 382.603 560.219 363.378 544.582C342.615 527.693 324.945 503.526 310.859 472.747C310.197 471.29 309.533 469.802 308.884 468.325C298.147 443.772 289.639 416.88 281.413 390.875C278.922 383.003 276.347 374.863 273.758 366.942C262.048 331.028 250.234 300.95 237.64 274.988C235.993 271.592 234.29 268.187 232.584 264.87C201.443 204.357 160.171 154.992 113.233 122.113C57.3584 83.1289 -0.286041 69.3742 -49.0822 83.3798C-101.33 98.6087 -152.243 164.409 -143.391 244.161L-143.578 244.206C-145.793 224.256 -144.496 204.602 -139.723 185.785C-135.365 168.6 -128.214 152.427 -118.467 137.72C-109.405 124.044 -98.5329 112.237 -86.1551 102.625C-74.3826 93.4845 -61.5754 86.7311 -49.1201 83.1007C-23.4377 75.7301 4.49559 75.9415 33.9023 83.7321C60.3905 90.7476 87.1075 103.575 113.312 121.859C160.277 154.761 201.574 204.154 232.734 264.7C234.442 268.021 236.144 271.426 237.793 274.825C250.393 300.798 262.212 330.892 273.928 366.821C276.518 374.741 279.092 382.882 281.583 390.757C289.807 416.753 298.311 443.634 309.043 468.172C309.69 469.649 310.352 471.138 311.014 472.592C338.087 531.743 379.124 566.674 426.566 570.958C466.73 574.58 510.911 555.727 561.634 513.312C565.682 509.924 569.89 506.28 574.144 502.48C597.75 481.417 620.55 457.228 644.689 431.621C664.568 410.532 685.125 388.725 706.161 368.845C762.266 316.064 811.429 286.13 860.886 274.636C876.437 270.952 889.313 269.774 901.409 270.932C916.871 272.412 930.499 277.711 943.076 287.134C967.686 305.655 988.114 337.364 1007.87 368.028C1013.29 376.45 1018.42 384.406 1023.61 392.062C1074.76 467.499 1126.56 548.9 1181.95 640.919L1181.81 641.108Z" fill="#A1A1A1"/>
<path d="M1179.81 638.452C1124.94 545.436 1074.06 463.09 1024.27 386.706C1019.12 378.803 1014.02 370.525 1008.63 361.756C989.426 330.523 969.563 298.225 945.182 280.121C915.87 258.448 884.219 265.52 862.96 272.725C805.263 292.038 753.556 336.938 710.587 378.318C695.143 393.251 679.739 409.069 664.84 424.365C634.953 455.052 606.724 484.035 577.093 507.768C572.735 511.26 568.399 514.606 564.204 517.715C539.893 535.695 517.534 548.175 495.85 555.865C471.269 564.582 447.741 566.775 425.915 562.378C403.493 557.86 382.49 546.631 363.493 529C343.566 510.51 326.348 485.399 312.313 454.364C311.659 452.907 310.999 451.416 310.354 449.933C299.882 425.831 291.269 399.677 282.937 374.383C280.207 366.094 277.383 357.525 274.546 349.185C262.204 312.819 250.483 283.852 237.66 258.017C235.99 254.652 234.267 251.281 232.536 247.991C200.992 188.054 159.41 139.405 112.286 107.304C56.0414 69.137 -1.76193 56.349 -50.4749 71.2989C-102.91 87.6045 -152.783 152.511 -145.478 232.912L-145.665 232.949C-147.477 213.001 -145.909 193.367 -141.006 174.592C-136.512 157.39 -129.319 141.2 -119.623 126.476C-110.582 112.744 -99.7667 100.849 -87.4759 91.1165C-75.7733 81.8489 -62.9908 74.9011 -50.5127 71.0199C-24.8587 63.1475 3.10292 62.86 32.5966 70.163C59.1491 76.736 85.9872 89.1463 112.366 107.047C159.518 139.165 201.123 187.842 232.682 247.817C234.413 251.109 236.138 254.483 237.81 257.848C250.64 283.695 262.365 312.678 274.713 349.058C277.55 357.398 280.374 365.97 283.103 374.259C291.433 399.545 300.045 425.69 310.509 449.781C311.154 451.263 311.812 452.752 312.466 454.209C339.749 514.538 380.047 552.854 425.938 562.099C467.096 570.392 512.295 555.788 564.119 517.461C568.312 514.355 572.648 511.012 577.002 507.52C606.626 483.793 634.851 454.815 664.732 424.132C679.631 408.835 695.037 393.014 710.483 378.078C739.377 350.256 763.414 329.7 786.123 313.389C812.857 294.188 837.976 280.797 862.917 272.448C878.12 267.296 891.372 264.962 903.43 265.317C918.955 265.774 932.64 270.532 945.266 279.867C969.679 297.993 989.552 330.312 1008.77 361.564C1014.16 370.33 1019.25 378.608 1024.4 386.506C1074.2 462.893 1125.08 545.244 1179.95 638.264L1179.81 638.452Z" fill="#A1A1A1"/>
<path d="M1177.8 635.795C1123.47 541.772 1073.5 458.477 1025.06 381.145C1019.98 373.036 1014.95 364.471 1009.63 355.4C990.927 323.539 971.591 290.592 947.376 272.855C917.742 251.233 886.176 261.175 865.008 270.535C812.732 293.453 766.103 337.091 714.912 387.552C705.68 396.687 696.342 406.115 687.31 415.236C652.575 450.311 616.66 486.578 579.945 512.814C575.484 516.004 571.021 519.051 566.68 521.87C542.204 537.744 518.538 548.641 496.338 554.258C471.189 560.623 447.281 560.372 425.271 553.517C403.164 546.631 382.416 533.139 363.604 513.414C344.566 493.453 327.796 467.4 313.762 435.981C313.113 434.521 312.458 433.027 311.817 431.545C301.662 408.007 292.993 382.704 284.61 358.236C281.59 349.419 278.467 340.304 275.329 331.434C262.505 295.105 250.539 266.386 237.673 241.053C235.984 237.727 234.237 234.384 232.481 231.12C200.544 171.746 158.655 123.813 111.342 92.4953C54.7283 55.146 -3.23206 43.3276 -51.8656 59.2189C-102.636 75.9896 -153.43 138.619 -147.565 221.661L-147.752 221.689C-149.161 201.742 -147.322 182.13 -142.289 163.397C-137.661 146.176 -130.424 129.971 -120.781 115.23C-102.99 88.0363 -77.8865 67.5197 -51.9072 58.9399C-26.2834 50.5686 1.70847 49.7794 31.2911 56.5948C57.9079 62.7281 84.8651 74.7184 111.418 92.236C158.757 123.57 200.67 171.535 232.629 230.937C234.386 234.203 236.134 237.546 237.825 240.875C250.696 266.223 262.667 294.953 275.495 331.296C278.633 340.169 281.758 349.284 284.779 358.101C293.16 382.563 301.826 407.86 311.976 431.387C312.615 432.87 313.27 434.361 313.919 435.821C341.997 498.681 380.515 539.283 425.307 553.238C466.784 566.158 514.32 555.518 566.6 521.61C570.939 518.792 575.399 515.748 579.858 512.56C616.56 486.333 652.471 450.072 687.199 415.003C696.23 405.882 705.568 396.453 714.803 387.318C737.211 365.229 763.285 339.892 789.162 318.739C816.231 296.613 841.021 280.758 864.95 270.267C880.013 263.607 893.263 260.151 905.452 259.706C920.824 259.142 934.953 263.483 947.454 272.604C958.301 280.55 969.219 292.407 980.831 308.857C991.084 323.381 1000.58 339.565 1009.77 355.214C1015.09 364.282 1020.11 372.848 1025.19 380.954C1073.64 458.288 1123.6 541.586 1177.94 635.612L1177.8 635.795Z" fill="#A1A1A1"/>
<path d="M1175.8 633.141C1121.99 538.103 1072.94 453.858 1025.85 375.591C1020.86 367.304 1015.92 358.479 1010.69 349.138C992.474 316.614 973.642 282.983 949.566 265.595C927.067 249.396 900.076 250.298 867.05 268.352C820.876 293.451 779.6 335.434 735.9 379.886C730.458 385.422 724.833 391.144 719.234 396.795C717.042 399.013 714.848 401.237 712.655 403.458C671.016 445.65 627.961 489.279 582.794 517.865C578.228 520.757 573.64 523.505 569.155 526.031C544.142 540.104 519.808 549.062 496.831 552.653C471.101 556.672 446.809 553.983 424.633 544.659C402.87 535.507 382.378 519.751 363.726 497.828C345.647 476.579 329.328 449.588 315.219 417.599C314.576 416.136 313.927 414.64 313.29 413.154C303.521 390.355 294.88 366.072 286.522 342.591C283.138 333.081 279.637 323.247 276.121 313.675C262.801 277.371 250.593 248.9 237.697 224.08C235.984 220.782 234.215 217.473 232.437 214.24C200.095 155.441 157.896 108.221 110.398 77.6872C53.417 41.1581 -4.70415 30.3065 -53.2563 47.1392C-103.095 64.561 -153.816 127.703 -149.649 210.412L-149.839 210.435C-150.843 190.485 -148.736 170.896 -143.572 152.211C-138.808 134.97 -131.529 118.746 -121.938 103.993C-104.222 76.743 -79.2054 55.922 -53.2998 46.8658C-27.7044 37.9928 0.315826 36.7019 29.9854 43.0325C56.6665 48.7204 83.7467 60.2936 110.473 77.4279C157.998 107.982 200.224 155.227 232.579 214.057C234.357 217.29 236.129 220.604 237.843 223.902C250.745 248.737 262.96 277.216 276.283 313.534C279.802 323.106 283.301 332.943 286.687 342.453C295.041 365.929 303.681 390.205 313.447 412.997C314.084 414.482 314.731 415.976 315.374 417.439C344.062 482.481 381.86 526.375 424.683 544.38C466.955 562.154 515.539 555.888 569.087 525.76C573.568 523.235 578.155 520.49 582.719 517.6C627.87 489.025 670.918 445.405 712.548 403.219C714.742 400.995 716.934 398.774 719.126 396.556C724.725 390.904 730.35 385.183 735.792 379.65C779.502 335.189 820.789 293.195 866.984 268.084C881.904 259.927 895.15 255.352 907.477 254.092C922.906 252.517 937.094 256.302 949.647 265.338C960.431 273.126 971.212 285.038 982.608 301.755C992.661 316.505 1001.9 333.002 1010.83 348.955C1016.06 358.293 1021 367.115 1025.99 375.399C1073.09 453.669 1122.14 537.917 1175.94 632.957L1175.8 633.141Z" fill="#A1A1A1"/>
<path d="M1173.79 630.485C1124.68 541.924 1075.17 454.294 1026.63 370.032C1021.69 361.503 1016.79 352.339 1011.61 342.641C994.747 311.089 975.634 275.329 951.756 258.331C928.994 242.16 901.956 244.722 869.093 266.161C830.019 291.567 795.441 328.925 758.832 368.476C747.367 380.861 735.512 393.671 723.554 406.028C702.681 427.644 680.103 450.517 656.435 471.349C631.087 493.661 607.93 510.525 585.639 522.91C580.956 525.511 576.242 527.961 571.625 530.185C546.083 542.482 521.087 549.481 497.332 550.986C471.035 552.649 446.359 547.542 423.986 535.794C382.673 513.831 346.565 467.879 316.666 399.213C316.029 397.747 315.386 396.247 314.752 394.762C305.478 372.969 296.989 349.977 288.78 327.741C284.916 317.276 280.921 306.452 276.902 295.919C263.075 259.624 250.622 231.404 237.71 207.111C235.972 203.841 234.181 200.563 232.382 197.364C199.647 139.132 157.138 92.6306 109.454 62.8774C52.1042 27.1657 -6.17397 17.2865 -54.6467 35.0578C-104.788 53.545 -154.238 115.85 -151.736 199.162L-151.925 199.174C-152.525 179.218 -150.145 159.651 -144.855 141.015C-139.952 123.751 -132.632 107.51 -123.095 92.7461C-114.111 78.8363 -103.462 66.6741 -91.4453 56.5948C-79.7787 46.8114 -67.4141 39.4717 -54.694 34.7816C-29.127 25.4097 -1.07643 23.6171 28.6802 29.4601C55.4256 34.7111 82.625 45.8643 109.525 62.6153C157.238 92.3854 199.771 138.915 232.526 197.175C234.325 200.377 236.12 203.658 237.858 206.928C250.775 231.235 263.234 259.466 277.066 295.773C281.086 306.309 285.08 317.132 288.945 327.6C297.154 349.834 305.641 372.822 314.911 394.607C315.543 396.095 316.188 397.592 316.823 399.058C346.699 467.671 382.775 513.586 424.049 535.526C466.563 557.849 517.574 555.91 571.566 529.914C576.18 527.69 580.893 525.244 585.573 522.645C635.411 494.958 681.011 449.739 723.444 405.794C735.402 393.437 747.256 380.63 758.72 368.245C795.337 328.686 829.923 291.319 869.016 265.901C901.929 244.429 929.021 241.867 951.835 258.074C962.53 265.687 973.149 277.621 984.299 294.552C994.131 309.482 1003.09 326.25 1011.76 342.463C1016.94 352.162 1021.84 361.322 1026.78 369.846C1075.32 454.111 1124.83 541.741 1173.94 630.304L1173.79 630.485Z" fill="#A1A1A1"/>
<path d="M1171.79 627.829C1123.43 538.778 1074.86 450.172 1027.42 364.473C1022.63 355.851 1017.89 346.527 1012.86 336.656C996.408 304.369 977.763 267.772 953.946 251.061C930.912 234.919 903.824 239.141 871.136 263.964C836.887 289.935 805.42 326.605 774.99 362.071C759.732 379.854 743.953 398.243 727.876 415.258C702.5 442.142 681.149 462.65 660.681 479.802C635.443 500.95 611.828 516.7 588.489 527.952C583.698 530.263 578.856 532.411 574.099 534.336C549.313 544.362 524.974 549.435 501.69 549.438C500.396 549.438 499.11 549.421 497.823 549.39C470.904 548.736 445.846 541.177 423.345 526.926C412.484 520.009 401.848 511.229 391.735 500.828C382.228 491.053 372.886 479.539 363.968 466.608C347.922 443.343 332.923 415.281 318.117 380.824C317.481 379.341 316.847 377.856 316.218 376.365C307.627 356.034 299.499 334.782 291.64 314.228C287.102 302.365 282.411 290.096 277.686 278.153C263.139 241.359 250.816 214.21 237.725 190.131C235.964 186.892 234.15 183.645 232.329 180.477C199.196 122.823 156.379 77.0375 108.51 48.0651C50.7932 13.1736 -7.64384 4.26404 -56.0371 22.9739C-105.238 42.0502 -154.624 104.829 -153.821 187.907L-154.01 187.91C-154.384 149.213 -144.093 112.417 -124.249 81.4993C-115.28 67.5247 -104.688 55.2751 -92.7638 45.083C-81.1615 35.1672 -68.8216 27.6359 -56.0844 22.6977C-30.5477 12.8241 -2.46689 10.5326 27.3767 15.8879C54.1865 20.6993 81.5069 31.4353 108.579 47.8001C156.479 76.7923 199.321 122.606 232.475 180.294C234.296 183.465 236.114 186.715 237.875 189.953C250.971 214.047 263.3 241.204 277.851 278.012C282.576 289.957 287.269 302.227 291.804 314.09C299.663 334.641 307.789 355.89 316.378 376.215C317.008 377.706 317.64 379.192 318.276 380.671C349.738 453.893 384.131 501.648 423.419 526.666C477.834 561.132 535.367 549.714 574.05 534.065C578.803 532.14 583.641 529.995 588.431 527.684C642.109 501.804 691.09 453.885 727.766 415.03C743.841 398.02 759.618 379.631 774.875 361.852C805.312 326.379 836.785 289.698 871.05 263.716C885.677 252.608 898.916 245.787 911.52 242.867C927.065 239.265 941.366 241.937 954.026 250.81C964.692 258.293 975.208 270.323 986.177 287.584C995.84 302.793 1004.57 319.922 1013.01 336.49C1018.03 346.358 1022.78 355.679 1027.57 364.295C1075 449.995 1123.58 538.6 1171.93 627.651L1171.79 627.829Z" fill="#A1A1A1"/>
<path d="M1169.78 625.174L1028.21 358.918C1023.59 350.222 1019 340.76 1014.14 330.746C998.095 297.695 979.912 260.236 956.141 243.8C933.152 227.909 905.241 233.958 873.182 261.78C842.363 288.526 814.254 324.094 787.069 358.492C769.35 380.914 751.027 404.097 732.202 424.501C675.618 485.828 626.168 522.05 576.579 538.496C556.007 545.317 535.714 548.75 516.033 548.75C510.067 548.75 504.162 548.435 498.319 547.803C470.764 544.827 445.324 534.821 422.708 518.067C401.747 502.537 382.571 480.614 364.091 451.041C349.334 427.427 335.188 399.274 319.573 362.444C311.332 343.007 303.352 322.811 295.635 303.281C278.169 259.086 260.109 213.385 237.75 173.163C203.454 111.473 158.437 63.0942 107.566 33.2565C49.4846 -0.811967 -9.1113 -8.75478 -57.4251 10.8937C-104.201 29.9164 -154.97 89.9019 -155.905 176.658L-156.094 176.653C-155.676 137.874 -145.063 101.083 -125.403 70.2562C-107.627 42.3831 -83.5029 21.2041 -57.4743 10.6203C-31.9659 0.247829 -3.8549 -2.54541 26.0739 2.32232C52.9479 6.69115 80.3893 17.0129 107.636 32.9943C132.808 47.7582 156.714 67.1924 178.693 90.7588C200.855 114.522 220.774 142.184 237.894 172.977C260.263 213.213 278.328 258.925 295.798 303.132C303.515 322.659 311.495 342.852 319.734 362.286C342.515 416.025 374.818 482.265 422.793 517.808C477.812 558.568 536.767 551.403 576.537 538.215C626.102 521.779 675.529 485.571 732.09 424.267C750.908 403.872 769.229 380.689 786.947 358.272C814.136 323.868 842.253 288.292 873.088 261.532C905.201 233.662 933.172 227.607 956.22 243.541C966.863 250.9 977.283 263.034 988.076 280.642C997.575 296.142 1006.07 313.648 1014.29 330.577C1019.15 340.591 1023.74 350.048 1028.36 358.74L1169.93 624.996L1169.78 625.174Z" fill="#A1A1A1"/>
<path d="M1168.64 604.706C1132.59 530.571 1101.66 470.414 1071.3 415.392C1056.57 388.663 1041.51 362.354 1026.57 337.195C1022.05 329.585 1017.57 321.49 1012.83 312.919C1000.91 291.376 988.588 269.101 974.407 252.57C966.794 243.677 959.465 237.31 952.001 233.104C929.089 220.068 902.208 228.688 872.105 258.725C856.525 274.248 842.339 291.912 830.517 307.143C818.002 323.269 805.656 341.051 793.715 358.247C776.554 382.967 758.808 408.526 739.73 430.477C728.122 443.874 716.356 455.844 704.755 466.059C681.547 486.494 656.636 503.332 630.716 516.106C614.701 523.911 598.608 529.81 582.888 533.638C569.339 536.924 555.766 538.821 542.543 539.275C522.752 539.957 503.471 537.355 485.233 531.535C465.842 525.345 447.491 515.466 430.691 502.168C415.71 490.31 401.56 475.38 387.433 456.521C361.107 421.407 340.11 380.805 324.759 349.355C317.217 333.833 309.854 318.003 302.733 302.696C282.227 258.61 262.858 216.971 238.621 179.881C218.853 149.829 196.299 123.895 171.58 102.795C152.584 86.5794 131.923 73.3178 110.173 63.3766C104.992 61.0118 99.7134 58.8077 94.4872 56.8318C71.9863 48.3394 46.6557 42.8093 19.201 40.3938C-8.47879 37.9021 -32.4267 40.0583 -54.0065 46.9921C-66.2065 50.8818 -78.0263 56.9841 -89.1425 65.127C-128.387 93.8767 -153.587 142.14 -156.553 194.233L-156.789 194.202C-155.998 180.315 -153.678 166.636 -149.893 153.541C-146.297 141.102 -141.358 129.106 -135.215 117.886C-123.607 96.6897 -107.711 78.335 -89.2465 64.8085C-78.1133 56.6515 -66.2746 50.5407 -54.0557 46.6454C-32.4532 39.706 -8.48636 37.547 19.2161 40.0414C46.686 42.457 72.0298 47.9927 94.5459 56.4908C99.7777 58.4695 105.059 60.6736 110.243 63.0412C132.01 72.9881 152.688 86.2609 171.699 102.49C196.436 123.605 219.008 149.561 238.786 179.633C263.038 216.745 282.411 258.396 302.924 302.493C310.043 317.801 317.407 333.627 324.946 349.146C340.29 380.582 361.277 421.164 387.588 456.256C401.7 475.095 415.835 490.011 430.798 501.855C463.678 527.879 501.271 540.352 542.535 538.923C555.747 538.469 569.311 536.572 582.848 533.288C598.557 529.461 614.638 523.567 630.64 515.768C656.545 503.002 681.441 486.175 704.634 465.752C716.227 455.546 727.986 443.581 739.585 430.195C758.651 408.255 776.393 382.702 793.549 357.991C805.491 340.792 817.839 323.004 830.36 306.873C842.188 291.633 856.381 273.963 871.973 258.43C885.376 245.055 898.353 235.816 910.547 230.965C925.526 225.007 939.502 225.615 952.084 232.775C959.571 236.994 966.921 243.378 974.553 252.291C988.754 268.847 1001.08 291.137 1013.01 312.693C1017.75 321.262 1022.23 329.357 1026.75 336.961C1041.7 362.123 1056.75 388.435 1071.49 415.169C1101.85 470.197 1132.78 530.36 1168.83 604.5L1168.64 604.706Z" fill="#A1A1A1"/>
<path d="M1167.5 584.232C1134.08 508.843 1102.71 445.757 1071.6 391.372C1056.43 364.806 1040.72 339.27 1024.93 315.472C1020.74 309.159 1016.6 302.597 1012.22 295.652C999.101 274.854 985.536 253.348 970.342 238.468C962.67 230.923 955.319 225.669 947.865 222.405C919.323 209.902 890.33 233.589 871.032 255.662C857.358 271.254 844.871 288.885 832.223 307.084C821.152 323.015 810.735 340.152 799.708 358.293C783.341 385.222 766.416 413.067 747.263 436.447C735.897 450.396 724.036 462.457 712.008 472.294C689.604 490.62 665.069 504.852 637.004 515.805C621.297 521.932 605.212 526.298 589.195 528.776C575.68 530.842 562.19 531.58 549.098 530.963C529.619 530.055 510.58 525.974 492.505 518.835C473.522 511.334 455.409 500.376 438.672 486.263C424.007 473.9 409.847 458.562 395.383 439.373C369.115 404.571 346.612 365.99 329.944 336.265C323.774 325.261 317.703 314.19 311.83 303.479C288.441 260.828 266.351 220.539 239.496 186.597C219.425 161.23 196.892 139.781 172.526 122.846C154.09 110.033 134.549 100.433 112.79 93.4963C107.768 91.8981 102.659 90.4578 97.6071 89.2148C75.4164 83.7834 51.7333 81.7286 23.0794 79.6034C2.42453 77.994 -24.6141 76.9342 -50.5896 83.0843C-62.8918 85.9424 -74.7835 90.906 -85.9375 97.8313C-125.208 122.221 -151.848 164.827 -157.201 211.807L-157.48 211.737C-156.062 199.278 -153.187 187.06 -148.94 175.416C-144.893 164.322 -139.574 153.685 -133.133 143.791C-120.894 124.997 -104.612 108.968 -86.0472 97.4395C-74.8724 90.5001 -62.958 85.5281 -50.635 82.6644C-24.6349 76.5057 2.42451 77.5683 23.0926 79.1778C51.756 81.303 75.4467 83.3577 97.6525 88.792C102.708 90.0378 107.821 91.4781 112.849 93.0763C134.629 100.021 154.189 109.63 172.646 122.457C197.036 139.408 219.588 160.875 239.679 186.268C266.553 220.235 288.653 260.535 312.049 303.203C317.92 313.911 323.992 324.982 330.162 335.983C346.826 365.697 369.319 404.264 395.573 439.048C410.02 458.218 424.164 473.54 438.812 485.888C471.723 513.637 508.834 528.657 549.107 530.535C562.188 531.149 575.665 530.413 589.167 528.347C605.168 525.873 621.24 521.512 636.932 515.387C664.975 504.446 689.488 490.226 711.874 471.916C723.887 462.09 735.733 450.047 747.085 436.111C766.221 412.751 783.139 384.917 799.5 358.002C810.531 339.853 820.949 322.713 832.028 306.774C844.682 288.563 857.175 270.927 870.861 255.318C883.372 241.008 895.712 230.714 907.539 224.716C921.88 217.444 935.476 216.528 947.948 221.991C955.429 225.269 962.806 230.539 970.5 238.107C985.721 253.015 999.298 274.541 1012.43 295.356C1016.81 302.298 1020.95 308.857 1025.13 315.168C1040.93 338.974 1056.64 364.519 1071.82 391.093C1102.93 445.492 1134.31 508.589 1167.74 583.995L1167.5 584.232Z" fill="#A1A1A1"/>
<path d="M1166.36 563.756C1135.08 486.09 1104.18 421.845 1071.89 367.353C1056.28 340.951 1039.93 316.19 1023.29 293.751C1019.73 288.954 1016.07 283.863 1012.53 278.942C997.909 258.609 982.788 237.585 966.279 224.368C958.53 218.122 951.155 213.979 943.735 211.704C915.253 202.97 887.895 229.121 869.96 252.594C857.803 268.44 846.691 286.4 835.944 303.771L833.931 307.024C824.173 322.783 815.02 340.066 805.328 358.368C789.896 387.509 773.939 417.64 754.796 442.416C743.657 456.937 731.701 469.088 719.259 478.53C697.566 494.994 673.423 506.742 643.286 515.502C627.702 520.031 611.625 522.861 595.498 523.91C582.018 524.753 568.611 524.33 555.647 522.647C516.399 517.576 479.727 499.983 446.649 470.356C432.349 457.549 418.18 441.807 403.334 422.223C378.21 389.152 355.864 355.16 335.131 323.177C332.351 318.89 329.601 314.631 326.871 310.406C298.554 266.58 271.809 225.183 240.376 193.322C219.856 172.52 197.345 155.558 173.473 142.902C155.947 133.612 136.953 127.304 115.409 123.617C110.553 122.792 105.615 122.112 100.729 121.599C88.4382 120.331 75.4021 120.125 61.6001 119.908C50.5142 119.733 39.0518 119.553 26.9559 118.817C3.59431 117.276 -22.8825 115.531 -47.1766 119.184C-59.7113 121.069 -71.6749 124.892 -82.7362 130.546C-121.992 150.614 -150.073 187.569 -157.852 229.4L-158.172 229.267C-156.122 218.238 -152.694 207.479 -147.986 197.29C-143.485 187.546 -137.787 178.262 -131.054 169.696C-118.175 153.314 -101.503 139.616 -82.8459 130.078C-71.76 124.41 -59.7719 120.579 -47.2125 118.691C-22.8938 115.035 3.59621 116.782 26.9672 118.324C39.0556 119.057 50.5179 119.24 61.6001 119.415C75.4078 119.632 88.4476 119.838 100.75 121.109C105.639 121.625 110.583 122.304 115.443 123.13C137.013 126.819 156.03 133.136 173.581 142.44C197.481 155.11 220.016 172.092 240.56 192.916C272.021 224.805 298.779 266.222 327.108 310.068C329.837 314.293 332.589 318.549 335.368 322.839C356.096 354.816 378.435 388.8 403.552 421.859C418.383 441.421 432.536 457.148 446.819 469.939C479.854 499.529 516.478 517.097 555.675 522.162C568.624 523.842 582.018 524.265 595.483 523.422C611.593 522.374 627.655 519.547 643.222 515.023C673.328 506.271 697.443 494.537 719.108 478.096C731.523 468.674 743.457 456.545 754.577 442.049C773.695 417.305 789.642 387.191 805.065 358.066C814.761 339.756 823.92 322.464 833.685 306.694L835.698 303.442C846.451 286.062 857.569 268.091 869.739 252.227C887.73 228.678 915.185 202.451 943.799 211.225C951.254 213.511 958.657 217.669 966.435 223.94C982.979 237.185 998.117 258.231 1012.75 278.587C1016.29 283.508 1019.96 288.599 1023.51 293.393C1040.16 315.843 1056.52 340.619 1072.14 367.035C1104.44 421.549 1135.35 485.816 1166.64 563.508L1166.36 563.756Z" fill="#A1A1A1"/>
<path d="M1165.22 543.279C1136.5 464.44 1105.2 397.168 1072.19 343.338C1056.14 317.103 1039.14 293.114 1021.66 272.036C1019.13 268.992 1016.54 265.833 1014.04 262.777C997.516 242.593 980.427 221.719 962.225 210.275C954.411 205.311 947.016 202.281 939.611 201.007C911.208 196.126 885.477 224.698 868.89 249.527C858.591 264.866 849.295 281.924 840.305 298.421C838.75 301.276 837.195 304.126 835.638 306.964C827.087 322.557 819.092 339.976 810.628 358.415C796.237 389.764 781.357 422.178 762.329 448.391C751.154 463.783 739.438 475.683 726.508 484.776C699.464 503.793 672.437 510.831 649.567 515.211C634.098 518.171 618.028 519.467 601.8 519.056C588.361 518.675 575.035 517.088 562.196 514.343C524.126 506.223 487.935 486.075 454.628 454.459C440.769 441.307 426.593 425.157 411.285 405.086C395.822 384.859 381.413 365.397 367.477 346.574C358.006 333.781 349.059 321.697 340.323 310.104C307.298 266.281 277.047 227.75 241.262 200.055C220.301 183.834 197.813 171.353 174.424 162.962C157.659 156.947 139.74 154.019 118.031 153.74C113.348 153.689 108.578 153.771 103.855 153.985C96.6803 154.331 89.2581 155.056 81.4029 155.825C66.3279 157.299 49.2384 158.971 30.8306 158.035C23.8208 157.677 16.6692 157.173 9.75204 156.682C-8.03912 155.422 -26.4356 154.12 -43.7671 155.284C-56.4948 156.141 -68.5322 158.824 -79.5405 163.261C-118.73 179.059 -148.25 210.365 -158.509 247.004L-158.859 246.787C-156.173 237.193 -152.194 227.897 -147.032 219.156C-142.074 210.763 -135.999 202.834 -128.978 195.593C-115.448 181.641 -98.389 170.273 -79.6427 162.717C-68.6078 158.269 -56.544 155.577 -43.7879 154.72C-26.4375 153.554 -8.03345 154.859 9.76718 156.118C16.6824 156.609 23.8341 157.113 30.8419 157.471C49.2327 158.407 66.3089 156.739 81.3764 155.264C89.2355 154.495 96.6595 153.771 103.841 153.424C108.57 153.21 113.344 153.128 118.033 153.179C139.772 153.455 157.718 156.392 174.511 162.415C197.929 170.817 220.447 183.312 241.435 199.556C257.599 212.065 273.979 227.914 291.511 248.005C307.207 265.99 322.475 285.67 340.572 309.684C349.309 321.28 358.256 333.363 367.728 346.157C381.663 364.977 396.072 384.439 411.531 404.663C426.823 424.714 440.985 440.848 454.827 453.985C488.088 485.559 524.228 505.679 562.245 513.788C575.069 516.53 588.378 518.114 601.802 518.495C618.011 518.906 634.064 517.613 649.514 514.653C672.355 510.281 699.346 503.252 726.343 484.268C739.238 475.201 750.923 463.332 762.068 447.979C781.064 421.811 795.933 389.423 810.312 358.099C818.782 339.649 826.781 322.221 835.341 306.612C836.898 303.774 838.451 300.924 840.006 298.072C849.002 281.563 858.304 264.494 868.616 249.135C879.407 232.982 890.478 220.554 901.52 212.2C914.6 202.304 927.428 198.352 939.647 200.455C947.088 201.735 954.519 204.779 962.365 209.762C980.616 221.237 997.726 242.137 1014.27 262.346C1016.78 265.401 1019.36 268.561 1021.88 271.602C1039.38 292.697 1056.4 316.708 1072.46 342.964C1089.98 371.547 1107.15 404.113 1123.47 439.757C1137.9 471.261 1152.05 506.003 1165.54 543.014L1165.22 543.279Z" fill="#A1A1A1"/>
<path d="M1164.07 522.797C1137.49 441.697 1106.68 373.239 1072.49 319.322C1056 293.253 1038.35 270.039 1020.02 250.32C1019.15 249.381 1018.28 248.442 1017.4 247.501C998.348 226.97 978.643 205.741 958.177 196.183C950.248 192.479 942.828 190.56 935.495 190.312C907.206 189.359 883.082 220.318 867.827 246.455C858.85 261.746 850.881 278.506 843.176 294.713C841.271 298.721 839.3 302.864 837.355 306.9C829.947 322.273 823.06 339.751 815.77 358.258C802.509 391.921 788.798 426.727 769.868 454.361C758.916 470.348 747.106 482.339 733.762 491.02C707.472 508.12 680.778 512.61 655.848 514.916C640.476 516.336 624.412 516.094 608.102 514.197C594.706 512.591 581.466 509.842 568.746 506.032C531.972 495.039 496.261 472.338 462.61 438.557C449.133 425.031 435.352 408.948 419.242 387.944C388.625 348.134 365.889 320.094 345.526 297.03C305.024 251.157 274.111 224.169 242.166 206.789C220.779 195.154 198.314 187.158 175.392 183.02C159.488 180.151 142.611 180.407 120.669 183.86C116.173 184.576 111.573 185.419 106.996 186.368C102.672 187.279 98.2801 188.322 93.629 189.424C76.4563 193.497 56.9912 198.114 34.7134 197.251C22.9712 196.797 10.9773 195.554 -0.62117 194.354C-13.8028 192.989 -27.4328 191.577 -40.3553 191.386C-53.3119 191.194 -65.423 192.738 -76.3424 195.98C-115.401 207.567 -146.365 233.23 -159.168 264.627L-159.531 264.297C-156.206 256.14 -151.674 248.307 -146.062 241.015C-140.645 233.975 -134.195 227.404 -126.89 221.483C-112.7 209.977 -95.2496 200.941 -76.4257 195.357C-65.4759 192.11 -53.3384 190.56 -40.3515 190.751C-27.4176 190.943 -13.7801 192.355 -0.592789 193.722C11.0019 194.923 22.9901 196.166 34.7229 196.62C56.9609 197.479 76.4052 192.868 93.559 188.801C98.212 187.696 102.608 186.656 106.934 185.743C111.517 184.793 116.12 183.95 120.62 183.231C142.595 179.776 159.501 179.516 175.439 182.394C198.394 186.538 220.891 194.545 242.308 206.197C274.297 223.599 305.241 250.616 345.779 296.528C366.15 319.601 388.893 347.649 419.518 387.47C435.616 408.457 449.383 424.523 462.844 438.036C496.45 471.769 532.108 494.439 568.827 505.414C581.53 509.22 594.755 511.962 608.132 513.569C624.423 515.463 640.467 515.705 655.82 514.287C680.711 511.985 707.36 507.506 733.589 490.445C746.885 481.797 758.653 469.846 769.567 453.916C788.455 426.341 802.153 391.571 815.399 357.945C822.695 339.427 829.585 321.935 837.006 306.54C838.95 302.506 840.921 298.363 842.826 294.355C850.537 278.134 858.512 261.363 867.504 246.047C877.459 228.988 887.896 215.496 898.524 205.941C910.974 194.748 923.417 189.283 935.502 189.686C942.877 189.934 950.335 191.865 958.302 195.585C978.836 205.177 998.569 226.435 1017.65 246.997C1018.53 247.938 1019.4 248.879 1020.27 249.815C1038.62 269.557 1056.29 292.799 1072.79 318.896C1107.02 372.861 1137.85 441.373 1164.45 522.529L1164.07 522.797Z" fill="#A1A1A1"/>
<path d="M665.26 514.623C664.199 514.623 663.153 514.62 662.124 514.612C646.831 514.516 630.773 512.74 614.398 509.33C601.052 506.497 587.895 502.588 575.292 497.714C557.285 490.764 539.214 480.775 521.576 468.026C504.543 455.714 487.39 440.449 470.59 422.649C454.128 405.211 438.752 385.779 427.195 370.798C400.155 335.842 374.427 306.624 350.727 283.954C312.341 247.239 278.134 224.857 243.072 213.518C221.92 206.677 199.226 203.069 177.376 203.069C177.037 203.069 176.7 203.069 176.362 203.072C157.591 203.168 139.769 208.365 123.31 213.968C119.026 215.437 114.594 217.041 110.138 218.74C107.696 219.682 105.25 220.651 102.662 221.677C84.4116 228.924 63.7246 237.135 38.5927 236.461C23.2869 236.049 7.65384 233.687 -7.46469 231.402C-17.2266 229.925 -27.3195 228.4 -36.947 227.478C-50.1817 226.213 -62.3608 226.618 -73.1498 228.69C-112.001 236.142 -144.407 256.166 -159.84 282.255L-160.195 281.79C-152.28 268.41 -140.373 256.825 -124.806 247.355C-109.939 238.313 -92.0967 231.616 -73.2103 227.994C-62.393 225.919 -50.1817 225.508 -36.9168 226.779C-27.2797 227.701 -17.1812 229.228 -7.41551 230.705C7.69356 232.991 23.3171 235.353 38.6021 235.762C63.6698 236.436 84.3208 228.236 102.541 221.004C105.131 219.975 107.577 219.005 110.02 218.064C114.48 216.364 118.916 214.758 123.204 213.289C139.692 207.677 157.543 202.471 176.36 202.373C198.558 202.257 221.659 205.876 243.172 212.835C261.268 218.69 278.811 227.306 296.801 239.178C314.127 250.613 331.85 265.067 350.98 283.368C374.7 306.055 400.446 335.295 427.504 370.274C439.051 385.246 454.416 404.664 470.86 422.083C504.95 458.2 540.126 483.418 575.409 497.041C587.995 501.908 601.135 505.812 614.462 508.642C630.816 512.047 646.852 513.823 662.124 513.916C686.02 514.062 713.768 512.861 740.832 496.612C754.53 488.388 766.38 476.361 777.061 459.846C795.818 430.843 808.253 393.618 820.281 357.616C826.468 339.097 832.311 321.605 838.664 306.464C840.699 301.613 842.753 296.616 844.74 291.782C851.45 275.451 858.388 258.567 866.382 242.961C875.518 225.006 885.321 210.442 895.518 199.675C907.342 187.192 919.394 180.207 931.342 178.916C938.717 178.119 946.202 178.933 954.225 181.408C975.677 188.02 996.939 207.232 1018.65 228.025C1037.57 246.154 1056.41 269.253 1073.12 294.826C1091.68 323.15 1109.12 356.378 1124.96 393.587C1139.06 426.736 1151.98 463.226 1163.36 502.044L1162.93 502.326C1138.49 418.963 1108.17 349.315 1072.78 295.319C1056.09 269.782 1037.29 246.718 1018.39 228.62C996.721 207.863 975.501 188.688 954.129 182.099C946.149 179.638 938.706 178.829 931.377 179.621C909.422 181.997 886.473 204.642 866.758 243.389C858.78 258.967 851.848 275.837 845.142 292.151C843.156 296.988 841.1 301.988 839.065 306.839C832.723 321.952 826.884 339.43 820.705 357.931C814.803 375.596 808.701 393.863 801.699 411.423C793.761 431.331 785.815 447.329 777.403 460.337C766.675 476.924 754.772 489.005 741.009 497.269C728.872 504.558 715.826 509.375 701.128 512.002C688.68 514.214 676.177 514.623 665.26 514.623Z" fill="#A1A1A1"/>
<path d="M695.592 516.035C685.947 516.035 676.683 515.179 668.394 514.31C653.155 512.715 637.104 509.403 620.689 504.465C607.4 500.409 594.326 495.341 581.831 489.397C547.616 473.153 513.836 446.114 478.562 406.741C463.179 389.573 448.677 371.1 435.145 353.653C408.43 319.308 381.779 291.461 355.929 270.879C317.91 240.61 282.339 224.519 243.984 220.24C222.13 217.802 199.084 218.797 177.336 223.115C159.132 226.729 141.971 235.449 125.95 244.069C121.942 246.236 117.679 248.604 113.281 251.104C112.182 251.732 111.074 252.372 109.95 253.018C91.4992 263.649 70.6211 275.679 43.8265 275.679C43.3744 275.679 42.9243 275.676 42.4684 275.668C24.3406 275.394 5.83252 271.539 -12.0684 267.807C-19.1652 266.327 -26.5041 264.799 -33.546 263.562C-47.3008 261.149 -59.2133 260.436 -69.9663 261.389C-109.076 264.856 -142.088 278.881 -160.534 299.877L-160.85 299.26C-151.731 288.881 -138.545 279.87 -122.723 273.202C-107.16 266.643 -88.9283 262.291 -69.9985 260.614C-59.2152 259.658 -47.2724 260.371 -33.4874 262.79C-26.4379 264.027 -19.0971 265.558 -11.9984 267.035C5.88548 270.761 24.3765 274.614 42.4703 274.887C69.8229 275.304 91.0414 263.074 109.759 252.288C110.881 251.642 111.991 251.002 113.09 250.371C117.492 247.868 121.757 245.5 125.769 243.333C141.816 234.697 159.01 225.965 177.262 222.34C199.044 218.016 222.128 217.018 244.018 219.459C263.025 221.579 281.148 226.585 299.419 234.759C318.237 243.178 336.8 254.765 356.169 270.189C382.052 290.798 408.737 318.68 435.48 353.058C449.006 370.5 463.499 388.962 478.869 406.113C514.095 445.432 547.824 472.432 581.984 488.65C594.46 494.583 607.517 499.645 620.788 503.696C637.179 508.628 653.208 511.937 668.424 513.527C694.031 516.205 721.272 517.58 748.07 502.763C762.171 494.964 774.105 482.861 784.549 465.76C803.158 435.299 814.739 393.75 824.959 357.092C830.1 338.647 834.957 321.225 840.316 306.374C842.249 301.016 844.195 295.477 846.077 290.122C851.963 273.365 858.05 256.039 865.255 239.858C873.59 221.007 882.76 205.372 892.509 193.387C903.706 179.624 915.371 171.123 927.176 168.127C934.554 166.253 942.067 165.954 950.14 167.205C972.696 170.709 995.611 188.021 1017.02 206.209C1036.78 223.002 1056.29 245.314 1073.44 270.733C1092.52 298.924 1110.1 332.485 1125.69 370.477C1139.63 404.453 1151.94 441.816 1162.26 481.536L1161.78 481.815C1139.82 397.386 1109.15 324.585 1073.08 271.279C1055.96 245.909 1036.48 223.639 1016.76 206.88C995.407 188.734 972.55 171.464 950.089 167.975C942.064 166.729 934.598 167.028 927.267 168.888C905.469 174.421 883.602 199.774 865.692 240.28C858.5 256.428 852.421 273.737 846.54 290.477C844.658 295.835 842.712 301.374 840.777 306.737C835.43 321.555 830.578 338.96 825.441 357.385C815.204 394.1 803.604 435.717 784.935 466.279C774.432 483.472 762.432 495.643 748.252 503.487C735.946 510.291 722.672 514.232 707.667 515.525C703.609 515.892 699.569 516.035 695.592 516.035Z" fill="#A1A1A1"/>
<path d="M714.63 519.086C714.492 519.086 714.356 519.086 714.218 519.086C700.588 519.036 687.206 516.55 674.665 514.007C659.448 510.924 643.407 506.073 626.983 499.596C613.754 494.322 600.763 488.09 588.374 481.077C555.527 462.511 523.17 433.838 486.541 390.834C473.35 375.352 460.369 358.68 447.813 342.56C446.244 340.542 444.672 338.527 443.1 336.511C416.247 302.175 388.671 275.694 361.141 257.808C323.442 233.317 285.421 223.226 244.906 226.961C222.691 229.01 199.666 234.61 178.32 243.156C161.479 249.901 146.472 260.722 128.601 274.167C124.979 276.904 121.111 279.858 116.431 283.465L116.17 283.668C107.142 290.675 96.9095 298.615 85.4321 304.653C72.2504 311.586 59.4622 314.924 46.3486 314.884C25.8999 314.808 5.03131 309.137 -15.1488 303.649C-20.0931 302.305 -25.2076 300.915 -30.1444 299.658C-44.302 296.059 -56.2864 294.241 -66.7822 294.103C-105.429 293.595 -139.857 302.13 -161.238 317.514L-161.484 316.753C-151.011 309.216 -136.884 303.1 -120.63 299.063C-104.347 295.019 -85.7234 293.012 -66.7765 293.26C-56.2505 293.398 -44.2358 295.219 -30.0479 298.827C-25.1074 300.084 -19.9928 301.473 -15.0466 302.818C5.10887 308.297 25.951 313.963 46.3505 314.039C46.4413 314.039 46.534 314.039 46.6248 314.039C75.8045 314.039 98.035 296.789 115.909 282.918L116.172 282.716C120.854 279.105 124.722 276.151 128.346 273.414C146.247 259.947 161.28 249.107 178.175 242.342C199.556 233.779 222.619 228.17 244.872 226.118C264.698 224.292 283.399 225.684 302.047 230.38C322.142 235.439 341.547 244.157 361.367 257.035C388.951 274.956 416.574 301.479 443.471 335.872C445.042 337.887 446.614 339.905 448.184 341.923C460.734 358.037 473.711 374.703 486.891 390.175C523.472 433.125 555.782 461.759 588.575 480.294C600.947 487.298 613.919 493.519 627.129 498.787C643.53 505.255 659.548 510.098 674.741 513.176C701.953 518.695 728.595 522.522 755.321 508.948C769.825 501.58 781.84 489.401 792.048 471.711C810.49 439.757 820.564 395.479 829.454 356.411C833.615 338.121 837.545 320.843 841.979 306.324C843.685 300.738 845.397 294.96 847.052 289.37C852.227 271.895 857.578 253.828 864.14 236.792C871.692 217.036 880.228 200.328 889.508 187.131C900.087 172.091 911.36 162.079 923.015 157.378C930.243 154.464 937.618 153.043 945.543 153.043C945.715 153.043 945.887 153.043 946.061 153.046C970.699 153.237 996.055 169.918 1015.39 184.428C1035.99 199.888 1056.18 221.411 1073.77 246.671C1093.37 274.733 1111.09 308.624 1126.43 347.405C1140.2 382.207 1151.89 420.447 1161.18 461.068L1160.64 461.342C1146.82 400.9 1120.47 314.701 1073.38 247.283C1055.83 222.079 1035.69 200.607 1015.14 185.183C995.856 170.713 970.578 154.08 946.059 153.891C937.984 153.821 930.5 155.236 923.165 158.195C901.57 166.908 880.783 194.97 864.631 237.212C858.085 254.208 852.74 272.256 847.57 289.711C845.915 295.303 844.202 301.084 842.495 306.674C838.073 321.156 834.146 338.411 829.991 356.681C821.086 395.82 810.993 440.182 792.479 472.261C782.203 490.069 770.107 502.33 755.505 509.745C743.129 516.028 729.752 519.086 714.63 519.086Z" fill="#A1A1A1"/>
<path d="M729.769 523.057C726.833 523.057 723.833 522.916 720.762 522.634C707.317 521.402 694.251 517.707 680.935 513.705C665.499 509.065 649.909 502.859 633.275 494.73C620.115 488.242 607.209 480.851 594.916 472.759C563.732 452.262 532.768 422.089 494.521 374.928C485.022 363.217 475.527 350.933 466.344 339.053C461.344 332.587 456.177 325.899 451.057 319.368C423.884 284.801 395.387 259.692 366.357 244.737C327.999 224.976 288.577 221.357 245.834 233.674C223.252 240.182 200.248 250.388 179.311 263.188C162.492 273.47 147.841 287.91 132.329 303.198L131.256 304.255C128.833 306.65 126.384 309.08 123.904 311.538C122.476 312.956 121.038 314.382 119.588 315.819C110.543 324.83 100.773 334.23 89.57 341.466C76.5623 349.865 63.6965 353.997 50.233 354.099C27.8191 354.262 4.95689 346.5 -17.1506 338.985C-20.3056 337.911 -23.5703 336.804 -26.7385 335.752C-41.5922 330.82 -53.3023 327.982 -63.5957 326.815C-101.58 322.511 -137.427 325.543 -161.948 335.138L-162.105 334.253C-137.52 324.633 -101.599 321.589 -63.5484 325.901C-53.2267 327.071 -41.4863 329.918 -26.6042 334.859C-23.4341 335.913 -20.1694 337.021 -17.0126 338.095C4.82448 345.516 27.3973 353.185 49.5143 353.185C49.7526 353.185 49.991 353.185 50.2312 353.183C78.8378 352.968 99.2014 335.025 119.249 315.058C120.7 313.621 122.137 312.195 123.565 310.777C126.045 308.316 128.493 305.889 130.918 303.491L131.99 302.434C147.528 287.12 162.204 272.655 179.078 262.339C200.053 249.514 223.097 239.291 245.719 232.772C288.57 220.424 328.098 224.054 366.559 243.869C395.661 258.864 424.224 284.028 451.458 318.672C456.578 325.205 461.747 331.891 466.746 338.36C475.926 350.237 485.419 362.518 494.912 374.221C533.114 421.328 564.034 451.459 595.164 471.922C607.44 480 620.326 487.382 633.468 493.859C650.077 501.977 665.644 508.175 681.058 512.806C704.455 519.838 733.574 528.593 762.573 515.109C777.481 508.178 789.575 495.922 799.545 477.641C817.809 444.156 826.277 397.06 833.751 355.511C836.996 337.461 840.062 320.411 843.641 306.261C845.035 300.748 846.433 295.046 847.783 289.53C852.315 271.032 857.003 251.905 863.021 233.713C869.81 213.039 877.71 195.256 886.504 180.859C896.468 164.545 907.352 153.025 918.852 146.619C926.232 142.506 933.796 139.972 941.977 138.87C952.932 137.393 964.593 138.972 977.625 143.684C988.653 147.676 1000.47 153.871 1013.77 162.628C1035.21 176.752 1056.07 197.489 1074.1 222.594C1094.22 250.524 1112.08 284.75 1127.17 324.317C1140.77 359.947 1151.84 399.064 1160.09 440.585L1159.5 440.844C1142.09 353.185 1111.61 275.913 1073.68 223.265C1055.7 198.227 1034.89 177.55 1013.52 163.468C984.877 144.6 962.165 137.072 942.032 139.784C933.906 140.877 926.395 143.394 919.066 147.475C891.705 162.716 873.786 203.005 863.572 234.116C857.568 252.263 852.887 271.367 848.36 289.843C847.008 295.362 845.61 301.067 844.216 306.583C840.649 320.69 837.587 337.72 834.345 355.748C826.856 397.387 818.369 444.581 800.022 478.219C789.973 496.644 777.782 508.998 762.754 515.985C752.569 520.72 741.706 523.057 729.769 523.057Z" fill="#A1A1A1"/>
<path d="M742.883 527.606C722.881 527.606 703.651 519.948 687.198 513.397C671.721 507.236 656.139 499.535 639.562 489.859C626.475 482.164 613.652 473.613 601.452 464.438C564.881 436.968 532.278 397.539 502.494 359.02C496.413 351.156 490.27 343.049 484.331 335.211C476.084 324.325 467.555 313.071 459.009 302.225C431.43 267.316 402.012 243.575 371.574 231.661C332.2 216.252 291.372 219.101 246.76 240.376C223.79 251.329 200.809 266.141 180.299 283.21C164.481 296.373 151.097 312.992 136.928 330.586C135.924 331.831 134.917 333.083 133.905 334.334L133.357 335.016C129.912 339.298 126.351 343.723 122.74 348.165C114.088 358.856 104.561 369.913 93.5413 378.361C80.7493 388.167 67.8532 393.057 54.1117 393.311C29.9917 393.759 5.4082 383.654 -18.3638 373.882C-20.0302 373.197 -21.689 372.515 -23.3403 371.841C-39.0168 365.432 -50.4526 361.632 -60.4169 359.518C-97.4481 351.666 -134.718 349.197 -162.67 352.745L-162.727 351.762C-134.729 348.205 -97.4046 350.677 -60.3242 358.54C-50.3316 360.66 -38.8711 364.468 -23.1662 370.889C-21.515 371.562 -19.8562 372.244 -18.1879 372.932C5.53871 382.685 30.0749 392.764 54.1022 392.324C83.944 391.772 104.96 368.848 122.316 347.404C125.927 342.962 129.489 338.537 132.933 334.258L133.482 333.576C134.494 332.322 135.5 331.073 136.504 329.827C150.698 312.203 164.105 295.556 179.976 282.348C200.523 265.248 223.548 250.41 246.558 239.438C267.708 229.353 287.574 223.529 307.289 221.635C329.281 219.524 350.965 222.577 371.741 230.708C402.275 242.659 431.78 266.468 459.437 301.472C467.988 312.324 476.519 323.581 484.768 334.47C490.707 342.308 496.846 350.412 502.926 358.273C532.679 396.749 565.242 436.136 601.747 463.556C613.93 472.716 626.734 481.257 639.802 488.94C656.354 498.602 671.912 506.291 687.367 512.444C711.097 521.892 740.631 533.652 769.812 521.278C785.126 514.784 797.299 502.453 807.031 483.579C825.106 448.519 831.87 398.525 837.837 354.414C840.236 336.691 842.5 319.951 845.292 306.205C846.324 301.12 847.361 295.866 848.363 290.784C852.286 270.907 856.343 250.351 861.891 230.641C867.927 209.031 875.192 190.168 883.484 174.584C892.839 156.999 903.333 143.972 914.674 135.862C922.04 130.597 929.628 126.947 937.879 124.701C948.993 121.676 961.326 121.778 974.534 125.002C986.1 127.827 998.748 133.151 1012.13 140.832C1034.4 153.62 1055.94 173.567 1074.42 198.517C1095.06 226.317 1113.06 260.873 1127.91 301.23C1141.32 337.688 1151.78 377.684 1158.99 420.104L1158.35 420.347C1143.07 330.462 1113.1 251.941 1073.98 199.25C1055.56 174.381 1034.09 154.499 1011.89 141.753C983.115 125.234 958.944 119.971 937.998 125.673C929.808 127.903 922.272 131.527 914.96 136.753C887.976 156.046 871.539 198.664 862.502 231.021C856.968 250.681 852.916 271.209 848.999 291.06C847.996 296.142 846.958 301.399 845.925 306.489C843.143 320.191 840.88 336.908 838.486 354.608C835.615 375.83 832.361 399.881 827.638 422.43C822.227 448.265 815.658 468.463 807.557 484.18C802.871 493.267 797.488 501.001 791.555 507.168C785.173 513.8 777.919 518.868 769.994 522.228C760.926 526.075 751.826 527.606 742.883 527.606Z" fill="#A1A1A1"/>
<path d="M754.705 532.597C748.093 532.597 741.164 531.638 733.846 529.725C719.433 525.956 705.637 519.118 693.463 513.089C678.12 505.488 662.099 496.031 645.849 484.985C632.845 476.095 620.106 466.382 607.99 456.111C573.211 426.665 543.248 387.512 510.469 343.108C507.556 339.162 504.598 335.137 501.738 331.242C490.474 315.911 478.828 300.059 466.963 285.081C438.926 249.764 408.589 227.393 376.793 218.588C336.686 207.48 293.247 217.063 247.687 247.075C224.308 262.476 201.348 281.891 181.289 303.225C166.185 319.288 153.753 338.226 140.59 358.278C139.253 360.315 137.91 362.359 136.559 364.411C133.198 369.524 129.578 375.012 125.895 380.505C118.172 392.064 108.76 405.235 97.5154 415.25C84.9277 426.462 71.9995 432.114 57.995 432.522C32.358 433.275 6.26135 420.625 -18.9765 408.392L-19.9374 407.927C-32.2944 401.941 -45.3663 395.892 -57.2334 392.219C-93.4059 381.027 -131.105 373.256 -163.383 370.338L-163.339 369.284C-131.027 372.204 -93.2943 379.981 -57.0897 391.185C-45.1886 394.869 -32.0939 400.926 -19.718 406.921L-18.7571 407.386C6.42592 419.591 32.4696 432.21 57.9818 431.463C87.4452 430.6 107.794 406.101 125.394 379.753C129.076 374.262 132.693 368.774 136.054 363.664C137.405 361.615 138.748 359.569 140.085 357.533C153.27 337.448 165.726 318.476 180.878 302.359C200.975 280.983 223.979 261.532 247.401 246.103C268.777 232.024 289.812 222.322 309.918 217.271C332.892 211.502 355.436 211.592 376.925 217.542C408.842 226.381 439.291 248.831 467.423 284.27C479.298 299.262 490.949 315.119 502.218 330.458C505.078 334.35 508.037 338.375 510.949 342.321C543.696 386.683 573.627 425.794 608.343 455.19C620.443 465.444 633.163 475.142 646.148 484.021C662.375 495.05 678.369 504.493 693.69 512.083C717.706 523.983 747.595 538.789 777.068 527.444C792.788 521.393 805.041 508.988 814.529 489.517C832.405 452.833 837.578 397.541 841.736 353.111C843.355 335.805 844.883 319.46 846.956 306.156C847.609 301.962 848.269 297.641 848.906 293.461C852.216 271.747 855.642 249.291 860.777 227.576C868.708 193.784 883.774 148.579 910.51 125.12C917.892 118.643 925.509 113.874 933.794 110.542C955.47 101.7 981.279 104.561 1010.5 119.04C1033.61 130.492 1055.83 149.65 1074.75 174.446C1095.92 202.113 1114.05 237.002 1128.65 278.15C1135.35 297.024 1141.27 317.182 1146.25 338.065C1151 358.013 1154.92 378.727 1157.91 399.632L1157.21 399.852C1144.07 307.734 1114.62 227.965 1074.28 175.238C1055.43 150.535 1033.3 131.451 1010.28 120.041C981.19 105.627 955.519 102.774 933.979 111.56C925.755 114.866 918.196 119.598 910.869 126.028C884.316 149.323 869.338 194.297 861.447 227.923C856.323 249.581 852.905 272.006 849.597 293.692C848.959 297.872 848.301 302.196 847.646 306.393C845.581 319.651 844.053 335.974 842.437 353.255C840.345 375.612 837.975 400.951 833.924 424.867C829.269 452.348 823.112 473.699 815.102 490.137C810.532 499.515 805.187 507.424 799.217 513.642C792.786 520.342 785.392 525.33 777.244 528.465C770.092 531.221 762.623 532.597 754.705 532.597Z" fill="#A1A1A1"/>
<path d="M765.598 537.868C757.673 537.868 749.314 536.337 740.387 533.268C725.921 528.298 712.003 520.051 699.724 512.773C684.265 503.613 668.254 492.623 652.134 480.106C639.216 470.029 626.562 459.155 614.524 447.782C581.401 416.51 552.991 376.204 522.913 333.536C521.424 331.425 519.936 329.311 518.443 327.197C504.456 307.376 489.994 286.879 474.917 267.938C446.392 232.173 415.135 211.169 382.015 205.509C340.414 198.398 295.532 214.636 248.612 253.767C225.142 273.339 201.584 298.01 182.276 323.234C167.697 342.279 156.003 363.709 143.624 386.399C142.158 389.085 140.688 391.779 139.207 394.48C136.249 399.883 132.729 406.29 129.044 412.843C122.22 425.011 112.921 440.474 101.486 452.106C89.0983 464.708 76.1417 471.131 61.8743 471.737C50.1472 472.174 37.2058 469.477 22.3085 463.487C9.5184 458.346 -2.85371 451.627 -16.5442 444.017C-29.0411 436.984 -42.2304 429.721 -54.0634 424.923C-89.1143 410.712 -126.138 398.268 -164.104 387.929L-163.967 386.821C-125.979 397.163 -88.9346 409.618 -53.8648 423.835C-41.9996 428.647 -28.7914 435.921 -16.2794 442.96C6.66797 455.719 35.2273 471.605 61.8535 470.61C92.2949 469.313 111.858 441.731 128.464 412.116C132.146 405.568 135.664 399.164 138.621 393.764C140.102 391.063 141.571 388.369 143.035 385.686C155.436 362.959 167.15 341.493 181.777 322.385C201.124 297.111 224.728 272.392 248.243 252.783C295.305 213.534 340.342 197.254 382.102 204.39C398.114 207.127 413.841 213.483 428.844 223.281C444.943 233.791 460.608 248.53 475.405 267.079C490.499 286.039 504.97 306.548 518.965 326.382C520.458 328.499 521.948 330.61 523.437 332.721C553.487 375.353 581.872 415.619 614.931 446.832C626.951 458.188 639.586 469.048 652.486 479.108C668.583 491.606 684.569 502.581 700.006 511.728C724.266 526.103 754.459 543.992 784.314 533.617C800.486 527.997 812.821 515.516 822.017 495.464C839.734 457.165 842.889 398.66 845.426 351.651C846.334 334.838 847.19 318.958 848.611 306.116C848.904 303.467 849.197 300.803 849.491 298.126C852.142 273.939 854.885 248.927 859.654 224.518C866.459 189.409 880.081 141.803 906.335 114.384C913.659 106.734 921.3 100.849 929.698 96.3899C941.371 90.1354 954.378 87.1956 968.358 87.6466C981.122 88.0581 994.75 91.291 1008.86 97.2524C1032.8 107.363 1055.7 125.732 1075.07 150.372C1096.76 177.904 1115.03 213.131 1129.38 255.069C1135.97 274.311 1141.67 294.884 1146.33 316.215C1150.8 336.645 1154.32 357.824 1156.81 379.163L1156.06 379.355C1145.23 286.366 1115.53 203.218 1074.58 151.229C1055.29 126.695 1032.49 108.403 1008.65 98.3319C979.259 85.9131 952.044 85.6087 929.95 97.4469C921.616 101.872 914.033 107.712 906.766 115.303C880.694 142.533 867.149 189.894 860.378 224.828C855.623 249.172 852.884 274.148 850.236 298.303C849.943 300.981 849.649 303.647 849.356 306.297C847.94 319.09 847.085 334.951 846.179 351.738C843.635 398.882 840.47 457.557 822.639 496.101C818.206 505.766 812.904 513.856 806.883 520.138C800.405 526.897 792.869 531.802 784.486 534.716C778.434 536.813 772.165 537.868 765.598 537.868Z" fill="#A1A1A1"/>
<path d="M775.837 543.355C766.807 543.355 757.24 541.179 746.929 536.81C732.342 530.629 718.338 520.976 705.985 512.461C690.372 501.699 674.369 489.17 658.418 475.23C645.592 463.983 633.023 451.945 621.058 439.456C591.594 408.711 566.413 371.046 539.753 331.168C535.395 324.649 530.887 317.909 526.416 311.283C510.698 288.001 497.276 268.804 482.869 250.796C453.835 214.557 421.661 194.92 387.238 192.428C343.984 189.297 297.652 212.184 249.533 260.452C225.629 284.433 202.091 313.831 183.258 343.235C169.07 365.386 157.978 389.499 146.236 415.027C144.781 418.19 143.321 421.363 141.852 424.54C139.234 430.208 135.769 437.677 132.192 445.166C117.139 476.757 97.4738 509.281 65.7519 510.944C64.7627 510.992 63.7697 511.015 62.7785 511.015C38.0078 511.015 12.7189 496.406 -13.1527 480.095L-14.768 479.069C-27.5827 470.917 -39.6881 463.22 -50.8932 457.616C-93.1203 436.499 -133.959 418.674 -164.82 405.506L-164.599 404.353C-133.73 417.527 -92.8801 435.355 -50.6379 456.48C-39.4025 462.098 -27.2839 469.807 -14.4521 477.966L-12.8387 478.992C13.9805 495.901 40.1717 510.984 65.7236 509.749C97.0936 508.103 116.595 475.83 131.535 444.476C135.11 436.992 138.572 429.529 141.189 423.863C142.659 420.684 144.117 417.513 145.572 414.351C157.333 388.783 168.442 364.631 182.675 342.409C201.546 312.943 225.131 283.486 249.083 259.457C271.313 237.156 293.551 220.033 315.178 208.559C339.993 195.393 364.251 189.564 387.276 191.23C421.876 193.733 454.213 213.466 483.383 249.874C497.811 267.91 511.246 287.127 526.98 310.429C531.453 317.055 535.96 323.797 540.32 330.317C566.954 370.155 592.111 407.783 621.517 438.467C633.466 450.942 646.016 462.96 658.823 474.19C674.751 488.113 690.73 500.622 706.32 511.367C730.791 528.236 761.248 549.229 791.561 539.778C808.13 534.612 820.542 522.058 829.503 501.4C846.998 461.356 848.049 399.559 848.895 349.903C849.171 333.702 849.432 318.397 850.266 306.066L850.285 305.784C852.156 278.17 854.091 249.618 858.526 221.446C862.368 196.873 867.719 174.781 874.428 155.778C881.994 134.354 891.323 116.811 902.157 103.634C909.405 94.8171 917.073 87.8128 925.598 82.2236C948.63 67.0341 976.855 64.689 1007.22 75.4476C1019.44 79.777 1031.5 86.3359 1043.05 94.9383C1054.68 103.591 1065.56 114.141 1075.39 126.29C1097.6 153.689 1116.02 189.249 1130.12 231.982C1142.8 270.391 1151.65 314.206 1155.72 358.686L1154.92 358.847C1146.22 263.646 1117.04 179.217 1074.88 127.211C1055.16 102.853 1031.7 85.355 1007.04 76.6202C976.844 65.9236 948.797 68.2433 925.925 83.3284C917.466 88.8755 909.861 95.8233 902.667 104.569C882.44 129.173 867.448 169.685 859.311 221.725C854.887 249.823 852.956 278.336 851.087 305.911L851.068 306.192C850.236 318.479 849.975 333.761 849.699 349.94C848.849 399.747 847.794 461.731 830.177 502.057C825.857 512.018 820.593 520.282 814.536 526.618C808.005 533.451 800.331 538.273 791.725 540.959C786.599 542.555 781.316 543.355 775.837 543.355Z" fill="#A1A1A1"/>
<path d="M66.3387 550.259C55.2622 550.259 43.2003 547.043 29.5874 540.476C16.0615 533.951 2.68498 524.942 -9.75713 516.182C-12.0099 514.587 -14.2456 512.994 -16.4662 511.413C-27.5199 503.541 -37.9609 496.105 -47.7189 490.313C-86.6284 467.226 -123.716 446.475 -159.584 426.412L-165.527 423.086L-165.228 421.9L-159.285 425.226C-123.416 445.294 -86.322 466.045 -47.405 489.138C-37.6204 494.944 -27.1662 502.388 -16.0992 510.271C-13.8805 511.853 -11.6448 513.445 -9.39397 515.038C16.1466 533.02 43.2816 550.448 69.5995 548.895C101.951 546.888 121.339 509.333 134.613 476.843C138.014 468.534 141.29 460.252 143.764 453.967C145.13 450.503 146.486 447.042 147.838 443.589C159.055 414.966 169.649 387.93 183.582 362.439C201.972 328.796 225.534 294.595 249.931 266.141C272.564 239.742 295.403 218.884 317.817 204.149C343.526 187.246 368.637 178.474 392.453 178.077C428.289 177.282 461.573 195.653 491.367 232.676C507.884 253.223 522.692 275.451 535.002 294.485C541.699 304.843 548.397 315.461 554.875 325.729C577.806 362.081 601.517 399.667 628.109 430.11C639.988 443.713 652.456 456.893 665.165 469.28C680.893 484.577 696.864 498.619 712.639 511.016C737.297 530.391 767.982 554.504 798.811 545.946C815.779 541.237 828.269 528.609 836.994 507.343C854.256 465.484 853.091 400.301 852.152 347.926C851.876 332.437 851.613 317.806 851.929 306.027C852.638 279.473 853.707 248.612 857.409 218.385C860.528 192.773 865.238 169.601 871.407 149.516C878.387 126.795 887.33 107.747 897.986 92.8984C905.047 83.0587 912.961 74.7072 921.505 68.0722C933.697 58.5735 947.378 52.6009 962.172 50.3235C976.025 48.1898 990.631 49.3116 1005.58 53.655C1018.19 57.3192 1030.62 63.3454 1042.53 71.5701C1054.5 79.8455 1065.67 90.1559 1075.71 102.214C1087.29 116.098 1097.94 132.494 1107.36 150.948C1116.28 168.431 1124.19 187.93 1130.86 208.901C1143.35 248.133 1151.57 292.853 1154.62 338.218L1153.78 338.345C1147.21 240.926 1118.56 155.221 1075.18 103.203C1055.31 79.3522 1030.54 62.1982 1005.42 54.9009C974.364 45.8785 945.483 50.8224 921.898 69.1968C913.423 75.7783 905.573 84.0649 898.567 93.8258C878.487 121.803 864.92 163.786 858.245 218.614C854.551 248.759 853.486 279.566 852.778 306.078C852.464 317.814 852.725 332.423 853.004 347.892C853.465 373.73 853.989 403.018 852.234 431.331C850.197 464.184 845.449 489.264 837.72 508.005C833.514 518.259 828.289 526.701 822.195 533.094C815.613 539.999 807.797 544.743 798.968 547.192C794.513 548.43 790.063 548.991 785.639 548.991C759.145 548.991 733.472 528.815 712.244 512.135C696.446 499.719 680.45 485.657 664.702 470.337C651.974 457.933 639.488 444.733 627.593 431.111C600.946 400.605 577.21 362.98 554.257 326.594C547.781 316.329 541.085 305.714 534.391 295.361C522.098 276.35 507.311 254.153 490.825 233.645C461.191 196.82 428.102 178.556 392.466 179.339C336.503 180.275 284.352 227.597 250.456 267.133C226.109 295.531 202.595 329.658 184.244 363.233C170.353 388.649 159.774 415.642 148.574 444.22C147.222 447.673 145.864 451.134 144.498 454.601C142.022 460.889 138.744 469.176 135.341 477.494C129.769 491.133 121.021 510.987 109.434 525.87C103.807 533.096 97.8184 538.776 91.6352 542.753C84.7408 547.187 77.3376 549.678 69.6355 550.155C68.5441 550.225 67.4452 550.259 66.3387 550.259Z" fill="#A1A1A1"/>
<path d="M69.8952 589.499C58.8055 589.499 46.7681 586.035 33.2271 578.966C19.2075 571.649 5.34679 561.361 -6.36142 552.26C-9.959 549.458 -13.549 546.617 -17.0217 543.869C-26.7288 536.188 -35.8986 528.93 -44.5445 523.006C-75.5931 501.725 -106.439 480.949 -136.271 460.856C-146.139 454.209 -156.342 447.338 -166.23 440.663L-165.86 439.443C-155.971 446.117 -145.769 452.989 -135.901 459.635C-106.068 479.729 -75.2185 500.508 -44.1682 521.791C-35.4995 527.733 -26.3183 534.996 -16.6 542.688C-13.1291 545.436 -9.53909 548.274 -5.9453 551.076C18.3374 569.944 46.5033 589.917 73.4738 588.037C106.588 585.675 125.187 544.667 137.693 509.206C140.899 500.121 143.999 491.001 146.341 484.07C147.544 480.513 148.739 476.958 149.933 473.412C160.661 441.52 170.794 411.398 184.492 382.47C202.308 344.848 225.851 305.909 250.78 272.827C285.498 226.954 339.157 170.999 397.63 164.931C434.817 160.968 469.043 177.975 499.354 215.485C512.972 232.346 526.44 251.794 543.024 278.551C551.405 292.072 559.722 306.086 567.764 319.635C588.69 354.887 610.325 391.34 634.704 421.767C646.514 436.511 658.897 450.85 671.51 464.384C686.782 480.758 702.747 496.333 718.961 510.68C743.866 532.583 774.862 559.848 806.062 552.13C823.168 547.987 836.094 534.923 844.485 513.304C861.508 469.551 857.856 397.97 855.187 345.704C854.438 331.036 853.73 317.183 853.592 306.007C853.282 281.17 853.309 248.42 856.291 215.344C861.44 158.028 874.066 113.223 893.818 82.1821C900.741 71.2459 908.681 61.7444 917.414 53.9397C929.838 42.8232 943.855 35.3454 959.08 31.7179C973.423 28.3017 988.517 28.3553 1003.95 31.8785C1016.96 34.917 1029.77 40.4245 1042 48.2433C1054.35 56.1411 1065.8 66.2035 1076.04 78.1515C1087.88 91.957 1098.69 108.409 1108.18 127.054C1117.18 144.724 1125.06 164.499 1131.61 185.836C1143.9 225.894 1151.48 271.516 1153.54 317.769L1152.64 317.857C1148.22 218.213 1120.1 131.229 1075.49 79.2085C1055.26 55.6083 1029.8 39.2689 1003.81 33.2033C971.766 25.889 942.053 33.457 917.88 55.0897C909.217 62.8296 901.343 72.255 894.475 83.1038C874.852 113.939 862.306 158.49 857.184 215.525C854.209 248.511 854.184 281.195 854.493 305.985C854.633 317.121 855.338 330.958 856.085 345.606C857.464 372.622 859.026 403.246 858.134 433.143C857.092 467.956 852.883 494.397 845.264 513.978C841.165 524.539 835.983 533.164 829.856 539.613C823.215 546.606 815.26 551.262 806.211 553.455C792.176 556.925 777.071 553.807 760.031 543.923C745.219 535.329 731.027 522.848 718.507 511.838C702.269 497.472 686.282 481.874 670.988 465.478C658.357 451.923 645.956 437.565 634.129 422.802C609.698 392.313 588.039 355.82 567.093 320.532C559.054 306.985 550.739 292.98 542.366 279.47C525.81 252.761 512.367 233.349 498.781 216.528C468.649 179.232 434.641 162.326 397.691 166.264C339.47 172.31 285.988 228.093 251.374 273.827C226.494 306.842 203 345.699 185.222 383.243C171.562 412.088 161.444 442.168 150.733 474.013C149.539 477.561 148.344 481.116 147.141 484.673C144.797 491.609 141.695 500.739 138.486 509.832C125.869 545.608 107.083 586.982 73.5135 589.375C72.32 589.457 71.1114 589.499 69.8952 589.499Z" fill="#A1A1A1"/>
<path d="M73.5235 628.741C43.2221 628.741 11.4284 601.009 -16.7564 576.422C-25.4175 568.868 -33.5981 561.732 -41.372 555.697L-166.934 458.238L-166.497 456.99L-40.9351 554.449C-33.1404 560.497 -24.9503 567.642 -16.2779 575.208C12.9964 600.744 46.1785 629.688 77.348 627.18C111.192 624.46 129.021 579.999 140.773 541.573C144.616 529.005 148.327 516.217 151.917 503.849C161.736 470.026 171.888 435.05 185.398 402.498C196.127 376.651 209.454 349.545 223.939 324.112C239.829 296.211 256.843 270.613 274.504 248.03C293.976 223.133 313.776 202.538 333.351 186.818C355.003 169.433 376.333 158.083 396.753 153.08C437.66 143.06 474.865 158.266 507.332 198.282C534.314 231.533 557.246 272.65 579.424 312.415C598.728 347.028 618.689 382.815 641.292 413.409C667.4 448.743 695.657 481.351 725.279 510.323C750.237 534.735 781.299 565.12 813.312 558.29C840.349 552.523 855.982 525.566 861.1 475.874C865.454 433.607 861.312 383.467 857.985 343.18C856.85 329.451 855.779 316.482 855.253 305.966C852.352 247.993 854.202 200.136 860.907 159.664C865.091 134.412 871.265 111.903 879.256 92.7617C888.182 71.3797 899.643 53.5549 913.318 39.7832C925.149 27.869 938.482 19.2159 952.95 14.0635C966.722 9.1591 981.222 7.51586 996.047 9.17884C1025.2 12.4484 1053.73 28.3904 1076.36 54.0651C1088.45 67.7888 1099.44 84.3002 1109 103.137C1118.06 120.99 1125.92 141.044 1132.34 162.748C1144.44 203.631 1151.39 250.158 1152.44 297.293L1151.49 297.341C1149.26 196.965 1120.96 106.44 1075.78 55.1897C1027.8 0.762489 959.701 -5.22703 913.844 40.9529C868.418 86.6988 849.56 173.351 856.194 305.862C856.717 316.344 857.788 329.296 858.921 343.008C862.256 383.382 866.407 433.629 862.032 476.089C859.649 499.215 854.86 517.801 847.799 531.333C843.827 538.941 839.04 545.158 833.568 549.809C827.744 554.759 820.974 558.082 813.444 559.688C810.367 560.345 807.237 560.675 804.053 560.675C792.453 560.675 780.096 556.303 766.557 547.447C751.304 537.469 736.584 523.072 724.757 511.504C695.095 482.49 666.799 449.839 640.653 414.454C617.999 383.796 598.017 347.966 578.692 313.317C556.543 273.603 533.639 232.536 506.725 199.37C474.476 159.627 437.526 144.52 396.901 154.472C314.724 174.603 230.073 297.539 186.197 403.242C172.722 435.704 162.583 470.632 152.778 504.41C149.186 516.784 145.473 529.58 141.626 542.159C133.824 567.671 126.118 585.938 117.375 599.642C111.918 608.194 105.998 614.936 99.779 619.679C92.8638 624.953 85.332 627.952 77.3916 628.592C76.1091 628.691 74.8172 628.741 73.5235 628.741Z" fill="#A1A1A1"/>
</g>
</svg>
