<svg width="37" height="29" viewBox="0 0 37 29" fill="none" xmlns="http://www.w3.org/2000/svg">
<g clip-path="url(#clip0_5_48192)">
<path d="M0 2.25978V9.01274C0 11.0695 2.50611 12.1664 4.03763 10.7267L11.3471 3.97373C12.9483 2.49973 11.904 -0.105469 9.71119 -0.105469H2.40169C1.07902 -0.105469 0 0.957179 0 2.25978Z" fill="white"/>
<path d="M34.5982 -0.105469H27.2887C25.1307 -0.105469 24.0517 2.49973 25.6528 3.97373L32.9623 10.7267C34.4938 12.1321 36.9999 11.0695 36.9999 9.01273V2.25978C36.9999 0.957179 35.9209 -0.105469 34.5982 -0.105469Z" fill="white"/>
<path d="M20.1533 16.3827L32.9624 28.2432C34.4939 29.6486 37 28.586 37 26.5292V19.7077C37 19.0564 36.7215 18.4394 36.2342 17.9938L20.1533 3.08243C19.2135 2.22545 17.7865 2.22545 16.8467 3.08243L0.765757 17.9938C0.278457 18.4394 0 19.0564 0 19.7077V26.5292C0 28.586 2.50611 29.6829 4.03763 28.2432L16.8467 16.3827C17.7865 15.5257 19.2135 15.5257 20.1533 16.3827Z" fill="white"/>
</g>
<defs>
<clipPath id="clip0_5_48192">
<rect width="37" height="29" fill="white"/>
</clipPath>
</defs>
</svg>
